<?xml version='1.0' encoding='UTF-8' standalone='no'?>
<!-- Created with Fritzing (http://www.fritzing.org/) -->
<svg xmlns:svg='http://www.w3.org/2000/svg' xmlns='http://www.w3.org/2000/svg' version='1.2' baseProfile='tiny' x='0in' y='0in' width='0.51in' height='0.9in' viewBox='0 0 36.72 64.8' >
<g partID='12278170'><g id="schematic" xmlns="http://www.w3.org/2000/svg">
<line stroke="#000000" stroke-linecap="round" y1="57.96" x1="25.2" id="line1-1" y2="7.56" x2="25.2" stroke-width="0.72" xmlns="http://www.w3.org/2000/svg" fill="none"/>
<line stroke="#000000" stroke-linecap="round" y1="7.56" x1="25.2" id="line1-2" y2="7.56" x2="28.44" stroke-width="0.72" xmlns="http://www.w3.org/2000/svg" fill="none"/>
<path stroke="#000000" stroke-linejoin="round" id="shape1" d="M7.2,7.56l1.08,0,0.864,-2.88,1.728,5.76,1.728,-5.76,1.728,5.76,1.728,-5.76,1.728,5.76,1.728,-5.76,1.728,5.76,0.864,-2.88,3.24,0" stroke-width="0.576" xmlns="http://www.w3.org/2000/svg" fill="none"/>
<circle cx="25.2" id="circle1" cy="7.56" r="1.08" xmlns="http://www.w3.org/2000/svg"/>
<text font-size="2.52" text-anchor="end" id="text1-1" font-family="'Droid Sans'" xmlns="http://www.w3.org/2000/svg" y="6.12" x="6.12" fill="#555555">2</text>
<line stroke="#555555" stroke-linecap="round" y1="7.56" x1="7.2" id="connector1pin" y2="7.56" x2="0.36" stroke-width="0.72" xmlns="http://www.w3.org/2000/svg" fill="none"/>
<g width="0.072" id="connector1terminal" height="0.72" xmlns="http://www.w3.org/2000/svg" y="7.2" x="0" fill="none"/>
<path stroke="#000000" stroke-linejoin="round" id="shape2" d="M7.2,14.76l1.08,0,0.864,-2.88,1.728,5.76,1.728,-5.76,1.728,5.76,1.728,-5.76,1.728,5.76,1.728,-5.76,1.728,5.76,0.864,-2.88,3.24,0" stroke-width="0.576" xmlns="http://www.w3.org/2000/svg" fill="none"/>
<circle cx="25.2" id="circle2" cy="14.76" r="1.08" xmlns="http://www.w3.org/2000/svg"/>
<text font-size="2.52" text-anchor="end" id="text1-2" font-family="'Droid Sans'" xmlns="http://www.w3.org/2000/svg" y="13.32" x="6.12" fill="#555555">3</text>
<line stroke="#555555" stroke-linecap="round" y1="14.76" x1="7.2" id="connector2pin" y2="14.76" x2="0.36" stroke-width="0.72" xmlns="http://www.w3.org/2000/svg" fill="none"/>
<g width="0.072" id="connector2terminal" height="0.72" xmlns="http://www.w3.org/2000/svg" y="14.4" x="0" fill="none"/>
<path stroke="#000000" stroke-linejoin="round" id="shape3" d="M7.2,21.96l1.08,0,0.864,-2.88,1.728,5.76,1.728,-5.76,1.728,5.76,1.728,-5.76,1.728,5.76,1.728,-5.76,1.728,5.76,0.864,-2.88,3.24,0" stroke-width="0.576" xmlns="http://www.w3.org/2000/svg" fill="none"/>
<circle cx="25.2" id="circle3" cy="21.96" r="1.08" xmlns="http://www.w3.org/2000/svg"/>
<text font-size="2.52" text-anchor="end" id="text1-3" font-family="'Droid Sans'" xmlns="http://www.w3.org/2000/svg" y="20.52" x="6.12" fill="#555555">4</text>
<line stroke="#555555" stroke-linecap="round" y1="21.96" x1="0.36" id="connector3pin" y2="21.96" x2="7.2" stroke-width="0.72" xmlns="http://www.w3.org/2000/svg" fill="none"/>
<g width="0.072" id="connector3terminal" height="0.72" xmlns="http://www.w3.org/2000/svg" y="21.6" x="0" fill="none"/>
<path stroke="#000000" stroke-linejoin="round" id="shape4" d="M7.2,29.16l1.08,0,0.864,-2.88,1.728,5.76,1.728,-5.76,1.728,5.76,1.728,-5.76,1.728,5.76,1.728,-5.76,1.728,5.76,0.864,-2.88,3.24,0" stroke-width="0.576" xmlns="http://www.w3.org/2000/svg" fill="none"/>
<circle cx="25.2" id="circle4" cy="29.16" r="1.08" xmlns="http://www.w3.org/2000/svg"/>
<text font-size="2.52" text-anchor="end" id="text1-4" font-family="'Droid Sans'" xmlns="http://www.w3.org/2000/svg" y="27.72" x="6.12" fill="#555555">5</text>
<line stroke="#555555" stroke-linecap="round" y1="29.16" x1="0.36" id="connector4pin" y2="29.16" x2="7.2" stroke-width="0.72" xmlns="http://www.w3.org/2000/svg" fill="none"/>
<g width="0.072" id="connector4terminal" height="0.72" xmlns="http://www.w3.org/2000/svg" y="28.8" x="0" fill="none"/>
<path stroke="#000000" stroke-linejoin="round" id="shape5" d="M7.2,36.36l1.08,0,0.864,-2.88,1.728,5.76,1.728,-5.76,1.728,5.76,1.728,-5.76,1.728,5.76,1.728,-5.76,1.728,5.76,0.864,-2.88,3.24,0" stroke-width="0.576" xmlns="http://www.w3.org/2000/svg" fill="none"/>
<circle cx="25.2" id="circle5" cy="36.36" r="1.08" xmlns="http://www.w3.org/2000/svg"/>
<text font-size="2.52" text-anchor="end" id="text1-5" font-family="'Droid Sans'" xmlns="http://www.w3.org/2000/svg" y="34.92" x="6.12" fill="#555555">6</text>
<line stroke="#555555" stroke-linecap="round" y1="36.36" x1="0.36" id="connector5pin" y2="36.36" x2="7.2" stroke-width="0.72" xmlns="http://www.w3.org/2000/svg" fill="none"/>
<g width="0.072" id="connector5terminal" height="0.72" xmlns="http://www.w3.org/2000/svg" y="36" x="0" fill="none"/>
<path stroke="#000000" stroke-linejoin="round" id="shape6" d="M7.2,43.56l1.08,0,0.864,-2.88,1.728,5.76,1.728,-5.76,1.728,5.76,1.728,-5.76,1.728,5.76,1.728,-5.76,1.728,5.76,0.864,-2.88,3.24,0" stroke-width="0.576" xmlns="http://www.w3.org/2000/svg" fill="none"/>
<circle cx="25.2" id="circle6" cy="43.56" r="1.08" xmlns="http://www.w3.org/2000/svg"/>
<text font-size="2.52" text-anchor="end" id="text1-6" font-family="'Droid Sans'" xmlns="http://www.w3.org/2000/svg" y="42.12" x="6.12" fill="#555555">7</text>
<line stroke="#555555" stroke-linecap="round" y1="43.56" x1="0.36" id="connector6pin" y2="43.56" x2="7.2" stroke-width="0.72" xmlns="http://www.w3.org/2000/svg" fill="none"/>
<g width="0.072" id="connector6terminal" height="0.72" xmlns="http://www.w3.org/2000/svg" y="43.2" x="0" fill="none"/>
<path stroke="#000000" stroke-linejoin="round" id="shape7" d="M7.2,50.76l1.08,0,0.864,-2.88,1.728,5.76,1.728,-5.76,1.728,5.76,1.728,-5.76,1.728,5.76,1.728,-5.76,1.728,5.76,0.864,-2.88,3.24,0" stroke-width="0.576" xmlns="http://www.w3.org/2000/svg" fill="none"/>
<circle cx="25.2" id="circle7" cy="50.76" r="1.08" xmlns="http://www.w3.org/2000/svg"/>
<text font-size="2.52" text-anchor="end" id="text1-7" font-family="'Droid Sans'" xmlns="http://www.w3.org/2000/svg" y="49.32" x="6.12" fill="#555555">8</text>
<line stroke="#555555" stroke-linecap="round" y1="50.76" x1="0.36" id="connector7pin" y2="50.76" x2="7.2" stroke-width="0.72" xmlns="http://www.w3.org/2000/svg" fill="none"/>
<g width="0.072" id="connector7terminal" height="0.72" xmlns="http://www.w3.org/2000/svg" y="50.4" x="0" fill="none"/>
<path stroke="#000000" stroke-linejoin="round" id="shape8" d="M7.2,57.96l1.08,0,0.864,-2.88,1.728,5.76,1.728,-5.76,1.728,5.76,1.728,-5.76,1.728,5.76,1.728,-5.76,1.728,5.76,0.864,-2.88,3.24,0" stroke-width="0.576" xmlns="http://www.w3.org/2000/svg" fill="none"/>
<text font-size="2.52" text-anchor="end" id="text1-8" font-family="'Droid Sans'" xmlns="http://www.w3.org/2000/svg" y="56.52" x="6.12" fill="#555555">9</text>
<line stroke="#555555" stroke-linecap="round" y1="57.96" x1="0.36" id="connector8pin" y2="57.96" x2="7.2" stroke-width="0.72" xmlns="http://www.w3.org/2000/svg" fill="none"/>
<g width="0.072" id="connector8terminal" height="0.72" xmlns="http://www.w3.org/2000/svg" y="57.6" x="0" fill="none"/>
<text font-size="2.52" text-anchor="left" id="text1-9" font-family="'Droid Sans'" xmlns="http://www.w3.org/2000/svg" y="6.12" x="29.52" fill="#555555">1</text>
<line stroke="#555555" stroke-linecap="round" y1="7.56" x1="28.8" id="connector0pin" y2="7.56" x2="35.64" stroke-width="0.72" xmlns="http://www.w3.org/2000/svg" fill="none"/>
<g width="0.072" id="connector0terminal" height="0.72" xmlns="http://www.w3.org/2000/svg" y="7.2" x="35.928" fill="none"/>
</g>
</g></svg>