<?xml version="1.0" encoding="UTF-8" standalone="no"?>
<!-- Created with Fritzing (http://www.fritzing.org/) -->

<svg
   version="1.2"
   x="0in"
   y="0in"
   width="1.6919671in"
   height="1.1999999in"
   viewBox="0 0 121.82163 86.399993"
   id="svg77"
   sodipodi:docname="Mix_pcb.svg"
   inkscape:version="1.3 (1:1.3+202307231459+0e150ed6c4)"
   xmlns:inkscape="http://www.inkscape.org/namespaces/inkscape"
   xmlns:sodipodi="http://sodipodi.sourceforge.net/DTD/sodipodi-0.dtd"
   xmlns="http://www.w3.org/2000/svg"
   xmlns:svg="http://www.w3.org/2000/svg">
  <defs
     id="defs77" />
  <sodipodi:namedview
     id="namedview77"
     pagecolor="#ffffff"
     bordercolor="#000000"
     borderopacity="0.25"
     inkscape:showpageshadow="false"
     inkscape:pageopacity="0.0"
     inkscape:pagecheckerboard="0"
     inkscape:deskcolor="#d1d1d1"
     inkscape:document-units="in"
     inkscape:zoom="5.6568542"
     inkscape:cx="88.918678"
     inkscape:cy="44.194174"
     inkscape:window-width="1920"
     inkscape:window-height="980"
     inkscape:window-x="1920"
     inkscape:window-y="0"
     inkscape:window-maximized="1"
     inkscape:current-layer="svg77"
     showgrid="true">
    <inkscape:grid
       id="grid5"
       units="in"
       originx="3.7439998"
       originy="0"
       spacingx="7.1999997"
       spacingy="7.2"
       empcolor="#009923"
       empopacity="0.30196078"
       color="#0050e5"
       opacity="0.14901961"
       empspacing="5"
       dotted="false"
       gridanglex="30"
       gridanglez="30"
       visible="true" />
  </sodipodi:namedview>
  <g
     partID="10857192"
     id="g77"
     transform="matrix(1.0034512,0,0,1,-0.14462158,53.854817)">
    <g
       id="silkscreen">
      <rect
         style="fill:#ffffff;fill-opacity:1;stroke:none;stroke-width:0;stroke-linecap:round;stroke-dasharray:none;stroke-opacity:0.9;paint-order:fill markers stroke"
         id="rect93"
         width="121.82163"
         height="86.399994"
         x="0.14400053"
         y="-53.854816" />
      <line
         x1="115.48606"
         x2="115.48606"
         stroke="#f0f0f0"
         y2="22.676979"
         stroke-width="1.18254"
         class="other"
         stroke-linecap="round"
         y1="-51.261822"
         id="line55"
         style="stroke:#161616;stroke-width:0.580355;stroke-dasharray:none;stroke-opacity:0.9" />
      <line
         x1="0.28799999"
         x2="0.28799999"
         stroke="#f0f0f0"
         y2="-17.220116"
         stroke-width="1.35641"
         class="other"
         stroke-linecap="round"
         y1="-51.179886"
         id="line56"
         style="stroke:#161616;stroke-width:0.593916;stroke-dasharray:none;stroke-opacity:0.9" />
      <line
         x1="0.28799999"
         x2="0.28799999"
         stroke="#f0f0f0"
         y2="-10.08"
         stroke-width="1.34525"
         class="other"
         stroke-linecap="round"
         y1="21.338177"
         id="line57"
         style="stroke:#161616;stroke-width:0.576;stroke-dasharray:none;stroke-opacity:0.9" />
      <path
         d="m 0.288,-17.135999 a 2.88,2.88 0 1 1 0,5.76"
         fill="none"
         stroke="#f0f0f0"
         stroke-width="0.576"
         class="other"
         id="path57"
         style="stroke:#161616;stroke-opacity:0.9" />
      <line
         x1="0.28799999"
         x2="1.008"
         stroke="#f0f0f0"
         y2="-51.695999"
         stroke-width="0.576"
         class="other"
         stroke-linecap="round"
         y1="-51.695999"
         id="line58"
         style="stroke:#161616;stroke-opacity:0.9" />
      <line
         x1="0.28799999"
         x2="1.008"
         stroke="#f0f0f0"
         y2="23.184"
         stroke-width="0.576"
         class="other"
         stroke-linecap="round"
         y1="23.184"
         id="line60"
         style="stroke:#161616;stroke-opacity:0.9" />
      <line
         x1="115.48801"
         x2="114.768"
         stroke="#f0f0f0"
         y2="-51.695999"
         stroke-width="0.576"
         class="other"
         stroke-linecap="round"
         y1="-51.695999"
         id="line61"
         style="stroke:#161616;stroke-opacity:0.9" />
      <line
         x1="115.48801"
         x2="114.768"
         stroke="#f0f0f0"
         y2="23.184"
         stroke-width="0.576"
         class="other"
         stroke-linecap="round"
         y1="23.184"
         id="line62"
         style="stroke:#161616;stroke-opacity:0.9" />
      <line
         x1="6.7680001"
         x2="8.2080002"
         stroke="#f0f0f0"
         y2="23.184"
         stroke-width="0.576"
         class="other"
         stroke-linecap="round"
         y1="23.184"
         id="line70"
         style="stroke:#161616;stroke-opacity:0.9" />
      <line
         x1="64.367996"
         x2="65.807991"
         stroke="#f0f0f0"
         y2="23.184"
         stroke-width="0.576"
         class="other"
         stroke-linecap="round"
         y1="23.184"
         id="line71"
         style="stroke:#161616;stroke-opacity:0.9" />
      <line
         x1="71.567993"
         x2="73.007996"
         stroke="#f0f0f0"
         y2="23.184"
         stroke-width="0.576"
         class="other"
         stroke-linecap="round"
         y1="23.184"
         id="line72"
         style="stroke:#161616;stroke-opacity:0.9" />
      <line
         x1="78.767998"
         x2="80.207993"
         stroke="#f0f0f0"
         y2="23.184"
         stroke-width="0.576"
         class="other"
         stroke-linecap="round"
         y1="23.184"
         id="line73"
         style="stroke:#161616;stroke-opacity:0.9" />
      <line
         x1="85.967995"
         x2="87.407997"
         stroke="#f0f0f0"
         y2="23.184"
         stroke-width="0.576"
         class="other"
         stroke-linecap="round"
         y1="23.184"
         id="line74"
         style="stroke:#161616;stroke-opacity:0.9" />
      <line
         x1="93.167992"
         x2="94.607994"
         stroke="#f0f0f0"
         y2="23.184"
         stroke-width="0.576"
         class="other"
         stroke-linecap="round"
         y1="23.184"
         id="line75"
         style="stroke:#161616;stroke-opacity:0.9" />
      <line
         x1="100.368"
         x2="101.808"
         stroke="#f0f0f0"
         y2="23.184"
         stroke-width="0.576"
         class="other"
         stroke-linecap="round"
         y1="23.184"
         id="line76"
         style="stroke:#161616;stroke-opacity:0.9" />
      <line
         x1="107.56799"
         x2="109.008"
         stroke="#f0f0f0"
         y2="23.184"
         stroke-width="0.576"
         class="other"
         stroke-linecap="round"
         y1="23.184"
         id="line77"
         style="stroke:#161616;stroke-opacity:0.9" />
      <line
         x1="13.967999"
         x2="15.407994"
         stroke="#f0f0f0"
         y2="23.184"
         stroke-width="0.576"
         class="other"
         stroke-linecap="round"
         y1="23.184"
         id="line63"
         style="stroke:#161616;stroke-opacity:0.9" />
      <line
         x1="21.167997"
         x2="22.608"
         stroke="#f0f0f0"
         y2="23.184"
         stroke-width="0.576"
         class="other"
         stroke-linecap="round"
         y1="23.184"
         id="line64"
         style="stroke:#161616;stroke-opacity:0.9" />
      <line
         x1="28.368002"
         x2="29.807997"
         stroke="#f0f0f0"
         y2="23.184"
         stroke-width="0.576"
         class="other"
         stroke-linecap="round"
         y1="23.184"
         id="line65"
         style="stroke:#161616;stroke-opacity:0.9" />
      <line
         x1="35.567997"
         x2="37.007999"
         stroke="#f0f0f0"
         y2="23.184"
         stroke-width="0.576"
         class="other"
         stroke-linecap="round"
         y1="23.184"
         id="line66"
         style="stroke:#161616;stroke-opacity:0.9" />
      <line
         x1="42.767994"
         x2="44.207996"
         stroke="#f0f0f0"
         y2="23.184"
         stroke-width="0.576"
         class="other"
         stroke-linecap="round"
         y1="23.184"
         id="line67"
         style="stroke:#161616;stroke-opacity:0.9" />
      <line
         x1="49.967999"
         x2="51.408001"
         stroke="#f0f0f0"
         y2="23.184"
         stroke-width="0.576"
         class="other"
         stroke-linecap="round"
         y1="23.184"
         id="line78"
         style="stroke:#161616;stroke-opacity:0.9" />
      <line
         x1="57.167995"
         x2="58.608006"
         stroke="#f0f0f0"
         y2="23.184"
         stroke-width="0.576"
         class="other"
         stroke-linecap="round"
         y1="23.184"
         id="line79"
         style="stroke:#161616;stroke-opacity:0.9" />
      <line
         x1="78.767998"
         x2="80.207993"
         stroke="#f0f0f0"
         y2="-51.407997"
         stroke-width="0.576"
         class="other"
         stroke-linecap="round"
         y1="-51.407997"
         id="line80"
         style="stroke:#161616;stroke-opacity:0.9" />
      <line
         x1="85.967995"
         x2="87.407997"
         stroke="#f0f0f0"
         y2="-51.407997"
         stroke-width="0.576"
         class="other"
         stroke-linecap="round"
         y1="-51.407997"
         id="line81"
         style="stroke:#161616;stroke-opacity:0.9" />
      <line
         x1="93.167992"
         x2="94.607994"
         stroke="#f0f0f0"
         y2="-51.407997"
         stroke-width="0.576"
         class="other"
         stroke-linecap="round"
         y1="-51.407997"
         id="line82"
         style="stroke:#161616;stroke-opacity:0.9" />
      <line
         x1="100.368"
         x2="101.808"
         stroke="#f0f0f0"
         y2="-51.407997"
         stroke-width="0.576"
         class="other"
         stroke-linecap="round"
         y1="-51.407997"
         id="line83"
         style="stroke:#161616;stroke-opacity:0.9" />
      <line
         x1="107.56799"
         x2="109.008"
         stroke="#f0f0f0"
         y2="-51.407997"
         stroke-width="0.576"
         class="other"
         stroke-linecap="round"
         y1="-51.407997"
         id="line84"
         style="stroke:#161616;stroke-opacity:0.9" />
      <line
         x1="13.967999"
         x2="15.407994"
         stroke="#f0f0f0"
         y2="-51.407997"
         stroke-width="0.576"
         class="other"
         stroke-linecap="round"
         y1="-51.407997"
         id="line85"
         style="stroke:#161616;stroke-opacity:0.9" />
      <line
         x1="21.167997"
         x2="22.608"
         stroke="#f0f0f0"
         y2="-51.407997"
         stroke-width="0.576"
         class="other"
         stroke-linecap="round"
         y1="-51.407997"
         id="line86"
         style="stroke:#161616;stroke-opacity:0.9" />
      <line
         x1="28.368002"
         x2="29.807997"
         stroke="#f0f0f0"
         y2="-51.407997"
         stroke-width="0.576"
         class="other"
         stroke-linecap="round"
         y1="-51.407997"
         id="line87"
         style="stroke:#161616;stroke-opacity:0.9" />
      <line
         x1="35.567997"
         x2="37.007999"
         stroke="#f0f0f0"
         y2="-51.407997"
         stroke-width="0.576"
         class="other"
         stroke-linecap="round"
         y1="-51.407997"
         id="line88"
         style="stroke:#161616;stroke-opacity:0.9" />
      <line
         x1="42.767994"
         x2="44.207996"
         stroke="#f0f0f0"
         y2="-51.407997"
         stroke-width="0.576"
         class="other"
         stroke-linecap="round"
         y1="-51.407997"
         id="line89"
         style="stroke:#161616;stroke-opacity:0.9" />
      <line
         x1="49.967999"
         x2="51.408001"
         stroke="#f0f0f0"
         y2="-51.407997"
         stroke-width="0.576"
         class="other"
         stroke-linecap="round"
         y1="-51.407997"
         id="line90"
         style="stroke:#161616;stroke-opacity:0.9" />
      <line
         x1="57.167995"
         x2="58.608006"
         stroke="#f0f0f0"
         y2="-51.407997"
         stroke-width="0.576"
         class="other"
         stroke-linecap="round"
         y1="-51.407997"
         id="line91"
         style="stroke:#161616;stroke-opacity:0.9" />
      <line
         x1="64.367996"
         x2="65.807991"
         stroke="#f0f0f0"
         y2="-51.407997"
         stroke-width="0.576"
         class="other"
         stroke-linecap="round"
         y1="-51.407997"
         id="line92"
         style="stroke:#161616;stroke-opacity:0.9" />
      <line
         x1="71.567993"
         x2="73.007996"
         stroke="#f0f0f0"
         y2="-51.407997"
         stroke-width="0.576"
         class="other"
         stroke-linecap="round"
         y1="-51.407997"
         id="line93"
         style="stroke:#161616;stroke-opacity:0.9" />
    </g>
  </g>
  <g
     partID="10857190"
     id="g18"
     transform="translate(-0.14400003,53.854817)">
    <g
       id="copper1">
      <g
         id="copper0">
        <g
           id="EXT1">
          <g
             id="pin1">
            <circle
               connectorname="1"
               cy="25.344"
               r="1.512"
               fill="none"
               id="connector0pad"
               stroke="#f7bd13"
               stroke-width="0.72"
               cx="3.888" />
            <path
               d="m 3.888,21.6 a 1.872,1.872 0 0 1 1.872,1.872 v 3.744 a 1.872,1.872 0 0 1 -1.872,1.872 v 0 A 1.872,1.872 0 0 1 2.016,27.216 V 23.472 A 1.872,1.872 0 0 1 3.888,21.6 Z m -1.152,3.744 a 1.152,1.152 0 1 0 2.304,0 1.152,1.152 0 1 0 -2.304,0 z"
               fill="#f7bd13"
               stroke="none"
               stroke-width="0"
               id="path1" />
          </g>
          <g
             id="pin2"
             transform="translate(7.1999999)">
            <circle
               connectorname="1"
               cy="25.344"
               r="1.512"
               fill="none"
               id="connector1pad"
               stroke="#f7bd13"
               stroke-width="0.72"
               cx="3.888" />
            <path
               d="m 3.888,21.6 a 1.872,1.872 0 0 1 1.872,1.872 v 3.744 a 1.872,1.872 0 0 1 -1.872,1.872 v 0 A 1.872,1.872 0 0 1 2.016,27.216 V 23.472 A 1.872,1.872 0 0 1 3.888,21.6 Z m -1.152,3.744 a 1.152,1.152 0 1 0 2.304,0 1.152,1.152 0 1 0 -2.304,0 z"
               fill="#f7bd13"
               stroke="none"
               stroke-width="0"
               id="path9" />
          </g>
          <g
             id="pin3"
             transform="translate(14.4)">
            <circle
               connectorname="1"
               cy="25.344"
               r="1.512"
               fill="none"
               id="connector2pad"
               stroke="#f7bd13"
               stroke-width="0.72"
               cx="3.888" />
            <path
               d="m 3.888,21.6 a 1.872,1.872 0 0 1 1.872,1.872 v 3.744 a 1.872,1.872 0 0 1 -1.872,1.872 v 0 A 1.872,1.872 0 0 1 2.016,27.216 V 23.472 A 1.872,1.872 0 0 1 3.888,21.6 Z m -1.152,3.744 a 1.152,1.152 0 1 0 2.304,0 1.152,1.152 0 1 0 -2.304,0 z"
               fill="#f7bd13"
               stroke="none"
               stroke-width="0"
               id="path10" />
          </g>
          <g
             id="pin4"
             transform="translate(21.6)">
            <circle
               connectorname="1"
               cy="25.344"
               r="1.512"
               fill="none"
               id="connector3pad"
               stroke="#f7bd13"
               stroke-width="0.72"
               cx="3.888" />
            <path
               d="m 3.888,21.6 a 1.872,1.872 0 0 1 1.872,1.872 v 3.744 a 1.872,1.872 0 0 1 -1.872,1.872 v 0 A 1.872,1.872 0 0 1 2.016,27.216 V 23.472 A 1.872,1.872 0 0 1 3.888,21.6 Z m -1.152,3.744 a 1.152,1.152 0 1 0 2.304,0 1.152,1.152 0 1 0 -2.304,0 z"
               fill="#f7bd13"
               stroke="none"
               stroke-width="0"
               id="path11" />
          </g>
          <g
             id="pin5"
             transform="translate(28.8)">
            <circle
               connectorname="1"
               cy="25.344"
               r="1.512"
               fill="none"
               id="connector4pad"
               stroke="#f7bd13"
               stroke-width="0.72"
               cx="3.888" />
            <path
               d="m 3.888,21.6 a 1.872,1.872 0 0 1 1.872,1.872 v 3.744 a 1.872,1.872 0 0 1 -1.872,1.872 v 0 A 1.872,1.872 0 0 1 2.016,27.216 V 23.472 A 1.872,1.872 0 0 1 3.888,21.6 Z m -1.152,3.744 a 1.152,1.152 0 1 0 2.304,0 1.152,1.152 0 1 0 -2.304,0 z"
               fill="#f7bd13"
               stroke="none"
               stroke-width="0"
               id="path12" />
          </g>
          <g
             id="pin6"
             transform="translate(35.999999)">
            <circle
               connectorname="1"
               cy="25.344"
               r="1.512"
               fill="none"
               id="connector5pad"
               stroke="#f7bd13"
               stroke-width="0.72"
               cx="3.888" />
            <path
               d="m 3.888,21.6 a 1.872,1.872 0 0 1 1.872,1.872 v 3.744 a 1.872,1.872 0 0 1 -1.872,1.872 v 0 A 1.872,1.872 0 0 1 2.016,27.216 V 23.472 A 1.872,1.872 0 0 1 3.888,21.6 Z m -1.152,3.744 a 1.152,1.152 0 1 0 2.304,0 1.152,1.152 0 1 0 -2.304,0 z"
               fill="#f7bd13"
               stroke="none"
               stroke-width="0"
               id="path13" />
          </g>
          <g
             id="pin7"
             transform="translate(43.2)">
            <circle
               connectorname="1"
               cy="25.344"
               r="1.512"
               fill="none"
               id="circle14"
               stroke="#f7bd13"
               stroke-width="0.72"
               cx="3.888" />
            <path
               d="m 3.888,21.6 a 1.872,1.872 0 0 1 1.872,1.872 v 3.744 a 1.872,1.872 0 0 1 -1.872,1.872 v 0 A 1.872,1.872 0 0 1 2.016,27.216 V 23.472 A 1.872,1.872 0 0 1 3.888,21.6 Z m -1.152,3.744 a 1.152,1.152 0 1 0 2.304,0 1.152,1.152 0 1 0 -2.304,0 z"
               fill="#f7bd13"
               stroke="none"
               stroke-width="0"
               id="path14" />
          </g>
          <g
             id="pin8"
             transform="translate(50.4)">
            <circle
               connectorname="1"
               cy="25.344"
               r="1.512"
               fill="none"
               id="circle15"
               stroke="#f7bd13"
               stroke-width="0.72"
               cx="3.888" />
            <path
               d="m 3.888,21.6 a 1.872,1.872 0 0 1 1.872,1.872 v 3.744 a 1.872,1.872 0 0 1 -1.872,1.872 v 0 A 1.872,1.872 0 0 1 2.016,27.216 V 23.472 A 1.872,1.872 0 0 1 3.888,21.6 Z m -1.152,3.744 a 1.152,1.152 0 1 0 2.304,0 1.152,1.152 0 1 0 -2.304,0 z"
               fill="#f7bd13"
               stroke="none"
               stroke-width="0"
               id="path15" />
          </g>
          <g
             id="pin9"
             transform="translate(57.599999)">
            <circle
               connectorname="1"
               cy="25.344"
               r="1.512"
               fill="none"
               id="circle16"
               stroke="#f7bd13"
               stroke-width="0.72"
               cx="3.888" />
            <path
               d="m 3.888,21.6 a 1.872,1.872 0 0 1 1.872,1.872 v 3.744 a 1.872,1.872 0 0 1 -1.872,1.872 v 0 A 1.872,1.872 0 0 1 2.016,27.216 V 23.472 A 1.872,1.872 0 0 1 3.888,21.6 Z m -1.152,3.744 a 1.152,1.152 0 1 0 2.304,0 1.152,1.152 0 1 0 -2.304,0 z"
               fill="#f7bd13"
               stroke="none"
               stroke-width="0"
               id="path16" />
          </g>
          <g
             id="pin10"
             transform="translate(64.799999)">
            <circle
               connectorname="1"
               cy="25.344"
               r="1.512"
               fill="none"
               id="circle17"
               stroke="#f7bd13"
               stroke-width="0.72"
               cx="3.888" />
            <path
               d="m 3.888,21.6 a 1.872,1.872 0 0 1 1.872,1.872 v 3.744 a 1.872,1.872 0 0 1 -1.872,1.872 v 0 A 1.872,1.872 0 0 1 2.016,27.216 V 23.472 A 1.872,1.872 0 0 1 3.888,21.6 Z m -1.152,3.744 a 1.152,1.152 0 1 0 2.304,0 1.152,1.152 0 1 0 -2.304,0 z"
               fill="#f7bd13"
               stroke="none"
               stroke-width="0"
               id="path17" />
          </g>
          <g
             id="pin11"
             transform="translate(71.999999)">
            <circle
               connectorname="1"
               cy="25.344"
               r="1.512"
               fill="none"
               id="circle18"
               stroke="#f7bd13"
               stroke-width="0.72"
               cx="3.888" />
            <path
               d="m 3.888,21.6 a 1.872,1.872 0 0 1 1.872,1.872 v 3.744 a 1.872,1.872 0 0 1 -1.872,1.872 v 0 A 1.872,1.872 0 0 1 2.016,27.216 V 23.472 A 1.872,1.872 0 0 1 3.888,21.6 Z m -1.152,3.744 a 1.152,1.152 0 1 0 2.304,0 1.152,1.152 0 1 0 -2.304,0 z"
               fill="#f7bd13"
               stroke="none"
               stroke-width="0"
               id="path18" />
          </g>
          <g
             id="pin12"
             transform="translate(79.199999)">
            <circle
               connectorname="1"
               cy="25.344"
               r="1.512"
               fill="none"
               id="circle19"
               stroke="#f7bd13"
               stroke-width="0.72"
               cx="3.888" />
            <path
               d="m 3.888,21.6 a 1.872,1.872 0 0 1 1.872,1.872 v 3.744 a 1.872,1.872 0 0 1 -1.872,1.872 v 0 A 1.872,1.872 0 0 1 2.016,27.216 V 23.472 A 1.872,1.872 0 0 1 3.888,21.6 Z m -1.152,3.744 a 1.152,1.152 0 1 0 2.304,0 1.152,1.152 0 1 0 -2.304,0 z"
               fill="#f7bd13"
               stroke="none"
               stroke-width="0"
               id="path19" />
          </g>
          <g
             id="pin13"
             transform="translate(86.399999)">
            <circle
               connectorname="1"
               cy="25.344"
               r="1.512"
               fill="none"
               id="circle20"
               stroke="#f7bd13"
               stroke-width="0.72"
               cx="3.888" />
            <path
               d="m 3.888,21.6 a 1.872,1.872 0 0 1 1.872,1.872 v 3.744 a 1.872,1.872 0 0 1 -1.872,1.872 v 0 A 1.872,1.872 0 0 1 2.016,27.216 V 23.472 A 1.872,1.872 0 0 1 3.888,21.6 Z m -1.152,3.744 a 1.152,1.152 0 1 0 2.304,0 1.152,1.152 0 1 0 -2.304,0 z"
               fill="#f7bd13"
               stroke="none"
               stroke-width="0"
               id="path20" />
          </g>
          <g
             id="pin14"
             transform="translate(93.599998)">
            <circle
               connectorname="1"
               cy="25.344"
               r="1.512"
               fill="none"
               id="circle21"
               stroke="#f7bd13"
               stroke-width="0.72"
               cx="3.888" />
            <path
               d="m 3.888,21.6 a 1.872,1.872 0 0 1 1.872,1.872 v 3.744 a 1.872,1.872 0 0 1 -1.872,1.872 v 0 A 1.872,1.872 0 0 1 2.016,27.216 V 23.472 A 1.872,1.872 0 0 1 3.888,21.6 Z m -1.152,3.744 a 1.152,1.152 0 1 0 2.304,0 1.152,1.152 0 1 0 -2.304,0 z"
               fill="#f7bd13"
               stroke="none"
               stroke-width="0"
               id="path21" />
          </g>
          <g
             id="pin15"
             transform="translate(100.8)">
            <circle
               connectorname="1"
               cy="25.344"
               r="1.512"
               fill="none"
               id="circle22"
               stroke="#f7bd13"
               stroke-width="0.72"
               cx="3.888" />
            <path
               d="m 3.888,21.6 a 1.872,1.872 0 0 1 1.872,1.872 v 3.744 a 1.872,1.872 0 0 1 -1.872,1.872 v 0 A 1.872,1.872 0 0 1 2.016,27.216 V 23.472 A 1.872,1.872 0 0 1 3.888,21.6 Z m -1.152,3.744 a 1.152,1.152 0 1 0 2.304,0 1.152,1.152 0 1 0 -2.304,0 z"
               fill="#f7bd13"
               stroke="none"
               stroke-width="0"
               id="path22" />
          </g>
          <g
             id="pin16"
             transform="translate(108)">
            <circle
               connectorname="1"
               cy="25.344"
               r="1.512"
               fill="none"
               id="circle23"
               stroke="#f7bd13"
               stroke-width="0.72"
               cx="3.888" />
            <path
               d="m 3.888,21.6 a 1.872,1.872 0 0 1 1.872,1.872 v 3.744 a 1.872,1.872 0 0 1 -1.872,1.872 v 0 A 1.872,1.872 0 0 1 2.016,27.216 V 23.472 A 1.872,1.872 0 0 1 3.888,21.6 Z m -1.152,3.744 a 1.152,1.152 0 1 0 2.304,0 1.152,1.152 0 1 0 -2.304,0 z"
               fill="#f7bd13"
               stroke="none"
               stroke-width="0"
               id="path23" />
          </g>
        </g>
        <g
           id="EXT2"
           transform="translate(0,7.2011826)">
          <g
             id="pin32"
             transform="translate(0,-79.199999)">
            <circle
               connectorname="1"
               cy="25.344"
               r="1.512"
               fill="none"
               id="circle39"
               stroke="#f7bd13"
               stroke-width="0.72"
               cx="3.888" />
            <path
               d="m 3.888,21.6 a 1.872,1.872 0 0 1 1.872,1.872 v 3.744 a 1.872,1.872 0 0 1 -1.872,1.872 v 0 A 1.872,1.872 0 0 1 2.016,27.216 V 23.472 A 1.872,1.872 0 0 1 3.888,21.6 Z m -1.152,3.744 a 1.152,1.152 0 1 0 2.304,0 1.152,1.152 0 1 0 -2.304,0 z"
               fill="#f7bd13"
               stroke="none"
               stroke-width="0"
               id="path39" />
          </g>
          <g
             id="pin31"
             transform="translate(7.1999999,-79.199999)">
            <circle
               connectorname="1"
               cy="25.344"
               r="1.512"
               fill="none"
               id="circle40"
               stroke="#f7bd13"
               stroke-width="0.72"
               cx="3.888" />
            <path
               d="m 3.888,21.6 a 1.872,1.872 0 0 1 1.872,1.872 v 3.744 a 1.872,1.872 0 0 1 -1.872,1.872 v 0 A 1.872,1.872 0 0 1 2.016,27.216 V 23.472 A 1.872,1.872 0 0 1 3.888,21.6 Z m -1.152,3.744 a 1.152,1.152 0 1 0 2.304,0 1.152,1.152 0 1 0 -2.304,0 z"
               fill="#f7bd13"
               stroke="none"
               stroke-width="0"
               id="path40" />
          </g>
          <g
             id="pin30"
             transform="translate(14.4,-79.199999)">
            <circle
               connectorname="1"
               cy="25.344"
               r="1.512"
               fill="none"
               id="circle41"
               stroke="#f7bd13"
               stroke-width="0.72"
               cx="3.888" />
            <path
               d="m 3.888,21.6 a 1.872,1.872 0 0 1 1.872,1.872 v 3.744 a 1.872,1.872 0 0 1 -1.872,1.872 v 0 A 1.872,1.872 0 0 1 2.016,27.216 V 23.472 A 1.872,1.872 0 0 1 3.888,21.6 Z m -1.152,3.744 a 1.152,1.152 0 1 0 2.304,0 1.152,1.152 0 1 0 -2.304,0 z"
               fill="#f7bd13"
               stroke="none"
               stroke-width="0"
               id="path41" />
          </g>
          <g
             id="pin29"
             transform="translate(21.6,-79.199999)">
            <circle
               connectorname="1"
               cy="25.344"
               r="1.512"
               fill="none"
               id="circle42"
               stroke="#f7bd13"
               stroke-width="0.72"
               cx="3.888" />
            <path
               d="m 3.888,21.6 a 1.872,1.872 0 0 1 1.872,1.872 v 3.744 a 1.872,1.872 0 0 1 -1.872,1.872 v 0 A 1.872,1.872 0 0 1 2.016,27.216 V 23.472 A 1.872,1.872 0 0 1 3.888,21.6 Z m -1.152,3.744 a 1.152,1.152 0 1 0 2.304,0 1.152,1.152 0 1 0 -2.304,0 z"
               fill="#f7bd13"
               stroke="none"
               stroke-width="0"
               id="path42" />
          </g>
          <g
             id="pin28"
             transform="translate(28.8,-79.199999)">
            <circle
               connectorname="1"
               cy="25.344"
               r="1.512"
               fill="none"
               id="circle43"
               stroke="#f7bd13"
               stroke-width="0.72"
               cx="3.888" />
            <path
               d="m 3.888,21.6 a 1.872,1.872 0 0 1 1.872,1.872 v 3.744 a 1.872,1.872 0 0 1 -1.872,1.872 v 0 A 1.872,1.872 0 0 1 2.016,27.216 V 23.472 A 1.872,1.872 0 0 1 3.888,21.6 Z m -1.152,3.744 a 1.152,1.152 0 1 0 2.304,0 1.152,1.152 0 1 0 -2.304,0 z"
               fill="#f7bd13"
               stroke="none"
               stroke-width="0"
               id="path43" />
          </g>
          <g
             id="pin27"
             transform="translate(35.999999,-79.199999)">
            <circle
               connectorname="1"
               cy="25.344"
               r="1.512"
               fill="none"
               id="circle44"
               stroke="#f7bd13"
               stroke-width="0.72"
               cx="3.888" />
            <path
               d="m 3.888,21.6 a 1.872,1.872 0 0 1 1.872,1.872 v 3.744 a 1.872,1.872 0 0 1 -1.872,1.872 v 0 A 1.872,1.872 0 0 1 2.016,27.216 V 23.472 A 1.872,1.872 0 0 1 3.888,21.6 Z m -1.152,3.744 a 1.152,1.152 0 1 0 2.304,0 1.152,1.152 0 1 0 -2.304,0 z"
               fill="#f7bd13"
               stroke="none"
               stroke-width="0"
               id="path44" />
          </g>
          <g
             id="pin26"
             transform="translate(43.2,-79.199999)">
            <circle
               connectorname="1"
               cy="25.344"
               r="1.512"
               fill="none"
               id="circle45"
               stroke="#f7bd13"
               stroke-width="0.72"
               cx="3.888" />
            <path
               d="m 3.888,21.6 a 1.872,1.872 0 0 1 1.872,1.872 v 3.744 a 1.872,1.872 0 0 1 -1.872,1.872 v 0 A 1.872,1.872 0 0 1 2.016,27.216 V 23.472 A 1.872,1.872 0 0 1 3.888,21.6 Z m -1.152,3.744 a 1.152,1.152 0 1 0 2.304,0 1.152,1.152 0 1 0 -2.304,0 z"
               fill="#f7bd13"
               stroke="none"
               stroke-width="0"
               id="path45" />
          </g>
          <g
             id="pin25"
             transform="translate(50.4,-79.199999)">
            <circle
               connectorname="1"
               cy="25.344"
               r="1.512"
               fill="none"
               id="circle46"
               stroke="#f7bd13"
               stroke-width="0.72"
               cx="3.888" />
            <path
               d="m 3.888,21.6 a 1.872,1.872 0 0 1 1.872,1.872 v 3.744 a 1.872,1.872 0 0 1 -1.872,1.872 v 0 A 1.872,1.872 0 0 1 2.016,27.216 V 23.472 A 1.872,1.872 0 0 1 3.888,21.6 Z m -1.152,3.744 a 1.152,1.152 0 1 0 2.304,0 1.152,1.152 0 1 0 -2.304,0 z"
               fill="#f7bd13"
               stroke="none"
               stroke-width="0"
               id="path46" />
          </g>
          <g
             id="pin24"
             transform="translate(57.599999,-79.199999)">
            <circle
               connectorname="1"
               cy="25.344"
               r="1.512"
               fill="none"
               id="circle47"
               stroke="#f7bd13"
               stroke-width="0.72"
               cx="3.888" />
            <path
               d="m 3.888,21.6 a 1.872,1.872 0 0 1 1.872,1.872 v 3.744 a 1.872,1.872 0 0 1 -1.872,1.872 v 0 A 1.872,1.872 0 0 1 2.016,27.216 V 23.472 A 1.872,1.872 0 0 1 3.888,21.6 Z m -1.152,3.744 a 1.152,1.152 0 1 0 2.304,0 1.152,1.152 0 1 0 -2.304,0 z"
               fill="#f7bd13"
               stroke="none"
               stroke-width="0"
               id="path47" />
          </g>
          <g
             id="pin23"
             transform="translate(64.799999,-79.199999)">
            <circle
               connectorname="1"
               cy="25.344"
               r="1.512"
               fill="none"
               id="circle48"
               stroke="#f7bd13"
               stroke-width="0.72"
               cx="3.888" />
            <path
               d="m 3.888,21.6 a 1.872,1.872 0 0 1 1.872,1.872 v 3.744 a 1.872,1.872 0 0 1 -1.872,1.872 v 0 A 1.872,1.872 0 0 1 2.016,27.216 V 23.472 A 1.872,1.872 0 0 1 3.888,21.6 Z m -1.152,3.744 a 1.152,1.152 0 1 0 2.304,0 1.152,1.152 0 1 0 -2.304,0 z"
               fill="#f7bd13"
               stroke="none"
               stroke-width="0"
               id="path48" />
          </g>
          <g
             id="pin22"
             transform="translate(71.999999,-79.199999)">
            <circle
               connectorname="1"
               cy="25.344"
               r="1.512"
               fill="none"
               id="circle49"
               stroke="#f7bd13"
               stroke-width="0.72"
               cx="3.888" />
            <path
               d="m 3.888,21.6 a 1.872,1.872 0 0 1 1.872,1.872 v 3.744 a 1.872,1.872 0 0 1 -1.872,1.872 v 0 A 1.872,1.872 0 0 1 2.016,27.216 V 23.472 A 1.872,1.872 0 0 1 3.888,21.6 Z m -1.152,3.744 a 1.152,1.152 0 1 0 2.304,0 1.152,1.152 0 1 0 -2.304,0 z"
               fill="#f7bd13"
               stroke="none"
               stroke-width="0"
               id="path49" />
          </g>
          <g
             id="pin21"
             transform="translate(79.199999,-79.199999)">
            <circle
               connectorname="1"
               cy="25.344"
               r="1.512"
               fill="none"
               id="circle50"
               stroke="#f7bd13"
               stroke-width="0.72"
               cx="3.888" />
            <path
               d="m 3.888,21.6 a 1.872,1.872 0 0 1 1.872,1.872 v 3.744 a 1.872,1.872 0 0 1 -1.872,1.872 v 0 A 1.872,1.872 0 0 1 2.016,27.216 V 23.472 A 1.872,1.872 0 0 1 3.888,21.6 Z m -1.152,3.744 a 1.152,1.152 0 1 0 2.304,0 1.152,1.152 0 1 0 -2.304,0 z"
               fill="#f7bd13"
               stroke="none"
               stroke-width="0"
               id="path50" />
          </g>
          <g
             id="pin20"
             transform="translate(86.399999,-79.199999)">
            <circle
               connectorname="1"
               cy="25.344"
               r="1.512"
               fill="none"
               id="circle51"
               stroke="#f7bd13"
               stroke-width="0.72"
               cx="3.888" />
            <path
               d="m 3.888,21.6 a 1.872,1.872 0 0 1 1.872,1.872 v 3.744 a 1.872,1.872 0 0 1 -1.872,1.872 v 0 A 1.872,1.872 0 0 1 2.016,27.216 V 23.472 A 1.872,1.872 0 0 1 3.888,21.6 Z m -1.152,3.744 a 1.152,1.152 0 1 0 2.304,0 1.152,1.152 0 1 0 -2.304,0 z"
               fill="#f7bd13"
               stroke="none"
               stroke-width="0"
               id="path51" />
          </g>
          <g
             id="pin19"
             transform="translate(93.599998,-79.199999)">
            <circle
               connectorname="1"
               cy="25.344"
               r="1.512"
               fill="none"
               id="circle52"
               stroke="#f7bd13"
               stroke-width="0.72"
               cx="3.888" />
            <path
               d="m 3.888,21.6 a 1.872,1.872 0 0 1 1.872,1.872 v 3.744 a 1.872,1.872 0 0 1 -1.872,1.872 v 0 A 1.872,1.872 0 0 1 2.016,27.216 V 23.472 A 1.872,1.872 0 0 1 3.888,21.6 Z m -1.152,3.744 a 1.152,1.152 0 1 0 2.304,0 1.152,1.152 0 1 0 -2.304,0 z"
               fill="#f7bd13"
               stroke="none"
               stroke-width="0"
               id="path52" />
          </g>
          <g
             id="pin18"
             transform="translate(100.8,-79.199999)">
            <circle
               connectorname="1"
               cy="25.344"
               r="1.512"
               fill="none"
               id="circle53"
               stroke="#f7bd13"
               stroke-width="0.72"
               cx="3.888" />
            <path
               d="m 3.888,21.6 a 1.872,1.872 0 0 1 1.872,1.872 v 3.744 a 1.872,1.872 0 0 1 -1.872,1.872 v 0 A 1.872,1.872 0 0 1 2.016,27.216 V 23.472 A 1.872,1.872 0 0 1 3.888,21.6 Z m -1.152,3.744 a 1.152,1.152 0 1 0 2.304,0 1.152,1.152 0 1 0 -2.304,0 z"
               fill="#f7bd13"
               stroke="none"
               stroke-width="0"
               id="path53" />
          </g>
          <g
             id="pin17"
             transform="translate(108,-79.199999)">
            <circle
               connectorname="1"
               cy="25.344"
               r="1.512"
               fill="none"
               id="circle54"
               stroke="#f7bd13"
               stroke-width="0.72"
               cx="3.888" />
            <path
               d="m 3.888,21.6 a 1.872,1.872 0 0 1 1.872,1.872 v 3.744 a 1.872,1.872 0 0 1 -1.872,1.872 v 0 A 1.872,1.872 0 0 1 2.016,27.216 V 23.472 A 1.872,1.872 0 0 1 3.888,21.6 Z m -1.152,3.744 a 1.152,1.152 0 1 0 2.304,0 1.152,1.152 0 1 0 -2.304,0 z"
               fill="#f7bd13"
               stroke="none"
               stroke-width="0"
               id="path54" />
          </g>
        </g>
      </g>
    </g>
  </g>
</svg>
