<?xml version='1.0' encoding='UTF-8' standalone='no'?>
<!-- Created with Fritzing (http://www.fritzing.org/) -->
<svg xmlns:svg='http://www.w3.org/2000/svg' xmlns='http://www.w3.org/2000/svg' version='1.2' baseProfile='tiny' x='0in' y='0in' width='0.812in' height='0.404in' viewBox='0 0 58.464 29.088' >
<g partID='12065430'><g xmlns="http://www.w3.org/2000/svg" id="copper0" gorn="0.1.32">
 <circle xmlns="http://www.w3.org/2000/svg" id="connector0pad" gorn="0.1.32.0" stroke-width="0.72" stroke="#F7BD13" cx="4.032" connectorname="1" fill="none" cy="25.344" r="1.512"/>
 <path xmlns="http://www.w3.org/2000/svg" d="m4.032,21.6a1.872,1.872,0,0,1,1.872,1.872l0,3.744a1.872,1.872,0,0,1,-1.872,1.872l0,0a1.872,1.872,0,0,1,-1.872,-1.872l0,-3.744a1.872,1.872,0,0,1,1.872,-1.872l0,0zM2.88,25.344a1.152,1.152,0,1,0,2.304,0,1.152,1.152,0,1,0,-2.304,0z" id="connector0pin" gorn="0.1.32.1" stroke-width="0" stroke="none" fill="#F7BD13"/>
 <circle xmlns="http://www.w3.org/2000/svg" id="connector1pad" gorn="0.1.32.2" stroke-width="0.72" stroke="#F7BD13" cx="11.232" connectorname="2" fill="none" cy="25.344" r="1.512"/>
 <path xmlns="http://www.w3.org/2000/svg" d="m11.232,21.6a1.872,1.872,0,0,1,1.872,1.872l0,3.744a1.872,1.872,0,0,1,-1.872,1.872l0,0a1.872,1.872,0,0,1,-1.872,-1.872l0,-3.744a1.872,1.872,0,0,1,1.872,-1.872l0,0zM10.08,25.344a1.152,1.152,0,1,0,2.304,0,1.152,1.152,0,1,0,-2.304,0z" id="connector1pin" gorn="0.1.32.3" stroke-width="0" stroke="none" fill="#F7BD13"/>
 <circle xmlns="http://www.w3.org/2000/svg" id="connector2pad" gorn="0.1.32.4" stroke-width="0.72" stroke="#F7BD13" cx="18.432" connectorname="3" fill="none" cy="25.344" r="1.512"/>
 <path xmlns="http://www.w3.org/2000/svg" d="m18.432,21.6a1.872,1.872,0,0,1,1.872,1.872l0,3.744a1.872,1.872,0,0,1,-1.872,1.872l0,0a1.872,1.872,0,0,1,-1.872,-1.872l0,-3.744a1.872,1.872,0,0,1,1.872,-1.872l0,0zM17.28,25.344a1.152,1.152,0,1,0,2.304,0,1.152,1.152,0,1,0,-2.304,0z" id="connector2pin" gorn="0.1.32.5" stroke-width="0" stroke="none" fill="#F7BD13"/>
 <circle xmlns="http://www.w3.org/2000/svg" id="connector3pad" gorn="0.1.32.6" stroke-width="0.72" stroke="#F7BD13" cx="25.632" connectorname="4" fill="none" cy="25.344" r="1.512"/>
 <path xmlns="http://www.w3.org/2000/svg" d="m25.632,21.6a1.872,1.872,0,0,1,1.872,1.872l0,3.744a1.872,1.872,0,0,1,-1.872,1.872l0,0a1.872,1.872,0,0,1,-1.872,-1.872l0,-3.744a1.872,1.872,0,0,1,1.872,-1.872l0,0zM24.48,25.344a1.152,1.152,0,1,0,2.304,0,1.152,1.152,0,1,0,-2.304,0z" id="connector3pin" gorn="0.1.32.7" stroke-width="0" stroke="none" fill="#F7BD13"/>
 <circle xmlns="http://www.w3.org/2000/svg" id="connector4pad" gorn="0.1.32.8" stroke-width="0.72" stroke="#F7BD13" cx="32.832" connectorname="5" fill="none" cy="25.344" r="1.512"/>
 <path xmlns="http://www.w3.org/2000/svg" d="m32.832,21.6a1.872,1.872,0,0,1,1.872,1.872l0,3.744a1.872,1.872,0,0,1,-1.872,1.872l0,0a1.872,1.872,0,0,1,-1.872,-1.872l0,-3.744a1.872,1.872,0,0,1,1.872,-1.872l0,0zM31.68,25.344a1.152,1.152,0,1,0,2.304,0,1.152,1.152,0,1,0,-2.304,0z" id="connector4pin" gorn="0.1.32.9" stroke-width="0" stroke="none" fill="#F7BD13"/>
 <circle xmlns="http://www.w3.org/2000/svg" id="connector5pad" gorn="0.1.32.10" stroke-width="0.72" stroke="#F7BD13" cx="40.032" connectorname="6" fill="none" cy="25.344" r="1.512"/>
 <path xmlns="http://www.w3.org/2000/svg" d="m40.032,21.6a1.872,1.872,0,0,1,1.872,1.872l0,3.744a1.872,1.872,0,0,1,-1.872,1.872l0,0a1.872,1.872,0,0,1,-1.872,-1.872l0,-3.744a1.872,1.872,0,0,1,1.872,-1.872l0,0zM38.88,25.344a1.152,1.152,0,1,0,2.304,0,1.152,1.152,0,1,0,-2.304,0z" id="connector5pin" gorn="0.1.32.11" stroke-width="0" stroke="none" fill="#F7BD13"/>
 <circle xmlns="http://www.w3.org/2000/svg" id="connector6pad" gorn="0.1.32.12" stroke-width="0.72" stroke="#F7BD13" cx="47.232" connectorname="7" fill="none" cy="25.344" r="1.512"/>
 <path xmlns="http://www.w3.org/2000/svg" d="m47.232,21.6a1.872,1.872,0,0,1,1.872,1.872l0,3.744a1.872,1.872,0,0,1,-1.872,1.872l0,0a1.872,1.872,0,0,1,-1.872,-1.872l0,-3.744a1.872,1.872,0,0,1,1.872,-1.872l0,0zM46.08,25.344a1.152,1.152,0,1,0,2.304,0,1.152,1.152,0,1,0,-2.304,0z" id="connector6pin" gorn="0.1.32.13" stroke-width="0" stroke="none" fill="#F7BD13"/>
 <circle xmlns="http://www.w3.org/2000/svg" id="connector7pad" gorn="0.1.32.14" stroke-width="0.72" stroke="#F7BD13" cx="54.432" connectorname="8" fill="none" cy="25.344" r="1.512"/>
 <path xmlns="http://www.w3.org/2000/svg" d="m54.432,21.6a1.872,1.872,0,0,1,1.872,1.872l0,3.744a1.872,1.872,0,0,1,-1.872,1.872l0,0a1.872,1.872,0,0,1,-1.872,-1.872l0,-3.744a1.872,1.872,0,0,1,1.872,-1.872l0,0zM53.28,25.344a1.152,1.152,0,1,0,2.304,0,1.152,1.152,0,1,0,-2.304,0z" id="connector7pin" gorn="0.1.32.15" stroke-width="0" stroke="none" fill="#F7BD13"/>
 <circle xmlns="http://www.w3.org/2000/svg" id="connector8pad" gorn="0.1.32.16" stroke-width="0.72" stroke="#F7BD13" cx="54.432" connectorname="9" fill="none" cy="3.744" r="1.512"/>
 <path xmlns="http://www.w3.org/2000/svg" d="m54.432,0a1.872,1.872,0,0,1,1.872,1.872l0,3.744a1.872,1.872,0,0,1,-1.872,1.872l0,0a1.872,1.872,0,0,1,-1.872,-1.872l0,-3.744a1.872,1.872,0,0,1,1.872,-1.872l0,0zM53.28,3.744a1.152,1.152,0,1,0,2.304,0,1.152,1.152,0,1,0,-2.304,0z" id="connector8pin" gorn="0.1.32.17" stroke-width="0" stroke="none" fill="#F7BD13"/>
 <circle xmlns="http://www.w3.org/2000/svg" id="connector9pad" gorn="0.1.32.18" stroke-width="0.72" stroke="#F7BD13" cx="47.232" connectorname="10" fill="none" cy="3.744" r="1.512"/>
 <path xmlns="http://www.w3.org/2000/svg" d="m47.232,0a1.872,1.872,0,0,1,1.872,1.872l0,3.744a1.872,1.872,0,0,1,-1.872,1.872l0,0a1.872,1.872,0,0,1,-1.872,-1.872l0,-3.744a1.872,1.872,0,0,1,1.872,-1.872l0,0zM46.08,3.744a1.152,1.152,0,1,0,2.304,0,1.152,1.152,0,1,0,-2.304,0z" id="connector9pin" gorn="0.1.32.19" stroke-width="0" stroke="none" fill="#F7BD13"/>
 <circle xmlns="http://www.w3.org/2000/svg" id="connector10pad" gorn="0.1.32.20" stroke-width="0.72" stroke="#F7BD13" cx="40.032" connectorname="11" fill="none" cy="3.744" r="1.512"/>
 <path xmlns="http://www.w3.org/2000/svg" d="m40.032,0a1.872,1.872,0,0,1,1.872,1.872l0,3.744a1.872,1.872,0,0,1,-1.872,1.872l0,0a1.872,1.872,0,0,1,-1.872,-1.872l0,-3.744a1.872,1.872,0,0,1,1.872,-1.872l0,0zM38.88,3.744a1.152,1.152,0,1,0,2.304,0,1.152,1.152,0,1,0,-2.304,0z" id="connector10pin" gorn="0.1.32.21" stroke-width="0" stroke="none" fill="#F7BD13"/>
 <circle xmlns="http://www.w3.org/2000/svg" id="connector11pad" gorn="0.1.32.22" stroke-width="0.72" stroke="#F7BD13" cx="32.832" connectorname="12" fill="none" cy="3.744" r="1.512"/>
 <path xmlns="http://www.w3.org/2000/svg" d="m32.832,0a1.872,1.872,0,0,1,1.872,1.872l0,3.744a1.872,1.872,0,0,1,-1.872,1.872l0,0a1.872,1.872,0,0,1,-1.872,-1.872l0,-3.744a1.872,1.872,0,0,1,1.872,-1.872l0,0zM31.68,3.744a1.152,1.152,0,1,0,2.304,0,1.152,1.152,0,1,0,-2.304,0z" id="connector11pin" gorn="0.1.32.23" stroke-width="0" stroke="none" fill="#F7BD13"/>
 <circle xmlns="http://www.w3.org/2000/svg" id="connector12pad" gorn="0.1.32.24" stroke-width="0.72" stroke="#F7BD13" cx="25.632" connectorname="13" fill="none" cy="3.744" r="1.512"/>
 <path xmlns="http://www.w3.org/2000/svg" d="m25.632,0a1.872,1.872,0,0,1,1.872,1.872l0,3.744a1.872,1.872,0,0,1,-1.872,1.872l0,0a1.872,1.872,0,0,1,-1.872,-1.872l0,-3.744a1.872,1.872,0,0,1,1.872,-1.872l0,0zM24.48,3.744a1.152,1.152,0,1,0,2.304,0,1.152,1.152,0,1,0,-2.304,0z" id="connector12pin" gorn="0.1.32.25" stroke-width="0" stroke="none" fill="#F7BD13"/>
 <circle xmlns="http://www.w3.org/2000/svg" id="connector13pad" gorn="0.1.32.26" stroke-width="0.72" stroke="#F7BD13" cx="18.432" connectorname="14" fill="none" cy="3.744" r="1.512"/>
 <path xmlns="http://www.w3.org/2000/svg" d="m18.432,0a1.872,1.872,0,0,1,1.872,1.872l0,3.744a1.872,1.872,0,0,1,-1.872,1.872l0,0a1.872,1.872,0,0,1,-1.872,-1.872l0,-3.744a1.872,1.872,0,0,1,1.872,-1.872l0,0zM17.28,3.744a1.152,1.152,0,1,0,2.304,0,1.152,1.152,0,1,0,-2.304,0z" id="connector13pin" gorn="0.1.32.27" stroke-width="0" stroke="none" fill="#F7BD13"/>
 <circle xmlns="http://www.w3.org/2000/svg" id="connector14pad" gorn="0.1.32.28" stroke-width="0.72" stroke="#F7BD13" cx="11.232" connectorname="15" fill="none" cy="3.744" r="1.512"/>
 <path xmlns="http://www.w3.org/2000/svg" d="m11.232,0a1.872,1.872,0,0,1,1.872,1.872l0,3.744a1.872,1.872,0,0,1,-1.872,1.872l0,0a1.872,1.872,0,0,1,-1.872,-1.872l0,-3.744a1.872,1.872,0,0,1,1.872,-1.872l0,0zM10.08,3.744a1.152,1.152,0,1,0,2.304,0,1.152,1.152,0,1,0,-2.304,0z" id="connector14pin" gorn="0.1.32.29" stroke-width="0" stroke="none" fill="#F7BD13"/>
 <circle xmlns="http://www.w3.org/2000/svg" id="connector15pad" gorn="0.1.32.30" stroke-width="0.72" stroke="#F7BD13" cx="4.032" connectorname="16" fill="none" cy="3.744" r="1.512"/>
 <path xmlns="http://www.w3.org/2000/svg" d="m4.032,0a1.872,1.872,0,0,1,1.872,1.872l0,3.744a1.872,1.872,0,0,1,-1.872,1.872l0,0a1.872,1.872,0,0,1,-1.872,-1.872l0,-3.744a1.872,1.872,0,0,1,1.872,-1.872l0,0zM2.88,3.744a1.152,1.152,0,1,0,2.304,0,1.152,1.152,0,1,0,-2.304,0z" id="connector15pin" gorn="0.1.32.31" stroke-width="0" stroke="none" fill="#F7BD13"/>
</g>
</g><g partID='12065432'><g xmlns="http://www.w3.org/2000/svg" id="copper1" gorn="0.1">
 <circle xmlns="http://www.w3.org/2000/svg" id="connector0pad" gorn="0.1.0" stroke-width="0.72" stroke="#F7BD13" cx="4.032" connectorname="1" fill="none" cy="25.344" r="1.512"/>
 <path xmlns="http://www.w3.org/2000/svg" d="m4.032,21.6a1.872,1.872,0,0,1,1.872,1.872l0,3.744a1.872,1.872,0,0,1,-1.872,1.872l0,0a1.872,1.872,0,0,1,-1.872,-1.872l0,-3.744a1.872,1.872,0,0,1,1.872,-1.872l0,0zM2.88,25.344a1.152,1.152,0,1,0,2.304,0,1.152,1.152,0,1,0,-2.304,0z" stroke-width="0" stroke="none" fill="#F7BD13"/>
 <circle xmlns="http://www.w3.org/2000/svg" id="connector1pad" gorn="0.1.2" stroke-width="0.72" stroke="#F7BD13" cx="11.232" connectorname="2" fill="none" cy="25.344" r="1.512"/>
 <path xmlns="http://www.w3.org/2000/svg" d="m11.232,21.6a1.872,1.872,0,0,1,1.872,1.872l0,3.744a1.872,1.872,0,0,1,-1.872,1.872l0,0a1.872,1.872,0,0,1,-1.872,-1.872l0,-3.744a1.872,1.872,0,0,1,1.872,-1.872l0,0zM10.08,25.344a1.152,1.152,0,1,0,2.304,0,1.152,1.152,0,1,0,-2.304,0z" stroke-width="0" stroke="none" fill="#F7BD13"/>
 <circle xmlns="http://www.w3.org/2000/svg" id="connector2pad" gorn="0.1.4" stroke-width="0.72" stroke="#F7BD13" cx="18.432" connectorname="3" fill="none" cy="25.344" r="1.512"/>
 <path xmlns="http://www.w3.org/2000/svg" d="m18.432,21.6a1.872,1.872,0,0,1,1.872,1.872l0,3.744a1.872,1.872,0,0,1,-1.872,1.872l0,0a1.872,1.872,0,0,1,-1.872,-1.872l0,-3.744a1.872,1.872,0,0,1,1.872,-1.872l0,0zM17.28,25.344a1.152,1.152,0,1,0,2.304,0,1.152,1.152,0,1,0,-2.304,0z" stroke-width="0" stroke="none" fill="#F7BD13"/>
 <circle xmlns="http://www.w3.org/2000/svg" id="connector3pad" gorn="0.1.6" stroke-width="0.72" stroke="#F7BD13" cx="25.632" connectorname="4" fill="none" cy="25.344" r="1.512"/>
 <path xmlns="http://www.w3.org/2000/svg" d="m25.632,21.6a1.872,1.872,0,0,1,1.872,1.872l0,3.744a1.872,1.872,0,0,1,-1.872,1.872l0,0a1.872,1.872,0,0,1,-1.872,-1.872l0,-3.744a1.872,1.872,0,0,1,1.872,-1.872l0,0zM24.48,25.344a1.152,1.152,0,1,0,2.304,0,1.152,1.152,0,1,0,-2.304,0z" stroke-width="0" stroke="none" fill="#F7BD13"/>
 <circle xmlns="http://www.w3.org/2000/svg" id="connector4pad" gorn="0.1.8" stroke-width="0.72" stroke="#F7BD13" cx="32.832" connectorname="5" fill="none" cy="25.344" r="1.512"/>
 <path xmlns="http://www.w3.org/2000/svg" d="m32.832,21.6a1.872,1.872,0,0,1,1.872,1.872l0,3.744a1.872,1.872,0,0,1,-1.872,1.872l0,0a1.872,1.872,0,0,1,-1.872,-1.872l0,-3.744a1.872,1.872,0,0,1,1.872,-1.872l0,0zM31.68,25.344a1.152,1.152,0,1,0,2.304,0,1.152,1.152,0,1,0,-2.304,0z" stroke-width="0" stroke="none" fill="#F7BD13"/>
 <circle xmlns="http://www.w3.org/2000/svg" id="connector5pad" gorn="0.1.10" stroke-width="0.72" stroke="#F7BD13" cx="40.032" connectorname="6" fill="none" cy="25.344" r="1.512"/>
 <path xmlns="http://www.w3.org/2000/svg" d="m40.032,21.6a1.872,1.872,0,0,1,1.872,1.872l0,3.744a1.872,1.872,0,0,1,-1.872,1.872l0,0a1.872,1.872,0,0,1,-1.872,-1.872l0,-3.744a1.872,1.872,0,0,1,1.872,-1.872l0,0zM38.88,25.344a1.152,1.152,0,1,0,2.304,0,1.152,1.152,0,1,0,-2.304,0z" stroke-width="0" stroke="none" fill="#F7BD13"/>
 <circle xmlns="http://www.w3.org/2000/svg" id="connector6pad" gorn="0.1.12" stroke-width="0.72" stroke="#F7BD13" cx="47.232" connectorname="7" fill="none" cy="25.344" r="1.512"/>
 <path xmlns="http://www.w3.org/2000/svg" d="m47.232,21.6a1.872,1.872,0,0,1,1.872,1.872l0,3.744a1.872,1.872,0,0,1,-1.872,1.872l0,0a1.872,1.872,0,0,1,-1.872,-1.872l0,-3.744a1.872,1.872,0,0,1,1.872,-1.872l0,0zM46.08,25.344a1.152,1.152,0,1,0,2.304,0,1.152,1.152,0,1,0,-2.304,0z" stroke-width="0" stroke="none" fill="#F7BD13"/>
 <circle xmlns="http://www.w3.org/2000/svg" id="connector7pad" gorn="0.1.14" stroke-width="0.72" stroke="#F7BD13" cx="54.432" connectorname="8" fill="none" cy="25.344" r="1.512"/>
 <path xmlns="http://www.w3.org/2000/svg" d="m54.432,21.6a1.872,1.872,0,0,1,1.872,1.872l0,3.744a1.872,1.872,0,0,1,-1.872,1.872l0,0a1.872,1.872,0,0,1,-1.872,-1.872l0,-3.744a1.872,1.872,0,0,1,1.872,-1.872l0,0zM53.28,25.344a1.152,1.152,0,1,0,2.304,0,1.152,1.152,0,1,0,-2.304,0z" stroke-width="0" stroke="none" fill="#F7BD13"/>
 <circle xmlns="http://www.w3.org/2000/svg" id="connector8pad" gorn="0.1.16" stroke-width="0.72" stroke="#F7BD13" cx="54.432" connectorname="9" fill="none" cy="3.744" r="1.512"/>
 <path xmlns="http://www.w3.org/2000/svg" d="m54.432,0a1.872,1.872,0,0,1,1.872,1.872l0,3.744a1.872,1.872,0,0,1,-1.872,1.872l0,0a1.872,1.872,0,0,1,-1.872,-1.872l0,-3.744a1.872,1.872,0,0,1,1.872,-1.872l0,0zM53.28,3.744a1.152,1.152,0,1,0,2.304,0,1.152,1.152,0,1,0,-2.304,0z" stroke-width="0" stroke="none" fill="#F7BD13"/>
 <circle xmlns="http://www.w3.org/2000/svg" id="connector9pad" gorn="0.1.18" stroke-width="0.72" stroke="#F7BD13" cx="47.232" connectorname="10" fill="none" cy="3.744" r="1.512"/>
 <path xmlns="http://www.w3.org/2000/svg" d="m47.232,0a1.872,1.872,0,0,1,1.872,1.872l0,3.744a1.872,1.872,0,0,1,-1.872,1.872l0,0a1.872,1.872,0,0,1,-1.872,-1.872l0,-3.744a1.872,1.872,0,0,1,1.872,-1.872l0,0zM46.08,3.744a1.152,1.152,0,1,0,2.304,0,1.152,1.152,0,1,0,-2.304,0z" stroke-width="0" stroke="none" fill="#F7BD13"/>
 <circle xmlns="http://www.w3.org/2000/svg" id="connector10pad" gorn="0.1.20" stroke-width="0.72" stroke="#F7BD13" cx="40.032" connectorname="11" fill="none" cy="3.744" r="1.512"/>
 <path xmlns="http://www.w3.org/2000/svg" d="m40.032,0a1.872,1.872,0,0,1,1.872,1.872l0,3.744a1.872,1.872,0,0,1,-1.872,1.872l0,0a1.872,1.872,0,0,1,-1.872,-1.872l0,-3.744a1.872,1.872,0,0,1,1.872,-1.872l0,0zM38.88,3.744a1.152,1.152,0,1,0,2.304,0,1.152,1.152,0,1,0,-2.304,0z" stroke-width="0" stroke="none" fill="#F7BD13"/>
 <circle xmlns="http://www.w3.org/2000/svg" id="connector11pad" gorn="0.1.22" stroke-width="0.72" stroke="#F7BD13" cx="32.832" connectorname="12" fill="none" cy="3.744" r="1.512"/>
 <path xmlns="http://www.w3.org/2000/svg" d="m32.832,0a1.872,1.872,0,0,1,1.872,1.872l0,3.744a1.872,1.872,0,0,1,-1.872,1.872l0,0a1.872,1.872,0,0,1,-1.872,-1.872l0,-3.744a1.872,1.872,0,0,1,1.872,-1.872l0,0zM31.68,3.744a1.152,1.152,0,1,0,2.304,0,1.152,1.152,0,1,0,-2.304,0z" stroke-width="0" stroke="none" fill="#F7BD13"/>
 <circle xmlns="http://www.w3.org/2000/svg" id="connector12pad" gorn="0.1.24" stroke-width="0.72" stroke="#F7BD13" cx="25.632" connectorname="13" fill="none" cy="3.744" r="1.512"/>
 <path xmlns="http://www.w3.org/2000/svg" d="m25.632,0a1.872,1.872,0,0,1,1.872,1.872l0,3.744a1.872,1.872,0,0,1,-1.872,1.872l0,0a1.872,1.872,0,0,1,-1.872,-1.872l0,-3.744a1.872,1.872,0,0,1,1.872,-1.872l0,0zM24.48,3.744a1.152,1.152,0,1,0,2.304,0,1.152,1.152,0,1,0,-2.304,0z" stroke-width="0" stroke="none" fill="#F7BD13"/>
 <circle xmlns="http://www.w3.org/2000/svg" id="connector13pad" gorn="0.1.26" stroke-width="0.72" stroke="#F7BD13" cx="18.432" connectorname="14" fill="none" cy="3.744" r="1.512"/>
 <path xmlns="http://www.w3.org/2000/svg" d="m18.432,0a1.872,1.872,0,0,1,1.872,1.872l0,3.744a1.872,1.872,0,0,1,-1.872,1.872l0,0a1.872,1.872,0,0,1,-1.872,-1.872l0,-3.744a1.872,1.872,0,0,1,1.872,-1.872l0,0zM17.28,3.744a1.152,1.152,0,1,0,2.304,0,1.152,1.152,0,1,0,-2.304,0z" stroke-width="0" stroke="none" fill="#F7BD13"/>
 <circle xmlns="http://www.w3.org/2000/svg" id="connector14pad" gorn="0.1.28" stroke-width="0.72" stroke="#F7BD13" cx="11.232" connectorname="15" fill="none" cy="3.744" r="1.512"/>
 <path xmlns="http://www.w3.org/2000/svg" d="m11.232,0a1.872,1.872,0,0,1,1.872,1.872l0,3.744a1.872,1.872,0,0,1,-1.872,1.872l0,0a1.872,1.872,0,0,1,-1.872,-1.872l0,-3.744a1.872,1.872,0,0,1,1.872,-1.872l0,0zM10.08,3.744a1.152,1.152,0,1,0,2.304,0,1.152,1.152,0,1,0,-2.304,0z" stroke-width="0" stroke="none" fill="#F7BD13"/>
 <circle xmlns="http://www.w3.org/2000/svg" id="connector15pad" gorn="0.1.30" stroke-width="0.72" stroke="#F7BD13" cx="4.032" connectorname="16" fill="none" cy="3.744" r="1.512"/>
 <path xmlns="http://www.w3.org/2000/svg" d="m4.032,0a1.872,1.872,0,0,1,1.872,1.872l0,3.744a1.872,1.872,0,0,1,-1.872,1.872l0,0a1.872,1.872,0,0,1,-1.872,-1.872l0,-3.744a1.872,1.872,0,0,1,1.872,-1.872l0,0zM2.88,3.744a1.152,1.152,0,1,0,2.304,0,1.152,1.152,0,1,0,-2.304,0z" stroke-width="0" stroke="none" fill="#F7BD13"/>
 <g xmlns="http://www.w3.org/2000/svg" id="copper0" gorn="0.1.32">
  <circle xmlns="http://www.w3.org/2000/svg" id="connector0pad" gorn="0.1.32.0" stroke-width="0.72" stroke="#F7BD13" cx="4.032" connectorname="1" fill="none" cy="25.344" r="1.512"/>
  <path xmlns="http://www.w3.org/2000/svg" d="m4.032,21.6a1.872,1.872,0,0,1,1.872,1.872l0,3.744a1.872,1.872,0,0,1,-1.872,1.872l0,0a1.872,1.872,0,0,1,-1.872,-1.872l0,-3.744a1.872,1.872,0,0,1,1.872,-1.872l0,0zM2.88,25.344a1.152,1.152,0,1,0,2.304,0,1.152,1.152,0,1,0,-2.304,0z" id="connector0pin" gorn="0.1.32.1" stroke-width="0" stroke="none" fill="#F7BD13"/>
  <circle xmlns="http://www.w3.org/2000/svg" id="connector1pad" gorn="0.1.32.2" stroke-width="0.72" stroke="#F7BD13" cx="11.232" connectorname="2" fill="none" cy="25.344" r="1.512"/>
  <path xmlns="http://www.w3.org/2000/svg" d="m11.232,21.6a1.872,1.872,0,0,1,1.872,1.872l0,3.744a1.872,1.872,0,0,1,-1.872,1.872l0,0a1.872,1.872,0,0,1,-1.872,-1.872l0,-3.744a1.872,1.872,0,0,1,1.872,-1.872l0,0zM10.08,25.344a1.152,1.152,0,1,0,2.304,0,1.152,1.152,0,1,0,-2.304,0z" id="connector1pin" gorn="0.1.32.3" stroke-width="0" stroke="none" fill="#F7BD13"/>
  <circle xmlns="http://www.w3.org/2000/svg" id="connector2pad" gorn="0.1.32.4" stroke-width="0.72" stroke="#F7BD13" cx="18.432" connectorname="3" fill="none" cy="25.344" r="1.512"/>
  <path xmlns="http://www.w3.org/2000/svg" d="m18.432,21.6a1.872,1.872,0,0,1,1.872,1.872l0,3.744a1.872,1.872,0,0,1,-1.872,1.872l0,0a1.872,1.872,0,0,1,-1.872,-1.872l0,-3.744a1.872,1.872,0,0,1,1.872,-1.872l0,0zM17.28,25.344a1.152,1.152,0,1,0,2.304,0,1.152,1.152,0,1,0,-2.304,0z" id="connector2pin" gorn="0.1.32.5" stroke-width="0" stroke="none" fill="#F7BD13"/>
  <circle xmlns="http://www.w3.org/2000/svg" id="connector3pad" gorn="0.1.32.6" stroke-width="0.72" stroke="#F7BD13" cx="25.632" connectorname="4" fill="none" cy="25.344" r="1.512"/>
  <path xmlns="http://www.w3.org/2000/svg" d="m25.632,21.6a1.872,1.872,0,0,1,1.872,1.872l0,3.744a1.872,1.872,0,0,1,-1.872,1.872l0,0a1.872,1.872,0,0,1,-1.872,-1.872l0,-3.744a1.872,1.872,0,0,1,1.872,-1.872l0,0zM24.48,25.344a1.152,1.152,0,1,0,2.304,0,1.152,1.152,0,1,0,-2.304,0z" id="connector3pin" gorn="0.1.32.7" stroke-width="0" stroke="none" fill="#F7BD13"/>
  <circle xmlns="http://www.w3.org/2000/svg" id="connector4pad" gorn="0.1.32.8" stroke-width="0.72" stroke="#F7BD13" cx="32.832" connectorname="5" fill="none" cy="25.344" r="1.512"/>
  <path xmlns="http://www.w3.org/2000/svg" d="m32.832,21.6a1.872,1.872,0,0,1,1.872,1.872l0,3.744a1.872,1.872,0,0,1,-1.872,1.872l0,0a1.872,1.872,0,0,1,-1.872,-1.872l0,-3.744a1.872,1.872,0,0,1,1.872,-1.872l0,0zM31.68,25.344a1.152,1.152,0,1,0,2.304,0,1.152,1.152,0,1,0,-2.304,0z" id="connector4pin" gorn="0.1.32.9" stroke-width="0" stroke="none" fill="#F7BD13"/>
  <circle xmlns="http://www.w3.org/2000/svg" id="connector5pad" gorn="0.1.32.10" stroke-width="0.72" stroke="#F7BD13" cx="40.032" connectorname="6" fill="none" cy="25.344" r="1.512"/>
  <path xmlns="http://www.w3.org/2000/svg" d="m40.032,21.6a1.872,1.872,0,0,1,1.872,1.872l0,3.744a1.872,1.872,0,0,1,-1.872,1.872l0,0a1.872,1.872,0,0,1,-1.872,-1.872l0,-3.744a1.872,1.872,0,0,1,1.872,-1.872l0,0zM38.88,25.344a1.152,1.152,0,1,0,2.304,0,1.152,1.152,0,1,0,-2.304,0z" id="connector5pin" gorn="0.1.32.11" stroke-width="0" stroke="none" fill="#F7BD13"/>
  <circle xmlns="http://www.w3.org/2000/svg" id="connector6pad" gorn="0.1.32.12" stroke-width="0.72" stroke="#F7BD13" cx="47.232" connectorname="7" fill="none" cy="25.344" r="1.512"/>
  <path xmlns="http://www.w3.org/2000/svg" d="m47.232,21.6a1.872,1.872,0,0,1,1.872,1.872l0,3.744a1.872,1.872,0,0,1,-1.872,1.872l0,0a1.872,1.872,0,0,1,-1.872,-1.872l0,-3.744a1.872,1.872,0,0,1,1.872,-1.872l0,0zM46.08,25.344a1.152,1.152,0,1,0,2.304,0,1.152,1.152,0,1,0,-2.304,0z" id="connector6pin" gorn="0.1.32.13" stroke-width="0" stroke="none" fill="#F7BD13"/>
  <circle xmlns="http://www.w3.org/2000/svg" id="connector7pad" gorn="0.1.32.14" stroke-width="0.72" stroke="#F7BD13" cx="54.432" connectorname="8" fill="none" cy="25.344" r="1.512"/>
  <path xmlns="http://www.w3.org/2000/svg" d="m54.432,21.6a1.872,1.872,0,0,1,1.872,1.872l0,3.744a1.872,1.872,0,0,1,-1.872,1.872l0,0a1.872,1.872,0,0,1,-1.872,-1.872l0,-3.744a1.872,1.872,0,0,1,1.872,-1.872l0,0zM53.28,25.344a1.152,1.152,0,1,0,2.304,0,1.152,1.152,0,1,0,-2.304,0z" id="connector7pin" gorn="0.1.32.15" stroke-width="0" stroke="none" fill="#F7BD13"/>
  <circle xmlns="http://www.w3.org/2000/svg" id="connector8pad" gorn="0.1.32.16" stroke-width="0.72" stroke="#F7BD13" cx="54.432" connectorname="9" fill="none" cy="3.744" r="1.512"/>
  <path xmlns="http://www.w3.org/2000/svg" d="m54.432,0a1.872,1.872,0,0,1,1.872,1.872l0,3.744a1.872,1.872,0,0,1,-1.872,1.872l0,0a1.872,1.872,0,0,1,-1.872,-1.872l0,-3.744a1.872,1.872,0,0,1,1.872,-1.872l0,0zM53.28,3.744a1.152,1.152,0,1,0,2.304,0,1.152,1.152,0,1,0,-2.304,0z" id="connector8pin" gorn="0.1.32.17" stroke-width="0" stroke="none" fill="#F7BD13"/>
  <circle xmlns="http://www.w3.org/2000/svg" id="connector9pad" gorn="0.1.32.18" stroke-width="0.72" stroke="#F7BD13" cx="47.232" connectorname="10" fill="none" cy="3.744" r="1.512"/>
  <path xmlns="http://www.w3.org/2000/svg" d="m47.232,0a1.872,1.872,0,0,1,1.872,1.872l0,3.744a1.872,1.872,0,0,1,-1.872,1.872l0,0a1.872,1.872,0,0,1,-1.872,-1.872l0,-3.744a1.872,1.872,0,0,1,1.872,-1.872l0,0zM46.08,3.744a1.152,1.152,0,1,0,2.304,0,1.152,1.152,0,1,0,-2.304,0z" id="connector9pin" gorn="0.1.32.19" stroke-width="0" stroke="none" fill="#F7BD13"/>
  <circle xmlns="http://www.w3.org/2000/svg" id="connector10pad" gorn="0.1.32.20" stroke-width="0.72" stroke="#F7BD13" cx="40.032" connectorname="11" fill="none" cy="3.744" r="1.512"/>
  <path xmlns="http://www.w3.org/2000/svg" d="m40.032,0a1.872,1.872,0,0,1,1.872,1.872l0,3.744a1.872,1.872,0,0,1,-1.872,1.872l0,0a1.872,1.872,0,0,1,-1.872,-1.872l0,-3.744a1.872,1.872,0,0,1,1.872,-1.872l0,0zM38.88,3.744a1.152,1.152,0,1,0,2.304,0,1.152,1.152,0,1,0,-2.304,0z" id="connector10pin" gorn="0.1.32.21" stroke-width="0" stroke="none" fill="#F7BD13"/>
  <circle xmlns="http://www.w3.org/2000/svg" id="connector11pad" gorn="0.1.32.22" stroke-width="0.72" stroke="#F7BD13" cx="32.832" connectorname="12" fill="none" cy="3.744" r="1.512"/>
  <path xmlns="http://www.w3.org/2000/svg" d="m32.832,0a1.872,1.872,0,0,1,1.872,1.872l0,3.744a1.872,1.872,0,0,1,-1.872,1.872l0,0a1.872,1.872,0,0,1,-1.872,-1.872l0,-3.744a1.872,1.872,0,0,1,1.872,-1.872l0,0zM31.68,3.744a1.152,1.152,0,1,0,2.304,0,1.152,1.152,0,1,0,-2.304,0z" id="connector11pin" gorn="0.1.32.23" stroke-width="0" stroke="none" fill="#F7BD13"/>
  <circle xmlns="http://www.w3.org/2000/svg" id="connector12pad" gorn="0.1.32.24" stroke-width="0.72" stroke="#F7BD13" cx="25.632" connectorname="13" fill="none" cy="3.744" r="1.512"/>
  <path xmlns="http://www.w3.org/2000/svg" d="m25.632,0a1.872,1.872,0,0,1,1.872,1.872l0,3.744a1.872,1.872,0,0,1,-1.872,1.872l0,0a1.872,1.872,0,0,1,-1.872,-1.872l0,-3.744a1.872,1.872,0,0,1,1.872,-1.872l0,0zM24.48,3.744a1.152,1.152,0,1,0,2.304,0,1.152,1.152,0,1,0,-2.304,0z" id="connector12pin" gorn="0.1.32.25" stroke-width="0" stroke="none" fill="#F7BD13"/>
  <circle xmlns="http://www.w3.org/2000/svg" id="connector13pad" gorn="0.1.32.26" stroke-width="0.72" stroke="#F7BD13" cx="18.432" connectorname="14" fill="none" cy="3.744" r="1.512"/>
  <path xmlns="http://www.w3.org/2000/svg" d="m18.432,0a1.872,1.872,0,0,1,1.872,1.872l0,3.744a1.872,1.872,0,0,1,-1.872,1.872l0,0a1.872,1.872,0,0,1,-1.872,-1.872l0,-3.744a1.872,1.872,0,0,1,1.872,-1.872l0,0zM17.28,3.744a1.152,1.152,0,1,0,2.304,0,1.152,1.152,0,1,0,-2.304,0z" id="connector13pin" gorn="0.1.32.27" stroke-width="0" stroke="none" fill="#F7BD13"/>
  <circle xmlns="http://www.w3.org/2000/svg" id="connector14pad" gorn="0.1.32.28" stroke-width="0.72" stroke="#F7BD13" cx="11.232" connectorname="15" fill="none" cy="3.744" r="1.512"/>
  <path xmlns="http://www.w3.org/2000/svg" d="m11.232,0a1.872,1.872,0,0,1,1.872,1.872l0,3.744a1.872,1.872,0,0,1,-1.872,1.872l0,0a1.872,1.872,0,0,1,-1.872,-1.872l0,-3.744a1.872,1.872,0,0,1,1.872,-1.872l0,0zM10.08,3.744a1.152,1.152,0,1,0,2.304,0,1.152,1.152,0,1,0,-2.304,0z" id="connector14pin" gorn="0.1.32.29" stroke-width="0" stroke="none" fill="#F7BD13"/>
  <circle xmlns="http://www.w3.org/2000/svg" id="connector15pad" gorn="0.1.32.30" stroke-width="0.72" stroke="#F7BD13" cx="4.032" connectorname="16" fill="none" cy="3.744" r="1.512"/>
  <path xmlns="http://www.w3.org/2000/svg" d="m4.032,0a1.872,1.872,0,0,1,1.872,1.872l0,3.744a1.872,1.872,0,0,1,-1.872,1.872l0,0a1.872,1.872,0,0,1,-1.872,-1.872l0,-3.744a1.872,1.872,0,0,1,1.872,-1.872l0,0zM2.88,3.744a1.152,1.152,0,1,0,2.304,0,1.152,1.152,0,1,0,-2.304,0z" id="connector15pin" gorn="0.1.32.31" stroke-width="0" stroke="none" fill="#F7BD13"/>
 </g>
</g>
</g><g partID='12065431'><g xmlns="http://www.w3.org/2000/svg" id="silkscreen" gorn="0.2">
 <line xmlns="http://www.w3.org/2000/svg" y1="6.264" x1="58.032" stroke-width="0.864" stroke="#f0f0f0" stroke-linecap="round" y2="6.264" class="other" x2="0.432"/>
 <line xmlns="http://www.w3.org/2000/svg" y1="22.824" x1="0.432" stroke-width="0.864" stroke="#f0f0f0" stroke-linecap="round" y2="22.824" class="other" x2="58.032"/>
 <line xmlns="http://www.w3.org/2000/svg" y1="6.264" x1="58.032" stroke-width="0.864" stroke="#f0f0f0" stroke-linecap="round" y2="22.824" class="other" x2="58.032"/>
 <line xmlns="http://www.w3.org/2000/svg" y1="6.264" x1="0.432" stroke-width="0.864" stroke="#f0f0f0" stroke-linecap="round" y2="11.664" class="other" x2="0.432"/>
 <line xmlns="http://www.w3.org/2000/svg" y1="22.824" x1="0.432" stroke-width="0.864" stroke="#f0f0f0" stroke-linecap="round" y2="17.424" class="other" x2="0.432"/>
 <path xmlns="http://www.w3.org/2000/svg" d="M0.432,17.424A2.88,2.88,0,1,0,0.432,11.664" stroke-width="0.864" stroke="#f0f0f0" fill="none" class="other"/>
</g>
</g></svg>