<?xml version="1.0" encoding="UTF-8" standalone="no"?>
<!-- Created with Fritzing (http://www.fritzing.org/) -->

<svg
   version="1.2"
   x="0in"
   y="0in"
   width="0.90000004in"
   height="0.5in"
   viewBox="0 0 64.800003 35.999999"
   id="svg8"
   sodipodi:docname="P-Mosfet_bba.svg"
   inkscape:version="1.3 (1:1.3+202307231459+0e150ed6c4)"
   xmlns:inkscape="http://www.inkscape.org/namespaces/inkscape"
   xmlns:sodipodi="http://sodipodi.sourceforge.net/DTD/sodipodi-0.dtd"
   xmlns="http://www.w3.org/2000/svg"
   xmlns:svg="http://www.w3.org/2000/svg">
  <defs
     id="defs8" />
  <sodipodi:namedview
     id="namedview8"
     pagecolor="#ffffff"
     bordercolor="#000000"
     borderopacity="0.25"
     inkscape:showpageshadow="2"
     inkscape:pageopacity="0.0"
     inkscape:pagecheckerboard="0"
     inkscape:deskcolor="#d1d1d1"
     inkscape:document-units="in"
     showgrid="true"
     inkscape:zoom="8.4488861"
     inkscape:cx="34.324051"
     inkscape:cy="39.176762"
     inkscape:window-width="1920"
     inkscape:window-height="980"
     inkscape:window-x="1920"
     inkscape:window-y="0"
     inkscape:window-maximized="1"
     inkscape:current-layer="breadboard">
    <inkscape:grid
       id="grid9"
       units="in"
       originx="0"
       originy="0"
       spacingx="3.6"
       spacingy="3.6000001"
       empcolor="#bc51e5"
       empopacity="1"
       color="#6686e5"
       opacity="0.61960784"
       empspacing="2"
       dotted="false"
       gridanglex="30"
       gridanglez="30"
       visible="true" />
  </sodipodi:namedview>
  <g
     partID="58171"
     id="g8"
     transform="matrix(0.9227583,0,0,0.9523831,6.8158353,4.4268099)"
     style="display:inline;fill:#b3b3b3;fill-opacity:1;stroke:none;stroke-width:0.998449;stroke-dasharray:none">
    <g
       id="breadboard"
       style="fill:#b3b3b3;fill-opacity:1;stroke:none;stroke-width:0.998449;stroke-dasharray:none">
      <rect
         style="display:inline;fill:none;fill-opacity:0.341584;stroke:none;stroke-width:0;stroke-dasharray:none;stroke-linecap:round;stroke-opacity:1;paint-order:fill markers stroke"
         id="rect7"
         width="70.224243"
         height="37.799915"
         x="-7.3863711"
         y="-4.64814" />
      <rect
         style="display:inline;fill:none;fill-opacity:1;stroke:none;stroke-width:0;stroke-dasharray:none;stroke-linecap:round;stroke-opacity:1;paint-order:fill markers stroke"
         id="connector2pin"
         width="2.3408082"
         height="2.2679949"
         x="-0.75408256"
         y="20.677803" />
      <rect
         style="display:inline;fill:none;fill-opacity:1;stroke:none;stroke-width:0;stroke-dasharray:none;stroke-linecap:round;stroke-opacity:1;paint-order:fill markers stroke"
         id="connector1pin"
         width="2.3408082"
         height="2.2679949"
         x="-0.75408256"
         y="13.11782" />
      <rect
         style="fill:none;fill-opacity:1;stroke:none;stroke-width:0;stroke-linecap:round;stroke-dasharray:none;stroke-opacity:1;paint-order:fill markers stroke"
         id="connector0pin"
         width="2.1600001"
         height="2.1600001"
         x="6.1199994"
         y="9.7200003"
         transform="matrix(1.0837074,0,0,1.0499976,-7.3863712,-4.6481399)" />
      <rect
         style="display:inline;fill:#b3b3b3;fill-opacity:1;fill-rule:evenodd;stroke:none;stroke-width:0.998449;stroke-dasharray:none"
         id="rect8"
         width="46.409527"
         height="29.855196"
         x="12.315599"
         y="-0.67291194" />
      <ellipse
         style="fill:none;stroke:#000000;stroke-width:8.47787;stroke-linecap:round;stroke-dasharray:none;stroke-opacity:1;paint-order:fill markers stroke"
         id="path1"
         cx="35.969151"
         cy="14.402732"
         rx="0.72169435"
         ry="0.72169608"
         transform="matrix(1.0837074,0,0,1.0499976,12.120362,-0.86814845)" />
      <path
         style="display:inline;fill:none;fill-opacity:1;fill-rule:evenodd;stroke:#8c8c8c;stroke-width:2.152px;stroke-linecap:round;stroke-linejoin:miter;stroke-dasharray:none;stroke-opacity:1"
         d="M 1.4923222,21.869797 12.877559,21.753803"
         id="path7"
         inkscape:connector-type="polyline"
         inkscape:connector-curvature="0" />
      <path
         style="display:inline;fill:none;fill-opacity:1;fill-rule:evenodd;stroke:#8c8c8c;stroke-width:2.152px;stroke-linecap:round;stroke-linejoin:miter;stroke-dasharray:none;stroke-opacity:1"
         d="M 1.4923222,14.309814 12.877559,14.19382"
         id="path6"
         inkscape:connector-type="polyline"
         inkscape:connector-curvature="0" />
      <path
         style="display:inline;fill:none;fill-opacity:1;fill-rule:evenodd;stroke:#8c8c8c;stroke-width:2.152px;stroke-linecap:round;stroke-linejoin:miter;stroke-dasharray:none;stroke-opacity:1"
         d="M 1.4923222,6.7498307 12.877559,6.6338373"
         id="path5"
         inkscape:connector-type="polyline"
         inkscape:connector-curvature="0" />
      <rect
         style="display:inline;fill:#000000;fill-opacity:1;stroke:none;stroke-width:0;stroke-linecap:round;stroke-dasharray:none;stroke-opacity:1;paint-order:fill markers stroke"
         id="rect1"
         width="25.200001"
         height="28.800001"
         x="-8.8817842e-16"
         y="0"
         transform="matrix(1.0837074,0,0,1.0499976,12.120362,-0.86814845)" />
      <!-- 120 -->
      <path
         d="m 1.8951901,-19.841636 v -3.300395 h 2.0236985 q 0.095073,0 0.1629825,0.06791 0.067909,0.06791 0.067909,0.158455 0,0.09507 -0.067909,0.162982 -0.067909,0.06791 -0.1629825,0.06791 H 2.3524463 v 0.697202 h 1.1182406 q 0.095073,0 0.1584552,0.06791 0.067909,0.06338 0.067909,0.158455 0,0.09507 -0.067909,0.162982 -0.063382,0.06791 -0.1584552,0.06791 H 2.3524463 v 1.688679 q 0,0.09507 -0.067909,0.162982 -0.067909,0.06791 -0.1629824,0.06791 -0.095073,0 -0.1629825,-0.06791 -0.063382,-0.06791 -0.063382,-0.162982 z m 3.2732286,-0.325965 v -1.276696 q 0,-0.425565 0.3169103,-0.70173 l 1.0186402,-0.860185 q 0.1448733,-0.135819 0.3576559,-0.135819 0.2263645,0 0.3938742,0.16751 0.1675098,0.162983 0.1675098,0.389347 v 1.276696 q 0,0.104127 -0.018109,0.199201 -0.018109,0.09054 -0.063382,0.176564 -0.045273,0.08149 -0.076964,0.140346 -0.031691,0.05433 -0.1131822,0.131291 -0.076964,0.07696 -0.108655,0.108655 -0.031691,0.02716 -0.1312914,0.108655 -0.0996,0.08149 -0.1222368,0.0996 l 0.1086549,0.276164 h 0.2942739 q 0.095073,0 0.1629824,0.06791 0.067909,0.06791 0.067909,0.158455 0,0.09507 -0.067909,0.162982 -0.067909,0.06791 -0.1629824,0.06791 H 6.5854604 L 6.4179507,-20.03631 6.078404,-19.746563 q -0.1539279,0.135819 -0.3576559,0.135819 -0.2263645,0 -0.3893469,-0.162983 -0.1629825,-0.16751 -0.1629825,-0.393874 z m 0.4572563,0 q 0,0.0996 0.095073,0.0996 h 0.036218 l 0.4889473,-0.41651 -0.1675097,-0.425566 q -0.013582,-0.03169 -0.013582,-0.08149 0,-0.09507 0.067909,-0.162982 0.067909,-0.06791 0.1629824,-0.06791 0.058855,0 0.1041277,0.02716 0.045273,0.02264 0.076964,0.08149 0.036218,0.05885 0.054327,0.0996 0.018109,0.03622 0.045273,0.117709 0.027164,0.08149 0.036218,0.0996 0.018109,-0.01811 0.086018,-0.07244 0.072437,-0.05886 0.1041277,-0.08602 0.031691,-0.03169 0.076964,-0.09055 0.045273,-0.05885 0.063382,-0.122237 0.022636,-0.06338 0.022636,-0.140346 v -1.276696 q 0,-0.04075 -0.031691,-0.06791 -0.027164,-0.02716 -0.072437,-0.02716 h -0.031691 l -1.0503313,0.882822 q -0.1539278,0.135818 -0.1539278,0.353128 z m 2.8159724,0.325965 v -3.300395 H 10.00809 q 0.280692,0 0.48442,0.203728 0.203728,0.199201 0.203728,0.479893 v 0.814912 q 0,0.280692 -0.203728,0.48442 -0.203728,0.203728 -0.48442,0.203728 H 8.8989036 v 1.113714 q 0,0.09507 -0.067909,0.162982 -0.067909,0.06791 -0.1629824,0.06791 -0.095073,0 -0.1629825,-0.06791 -0.063382,-0.06791 -0.063382,-0.162982 z m 0.4572562,-1.57097 H 10.00809 q 0.09055,0 0.158455,-0.06791 0.07244,-0.06791 0.07244,-0.162983 v -0.814912 q 0,-0.09055 -0.07244,-0.158455 -0.06791,-0.06791 -0.158455,-0.06791 H 8.8989036 Z m 2.8159724,1.801862 v -1.539279 q 0,-0.185619 0.135819,-0.31691 0.135818,-0.135819 0.321437,-0.135819 h 1.340078 v -1.082022 h -1.57097 q -0.09507,0 -0.162982,-0.06791 -0.06338,-0.06791 -0.06338,-0.162982 0,-0.09055 0.06338,-0.158455 0.06791,-0.06791 0.162982,-0.06791 h 1.57097 q 0.181092,0 0.31691,0.135819 0.140346,0.135819 0.140346,0.321438 v 1.082022 q 0,0.181092 -0.135818,0.31691 -0.135819,0.135819 -0.321438,0.135819 h -1.340078 v 1.082022 h 1.566443 q 0.09507,0 0.162982,0.06791 0.06791,0.06791 0.06791,0.158455 0,0.09507 -0.06791,0.162982 -0.06791,0.06791 -0.162982,0.06791 z m 3.273229,-3.110249 v -0.194673 q 0,-0.09055 0.06338,-0.158455 0.06791,-0.06791 0.162982,-0.06791 h 2.028226 v 1.380824 q 0,0.104128 -0.08149,0.176564 l -0.81944,0.697203 v 1.045804 q 0,0.09507 -0.06791,0.162982 -0.06791,0.06791 -0.158455,0.06791 -0.09507,0 -0.162983,-0.06791 -0.06791,-0.06791 -0.06791,-0.162982 v -1.149932 q 0,-0.104128 0.08149,-0.176564 l 0.81944,-0.697203 v -0.819439 h -1.344605 q -0.01358,0.08149 -0.07696,0.135818 -0.06338,0.05433 -0.149401,0.05433 -0.09507,0 -0.162982,-0.06338 -0.06338,-0.06791 -0.06338,-0.162983 z m 3.273227,2.879357 v -3.300395 h 1.566443 q 0.280692,0 0.48442,0.203728 0.203728,0.199201 0.203728,0.479893 v 0.814912 q 0,0.280692 -0.203728,0.48442 -0.203728,0.203728 -0.48442,0.203728 h -1.109186 v 1.113714 q 0,0.09507 -0.06791,0.162982 -0.06791,0.06791 -0.162982,0.06791 -0.09507,0 -0.162983,-0.06791 -0.06338,-0.06791 -0.06338,-0.162982 z m 0.457257,-1.57097 h 1.109186 q 0.09055,0 0.158455,-0.06791 0.07244,-0.06791 0.07244,-0.162983 v -0.814912 q 0,-0.09055 -0.07244,-0.158455 -0.06791,-0.06791 -0.158455,-0.06791 h -1.109186 z m 2.815973,1.344605 v -2.616773 q 0,-0.185619 0.135819,-0.321438 0.135818,-0.135819 0.321437,-0.135819 h 1.340078 q 0.181092,0 0.31691,0.135819 0.140346,0.135819 0.140346,0.321438 v 2.616773 q 0,0.185619 -0.140346,0.321438 -0.135818,0.135819 -0.31691,0.135819 h -1.340078 q -0.185619,0 -0.321437,-0.135819 -0.135819,-0.135819 -0.135819,-0.321438 z m 0.457256,0 h 1.340078 v -2.616773 h -1.340078 z m 2.815974,0.226365 v -3.07403 q 0,-0.09055 0.06338,-0.158455 0.06791,-0.06791 0.162982,-0.06791 h 0.226365 q 0.09507,0 0.158455,0.06791 0.06791,0.06791 0.06791,0.158455 0,0.09507 -0.06791,0.162982 -0.06338,0.06791 -0.158455,0.06791 v 1.462314 h 1.570969 q 0.09507,0 0.162983,0.06791 0.06791,0.06791 0.06791,0.162982 v 1.149932 q 0,0.09507 -0.06791,0.162982 -0.06791,0.06791 -0.162983,0.06791 h -1.797334 q -0.09507,0 -0.162982,-0.06791 -0.06338,-0.06791 -0.06338,-0.162982 z m 0.452729,-0.226365 h 1.344605 v -0.697202 h -1.344605 z"
         id="text7"
         style="font-size:4.52729px;font-family:OCRA;-inkscape-font-specification:OCRA;font-variant-ligatures:none;fill:#ffffff;stroke-width:0"
         transform="matrix(0,0.98432415,-1.0159255,0,0,0)"
         aria-label="FQP27P06" />
      <g
         id="text8"
         style="font-size:3.19936px;font-family:OCRA;-inkscape-font-specification:OCRA;font-variant-ligatures:none;text-anchor:end;fill:#b9b9b9;stroke-width:0"
         transform="matrix(0,0.98432415,-1.0159255,0,0,0)"
         aria-label="QFETTM">
        <path
           d="m 2.9582165,-31.524833 v -0.902219 q 0,-0.30074 0.2239552,-0.495901 l 0.719856,-0.607878 q 0.1023795,-0.09598 0.2527494,-0.09598 0.159968,0 0.2783443,0.118376 0.1183764,0.115177 0.1183764,0.275145 v 0.90222 q 0,0.07359 -0.012797,0.140771 -0.012797,0.06399 -0.044791,0.124775 -0.031994,0.05759 -0.054389,0.09918 -0.022396,0.03839 -0.079984,0.09278 -0.054389,0.05439 -0.076785,0.07679 -0.022396,0.0192 -0.092781,0.07678 -0.070386,0.05759 -0.086383,0.07039 l 0.076785,0.195161 h 0.2079584 q 0.067187,0 0.115177,0.04799 0.04799,0.04799 0.04799,0.111977 0,0.06719 -0.04799,0.115177 -0.04799,0.04799 -0.115177,0.04799 H 3.9596162 l -0.1183763,-0.30074 -0.239952,0.204759 q -0.1087783,0.09598 -0.2527495,0.09598 -0.159968,0 -0.2751449,-0.115177 -0.115177,-0.118377 -0.115177,-0.278345 z m 0.3231354,0 q 0,0.07039 0.067186,0.07039 h 0.025595 l 0.3455309,-0.294341 -0.1183763,-0.30074 q -0.0096,-0.02239 -0.0096,-0.05759 0,-0.06719 0.04799,-0.115177 0.04799,-0.04799 0.1151769,-0.04799 0.041592,0 0.073585,0.0192 0.031994,0.016 0.054389,0.05759 0.025595,0.04159 0.038392,0.07039 0.012797,0.02559 0.031994,0.08318 0.019196,0.05759 0.025595,0.07039 0.012798,-0.0128 0.060788,-0.05119 0.05119,-0.04159 0.073585,-0.06079 0.022396,-0.0224 0.054389,-0.06399 0.031994,-0.04159 0.044791,-0.08638 0.015997,-0.04479 0.015997,-0.09918 v -0.90222 q 0,-0.02879 -0.022396,-0.04799 -0.019196,-0.0192 -0.05119,-0.0192 h -0.022395 l -0.7422515,0.623875 q -0.1087782,0.09598 -0.1087782,0.24955 z m 1.9900005,0.230354 v -2.332333 h 1.4301139 q 0.067187,0 0.1151769,0.04799 0.04799,0.04799 0.04799,0.111978 0,0.06719 -0.04799,0.115177 -0.04799,0.04799 -0.1151769,0.04799 H 5.5944877 v 0.492702 h 0.7902419 q 0.067187,0 0.1119776,0.04799 0.04799,0.04479 0.04799,0.111978 0,0.06719 -0.04799,0.115177 -0.044791,0.04799 -0.1119776,0.04799 H 5.5944877 v 1.193361 q 0,0.06719 -0.04799,0.115177 -0.04799,0.04799 -0.1151769,0.04799 -0.067187,0 -0.115177,-0.04799 -0.044791,-0.04799 -0.044791,-0.115177 z m 2.3131359,0.163168 v -2.495501 h 1.4301138 q 0.067187,0 0.115177,0.04799 0.04799,0.04799 0.04799,0.111978 0,0.06719 -0.04799,0.115177 -0.04799,0.04799 -0.115177,0.04799 H 7.9076236 v 0.761448 h 0.4735053 q 0.063987,0 0.1119776,0.04799 0.04799,0.04799 0.04799,0.115177 0,0.06719 -0.04799,0.115177 -0.04799,0.04479 -0.1119776,0.04479 H 7.9076236 v 0.764647 h 1.1069785 q 0.067187,0 0.115177,0.04799 0.04799,0.04799 0.04799,0.111977 0,0.06719 -0.04799,0.115177 -0.04799,0.04799 -0.115177,0.04799 z m 2.3131356,-2.063588 v -0.431913 h 1.5932811 v 0.431913 q 0,0.06719 -0.04799,0.115177 -0.04799,0.04799 -0.115177,0.04799 -0.06719,0 -0.115177,-0.04799 -0.04479,-0.04799 -0.04479,-0.115177 v -0.108778 h -0.313538 v 2.009198 q 0,0.06719 -0.04799,0.115177 -0.04799,0.04799 -0.111978,0.04799 -0.06719,0 -0.115176,-0.04799 -0.04799,-0.04799 -0.04799,-0.115177 v -2.009198 h -0.310338 v 0.108778 q 0,0.06719 -0.04799,0.115177 -0.04799,0.04799 -0.115177,0.04799 -0.067187,0 -0.1151771,-0.04799 -0.044791,-0.04799 -0.044791,-0.115177 z"
           id="path9" />
        <path
           style="font-size:2.07958px;baseline-shift:super"
           d="m 12.084225,-33.752384 v -0.280744 h 1.035631 v 0.280744 q 0,0.04367 -0.03119,0.07486 -0.03119,0.03119 -0.07486,0.03119 -0.04367,0 -0.07487,-0.03119 -0.02911,-0.03119 -0.02911,-0.07486 v -0.07071 h -0.203799 v 1.305976 q 0,0.04367 -0.03119,0.07487 -0.03119,0.03119 -0.07279,0.03119 -0.04367,0 -0.07487,-0.03119 -0.03119,-0.03119 -0.03119,-0.07487 v -1.305976 h -0.20172 v 0.07071 q 0,0.04367 -0.03119,0.07486 -0.03119,0.03119 -0.07486,0.03119 -0.04367,0 -0.07487,-0.03119 -0.02911,-0.03119 -0.02911,-0.07486 z m 1.503535,1.23527 v -1.516014 h 0.262027 l 0.255789,0.363927 0.253708,-0.363927 h 0.264107 v 1.516014 q 0,0.04367 -0.03119,0.07487 -0.03119,0.03119 -0.07487,0.03119 -0.04367,0 -0.07486,-0.03119 -0.02911,-0.03119 -0.02911,-0.07487 v -1.226952 l -0.203798,0.291141 v 0.05407 q 0,0.04367 -0.03119,0.07487 -0.03119,0.03119 -0.07279,0.03119 -0.04367,0 -0.07486,-0.03119 -0.03119,-0.03119 -0.03119,-0.07487 v -0.05407 l -0.201719,-0.286982 v 1.222793 q 0,0.04367 -0.03119,0.07487 -0.03119,0.03119 -0.07486,0.03119 -0.04367,0 -0.07487,-0.03119 -0.02911,-0.03119 -0.02911,-0.07487 z"
           id="path10" />
      </g>
    </g>
  </g>
</svg>
