G04 MADE WITH FRITZING*
G04 WWW.FRITZING.ORG*
G04 DOUBLE SIDED*
G04 HOLES PLATED*
G04 CONTOUR ON CENTER OF CONTOUR VECTOR*
%ASAXBY*%
%FSLAX23Y23*%
%MOIN*%
%OFA0B0*%
%SFA1.0B1.0*%
%ADD10C,0.052672*%
%ADD11C,0.088000*%
%ADD12R,0.001000X0.001000*%
%LNMASK1*%
G90*
G70*
G54D10*
X1919Y649D03*
X1819Y649D03*
X1719Y649D03*
X1620Y647D03*
X1519Y649D03*
X1419Y649D03*
X1319Y649D03*
X1219Y649D03*
X1119Y649D03*
X1021Y649D03*
X1919Y1649D03*
X1819Y1649D03*
X1719Y1649D03*
X1619Y1649D03*
X1519Y1649D03*
X1419Y1649D03*
X1319Y1649D03*
X1219Y1649D03*
X1119Y1649D03*
X1021Y1649D03*
G54D11*
X1019Y386D03*
X1119Y386D03*
X1219Y386D03*
X1319Y386D03*
X1419Y386D03*
X1519Y386D03*
X1619Y386D03*
X1719Y386D03*
X1819Y386D03*
X1919Y386D03*
X1019Y1861D03*
X1119Y1861D03*
X1219Y1861D03*
X1319Y1861D03*
X1419Y1861D03*
X1519Y1861D03*
X1619Y1861D03*
X1719Y1861D03*
X1819Y1861D03*
X1919Y1861D03*
X2444Y2061D03*
X2444Y1961D03*
X2444Y1861D03*
G54D12*
X1018Y1707D02*
X1026Y1707D01*
X1116Y1707D02*
X1124Y1707D01*
X1216Y1707D02*
X1224Y1707D01*
X1316Y1707D02*
X1324Y1707D01*
X1416Y1707D02*
X1424Y1707D01*
X1516Y1707D02*
X1524Y1707D01*
X1615Y1707D02*
X1624Y1707D01*
X1715Y1707D02*
X1724Y1707D01*
X1815Y1707D02*
X1824Y1707D01*
X1916Y1707D02*
X1924Y1707D01*
X1013Y1706D02*
X1031Y1706D01*
X1111Y1706D02*
X1128Y1706D01*
X1211Y1706D02*
X1229Y1706D01*
X1311Y1706D02*
X1329Y1706D01*
X1411Y1706D02*
X1428Y1706D01*
X1511Y1706D02*
X1528Y1706D01*
X1611Y1706D02*
X1629Y1706D01*
X1711Y1706D02*
X1729Y1706D01*
X1811Y1706D02*
X1828Y1706D01*
X1911Y1706D02*
X1928Y1706D01*
X1010Y1705D02*
X1033Y1705D01*
X1108Y1705D02*
X1131Y1705D01*
X1208Y1705D02*
X1231Y1705D01*
X1308Y1705D02*
X1331Y1705D01*
X1408Y1705D02*
X1431Y1705D01*
X1508Y1705D02*
X1531Y1705D01*
X1608Y1705D02*
X1631Y1705D01*
X1708Y1705D02*
X1731Y1705D01*
X1808Y1705D02*
X1831Y1705D01*
X1908Y1705D02*
X1931Y1705D01*
X1008Y1704D02*
X1035Y1704D01*
X1106Y1704D02*
X1133Y1704D01*
X1206Y1704D02*
X1233Y1704D01*
X1306Y1704D02*
X1333Y1704D01*
X1406Y1704D02*
X1433Y1704D01*
X1506Y1704D02*
X1533Y1704D01*
X1606Y1704D02*
X1633Y1704D01*
X1706Y1704D02*
X1733Y1704D01*
X1806Y1704D02*
X1833Y1704D01*
X1906Y1704D02*
X1933Y1704D01*
X1006Y1703D02*
X1037Y1703D01*
X1104Y1703D02*
X1135Y1703D01*
X1204Y1703D02*
X1235Y1703D01*
X1304Y1703D02*
X1335Y1703D01*
X1404Y1703D02*
X1435Y1703D01*
X1504Y1703D02*
X1535Y1703D01*
X1604Y1703D02*
X1635Y1703D01*
X1704Y1703D02*
X1735Y1703D01*
X1804Y1703D02*
X1835Y1703D01*
X1904Y1703D02*
X1935Y1703D01*
X1005Y1702D02*
X1039Y1702D01*
X1103Y1702D02*
X1137Y1702D01*
X1203Y1702D02*
X1237Y1702D01*
X1303Y1702D02*
X1337Y1702D01*
X1403Y1702D02*
X1437Y1702D01*
X1503Y1702D02*
X1537Y1702D01*
X1603Y1702D02*
X1637Y1702D01*
X1703Y1702D02*
X1737Y1702D01*
X1803Y1702D02*
X1837Y1702D01*
X1903Y1702D02*
X1937Y1702D01*
X1003Y1701D02*
X1040Y1701D01*
X1101Y1701D02*
X1138Y1701D01*
X1201Y1701D02*
X1238Y1701D01*
X1301Y1701D02*
X1338Y1701D01*
X1401Y1701D02*
X1438Y1701D01*
X1501Y1701D02*
X1538Y1701D01*
X1601Y1701D02*
X1638Y1701D01*
X1701Y1701D02*
X1738Y1701D01*
X1801Y1701D02*
X1838Y1701D01*
X1901Y1701D02*
X1938Y1701D01*
X1002Y1700D02*
X1042Y1700D01*
X1100Y1700D02*
X1139Y1700D01*
X1200Y1700D02*
X1239Y1700D01*
X1300Y1700D02*
X1339Y1700D01*
X1400Y1700D02*
X1439Y1700D01*
X1500Y1700D02*
X1539Y1700D01*
X1600Y1700D02*
X1639Y1700D01*
X1700Y1700D02*
X1739Y1700D01*
X1800Y1700D02*
X1839Y1700D01*
X1900Y1700D02*
X1939Y1700D01*
X1001Y1699D02*
X1043Y1699D01*
X1099Y1699D02*
X1141Y1699D01*
X1199Y1699D02*
X1241Y1699D01*
X1299Y1699D02*
X1341Y1699D01*
X1399Y1699D02*
X1441Y1699D01*
X1499Y1699D02*
X1541Y1699D01*
X1599Y1699D02*
X1641Y1699D01*
X1699Y1699D02*
X1741Y1699D01*
X1799Y1699D02*
X1841Y1699D01*
X1899Y1699D02*
X1941Y1699D01*
X1000Y1698D02*
X1044Y1698D01*
X1098Y1698D02*
X1142Y1698D01*
X1198Y1698D02*
X1242Y1698D01*
X1298Y1698D02*
X1342Y1698D01*
X1398Y1698D02*
X1442Y1698D01*
X1498Y1698D02*
X1542Y1698D01*
X1598Y1698D02*
X1642Y1698D01*
X1698Y1698D02*
X1742Y1698D01*
X1798Y1698D02*
X1842Y1698D01*
X1898Y1698D02*
X1942Y1698D01*
X999Y1697D02*
X1045Y1697D01*
X1097Y1697D02*
X1143Y1697D01*
X1197Y1697D02*
X1243Y1697D01*
X1297Y1697D02*
X1343Y1697D01*
X1397Y1697D02*
X1443Y1697D01*
X1497Y1697D02*
X1543Y1697D01*
X1597Y1697D02*
X1643Y1697D01*
X1697Y1697D02*
X1743Y1697D01*
X1797Y1697D02*
X1843Y1697D01*
X1897Y1697D02*
X1942Y1697D01*
X998Y1696D02*
X1045Y1696D01*
X1096Y1696D02*
X1143Y1696D01*
X1196Y1696D02*
X1243Y1696D01*
X1296Y1696D02*
X1343Y1696D01*
X1396Y1696D02*
X1443Y1696D01*
X1496Y1696D02*
X1543Y1696D01*
X1596Y1696D02*
X1643Y1696D01*
X1696Y1696D02*
X1743Y1696D01*
X1796Y1696D02*
X1843Y1696D01*
X1896Y1696D02*
X1943Y1696D01*
X997Y1695D02*
X1046Y1695D01*
X1095Y1695D02*
X1144Y1695D01*
X1195Y1695D02*
X1244Y1695D01*
X1295Y1695D02*
X1344Y1695D01*
X1395Y1695D02*
X1444Y1695D01*
X1495Y1695D02*
X1544Y1695D01*
X1595Y1695D02*
X1644Y1695D01*
X1695Y1695D02*
X1744Y1695D01*
X1795Y1695D02*
X1844Y1695D01*
X1895Y1695D02*
X1944Y1695D01*
X997Y1694D02*
X1047Y1694D01*
X1095Y1694D02*
X1145Y1694D01*
X1195Y1694D02*
X1245Y1694D01*
X1295Y1694D02*
X1345Y1694D01*
X1395Y1694D02*
X1445Y1694D01*
X1495Y1694D02*
X1545Y1694D01*
X1595Y1694D02*
X1645Y1694D01*
X1695Y1694D02*
X1745Y1694D01*
X1795Y1694D02*
X1845Y1694D01*
X1895Y1694D02*
X1945Y1694D01*
X996Y1693D02*
X1048Y1693D01*
X1094Y1693D02*
X1146Y1693D01*
X1194Y1693D02*
X1246Y1693D01*
X1294Y1693D02*
X1346Y1693D01*
X1394Y1693D02*
X1446Y1693D01*
X1494Y1693D02*
X1546Y1693D01*
X1594Y1693D02*
X1646Y1693D01*
X1694Y1693D02*
X1746Y1693D01*
X1794Y1693D02*
X1846Y1693D01*
X1894Y1693D02*
X1946Y1693D01*
X995Y1692D02*
X1048Y1692D01*
X1093Y1692D02*
X1146Y1692D01*
X1193Y1692D02*
X1246Y1692D01*
X1293Y1692D02*
X1346Y1692D01*
X1393Y1692D02*
X1446Y1692D01*
X1493Y1692D02*
X1546Y1692D01*
X1593Y1692D02*
X1646Y1692D01*
X1693Y1692D02*
X1746Y1692D01*
X1793Y1692D02*
X1846Y1692D01*
X1893Y1692D02*
X1946Y1692D01*
X995Y1691D02*
X1049Y1691D01*
X1093Y1691D02*
X1147Y1691D01*
X1193Y1691D02*
X1247Y1691D01*
X1293Y1691D02*
X1347Y1691D01*
X1393Y1691D02*
X1447Y1691D01*
X1493Y1691D02*
X1547Y1691D01*
X1593Y1691D02*
X1647Y1691D01*
X1693Y1691D02*
X1747Y1691D01*
X1793Y1691D02*
X1847Y1691D01*
X1893Y1691D02*
X1947Y1691D01*
X994Y1690D02*
X1049Y1690D01*
X1092Y1690D02*
X1147Y1690D01*
X1192Y1690D02*
X1247Y1690D01*
X1292Y1690D02*
X1347Y1690D01*
X1392Y1690D02*
X1447Y1690D01*
X1492Y1690D02*
X1547Y1690D01*
X1592Y1690D02*
X1647Y1690D01*
X1692Y1690D02*
X1747Y1690D01*
X1792Y1690D02*
X1847Y1690D01*
X1892Y1690D02*
X1947Y1690D01*
X994Y1689D02*
X1050Y1689D01*
X1092Y1689D02*
X1148Y1689D01*
X1192Y1689D02*
X1248Y1689D01*
X1292Y1689D02*
X1348Y1689D01*
X1392Y1689D02*
X1448Y1689D01*
X1492Y1689D02*
X1548Y1689D01*
X1592Y1689D02*
X1648Y1689D01*
X1692Y1689D02*
X1748Y1689D01*
X1792Y1689D02*
X1848Y1689D01*
X1892Y1689D02*
X1948Y1689D01*
X993Y1688D02*
X1050Y1688D01*
X1091Y1688D02*
X1148Y1688D01*
X1191Y1688D02*
X1248Y1688D01*
X1291Y1688D02*
X1348Y1688D01*
X1391Y1688D02*
X1448Y1688D01*
X1491Y1688D02*
X1548Y1688D01*
X1591Y1688D02*
X1648Y1688D01*
X1691Y1688D02*
X1748Y1688D01*
X1791Y1688D02*
X1848Y1688D01*
X1891Y1688D02*
X1948Y1688D01*
X993Y1687D02*
X1051Y1687D01*
X1091Y1687D02*
X1149Y1687D01*
X1191Y1687D02*
X1249Y1687D01*
X1291Y1687D02*
X1349Y1687D01*
X1391Y1687D02*
X1449Y1687D01*
X1491Y1687D02*
X1549Y1687D01*
X1591Y1687D02*
X1649Y1687D01*
X1691Y1687D02*
X1749Y1687D01*
X1791Y1687D02*
X1849Y1687D01*
X1891Y1687D02*
X1949Y1687D01*
X993Y1686D02*
X1051Y1686D01*
X1091Y1686D02*
X1149Y1686D01*
X1191Y1686D02*
X1249Y1686D01*
X1291Y1686D02*
X1349Y1686D01*
X1391Y1686D02*
X1449Y1686D01*
X1491Y1686D02*
X1549Y1686D01*
X1591Y1686D02*
X1649Y1686D01*
X1691Y1686D02*
X1749Y1686D01*
X1791Y1686D02*
X1849Y1686D01*
X1891Y1686D02*
X1949Y1686D01*
X992Y1685D02*
X1051Y1685D01*
X1090Y1685D02*
X1149Y1685D01*
X1190Y1685D02*
X1249Y1685D01*
X1290Y1685D02*
X1349Y1685D01*
X1390Y1685D02*
X1449Y1685D01*
X1490Y1685D02*
X1549Y1685D01*
X1590Y1685D02*
X1649Y1685D01*
X1690Y1685D02*
X1749Y1685D01*
X1790Y1685D02*
X1849Y1685D01*
X1890Y1685D02*
X1949Y1685D01*
X992Y1684D02*
X1052Y1684D01*
X1090Y1684D02*
X1150Y1684D01*
X1190Y1684D02*
X1250Y1684D01*
X1290Y1684D02*
X1350Y1684D01*
X1390Y1684D02*
X1450Y1684D01*
X1490Y1684D02*
X1550Y1684D01*
X1590Y1684D02*
X1650Y1684D01*
X1690Y1684D02*
X1750Y1684D01*
X1790Y1684D02*
X1850Y1684D01*
X1890Y1684D02*
X1949Y1684D01*
X992Y1683D02*
X1052Y1683D01*
X1090Y1683D02*
X1150Y1683D01*
X1190Y1683D02*
X1250Y1683D01*
X1290Y1683D02*
X1350Y1683D01*
X1390Y1683D02*
X1450Y1683D01*
X1490Y1683D02*
X1550Y1683D01*
X1590Y1683D02*
X1650Y1683D01*
X1690Y1683D02*
X1750Y1683D01*
X1790Y1683D02*
X1850Y1683D01*
X1890Y1683D02*
X1950Y1683D01*
X992Y1682D02*
X1052Y1682D01*
X1090Y1682D02*
X1150Y1682D01*
X1190Y1682D02*
X1250Y1682D01*
X1290Y1682D02*
X1350Y1682D01*
X1390Y1682D02*
X1450Y1682D01*
X1490Y1682D02*
X1550Y1682D01*
X1590Y1682D02*
X1650Y1682D01*
X1690Y1682D02*
X1750Y1682D01*
X1790Y1682D02*
X1850Y1682D01*
X1890Y1682D02*
X1950Y1682D01*
X991Y1681D02*
X1052Y1681D01*
X1089Y1681D02*
X1150Y1681D01*
X1189Y1681D02*
X1250Y1681D01*
X1289Y1681D02*
X1350Y1681D01*
X1389Y1681D02*
X1450Y1681D01*
X1489Y1681D02*
X1550Y1681D01*
X1589Y1681D02*
X1650Y1681D01*
X1689Y1681D02*
X1750Y1681D01*
X1789Y1681D02*
X1850Y1681D01*
X1889Y1681D02*
X1950Y1681D01*
X991Y1680D02*
X1052Y1680D01*
X1089Y1680D02*
X1150Y1680D01*
X1189Y1680D02*
X1250Y1680D01*
X1289Y1680D02*
X1350Y1680D01*
X1389Y1680D02*
X1450Y1680D01*
X1489Y1680D02*
X1550Y1680D01*
X1589Y1680D02*
X1650Y1680D01*
X1689Y1680D02*
X1750Y1680D01*
X1789Y1680D02*
X1850Y1680D01*
X1889Y1680D02*
X1950Y1680D01*
X991Y1679D02*
X1052Y1679D01*
X1089Y1679D02*
X1150Y1679D01*
X1189Y1679D02*
X1250Y1679D01*
X1289Y1679D02*
X1350Y1679D01*
X1389Y1679D02*
X1450Y1679D01*
X1489Y1679D02*
X1550Y1679D01*
X1589Y1679D02*
X1650Y1679D01*
X1689Y1679D02*
X1750Y1679D01*
X1789Y1679D02*
X1850Y1679D01*
X1889Y1679D02*
X1950Y1679D01*
X991Y1678D02*
X1053Y1678D01*
X1089Y1678D02*
X1151Y1678D01*
X1189Y1678D02*
X1251Y1678D01*
X1289Y1678D02*
X1351Y1678D01*
X1389Y1678D02*
X1451Y1678D01*
X1489Y1678D02*
X1550Y1678D01*
X1589Y1678D02*
X1651Y1678D01*
X1689Y1678D02*
X1750Y1678D01*
X1789Y1678D02*
X1850Y1678D01*
X1889Y1678D02*
X1950Y1678D01*
X991Y1677D02*
X1053Y1677D01*
X1089Y1677D02*
X1151Y1677D01*
X1189Y1677D02*
X1251Y1677D01*
X1289Y1677D02*
X1351Y1677D01*
X1389Y1677D02*
X1451Y1677D01*
X1489Y1677D02*
X1551Y1677D01*
X1589Y1677D02*
X1651Y1677D01*
X1689Y1677D02*
X1751Y1677D01*
X1789Y1677D02*
X1851Y1677D01*
X1889Y1677D02*
X1951Y1677D01*
X991Y1676D02*
X1053Y1676D01*
X1089Y1676D02*
X1151Y1676D01*
X1189Y1676D02*
X1251Y1676D01*
X1289Y1676D02*
X1351Y1676D01*
X1389Y1676D02*
X1451Y1676D01*
X1489Y1676D02*
X1551Y1676D01*
X1589Y1676D02*
X1651Y1676D01*
X1689Y1676D02*
X1751Y1676D01*
X1789Y1676D02*
X1851Y1676D01*
X1889Y1676D02*
X1951Y1676D01*
X991Y1675D02*
X1053Y1675D01*
X1089Y1675D02*
X1151Y1675D01*
X1189Y1675D02*
X1251Y1675D01*
X1289Y1675D02*
X1351Y1675D01*
X1389Y1675D02*
X1451Y1675D01*
X1489Y1675D02*
X1551Y1675D01*
X1589Y1675D02*
X1651Y1675D01*
X1689Y1675D02*
X1751Y1675D01*
X1789Y1675D02*
X1851Y1675D01*
X1889Y1675D02*
X1951Y1675D01*
X991Y1674D02*
X1053Y1674D01*
X1089Y1674D02*
X1151Y1674D01*
X1189Y1674D02*
X1251Y1674D01*
X1289Y1674D02*
X1351Y1674D01*
X1389Y1674D02*
X1451Y1674D01*
X1489Y1674D02*
X1551Y1674D01*
X1589Y1674D02*
X1651Y1674D01*
X1689Y1674D02*
X1751Y1674D01*
X1789Y1674D02*
X1851Y1674D01*
X1889Y1674D02*
X1951Y1674D01*
X991Y1673D02*
X1053Y1673D01*
X1089Y1673D02*
X1151Y1673D01*
X1189Y1673D02*
X1251Y1673D01*
X1289Y1673D02*
X1351Y1673D01*
X1389Y1673D02*
X1451Y1673D01*
X1489Y1673D02*
X1551Y1673D01*
X1589Y1673D02*
X1651Y1673D01*
X1689Y1673D02*
X1751Y1673D01*
X1789Y1673D02*
X1851Y1673D01*
X1889Y1673D02*
X1951Y1673D01*
X991Y1672D02*
X1053Y1672D01*
X1089Y1672D02*
X1151Y1672D01*
X1189Y1672D02*
X1251Y1672D01*
X1289Y1672D02*
X1351Y1672D01*
X1389Y1672D02*
X1451Y1672D01*
X1489Y1672D02*
X1551Y1672D01*
X1589Y1672D02*
X1651Y1672D01*
X1689Y1672D02*
X1751Y1672D01*
X1789Y1672D02*
X1851Y1672D01*
X1889Y1672D02*
X1951Y1672D01*
X991Y1671D02*
X1053Y1671D01*
X1089Y1671D02*
X1151Y1671D01*
X1189Y1671D02*
X1251Y1671D01*
X1289Y1671D02*
X1351Y1671D01*
X1389Y1671D02*
X1451Y1671D01*
X1489Y1671D02*
X1551Y1671D01*
X1589Y1671D02*
X1651Y1671D01*
X1689Y1671D02*
X1751Y1671D01*
X1789Y1671D02*
X1851Y1671D01*
X1889Y1671D02*
X1951Y1671D01*
X991Y1670D02*
X1053Y1670D01*
X1089Y1670D02*
X1151Y1670D01*
X1189Y1670D02*
X1251Y1670D01*
X1289Y1670D02*
X1351Y1670D01*
X1389Y1670D02*
X1451Y1670D01*
X1489Y1670D02*
X1551Y1670D01*
X1589Y1670D02*
X1651Y1670D01*
X1689Y1670D02*
X1751Y1670D01*
X1789Y1670D02*
X1851Y1670D01*
X1889Y1670D02*
X1951Y1670D01*
X991Y1669D02*
X1053Y1669D01*
X1089Y1669D02*
X1151Y1669D01*
X1189Y1669D02*
X1251Y1669D01*
X1289Y1669D02*
X1351Y1669D01*
X1389Y1669D02*
X1451Y1669D01*
X1489Y1669D02*
X1551Y1669D01*
X1589Y1669D02*
X1651Y1669D01*
X1689Y1669D02*
X1751Y1669D01*
X1789Y1669D02*
X1851Y1669D01*
X1889Y1669D02*
X1951Y1669D01*
X991Y1668D02*
X1053Y1668D01*
X1089Y1668D02*
X1151Y1668D01*
X1189Y1668D02*
X1251Y1668D01*
X1289Y1668D02*
X1351Y1668D01*
X1389Y1668D02*
X1451Y1668D01*
X1489Y1668D02*
X1551Y1668D01*
X1589Y1668D02*
X1651Y1668D01*
X1689Y1668D02*
X1751Y1668D01*
X1789Y1668D02*
X1851Y1668D01*
X1889Y1668D02*
X1951Y1668D01*
X991Y1667D02*
X1053Y1667D01*
X1089Y1667D02*
X1151Y1667D01*
X1189Y1667D02*
X1251Y1667D01*
X1289Y1667D02*
X1351Y1667D01*
X1389Y1667D02*
X1451Y1667D01*
X1489Y1667D02*
X1551Y1667D01*
X1589Y1667D02*
X1651Y1667D01*
X1689Y1667D02*
X1751Y1667D01*
X1789Y1667D02*
X1851Y1667D01*
X1889Y1667D02*
X1951Y1667D01*
X991Y1666D02*
X1053Y1666D01*
X1089Y1666D02*
X1151Y1666D01*
X1189Y1666D02*
X1251Y1666D01*
X1289Y1666D02*
X1351Y1666D01*
X1389Y1666D02*
X1451Y1666D01*
X1489Y1666D02*
X1551Y1666D01*
X1589Y1666D02*
X1651Y1666D01*
X1689Y1666D02*
X1751Y1666D01*
X1789Y1666D02*
X1851Y1666D01*
X1889Y1666D02*
X1951Y1666D01*
X991Y1665D02*
X1053Y1665D01*
X1089Y1665D02*
X1151Y1665D01*
X1189Y1665D02*
X1251Y1665D01*
X1289Y1665D02*
X1351Y1665D01*
X1389Y1665D02*
X1451Y1665D01*
X1489Y1665D02*
X1551Y1665D01*
X1589Y1665D02*
X1651Y1665D01*
X1689Y1665D02*
X1751Y1665D01*
X1789Y1665D02*
X1851Y1665D01*
X1889Y1665D02*
X1951Y1665D01*
X991Y1664D02*
X1053Y1664D01*
X1089Y1664D02*
X1151Y1664D01*
X1189Y1664D02*
X1251Y1664D01*
X1289Y1664D02*
X1351Y1664D01*
X1389Y1664D02*
X1451Y1664D01*
X1489Y1664D02*
X1551Y1664D01*
X1589Y1664D02*
X1651Y1664D01*
X1689Y1664D02*
X1751Y1664D01*
X1789Y1664D02*
X1851Y1664D01*
X1889Y1664D02*
X1951Y1664D01*
X991Y1663D02*
X1053Y1663D01*
X1089Y1663D02*
X1151Y1663D01*
X1189Y1663D02*
X1251Y1663D01*
X1289Y1663D02*
X1351Y1663D01*
X1389Y1663D02*
X1451Y1663D01*
X1489Y1663D02*
X1551Y1663D01*
X1589Y1663D02*
X1651Y1663D01*
X1689Y1663D02*
X1751Y1663D01*
X1789Y1663D02*
X1851Y1663D01*
X1889Y1663D02*
X1951Y1663D01*
X991Y1662D02*
X1053Y1662D01*
X1089Y1662D02*
X1151Y1662D01*
X1189Y1662D02*
X1251Y1662D01*
X1289Y1662D02*
X1351Y1662D01*
X1389Y1662D02*
X1451Y1662D01*
X1489Y1662D02*
X1551Y1662D01*
X1589Y1662D02*
X1651Y1662D01*
X1689Y1662D02*
X1751Y1662D01*
X1789Y1662D02*
X1851Y1662D01*
X1889Y1662D02*
X1951Y1662D01*
X991Y1661D02*
X1018Y1661D01*
X1025Y1661D02*
X1053Y1661D01*
X1089Y1661D02*
X1116Y1661D01*
X1123Y1661D02*
X1151Y1661D01*
X1189Y1661D02*
X1216Y1661D01*
X1223Y1661D02*
X1251Y1661D01*
X1289Y1661D02*
X1316Y1661D01*
X1323Y1661D02*
X1351Y1661D01*
X1389Y1661D02*
X1416Y1661D01*
X1423Y1661D02*
X1451Y1661D01*
X1489Y1661D02*
X1516Y1661D01*
X1523Y1661D02*
X1551Y1661D01*
X1589Y1661D02*
X1616Y1661D01*
X1623Y1661D02*
X1651Y1661D01*
X1689Y1661D02*
X1716Y1661D01*
X1723Y1661D02*
X1751Y1661D01*
X1789Y1661D02*
X1816Y1661D01*
X1823Y1661D02*
X1851Y1661D01*
X1889Y1661D02*
X1916Y1661D01*
X1923Y1661D02*
X1951Y1661D01*
X991Y1660D02*
X1016Y1660D01*
X1028Y1660D02*
X1053Y1660D01*
X1089Y1660D02*
X1114Y1660D01*
X1126Y1660D02*
X1151Y1660D01*
X1189Y1660D02*
X1214Y1660D01*
X1226Y1660D02*
X1251Y1660D01*
X1289Y1660D02*
X1314Y1660D01*
X1326Y1660D02*
X1351Y1660D01*
X1389Y1660D02*
X1414Y1660D01*
X1426Y1660D02*
X1451Y1660D01*
X1489Y1660D02*
X1514Y1660D01*
X1526Y1660D02*
X1551Y1660D01*
X1589Y1660D02*
X1614Y1660D01*
X1626Y1660D02*
X1651Y1660D01*
X1689Y1660D02*
X1714Y1660D01*
X1726Y1660D02*
X1751Y1660D01*
X1789Y1660D02*
X1814Y1660D01*
X1826Y1660D02*
X1851Y1660D01*
X1889Y1660D02*
X1914Y1660D01*
X1926Y1660D02*
X1951Y1660D01*
X991Y1659D02*
X1014Y1659D01*
X1029Y1659D02*
X1053Y1659D01*
X1089Y1659D02*
X1113Y1659D01*
X1127Y1659D02*
X1151Y1659D01*
X1189Y1659D02*
X1212Y1659D01*
X1227Y1659D02*
X1251Y1659D01*
X1289Y1659D02*
X1312Y1659D01*
X1327Y1659D02*
X1351Y1659D01*
X1389Y1659D02*
X1412Y1659D01*
X1427Y1659D02*
X1451Y1659D01*
X1489Y1659D02*
X1512Y1659D01*
X1527Y1659D02*
X1551Y1659D01*
X1589Y1659D02*
X1612Y1659D01*
X1627Y1659D02*
X1651Y1659D01*
X1689Y1659D02*
X1712Y1659D01*
X1727Y1659D02*
X1751Y1659D01*
X1789Y1659D02*
X1812Y1659D01*
X1827Y1659D02*
X1851Y1659D01*
X1889Y1659D02*
X1912Y1659D01*
X1927Y1659D02*
X1951Y1659D01*
X991Y1658D02*
X1013Y1658D01*
X1030Y1658D02*
X1053Y1658D01*
X1089Y1658D02*
X1111Y1658D01*
X1128Y1658D02*
X1151Y1658D01*
X1189Y1658D02*
X1211Y1658D01*
X1228Y1658D02*
X1251Y1658D01*
X1289Y1658D02*
X1311Y1658D01*
X1328Y1658D02*
X1351Y1658D01*
X1389Y1658D02*
X1411Y1658D01*
X1428Y1658D02*
X1451Y1658D01*
X1489Y1658D02*
X1511Y1658D01*
X1528Y1658D02*
X1551Y1658D01*
X1589Y1658D02*
X1611Y1658D01*
X1628Y1658D02*
X1651Y1658D01*
X1689Y1658D02*
X1711Y1658D01*
X1728Y1658D02*
X1751Y1658D01*
X1789Y1658D02*
X1811Y1658D01*
X1828Y1658D02*
X1851Y1658D01*
X1889Y1658D02*
X1911Y1658D01*
X1928Y1658D02*
X1951Y1658D01*
X991Y1657D02*
X1013Y1657D01*
X1031Y1657D02*
X1053Y1657D01*
X1089Y1657D02*
X1111Y1657D01*
X1129Y1657D02*
X1151Y1657D01*
X1189Y1657D02*
X1211Y1657D01*
X1229Y1657D02*
X1251Y1657D01*
X1289Y1657D02*
X1311Y1657D01*
X1329Y1657D02*
X1351Y1657D01*
X1389Y1657D02*
X1411Y1657D01*
X1429Y1657D02*
X1451Y1657D01*
X1489Y1657D02*
X1511Y1657D01*
X1529Y1657D02*
X1551Y1657D01*
X1589Y1657D02*
X1611Y1657D01*
X1629Y1657D02*
X1651Y1657D01*
X1689Y1657D02*
X1711Y1657D01*
X1729Y1657D02*
X1751Y1657D01*
X1789Y1657D02*
X1811Y1657D01*
X1829Y1657D02*
X1851Y1657D01*
X1889Y1657D02*
X1911Y1657D01*
X1929Y1657D02*
X1951Y1657D01*
X991Y1656D02*
X1012Y1656D01*
X1032Y1656D02*
X1053Y1656D01*
X1089Y1656D02*
X1110Y1656D01*
X1130Y1656D02*
X1151Y1656D01*
X1189Y1656D02*
X1210Y1656D01*
X1230Y1656D02*
X1251Y1656D01*
X1289Y1656D02*
X1310Y1656D01*
X1330Y1656D02*
X1351Y1656D01*
X1389Y1656D02*
X1410Y1656D01*
X1429Y1656D02*
X1451Y1656D01*
X1489Y1656D02*
X1510Y1656D01*
X1529Y1656D02*
X1551Y1656D01*
X1589Y1656D02*
X1610Y1656D01*
X1629Y1656D02*
X1651Y1656D01*
X1689Y1656D02*
X1710Y1656D01*
X1729Y1656D02*
X1751Y1656D01*
X1789Y1656D02*
X1810Y1656D01*
X1829Y1656D02*
X1851Y1656D01*
X1889Y1656D02*
X1910Y1656D01*
X1929Y1656D02*
X1951Y1656D01*
X991Y1655D02*
X1011Y1655D01*
X1032Y1655D02*
X1053Y1655D01*
X1089Y1655D02*
X1109Y1655D01*
X1130Y1655D02*
X1151Y1655D01*
X1189Y1655D02*
X1209Y1655D01*
X1230Y1655D02*
X1251Y1655D01*
X1289Y1655D02*
X1309Y1655D01*
X1330Y1655D02*
X1351Y1655D01*
X1389Y1655D02*
X1409Y1655D01*
X1430Y1655D02*
X1451Y1655D01*
X1489Y1655D02*
X1509Y1655D01*
X1530Y1655D02*
X1551Y1655D01*
X1589Y1655D02*
X1609Y1655D01*
X1630Y1655D02*
X1651Y1655D01*
X1689Y1655D02*
X1709Y1655D01*
X1730Y1655D02*
X1751Y1655D01*
X1789Y1655D02*
X1809Y1655D01*
X1830Y1655D02*
X1851Y1655D01*
X1889Y1655D02*
X1909Y1655D01*
X1930Y1655D02*
X1951Y1655D01*
X991Y1654D02*
X1011Y1654D01*
X1032Y1654D02*
X1053Y1654D01*
X1089Y1654D02*
X1109Y1654D01*
X1130Y1654D02*
X1151Y1654D01*
X1189Y1654D02*
X1209Y1654D01*
X1230Y1654D02*
X1251Y1654D01*
X1289Y1654D02*
X1309Y1654D01*
X1330Y1654D02*
X1351Y1654D01*
X1389Y1654D02*
X1409Y1654D01*
X1430Y1654D02*
X1451Y1654D01*
X1489Y1654D02*
X1509Y1654D01*
X1530Y1654D02*
X1551Y1654D01*
X1589Y1654D02*
X1609Y1654D01*
X1630Y1654D02*
X1651Y1654D01*
X1689Y1654D02*
X1709Y1654D01*
X1730Y1654D02*
X1751Y1654D01*
X1789Y1654D02*
X1809Y1654D01*
X1830Y1654D02*
X1851Y1654D01*
X1889Y1654D02*
X1909Y1654D01*
X1930Y1654D02*
X1951Y1654D01*
X991Y1653D02*
X1011Y1653D01*
X1033Y1653D02*
X1053Y1653D01*
X1089Y1653D02*
X1109Y1653D01*
X1131Y1653D02*
X1151Y1653D01*
X1189Y1653D02*
X1209Y1653D01*
X1231Y1653D02*
X1251Y1653D01*
X1289Y1653D02*
X1309Y1653D01*
X1331Y1653D02*
X1351Y1653D01*
X1389Y1653D02*
X1409Y1653D01*
X1431Y1653D02*
X1451Y1653D01*
X1489Y1653D02*
X1509Y1653D01*
X1531Y1653D02*
X1551Y1653D01*
X1589Y1653D02*
X1609Y1653D01*
X1631Y1653D02*
X1651Y1653D01*
X1689Y1653D02*
X1709Y1653D01*
X1731Y1653D02*
X1751Y1653D01*
X1789Y1653D02*
X1809Y1653D01*
X1831Y1653D02*
X1851Y1653D01*
X1889Y1653D02*
X1909Y1653D01*
X1931Y1653D02*
X1951Y1653D01*
X991Y1652D02*
X1011Y1652D01*
X1033Y1652D02*
X1053Y1652D01*
X1089Y1652D02*
X1109Y1652D01*
X1131Y1652D02*
X1151Y1652D01*
X1189Y1652D02*
X1209Y1652D01*
X1231Y1652D02*
X1251Y1652D01*
X1289Y1652D02*
X1309Y1652D01*
X1331Y1652D02*
X1351Y1652D01*
X1389Y1652D02*
X1409Y1652D01*
X1431Y1652D02*
X1451Y1652D01*
X1489Y1652D02*
X1509Y1652D01*
X1531Y1652D02*
X1551Y1652D01*
X1589Y1652D02*
X1609Y1652D01*
X1631Y1652D02*
X1651Y1652D01*
X1689Y1652D02*
X1709Y1652D01*
X1731Y1652D02*
X1751Y1652D01*
X1789Y1652D02*
X1809Y1652D01*
X1831Y1652D02*
X1851Y1652D01*
X1889Y1652D02*
X1909Y1652D01*
X1931Y1652D02*
X1951Y1652D01*
X991Y1651D02*
X1011Y1651D01*
X1033Y1651D02*
X1053Y1651D01*
X1089Y1651D02*
X1109Y1651D01*
X1131Y1651D02*
X1151Y1651D01*
X1189Y1651D02*
X1209Y1651D01*
X1231Y1651D02*
X1251Y1651D01*
X1289Y1651D02*
X1309Y1651D01*
X1331Y1651D02*
X1351Y1651D01*
X1389Y1651D02*
X1409Y1651D01*
X1431Y1651D02*
X1451Y1651D01*
X1489Y1651D02*
X1509Y1651D01*
X1531Y1651D02*
X1551Y1651D01*
X1589Y1651D02*
X1609Y1651D01*
X1631Y1651D02*
X1651Y1651D01*
X1689Y1651D02*
X1709Y1651D01*
X1731Y1651D02*
X1751Y1651D01*
X1789Y1651D02*
X1809Y1651D01*
X1831Y1651D02*
X1851Y1651D01*
X1889Y1651D02*
X1909Y1651D01*
X1931Y1651D02*
X1951Y1651D01*
X991Y1650D02*
X1011Y1650D01*
X1033Y1650D02*
X1053Y1650D01*
X1089Y1650D02*
X1109Y1650D01*
X1131Y1650D02*
X1151Y1650D01*
X1189Y1650D02*
X1209Y1650D01*
X1231Y1650D02*
X1251Y1650D01*
X1289Y1650D02*
X1309Y1650D01*
X1331Y1650D02*
X1351Y1650D01*
X1389Y1650D02*
X1409Y1650D01*
X1431Y1650D02*
X1451Y1650D01*
X1489Y1650D02*
X1509Y1650D01*
X1531Y1650D02*
X1551Y1650D01*
X1589Y1650D02*
X1609Y1650D01*
X1631Y1650D02*
X1651Y1650D01*
X1689Y1650D02*
X1709Y1650D01*
X1731Y1650D02*
X1751Y1650D01*
X1789Y1650D02*
X1809Y1650D01*
X1831Y1650D02*
X1851Y1650D01*
X1889Y1650D02*
X1909Y1650D01*
X1931Y1650D02*
X1951Y1650D01*
X991Y1649D02*
X1011Y1649D01*
X1033Y1649D02*
X1053Y1649D01*
X1089Y1649D02*
X1109Y1649D01*
X1131Y1649D02*
X1151Y1649D01*
X1189Y1649D02*
X1209Y1649D01*
X1231Y1649D02*
X1251Y1649D01*
X1289Y1649D02*
X1309Y1649D01*
X1331Y1649D02*
X1351Y1649D01*
X1389Y1649D02*
X1409Y1649D01*
X1431Y1649D02*
X1451Y1649D01*
X1489Y1649D02*
X1509Y1649D01*
X1531Y1649D02*
X1551Y1649D01*
X1589Y1649D02*
X1609Y1649D01*
X1631Y1649D02*
X1651Y1649D01*
X1689Y1649D02*
X1709Y1649D01*
X1731Y1649D02*
X1751Y1649D01*
X1789Y1649D02*
X1809Y1649D01*
X1831Y1649D02*
X1851Y1649D01*
X1889Y1649D02*
X1909Y1649D01*
X1931Y1649D02*
X1951Y1649D01*
X991Y1648D02*
X1011Y1648D01*
X1032Y1648D02*
X1053Y1648D01*
X1089Y1648D02*
X1109Y1648D01*
X1131Y1648D02*
X1151Y1648D01*
X1189Y1648D02*
X1209Y1648D01*
X1230Y1648D02*
X1251Y1648D01*
X1289Y1648D02*
X1309Y1648D01*
X1330Y1648D02*
X1351Y1648D01*
X1389Y1648D02*
X1409Y1648D01*
X1430Y1648D02*
X1451Y1648D01*
X1489Y1648D02*
X1509Y1648D01*
X1530Y1648D02*
X1551Y1648D01*
X1589Y1648D02*
X1609Y1648D01*
X1630Y1648D02*
X1651Y1648D01*
X1689Y1648D02*
X1709Y1648D01*
X1730Y1648D02*
X1751Y1648D01*
X1789Y1648D02*
X1809Y1648D01*
X1830Y1648D02*
X1851Y1648D01*
X1889Y1648D02*
X1909Y1648D01*
X1930Y1648D02*
X1951Y1648D01*
X991Y1647D02*
X1011Y1647D01*
X1032Y1647D02*
X1053Y1647D01*
X1089Y1647D02*
X1109Y1647D01*
X1130Y1647D02*
X1151Y1647D01*
X1189Y1647D02*
X1209Y1647D01*
X1230Y1647D02*
X1251Y1647D01*
X1289Y1647D02*
X1309Y1647D01*
X1330Y1647D02*
X1351Y1647D01*
X1389Y1647D02*
X1409Y1647D01*
X1430Y1647D02*
X1451Y1647D01*
X1489Y1647D02*
X1509Y1647D01*
X1530Y1647D02*
X1551Y1647D01*
X1589Y1647D02*
X1609Y1647D01*
X1630Y1647D02*
X1651Y1647D01*
X1689Y1647D02*
X1709Y1647D01*
X1730Y1647D02*
X1751Y1647D01*
X1789Y1647D02*
X1809Y1647D01*
X1830Y1647D02*
X1851Y1647D01*
X1889Y1647D02*
X1909Y1647D01*
X1930Y1647D02*
X1951Y1647D01*
X991Y1646D02*
X1012Y1646D01*
X1032Y1646D02*
X1053Y1646D01*
X1089Y1646D02*
X1110Y1646D01*
X1130Y1646D02*
X1151Y1646D01*
X1189Y1646D02*
X1210Y1646D01*
X1230Y1646D02*
X1251Y1646D01*
X1289Y1646D02*
X1310Y1646D01*
X1330Y1646D02*
X1351Y1646D01*
X1389Y1646D02*
X1410Y1646D01*
X1430Y1646D02*
X1451Y1646D01*
X1489Y1646D02*
X1510Y1646D01*
X1530Y1646D02*
X1551Y1646D01*
X1589Y1646D02*
X1610Y1646D01*
X1630Y1646D02*
X1651Y1646D01*
X1689Y1646D02*
X1710Y1646D01*
X1730Y1646D02*
X1751Y1646D01*
X1789Y1646D02*
X1810Y1646D01*
X1830Y1646D02*
X1851Y1646D01*
X1889Y1646D02*
X1910Y1646D01*
X1930Y1646D02*
X1951Y1646D01*
X991Y1645D02*
X1012Y1645D01*
X1031Y1645D02*
X1053Y1645D01*
X1089Y1645D02*
X1110Y1645D01*
X1129Y1645D02*
X1151Y1645D01*
X1189Y1645D02*
X1210Y1645D01*
X1229Y1645D02*
X1251Y1645D01*
X1289Y1645D02*
X1310Y1645D01*
X1329Y1645D02*
X1351Y1645D01*
X1389Y1645D02*
X1410Y1645D01*
X1429Y1645D02*
X1451Y1645D01*
X1489Y1645D02*
X1510Y1645D01*
X1529Y1645D02*
X1551Y1645D01*
X1589Y1645D02*
X1610Y1645D01*
X1629Y1645D02*
X1651Y1645D01*
X1689Y1645D02*
X1710Y1645D01*
X1729Y1645D02*
X1751Y1645D01*
X1789Y1645D02*
X1810Y1645D01*
X1829Y1645D02*
X1851Y1645D01*
X1889Y1645D02*
X1910Y1645D01*
X1929Y1645D02*
X1951Y1645D01*
X991Y1644D02*
X1013Y1644D01*
X1030Y1644D02*
X1053Y1644D01*
X1089Y1644D02*
X1111Y1644D01*
X1128Y1644D02*
X1151Y1644D01*
X1189Y1644D02*
X1211Y1644D01*
X1228Y1644D02*
X1251Y1644D01*
X1289Y1644D02*
X1311Y1644D01*
X1328Y1644D02*
X1351Y1644D01*
X1389Y1644D02*
X1411Y1644D01*
X1428Y1644D02*
X1451Y1644D01*
X1489Y1644D02*
X1511Y1644D01*
X1528Y1644D02*
X1551Y1644D01*
X1589Y1644D02*
X1611Y1644D01*
X1628Y1644D02*
X1651Y1644D01*
X1689Y1644D02*
X1711Y1644D01*
X1728Y1644D02*
X1751Y1644D01*
X1789Y1644D02*
X1811Y1644D01*
X1828Y1644D02*
X1851Y1644D01*
X1889Y1644D02*
X1911Y1644D01*
X1928Y1644D02*
X1951Y1644D01*
X991Y1643D02*
X1014Y1643D01*
X1029Y1643D02*
X1053Y1643D01*
X1089Y1643D02*
X1112Y1643D01*
X1127Y1643D02*
X1151Y1643D01*
X1189Y1643D02*
X1212Y1643D01*
X1227Y1643D02*
X1251Y1643D01*
X1289Y1643D02*
X1312Y1643D01*
X1327Y1643D02*
X1351Y1643D01*
X1389Y1643D02*
X1412Y1643D01*
X1427Y1643D02*
X1451Y1643D01*
X1489Y1643D02*
X1512Y1643D01*
X1527Y1643D02*
X1551Y1643D01*
X1589Y1643D02*
X1612Y1643D01*
X1627Y1643D02*
X1651Y1643D01*
X1689Y1643D02*
X1712Y1643D01*
X1727Y1643D02*
X1751Y1643D01*
X1789Y1643D02*
X1812Y1643D01*
X1827Y1643D02*
X1851Y1643D01*
X1889Y1643D02*
X1912Y1643D01*
X1927Y1643D02*
X1951Y1643D01*
X991Y1642D02*
X1015Y1642D01*
X1028Y1642D02*
X1053Y1642D01*
X1089Y1642D02*
X1113Y1642D01*
X1126Y1642D02*
X1151Y1642D01*
X1189Y1642D02*
X1213Y1642D01*
X1226Y1642D02*
X1251Y1642D01*
X1289Y1642D02*
X1313Y1642D01*
X1326Y1642D02*
X1351Y1642D01*
X1389Y1642D02*
X1413Y1642D01*
X1426Y1642D02*
X1451Y1642D01*
X1489Y1642D02*
X1513Y1642D01*
X1526Y1642D02*
X1551Y1642D01*
X1589Y1642D02*
X1613Y1642D01*
X1626Y1642D02*
X1651Y1642D01*
X1689Y1642D02*
X1713Y1642D01*
X1726Y1642D02*
X1751Y1642D01*
X1789Y1642D02*
X1813Y1642D01*
X1826Y1642D02*
X1851Y1642D01*
X1889Y1642D02*
X1913Y1642D01*
X1926Y1642D02*
X1951Y1642D01*
X991Y1641D02*
X1017Y1641D01*
X1026Y1641D02*
X1053Y1641D01*
X1089Y1641D02*
X1115Y1641D01*
X1124Y1641D02*
X1151Y1641D01*
X1189Y1641D02*
X1215Y1641D01*
X1224Y1641D02*
X1251Y1641D01*
X1289Y1641D02*
X1315Y1641D01*
X1324Y1641D02*
X1351Y1641D01*
X1389Y1641D02*
X1415Y1641D01*
X1424Y1641D02*
X1451Y1641D01*
X1489Y1641D02*
X1515Y1641D01*
X1524Y1641D02*
X1551Y1641D01*
X1589Y1641D02*
X1615Y1641D01*
X1624Y1641D02*
X1651Y1641D01*
X1689Y1641D02*
X1715Y1641D01*
X1724Y1641D02*
X1751Y1641D01*
X1789Y1641D02*
X1815Y1641D01*
X1824Y1641D02*
X1851Y1641D01*
X1889Y1641D02*
X1915Y1641D01*
X1924Y1641D02*
X1951Y1641D01*
X991Y1640D02*
X1053Y1640D01*
X1089Y1640D02*
X1151Y1640D01*
X1189Y1640D02*
X1251Y1640D01*
X1289Y1640D02*
X1351Y1640D01*
X1389Y1640D02*
X1451Y1640D01*
X1489Y1640D02*
X1551Y1640D01*
X1589Y1640D02*
X1651Y1640D01*
X1689Y1640D02*
X1751Y1640D01*
X1789Y1640D02*
X1851Y1640D01*
X1889Y1640D02*
X1951Y1640D01*
X991Y1639D02*
X1053Y1639D01*
X1089Y1639D02*
X1151Y1639D01*
X1189Y1639D02*
X1251Y1639D01*
X1289Y1639D02*
X1351Y1639D01*
X1389Y1639D02*
X1451Y1639D01*
X1489Y1639D02*
X1551Y1639D01*
X1589Y1639D02*
X1651Y1639D01*
X1689Y1639D02*
X1751Y1639D01*
X1789Y1639D02*
X1851Y1639D01*
X1889Y1639D02*
X1951Y1639D01*
X991Y1638D02*
X1053Y1638D01*
X1089Y1638D02*
X1151Y1638D01*
X1189Y1638D02*
X1251Y1638D01*
X1289Y1638D02*
X1351Y1638D01*
X1389Y1638D02*
X1451Y1638D01*
X1489Y1638D02*
X1551Y1638D01*
X1589Y1638D02*
X1651Y1638D01*
X1689Y1638D02*
X1751Y1638D01*
X1789Y1638D02*
X1851Y1638D01*
X1889Y1638D02*
X1951Y1638D01*
X991Y1637D02*
X1053Y1637D01*
X1089Y1637D02*
X1151Y1637D01*
X1189Y1637D02*
X1251Y1637D01*
X1289Y1637D02*
X1351Y1637D01*
X1389Y1637D02*
X1451Y1637D01*
X1489Y1637D02*
X1551Y1637D01*
X1589Y1637D02*
X1651Y1637D01*
X1689Y1637D02*
X1751Y1637D01*
X1789Y1637D02*
X1851Y1637D01*
X1889Y1637D02*
X1951Y1637D01*
X991Y1636D02*
X1053Y1636D01*
X1089Y1636D02*
X1151Y1636D01*
X1189Y1636D02*
X1251Y1636D01*
X1289Y1636D02*
X1351Y1636D01*
X1389Y1636D02*
X1451Y1636D01*
X1489Y1636D02*
X1551Y1636D01*
X1589Y1636D02*
X1651Y1636D01*
X1689Y1636D02*
X1751Y1636D01*
X1789Y1636D02*
X1851Y1636D01*
X1889Y1636D02*
X1951Y1636D01*
X991Y1635D02*
X1053Y1635D01*
X1089Y1635D02*
X1151Y1635D01*
X1189Y1635D02*
X1251Y1635D01*
X1289Y1635D02*
X1351Y1635D01*
X1389Y1635D02*
X1451Y1635D01*
X1489Y1635D02*
X1551Y1635D01*
X1589Y1635D02*
X1651Y1635D01*
X1689Y1635D02*
X1751Y1635D01*
X1789Y1635D02*
X1851Y1635D01*
X1889Y1635D02*
X1951Y1635D01*
X991Y1634D02*
X1053Y1634D01*
X1089Y1634D02*
X1151Y1634D01*
X1189Y1634D02*
X1251Y1634D01*
X1289Y1634D02*
X1351Y1634D01*
X1389Y1634D02*
X1451Y1634D01*
X1489Y1634D02*
X1551Y1634D01*
X1589Y1634D02*
X1651Y1634D01*
X1689Y1634D02*
X1751Y1634D01*
X1789Y1634D02*
X1851Y1634D01*
X1889Y1634D02*
X1951Y1634D01*
X991Y1633D02*
X1053Y1633D01*
X1089Y1633D02*
X1151Y1633D01*
X1189Y1633D02*
X1251Y1633D01*
X1289Y1633D02*
X1351Y1633D01*
X1389Y1633D02*
X1451Y1633D01*
X1489Y1633D02*
X1551Y1633D01*
X1589Y1633D02*
X1651Y1633D01*
X1689Y1633D02*
X1751Y1633D01*
X1789Y1633D02*
X1851Y1633D01*
X1889Y1633D02*
X1951Y1633D01*
X991Y1632D02*
X1053Y1632D01*
X1089Y1632D02*
X1151Y1632D01*
X1189Y1632D02*
X1251Y1632D01*
X1289Y1632D02*
X1351Y1632D01*
X1389Y1632D02*
X1451Y1632D01*
X1489Y1632D02*
X1551Y1632D01*
X1589Y1632D02*
X1651Y1632D01*
X1689Y1632D02*
X1751Y1632D01*
X1789Y1632D02*
X1851Y1632D01*
X1889Y1632D02*
X1951Y1632D01*
X991Y1631D02*
X1053Y1631D01*
X1089Y1631D02*
X1151Y1631D01*
X1189Y1631D02*
X1251Y1631D01*
X1289Y1631D02*
X1351Y1631D01*
X1389Y1631D02*
X1451Y1631D01*
X1489Y1631D02*
X1551Y1631D01*
X1589Y1631D02*
X1651Y1631D01*
X1689Y1631D02*
X1751Y1631D01*
X1789Y1631D02*
X1851Y1631D01*
X1889Y1631D02*
X1951Y1631D01*
X991Y1630D02*
X1053Y1630D01*
X1089Y1630D02*
X1151Y1630D01*
X1189Y1630D02*
X1251Y1630D01*
X1289Y1630D02*
X1351Y1630D01*
X1389Y1630D02*
X1451Y1630D01*
X1489Y1630D02*
X1551Y1630D01*
X1589Y1630D02*
X1651Y1630D01*
X1689Y1630D02*
X1751Y1630D01*
X1789Y1630D02*
X1851Y1630D01*
X1889Y1630D02*
X1951Y1630D01*
X991Y1629D02*
X1053Y1629D01*
X1089Y1629D02*
X1151Y1629D01*
X1189Y1629D02*
X1251Y1629D01*
X1289Y1629D02*
X1351Y1629D01*
X1389Y1629D02*
X1451Y1629D01*
X1489Y1629D02*
X1551Y1629D01*
X1589Y1629D02*
X1651Y1629D01*
X1689Y1629D02*
X1751Y1629D01*
X1789Y1629D02*
X1851Y1629D01*
X1889Y1629D02*
X1951Y1629D01*
X991Y1628D02*
X1053Y1628D01*
X1089Y1628D02*
X1151Y1628D01*
X1189Y1628D02*
X1251Y1628D01*
X1289Y1628D02*
X1351Y1628D01*
X1389Y1628D02*
X1451Y1628D01*
X1489Y1628D02*
X1551Y1628D01*
X1589Y1628D02*
X1651Y1628D01*
X1689Y1628D02*
X1751Y1628D01*
X1789Y1628D02*
X1851Y1628D01*
X1889Y1628D02*
X1951Y1628D01*
X991Y1627D02*
X1053Y1627D01*
X1089Y1627D02*
X1151Y1627D01*
X1189Y1627D02*
X1251Y1627D01*
X1289Y1627D02*
X1351Y1627D01*
X1389Y1627D02*
X1451Y1627D01*
X1489Y1627D02*
X1551Y1627D01*
X1589Y1627D02*
X1651Y1627D01*
X1689Y1627D02*
X1751Y1627D01*
X1789Y1627D02*
X1851Y1627D01*
X1889Y1627D02*
X1951Y1627D01*
X991Y1626D02*
X1053Y1626D01*
X1089Y1626D02*
X1151Y1626D01*
X1189Y1626D02*
X1251Y1626D01*
X1289Y1626D02*
X1351Y1626D01*
X1389Y1626D02*
X1451Y1626D01*
X1489Y1626D02*
X1551Y1626D01*
X1589Y1626D02*
X1651Y1626D01*
X1689Y1626D02*
X1751Y1626D01*
X1789Y1626D02*
X1851Y1626D01*
X1889Y1626D02*
X1951Y1626D01*
X991Y1625D02*
X1053Y1625D01*
X1089Y1625D02*
X1151Y1625D01*
X1189Y1625D02*
X1251Y1625D01*
X1289Y1625D02*
X1351Y1625D01*
X1389Y1625D02*
X1451Y1625D01*
X1489Y1625D02*
X1551Y1625D01*
X1589Y1625D02*
X1651Y1625D01*
X1689Y1625D02*
X1751Y1625D01*
X1789Y1625D02*
X1851Y1625D01*
X1889Y1625D02*
X1951Y1625D01*
X991Y1624D02*
X1053Y1624D01*
X1089Y1624D02*
X1151Y1624D01*
X1189Y1624D02*
X1251Y1624D01*
X1289Y1624D02*
X1351Y1624D01*
X1389Y1624D02*
X1451Y1624D01*
X1489Y1624D02*
X1551Y1624D01*
X1589Y1624D02*
X1651Y1624D01*
X1689Y1624D02*
X1751Y1624D01*
X1789Y1624D02*
X1851Y1624D01*
X1889Y1624D02*
X1951Y1624D01*
X991Y1623D02*
X1053Y1623D01*
X1089Y1623D02*
X1151Y1623D01*
X1189Y1623D02*
X1251Y1623D01*
X1289Y1623D02*
X1351Y1623D01*
X1389Y1623D02*
X1451Y1623D01*
X1489Y1623D02*
X1551Y1623D01*
X1589Y1623D02*
X1651Y1623D01*
X1689Y1623D02*
X1751Y1623D01*
X1789Y1623D02*
X1851Y1623D01*
X1889Y1623D02*
X1951Y1623D01*
X991Y1622D02*
X1053Y1622D01*
X1089Y1622D02*
X1151Y1622D01*
X1189Y1622D02*
X1251Y1622D01*
X1289Y1622D02*
X1351Y1622D01*
X1389Y1622D02*
X1451Y1622D01*
X1489Y1622D02*
X1550Y1622D01*
X1589Y1622D02*
X1650Y1622D01*
X1689Y1622D02*
X1750Y1622D01*
X1789Y1622D02*
X1850Y1622D01*
X1889Y1622D02*
X1950Y1622D01*
X991Y1621D02*
X1052Y1621D01*
X1089Y1621D02*
X1150Y1621D01*
X1189Y1621D02*
X1250Y1621D01*
X1289Y1621D02*
X1350Y1621D01*
X1389Y1621D02*
X1450Y1621D01*
X1489Y1621D02*
X1550Y1621D01*
X1589Y1621D02*
X1650Y1621D01*
X1689Y1621D02*
X1750Y1621D01*
X1789Y1621D02*
X1850Y1621D01*
X1889Y1621D02*
X1950Y1621D01*
X991Y1620D02*
X1052Y1620D01*
X1089Y1620D02*
X1150Y1620D01*
X1189Y1620D02*
X1250Y1620D01*
X1289Y1620D02*
X1350Y1620D01*
X1389Y1620D02*
X1450Y1620D01*
X1489Y1620D02*
X1550Y1620D01*
X1589Y1620D02*
X1650Y1620D01*
X1689Y1620D02*
X1750Y1620D01*
X1789Y1620D02*
X1850Y1620D01*
X1889Y1620D02*
X1950Y1620D01*
X991Y1619D02*
X1052Y1619D01*
X1089Y1619D02*
X1150Y1619D01*
X1189Y1619D02*
X1250Y1619D01*
X1289Y1619D02*
X1350Y1619D01*
X1389Y1619D02*
X1450Y1619D01*
X1489Y1619D02*
X1550Y1619D01*
X1589Y1619D02*
X1650Y1619D01*
X1689Y1619D02*
X1750Y1619D01*
X1789Y1619D02*
X1850Y1619D01*
X1889Y1619D02*
X1950Y1619D01*
X992Y1618D02*
X1052Y1618D01*
X1090Y1618D02*
X1150Y1618D01*
X1190Y1618D02*
X1250Y1618D01*
X1290Y1618D02*
X1350Y1618D01*
X1390Y1618D02*
X1450Y1618D01*
X1490Y1618D02*
X1550Y1618D01*
X1590Y1618D02*
X1650Y1618D01*
X1690Y1618D02*
X1750Y1618D01*
X1790Y1618D02*
X1850Y1618D01*
X1890Y1618D02*
X1950Y1618D01*
X992Y1617D02*
X1052Y1617D01*
X1090Y1617D02*
X1150Y1617D01*
X1190Y1617D02*
X1250Y1617D01*
X1290Y1617D02*
X1350Y1617D01*
X1390Y1617D02*
X1450Y1617D01*
X1490Y1617D02*
X1550Y1617D01*
X1590Y1617D02*
X1650Y1617D01*
X1690Y1617D02*
X1750Y1617D01*
X1790Y1617D02*
X1850Y1617D01*
X1890Y1617D02*
X1950Y1617D01*
X992Y1616D02*
X1052Y1616D01*
X1090Y1616D02*
X1150Y1616D01*
X1190Y1616D02*
X1250Y1616D01*
X1290Y1616D02*
X1350Y1616D01*
X1390Y1616D02*
X1450Y1616D01*
X1490Y1616D02*
X1550Y1616D01*
X1590Y1616D02*
X1649Y1616D01*
X1690Y1616D02*
X1749Y1616D01*
X1790Y1616D02*
X1849Y1616D01*
X1890Y1616D02*
X1949Y1616D01*
X992Y1615D02*
X1051Y1615D01*
X1090Y1615D02*
X1149Y1615D01*
X1190Y1615D02*
X1249Y1615D01*
X1290Y1615D02*
X1349Y1615D01*
X1390Y1615D02*
X1449Y1615D01*
X1490Y1615D02*
X1549Y1615D01*
X1590Y1615D02*
X1649Y1615D01*
X1690Y1615D02*
X1749Y1615D01*
X1790Y1615D02*
X1849Y1615D01*
X1890Y1615D02*
X1949Y1615D01*
X993Y1614D02*
X1051Y1614D01*
X1091Y1614D02*
X1149Y1614D01*
X1191Y1614D02*
X1249Y1614D01*
X1291Y1614D02*
X1349Y1614D01*
X1391Y1614D02*
X1449Y1614D01*
X1491Y1614D02*
X1549Y1614D01*
X1591Y1614D02*
X1649Y1614D01*
X1691Y1614D02*
X1749Y1614D01*
X1791Y1614D02*
X1849Y1614D01*
X1891Y1614D02*
X1949Y1614D01*
X993Y1613D02*
X1051Y1613D01*
X1091Y1613D02*
X1149Y1613D01*
X1191Y1613D02*
X1249Y1613D01*
X1291Y1613D02*
X1349Y1613D01*
X1391Y1613D02*
X1449Y1613D01*
X1491Y1613D02*
X1549Y1613D01*
X1591Y1613D02*
X1649Y1613D01*
X1691Y1613D02*
X1749Y1613D01*
X1791Y1613D02*
X1849Y1613D01*
X1891Y1613D02*
X1948Y1613D01*
X993Y1612D02*
X1050Y1612D01*
X1091Y1612D02*
X1148Y1612D01*
X1191Y1612D02*
X1248Y1612D01*
X1291Y1612D02*
X1348Y1612D01*
X1391Y1612D02*
X1448Y1612D01*
X1491Y1612D02*
X1548Y1612D01*
X1591Y1612D02*
X1648Y1612D01*
X1691Y1612D02*
X1748Y1612D01*
X1791Y1612D02*
X1848Y1612D01*
X1891Y1612D02*
X1948Y1612D01*
X994Y1611D02*
X1050Y1611D01*
X1092Y1611D02*
X1148Y1611D01*
X1192Y1611D02*
X1248Y1611D01*
X1292Y1611D02*
X1348Y1611D01*
X1392Y1611D02*
X1448Y1611D01*
X1492Y1611D02*
X1548Y1611D01*
X1592Y1611D02*
X1648Y1611D01*
X1692Y1611D02*
X1748Y1611D01*
X1792Y1611D02*
X1848Y1611D01*
X1892Y1611D02*
X1948Y1611D01*
X994Y1610D02*
X1049Y1610D01*
X1092Y1610D02*
X1147Y1610D01*
X1192Y1610D02*
X1247Y1610D01*
X1292Y1610D02*
X1347Y1610D01*
X1392Y1610D02*
X1447Y1610D01*
X1492Y1610D02*
X1547Y1610D01*
X1592Y1610D02*
X1647Y1610D01*
X1692Y1610D02*
X1747Y1610D01*
X1792Y1610D02*
X1847Y1610D01*
X1892Y1610D02*
X1947Y1610D01*
X995Y1609D02*
X1049Y1609D01*
X1093Y1609D02*
X1147Y1609D01*
X1193Y1609D02*
X1247Y1609D01*
X1293Y1609D02*
X1347Y1609D01*
X1393Y1609D02*
X1447Y1609D01*
X1493Y1609D02*
X1547Y1609D01*
X1593Y1609D02*
X1647Y1609D01*
X1693Y1609D02*
X1747Y1609D01*
X1793Y1609D02*
X1847Y1609D01*
X1893Y1609D02*
X1947Y1609D01*
X996Y1608D02*
X1048Y1608D01*
X1093Y1608D02*
X1146Y1608D01*
X1193Y1608D02*
X1246Y1608D01*
X1293Y1608D02*
X1346Y1608D01*
X1393Y1608D02*
X1446Y1608D01*
X1493Y1608D02*
X1546Y1608D01*
X1593Y1608D02*
X1646Y1608D01*
X1693Y1608D02*
X1746Y1608D01*
X1793Y1608D02*
X1846Y1608D01*
X1893Y1608D02*
X1946Y1608D01*
X996Y1607D02*
X1048Y1607D01*
X1094Y1607D02*
X1146Y1607D01*
X1194Y1607D02*
X1246Y1607D01*
X1294Y1607D02*
X1346Y1607D01*
X1394Y1607D02*
X1446Y1607D01*
X1494Y1607D02*
X1546Y1607D01*
X1594Y1607D02*
X1645Y1607D01*
X1694Y1607D02*
X1745Y1607D01*
X1794Y1607D02*
X1845Y1607D01*
X1894Y1607D02*
X1945Y1607D01*
X997Y1606D02*
X1047Y1606D01*
X1095Y1606D02*
X1145Y1606D01*
X1195Y1606D02*
X1245Y1606D01*
X1295Y1606D02*
X1345Y1606D01*
X1395Y1606D02*
X1445Y1606D01*
X1495Y1606D02*
X1545Y1606D01*
X1595Y1606D02*
X1645Y1606D01*
X1695Y1606D02*
X1745Y1606D01*
X1795Y1606D02*
X1845Y1606D01*
X1895Y1606D02*
X1945Y1606D01*
X998Y1605D02*
X1046Y1605D01*
X1096Y1605D02*
X1144Y1605D01*
X1196Y1605D02*
X1244Y1605D01*
X1296Y1605D02*
X1344Y1605D01*
X1395Y1605D02*
X1444Y1605D01*
X1495Y1605D02*
X1544Y1605D01*
X1595Y1605D02*
X1644Y1605D01*
X1695Y1605D02*
X1744Y1605D01*
X1795Y1605D02*
X1844Y1605D01*
X1895Y1605D02*
X1944Y1605D01*
X998Y1604D02*
X1045Y1604D01*
X1096Y1604D02*
X1143Y1604D01*
X1196Y1604D02*
X1243Y1604D01*
X1296Y1604D02*
X1343Y1604D01*
X1396Y1604D02*
X1443Y1604D01*
X1496Y1604D02*
X1543Y1604D01*
X1596Y1604D02*
X1643Y1604D01*
X1696Y1604D02*
X1743Y1604D01*
X1796Y1604D02*
X1843Y1604D01*
X1896Y1604D02*
X1943Y1604D01*
X999Y1603D02*
X1044Y1603D01*
X1097Y1603D02*
X1142Y1603D01*
X1197Y1603D02*
X1242Y1603D01*
X1297Y1603D02*
X1342Y1603D01*
X1397Y1603D02*
X1442Y1603D01*
X1497Y1603D02*
X1542Y1603D01*
X1597Y1603D02*
X1642Y1603D01*
X1697Y1603D02*
X1742Y1603D01*
X1797Y1603D02*
X1842Y1603D01*
X1897Y1603D02*
X1942Y1603D01*
X1000Y1602D02*
X1043Y1602D01*
X1098Y1602D02*
X1142Y1602D01*
X1198Y1602D02*
X1241Y1602D01*
X1298Y1602D02*
X1341Y1602D01*
X1398Y1602D02*
X1441Y1602D01*
X1498Y1602D02*
X1541Y1602D01*
X1598Y1602D02*
X1641Y1602D01*
X1698Y1602D02*
X1741Y1602D01*
X1798Y1602D02*
X1841Y1602D01*
X1898Y1602D02*
X1941Y1602D01*
X1001Y1601D02*
X1042Y1601D01*
X1099Y1601D02*
X1140Y1601D01*
X1199Y1601D02*
X1240Y1601D01*
X1299Y1601D02*
X1340Y1601D01*
X1399Y1601D02*
X1440Y1601D01*
X1499Y1601D02*
X1540Y1601D01*
X1599Y1601D02*
X1640Y1601D01*
X1699Y1601D02*
X1740Y1601D01*
X1799Y1601D02*
X1840Y1601D01*
X1899Y1601D02*
X1940Y1601D01*
X1002Y1600D02*
X1041Y1600D01*
X1100Y1600D02*
X1139Y1600D01*
X1200Y1600D02*
X1239Y1600D01*
X1300Y1600D02*
X1339Y1600D01*
X1400Y1600D02*
X1439Y1600D01*
X1500Y1600D02*
X1539Y1600D01*
X1600Y1600D02*
X1639Y1600D01*
X1700Y1600D02*
X1739Y1600D01*
X1800Y1600D02*
X1839Y1600D01*
X1900Y1600D02*
X1939Y1600D01*
X1004Y1599D02*
X1040Y1599D01*
X1102Y1599D02*
X1138Y1599D01*
X1202Y1599D02*
X1238Y1599D01*
X1302Y1599D02*
X1338Y1599D01*
X1402Y1599D02*
X1438Y1599D01*
X1502Y1599D02*
X1538Y1599D01*
X1602Y1599D02*
X1638Y1599D01*
X1702Y1599D02*
X1738Y1599D01*
X1802Y1599D02*
X1838Y1599D01*
X1902Y1599D02*
X1938Y1599D01*
X1005Y1598D02*
X1039Y1598D01*
X1103Y1598D02*
X1137Y1598D01*
X1203Y1598D02*
X1237Y1598D01*
X1303Y1598D02*
X1337Y1598D01*
X1403Y1598D02*
X1437Y1598D01*
X1503Y1598D02*
X1537Y1598D01*
X1603Y1598D02*
X1637Y1598D01*
X1703Y1598D02*
X1737Y1598D01*
X1803Y1598D02*
X1837Y1598D01*
X1903Y1598D02*
X1937Y1598D01*
X1007Y1597D02*
X1037Y1597D01*
X1105Y1597D02*
X1135Y1597D01*
X1205Y1597D02*
X1235Y1597D01*
X1305Y1597D02*
X1335Y1597D01*
X1405Y1597D02*
X1435Y1597D01*
X1505Y1597D02*
X1535Y1597D01*
X1605Y1597D02*
X1635Y1597D01*
X1705Y1597D02*
X1735Y1597D01*
X1805Y1597D02*
X1835Y1597D01*
X1905Y1597D02*
X1935Y1597D01*
X1009Y1596D02*
X1035Y1596D01*
X1107Y1596D02*
X1133Y1596D01*
X1207Y1596D02*
X1233Y1596D01*
X1307Y1596D02*
X1333Y1596D01*
X1406Y1596D02*
X1433Y1596D01*
X1506Y1596D02*
X1533Y1596D01*
X1607Y1596D02*
X1633Y1596D01*
X1707Y1596D02*
X1733Y1596D01*
X1807Y1596D02*
X1833Y1596D01*
X1906Y1596D02*
X1933Y1596D01*
X1011Y1595D02*
X1033Y1595D01*
X1109Y1595D02*
X1131Y1595D01*
X1209Y1595D02*
X1231Y1595D01*
X1309Y1595D02*
X1331Y1595D01*
X1409Y1595D02*
X1431Y1595D01*
X1509Y1595D02*
X1531Y1595D01*
X1609Y1595D02*
X1631Y1595D01*
X1709Y1595D02*
X1731Y1595D01*
X1809Y1595D02*
X1831Y1595D01*
X1909Y1595D02*
X1931Y1595D01*
X1014Y1594D02*
X1030Y1594D01*
X1112Y1594D02*
X1128Y1594D01*
X1212Y1594D02*
X1228Y1594D01*
X1312Y1594D02*
X1328Y1594D01*
X1412Y1594D02*
X1428Y1594D01*
X1512Y1594D02*
X1528Y1594D01*
X1612Y1594D02*
X1628Y1594D01*
X1712Y1594D02*
X1728Y1594D01*
X1812Y1594D02*
X1828Y1594D01*
X1912Y1594D02*
X1928Y1594D01*
X1019Y1593D02*
X1025Y1593D01*
X1117Y1593D02*
X1123Y1593D01*
X1217Y1593D02*
X1223Y1593D01*
X1317Y1593D02*
X1323Y1593D01*
X1417Y1593D02*
X1423Y1593D01*
X1517Y1593D02*
X1523Y1593D01*
X1617Y1593D02*
X1623Y1593D01*
X1717Y1593D02*
X1723Y1593D01*
X1817Y1593D02*
X1823Y1593D01*
X1917Y1593D02*
X1923Y1593D01*
X1017Y707D02*
X1027Y707D01*
X1115Y707D02*
X1125Y707D01*
X1215Y707D02*
X1225Y707D01*
X1315Y707D02*
X1325Y707D01*
X1415Y707D02*
X1425Y707D01*
X1515Y707D02*
X1524Y707D01*
X1715Y707D02*
X1725Y707D01*
X1815Y707D02*
X1825Y707D01*
X1915Y707D02*
X1924Y707D01*
X1013Y706D02*
X1031Y706D01*
X1111Y706D02*
X1129Y706D01*
X1211Y706D02*
X1229Y706D01*
X1311Y706D02*
X1329Y706D01*
X1411Y706D02*
X1429Y706D01*
X1511Y706D02*
X1529Y706D01*
X1711Y706D02*
X1729Y706D01*
X1811Y706D02*
X1829Y706D01*
X1911Y706D02*
X1929Y706D01*
X1010Y705D02*
X1034Y705D01*
X1108Y705D02*
X1132Y705D01*
X1208Y705D02*
X1232Y705D01*
X1308Y705D02*
X1332Y705D01*
X1408Y705D02*
X1432Y705D01*
X1508Y705D02*
X1531Y705D01*
X1616Y705D02*
X1626Y705D01*
X1708Y705D02*
X1732Y705D01*
X1808Y705D02*
X1831Y705D01*
X1908Y705D02*
X1931Y705D01*
X1008Y704D02*
X1036Y704D01*
X1106Y704D02*
X1134Y704D01*
X1206Y704D02*
X1234Y704D01*
X1306Y704D02*
X1334Y704D01*
X1406Y704D02*
X1434Y704D01*
X1506Y704D02*
X1534Y704D01*
X1612Y704D02*
X1630Y704D01*
X1706Y704D02*
X1734Y704D01*
X1806Y704D02*
X1834Y704D01*
X1906Y704D02*
X1934Y704D01*
X1006Y703D02*
X1037Y703D01*
X1104Y703D02*
X1135Y703D01*
X1204Y703D02*
X1235Y703D01*
X1304Y703D02*
X1335Y703D01*
X1404Y703D02*
X1435Y703D01*
X1504Y703D02*
X1535Y703D01*
X1609Y703D02*
X1633Y703D01*
X1704Y703D02*
X1735Y703D01*
X1804Y703D02*
X1835Y703D01*
X1904Y703D02*
X1935Y703D01*
X1005Y702D02*
X1039Y702D01*
X1103Y702D02*
X1137Y702D01*
X1203Y702D02*
X1237Y702D01*
X1303Y702D02*
X1337Y702D01*
X1403Y702D02*
X1437Y702D01*
X1503Y702D02*
X1537Y702D01*
X1607Y702D02*
X1635Y702D01*
X1703Y702D02*
X1737Y702D01*
X1803Y702D02*
X1837Y702D01*
X1903Y702D02*
X1937Y702D01*
X1003Y701D02*
X1040Y701D01*
X1101Y701D02*
X1138Y701D01*
X1201Y701D02*
X1238Y701D01*
X1301Y701D02*
X1338Y701D01*
X1401Y701D02*
X1438Y701D01*
X1501Y701D02*
X1538Y701D01*
X1605Y701D02*
X1636Y701D01*
X1701Y701D02*
X1738Y701D01*
X1801Y701D02*
X1838Y701D01*
X1901Y701D02*
X1938Y701D01*
X1002Y700D02*
X1042Y700D01*
X1100Y700D02*
X1140Y700D01*
X1200Y700D02*
X1240Y700D01*
X1300Y700D02*
X1340Y700D01*
X1400Y700D02*
X1440Y700D01*
X1500Y700D02*
X1540Y700D01*
X1604Y700D02*
X1638Y700D01*
X1700Y700D02*
X1740Y700D01*
X1800Y700D02*
X1840Y700D01*
X1900Y700D02*
X1940Y700D01*
X1001Y699D02*
X1043Y699D01*
X1099Y699D02*
X1141Y699D01*
X1199Y699D02*
X1241Y699D01*
X1299Y699D02*
X1341Y699D01*
X1399Y699D02*
X1441Y699D01*
X1499Y699D02*
X1541Y699D01*
X1602Y699D02*
X1639Y699D01*
X1699Y699D02*
X1741Y699D01*
X1799Y699D02*
X1841Y699D01*
X1899Y699D02*
X1941Y699D01*
X1000Y698D02*
X1044Y698D01*
X1098Y698D02*
X1142Y698D01*
X1198Y698D02*
X1242Y698D01*
X1298Y698D02*
X1342Y698D01*
X1398Y698D02*
X1442Y698D01*
X1498Y698D02*
X1542Y698D01*
X1601Y698D02*
X1641Y698D01*
X1698Y698D02*
X1742Y698D01*
X1798Y698D02*
X1842Y698D01*
X1898Y698D02*
X1942Y698D01*
X999Y697D02*
X1045Y697D01*
X1097Y697D02*
X1143Y697D01*
X1197Y697D02*
X1243Y697D01*
X1297Y697D02*
X1343Y697D01*
X1397Y697D02*
X1443Y697D01*
X1497Y697D02*
X1543Y697D01*
X1600Y697D02*
X1642Y697D01*
X1697Y697D02*
X1743Y697D01*
X1797Y697D02*
X1843Y697D01*
X1897Y697D02*
X1943Y697D01*
X998Y696D02*
X1046Y696D01*
X1096Y696D02*
X1144Y696D01*
X1196Y696D02*
X1244Y696D01*
X1296Y696D02*
X1344Y696D01*
X1396Y696D02*
X1444Y696D01*
X1496Y696D02*
X1543Y696D01*
X1599Y696D02*
X1643Y696D01*
X1696Y696D02*
X1743Y696D01*
X1796Y696D02*
X1843Y696D01*
X1896Y696D02*
X1943Y696D01*
X997Y695D02*
X1046Y695D01*
X1095Y695D02*
X1144Y695D01*
X1195Y695D02*
X1244Y695D01*
X1295Y695D02*
X1344Y695D01*
X1395Y695D02*
X1444Y695D01*
X1495Y695D02*
X1544Y695D01*
X1598Y695D02*
X1644Y695D01*
X1695Y695D02*
X1744Y695D01*
X1795Y695D02*
X1844Y695D01*
X1895Y695D02*
X1944Y695D01*
X997Y694D02*
X1047Y694D01*
X1095Y694D02*
X1145Y694D01*
X1195Y694D02*
X1245Y694D01*
X1295Y694D02*
X1345Y694D01*
X1395Y694D02*
X1445Y694D01*
X1495Y694D02*
X1545Y694D01*
X1597Y694D02*
X1644Y694D01*
X1695Y694D02*
X1745Y694D01*
X1795Y694D02*
X1845Y694D01*
X1895Y694D02*
X1945Y694D01*
X996Y693D02*
X1048Y693D01*
X1094Y693D02*
X1146Y693D01*
X1194Y693D02*
X1246Y693D01*
X1294Y693D02*
X1346Y693D01*
X1394Y693D02*
X1446Y693D01*
X1494Y693D02*
X1546Y693D01*
X1596Y693D02*
X1645Y693D01*
X1694Y693D02*
X1746Y693D01*
X1794Y693D02*
X1846Y693D01*
X1894Y693D02*
X1946Y693D01*
X995Y692D02*
X1048Y692D01*
X1093Y692D02*
X1146Y692D01*
X1193Y692D02*
X1246Y692D01*
X1293Y692D02*
X1346Y692D01*
X1393Y692D02*
X1446Y692D01*
X1493Y692D02*
X1546Y692D01*
X1596Y692D02*
X1646Y692D01*
X1693Y692D02*
X1746Y692D01*
X1793Y692D02*
X1846Y692D01*
X1893Y692D02*
X1946Y692D01*
X995Y691D02*
X1049Y691D01*
X1093Y691D02*
X1147Y691D01*
X1193Y691D02*
X1247Y691D01*
X1293Y691D02*
X1347Y691D01*
X1393Y691D02*
X1447Y691D01*
X1493Y691D02*
X1547Y691D01*
X1595Y691D02*
X1647Y691D01*
X1693Y691D02*
X1747Y691D01*
X1793Y691D02*
X1847Y691D01*
X1893Y691D02*
X1947Y691D01*
X994Y690D02*
X1049Y690D01*
X1092Y690D02*
X1147Y690D01*
X1192Y690D02*
X1247Y690D01*
X1292Y690D02*
X1347Y690D01*
X1392Y690D02*
X1447Y690D01*
X1492Y690D02*
X1547Y690D01*
X1594Y690D02*
X1647Y690D01*
X1692Y690D02*
X1747Y690D01*
X1792Y690D02*
X1847Y690D01*
X1892Y690D02*
X1947Y690D01*
X994Y689D02*
X1050Y689D01*
X1092Y689D02*
X1148Y689D01*
X1192Y689D02*
X1248Y689D01*
X1292Y689D02*
X1348Y689D01*
X1392Y689D02*
X1448Y689D01*
X1492Y689D02*
X1548Y689D01*
X1594Y689D02*
X1648Y689D01*
X1692Y689D02*
X1748Y689D01*
X1792Y689D02*
X1848Y689D01*
X1892Y689D02*
X1948Y689D01*
X993Y688D02*
X1050Y688D01*
X1091Y688D02*
X1148Y688D01*
X1191Y688D02*
X1248Y688D01*
X1291Y688D02*
X1348Y688D01*
X1391Y688D02*
X1448Y688D01*
X1491Y688D02*
X1548Y688D01*
X1593Y688D02*
X1648Y688D01*
X1691Y688D02*
X1748Y688D01*
X1791Y688D02*
X1848Y688D01*
X1891Y688D02*
X1948Y688D01*
X993Y687D02*
X1051Y687D01*
X1091Y687D02*
X1149Y687D01*
X1191Y687D02*
X1249Y687D01*
X1291Y687D02*
X1349Y687D01*
X1391Y687D02*
X1449Y687D01*
X1491Y687D02*
X1549Y687D01*
X1593Y687D02*
X1649Y687D01*
X1691Y687D02*
X1749Y687D01*
X1791Y687D02*
X1849Y687D01*
X1891Y687D02*
X1949Y687D01*
X993Y686D02*
X1051Y686D01*
X1091Y686D02*
X1149Y686D01*
X1191Y686D02*
X1249Y686D01*
X1291Y686D02*
X1349Y686D01*
X1391Y686D02*
X1449Y686D01*
X1491Y686D02*
X1549Y686D01*
X1592Y686D02*
X1649Y686D01*
X1691Y686D02*
X1749Y686D01*
X1791Y686D02*
X1849Y686D01*
X1891Y686D02*
X1949Y686D01*
X992Y685D02*
X1051Y685D01*
X1090Y685D02*
X1149Y685D01*
X1190Y685D02*
X1249Y685D01*
X1290Y685D02*
X1349Y685D01*
X1390Y685D02*
X1449Y685D01*
X1490Y685D02*
X1549Y685D01*
X1592Y685D02*
X1650Y685D01*
X1690Y685D02*
X1749Y685D01*
X1790Y685D02*
X1849Y685D01*
X1890Y685D02*
X1949Y685D01*
X992Y684D02*
X1052Y684D01*
X1090Y684D02*
X1150Y684D01*
X1190Y684D02*
X1250Y684D01*
X1290Y684D02*
X1350Y684D01*
X1390Y684D02*
X1450Y684D01*
X1490Y684D02*
X1550Y684D01*
X1592Y684D02*
X1650Y684D01*
X1690Y684D02*
X1750Y684D01*
X1790Y684D02*
X1850Y684D01*
X1890Y684D02*
X1950Y684D01*
X992Y683D02*
X1052Y683D01*
X1090Y683D02*
X1150Y683D01*
X1190Y683D02*
X1250Y683D01*
X1290Y683D02*
X1350Y683D01*
X1390Y683D02*
X1450Y683D01*
X1490Y683D02*
X1550Y683D01*
X1591Y683D02*
X1650Y683D01*
X1690Y683D02*
X1750Y683D01*
X1790Y683D02*
X1850Y683D01*
X1890Y683D02*
X1950Y683D01*
X992Y682D02*
X1052Y682D01*
X1090Y682D02*
X1150Y682D01*
X1190Y682D02*
X1250Y682D01*
X1290Y682D02*
X1350Y682D01*
X1390Y682D02*
X1450Y682D01*
X1490Y682D02*
X1550Y682D01*
X1591Y682D02*
X1651Y682D01*
X1690Y682D02*
X1750Y682D01*
X1789Y682D02*
X1850Y682D01*
X1889Y682D02*
X1950Y682D01*
X991Y681D02*
X1052Y681D01*
X1089Y681D02*
X1150Y681D01*
X1189Y681D02*
X1250Y681D01*
X1289Y681D02*
X1350Y681D01*
X1389Y681D02*
X1450Y681D01*
X1489Y681D02*
X1550Y681D01*
X1591Y681D02*
X1651Y681D01*
X1689Y681D02*
X1750Y681D01*
X1789Y681D02*
X1850Y681D01*
X1889Y681D02*
X1950Y681D01*
X991Y680D02*
X1052Y680D01*
X1089Y680D02*
X1150Y680D01*
X1189Y680D02*
X1250Y680D01*
X1289Y680D02*
X1350Y680D01*
X1389Y680D02*
X1450Y680D01*
X1489Y680D02*
X1550Y680D01*
X1591Y680D02*
X1651Y680D01*
X1689Y680D02*
X1750Y680D01*
X1789Y680D02*
X1850Y680D01*
X1889Y680D02*
X1950Y680D01*
X991Y679D02*
X1053Y679D01*
X1089Y679D02*
X1151Y679D01*
X1189Y679D02*
X1250Y679D01*
X1289Y679D02*
X1350Y679D01*
X1389Y679D02*
X1450Y679D01*
X1489Y679D02*
X1550Y679D01*
X1590Y679D02*
X1651Y679D01*
X1689Y679D02*
X1750Y679D01*
X1789Y679D02*
X1850Y679D01*
X1889Y679D02*
X1950Y679D01*
X991Y678D02*
X1053Y678D01*
X1089Y678D02*
X1151Y678D01*
X1189Y678D02*
X1251Y678D01*
X1289Y678D02*
X1351Y678D01*
X1389Y678D02*
X1451Y678D01*
X1489Y678D02*
X1551Y678D01*
X1590Y678D02*
X1651Y678D01*
X1689Y678D02*
X1750Y678D01*
X1789Y678D02*
X1850Y678D01*
X1889Y678D02*
X1950Y678D01*
X991Y677D02*
X1053Y677D01*
X1089Y677D02*
X1151Y677D01*
X1189Y677D02*
X1251Y677D01*
X1289Y677D02*
X1351Y677D01*
X1389Y677D02*
X1451Y677D01*
X1489Y677D02*
X1551Y677D01*
X1590Y677D02*
X1651Y677D01*
X1689Y677D02*
X1751Y677D01*
X1789Y677D02*
X1851Y677D01*
X1889Y677D02*
X1951Y677D01*
X991Y676D02*
X1053Y676D01*
X1089Y676D02*
X1151Y676D01*
X1189Y676D02*
X1251Y676D01*
X1289Y676D02*
X1351Y676D01*
X1389Y676D02*
X1451Y676D01*
X1489Y676D02*
X1551Y676D01*
X1590Y676D02*
X1652Y676D01*
X1689Y676D02*
X1751Y676D01*
X1789Y676D02*
X1851Y676D01*
X1889Y676D02*
X1951Y676D01*
X991Y675D02*
X1053Y675D01*
X1089Y675D02*
X1151Y675D01*
X1189Y675D02*
X1251Y675D01*
X1289Y675D02*
X1351Y675D01*
X1389Y675D02*
X1451Y675D01*
X1489Y675D02*
X1551Y675D01*
X1590Y675D02*
X1652Y675D01*
X1689Y675D02*
X1751Y675D01*
X1789Y675D02*
X1851Y675D01*
X1889Y675D02*
X1951Y675D01*
X991Y674D02*
X1053Y674D01*
X1089Y674D02*
X1151Y674D01*
X1189Y674D02*
X1251Y674D01*
X1289Y674D02*
X1351Y674D01*
X1389Y674D02*
X1451Y674D01*
X1489Y674D02*
X1551Y674D01*
X1590Y674D02*
X1652Y674D01*
X1689Y674D02*
X1751Y674D01*
X1789Y674D02*
X1851Y674D01*
X1889Y674D02*
X1951Y674D01*
X991Y673D02*
X1053Y673D01*
X1089Y673D02*
X1151Y673D01*
X1189Y673D02*
X1251Y673D01*
X1289Y673D02*
X1351Y673D01*
X1389Y673D02*
X1451Y673D01*
X1489Y673D02*
X1551Y673D01*
X1590Y673D02*
X1652Y673D01*
X1689Y673D02*
X1751Y673D01*
X1789Y673D02*
X1851Y673D01*
X1889Y673D02*
X1951Y673D01*
X991Y672D02*
X1053Y672D01*
X1089Y672D02*
X1151Y672D01*
X1189Y672D02*
X1251Y672D01*
X1289Y672D02*
X1351Y672D01*
X1389Y672D02*
X1451Y672D01*
X1489Y672D02*
X1551Y672D01*
X1590Y672D02*
X1652Y672D01*
X1689Y672D02*
X1751Y672D01*
X1789Y672D02*
X1851Y672D01*
X1889Y672D02*
X1951Y672D01*
X991Y671D02*
X1053Y671D01*
X1089Y671D02*
X1151Y671D01*
X1189Y671D02*
X1251Y671D01*
X1289Y671D02*
X1351Y671D01*
X1389Y671D02*
X1451Y671D01*
X1489Y671D02*
X1551Y671D01*
X1590Y671D02*
X1652Y671D01*
X1689Y671D02*
X1751Y671D01*
X1789Y671D02*
X1851Y671D01*
X1889Y671D02*
X1951Y671D01*
X991Y670D02*
X1053Y670D01*
X1089Y670D02*
X1151Y670D01*
X1189Y670D02*
X1251Y670D01*
X1289Y670D02*
X1351Y670D01*
X1389Y670D02*
X1451Y670D01*
X1489Y670D02*
X1551Y670D01*
X1590Y670D02*
X1652Y670D01*
X1689Y670D02*
X1751Y670D01*
X1789Y670D02*
X1851Y670D01*
X1889Y670D02*
X1951Y670D01*
X991Y669D02*
X1053Y669D01*
X1089Y669D02*
X1151Y669D01*
X1189Y669D02*
X1251Y669D01*
X1289Y669D02*
X1351Y669D01*
X1389Y669D02*
X1451Y669D01*
X1489Y669D02*
X1551Y669D01*
X1590Y669D02*
X1652Y669D01*
X1689Y669D02*
X1751Y669D01*
X1789Y669D02*
X1851Y669D01*
X1889Y669D02*
X1951Y669D01*
X991Y668D02*
X1053Y668D01*
X1089Y668D02*
X1151Y668D01*
X1189Y668D02*
X1251Y668D01*
X1289Y668D02*
X1351Y668D01*
X1389Y668D02*
X1451Y668D01*
X1489Y668D02*
X1551Y668D01*
X1590Y668D02*
X1652Y668D01*
X1689Y668D02*
X1751Y668D01*
X1789Y668D02*
X1851Y668D01*
X1889Y668D02*
X1951Y668D01*
X991Y667D02*
X1053Y667D01*
X1089Y667D02*
X1151Y667D01*
X1189Y667D02*
X1251Y667D01*
X1289Y667D02*
X1351Y667D01*
X1389Y667D02*
X1451Y667D01*
X1489Y667D02*
X1551Y667D01*
X1590Y667D02*
X1652Y667D01*
X1689Y667D02*
X1751Y667D01*
X1789Y667D02*
X1851Y667D01*
X1889Y667D02*
X1951Y667D01*
X991Y666D02*
X1053Y666D01*
X1089Y666D02*
X1151Y666D01*
X1189Y666D02*
X1251Y666D01*
X1289Y666D02*
X1351Y666D01*
X1389Y666D02*
X1451Y666D01*
X1489Y666D02*
X1551Y666D01*
X1590Y666D02*
X1652Y666D01*
X1689Y666D02*
X1751Y666D01*
X1789Y666D02*
X1851Y666D01*
X1889Y666D02*
X1951Y666D01*
X991Y665D02*
X1053Y665D01*
X1089Y665D02*
X1151Y665D01*
X1189Y665D02*
X1251Y665D01*
X1289Y665D02*
X1351Y665D01*
X1389Y665D02*
X1451Y665D01*
X1489Y665D02*
X1551Y665D01*
X1590Y665D02*
X1652Y665D01*
X1689Y665D02*
X1751Y665D01*
X1789Y665D02*
X1851Y665D01*
X1889Y665D02*
X1951Y665D01*
X991Y664D02*
X1053Y664D01*
X1089Y664D02*
X1151Y664D01*
X1189Y664D02*
X1251Y664D01*
X1289Y664D02*
X1351Y664D01*
X1389Y664D02*
X1451Y664D01*
X1489Y664D02*
X1551Y664D01*
X1590Y664D02*
X1652Y664D01*
X1689Y664D02*
X1751Y664D01*
X1789Y664D02*
X1851Y664D01*
X1889Y664D02*
X1951Y664D01*
X991Y663D02*
X1053Y663D01*
X1089Y663D02*
X1151Y663D01*
X1189Y663D02*
X1251Y663D01*
X1289Y663D02*
X1351Y663D01*
X1389Y663D02*
X1451Y663D01*
X1489Y663D02*
X1551Y663D01*
X1590Y663D02*
X1652Y663D01*
X1689Y663D02*
X1751Y663D01*
X1789Y663D02*
X1851Y663D01*
X1889Y663D02*
X1951Y663D01*
X991Y662D02*
X1053Y662D01*
X1089Y662D02*
X1151Y662D01*
X1189Y662D02*
X1251Y662D01*
X1289Y662D02*
X1351Y662D01*
X1389Y662D02*
X1451Y662D01*
X1489Y662D02*
X1551Y662D01*
X1590Y662D02*
X1652Y662D01*
X1689Y662D02*
X1751Y662D01*
X1789Y662D02*
X1851Y662D01*
X1889Y662D02*
X1951Y662D01*
X991Y661D02*
X1018Y661D01*
X1026Y661D02*
X1053Y661D01*
X1089Y661D02*
X1116Y661D01*
X1124Y661D02*
X1151Y661D01*
X1189Y661D02*
X1216Y661D01*
X1224Y661D02*
X1251Y661D01*
X1289Y661D02*
X1316Y661D01*
X1324Y661D02*
X1351Y661D01*
X1389Y661D02*
X1416Y661D01*
X1424Y661D02*
X1451Y661D01*
X1489Y661D02*
X1516Y661D01*
X1524Y661D02*
X1551Y661D01*
X1590Y661D02*
X1652Y661D01*
X1689Y661D02*
X1716Y661D01*
X1724Y661D02*
X1751Y661D01*
X1789Y661D02*
X1816Y661D01*
X1824Y661D02*
X1851Y661D01*
X1889Y661D02*
X1916Y661D01*
X1923Y661D02*
X1951Y661D01*
X991Y660D02*
X1016Y660D01*
X1028Y660D02*
X1053Y660D01*
X1089Y660D02*
X1114Y660D01*
X1126Y660D02*
X1151Y660D01*
X1189Y660D02*
X1214Y660D01*
X1226Y660D02*
X1251Y660D01*
X1289Y660D02*
X1314Y660D01*
X1326Y660D02*
X1351Y660D01*
X1389Y660D02*
X1414Y660D01*
X1426Y660D02*
X1451Y660D01*
X1489Y660D02*
X1514Y660D01*
X1526Y660D02*
X1551Y660D01*
X1590Y660D02*
X1652Y660D01*
X1689Y660D02*
X1714Y660D01*
X1726Y660D02*
X1751Y660D01*
X1789Y660D02*
X1814Y660D01*
X1826Y660D02*
X1851Y660D01*
X1889Y660D02*
X1914Y660D01*
X1926Y660D02*
X1951Y660D01*
X991Y659D02*
X1014Y659D01*
X1029Y659D02*
X1053Y659D01*
X1089Y659D02*
X1112Y659D01*
X1127Y659D02*
X1151Y659D01*
X1189Y659D02*
X1212Y659D01*
X1227Y659D02*
X1251Y659D01*
X1289Y659D02*
X1312Y659D01*
X1327Y659D02*
X1351Y659D01*
X1389Y659D02*
X1412Y659D01*
X1427Y659D02*
X1451Y659D01*
X1489Y659D02*
X1512Y659D01*
X1527Y659D02*
X1551Y659D01*
X1590Y659D02*
X1617Y659D01*
X1625Y659D02*
X1652Y659D01*
X1689Y659D02*
X1712Y659D01*
X1727Y659D02*
X1751Y659D01*
X1789Y659D02*
X1812Y659D01*
X1827Y659D02*
X1851Y659D01*
X1889Y659D02*
X1912Y659D01*
X1927Y659D02*
X1951Y659D01*
X991Y658D02*
X1013Y658D01*
X1030Y658D02*
X1053Y658D01*
X1089Y658D02*
X1111Y658D01*
X1128Y658D02*
X1151Y658D01*
X1189Y658D02*
X1211Y658D01*
X1228Y658D02*
X1251Y658D01*
X1289Y658D02*
X1311Y658D01*
X1328Y658D02*
X1351Y658D01*
X1389Y658D02*
X1411Y658D01*
X1428Y658D02*
X1451Y658D01*
X1489Y658D02*
X1511Y658D01*
X1528Y658D02*
X1551Y658D01*
X1590Y658D02*
X1615Y658D01*
X1627Y658D02*
X1652Y658D01*
X1689Y658D02*
X1711Y658D01*
X1728Y658D02*
X1751Y658D01*
X1789Y658D02*
X1811Y658D01*
X1828Y658D02*
X1851Y658D01*
X1889Y658D02*
X1911Y658D01*
X1928Y658D02*
X1951Y658D01*
X991Y657D02*
X1013Y657D01*
X1031Y657D02*
X1053Y657D01*
X1089Y657D02*
X1111Y657D01*
X1129Y657D02*
X1151Y657D01*
X1189Y657D02*
X1211Y657D01*
X1229Y657D02*
X1251Y657D01*
X1289Y657D02*
X1311Y657D01*
X1329Y657D02*
X1351Y657D01*
X1389Y657D02*
X1411Y657D01*
X1429Y657D02*
X1451Y657D01*
X1489Y657D02*
X1511Y657D01*
X1529Y657D02*
X1551Y657D01*
X1590Y657D02*
X1613Y657D01*
X1628Y657D02*
X1652Y657D01*
X1689Y657D02*
X1710Y657D01*
X1729Y657D02*
X1751Y657D01*
X1789Y657D02*
X1810Y657D01*
X1829Y657D02*
X1851Y657D01*
X1889Y657D02*
X1910Y657D01*
X1929Y657D02*
X1951Y657D01*
X991Y656D02*
X1012Y656D01*
X1032Y656D02*
X1053Y656D01*
X1089Y656D02*
X1110Y656D01*
X1130Y656D02*
X1151Y656D01*
X1189Y656D02*
X1210Y656D01*
X1230Y656D02*
X1251Y656D01*
X1289Y656D02*
X1310Y656D01*
X1330Y656D02*
X1351Y656D01*
X1389Y656D02*
X1410Y656D01*
X1430Y656D02*
X1451Y656D01*
X1489Y656D02*
X1510Y656D01*
X1530Y656D02*
X1551Y656D01*
X1590Y656D02*
X1612Y656D01*
X1629Y656D02*
X1652Y656D01*
X1689Y656D02*
X1710Y656D01*
X1730Y656D02*
X1751Y656D01*
X1789Y656D02*
X1810Y656D01*
X1830Y656D02*
X1851Y656D01*
X1889Y656D02*
X1910Y656D01*
X1930Y656D02*
X1951Y656D01*
X991Y655D02*
X1011Y655D01*
X1032Y655D02*
X1053Y655D01*
X1089Y655D02*
X1109Y655D01*
X1130Y655D02*
X1151Y655D01*
X1189Y655D02*
X1209Y655D01*
X1230Y655D02*
X1251Y655D01*
X1289Y655D02*
X1309Y655D01*
X1330Y655D02*
X1351Y655D01*
X1389Y655D02*
X1409Y655D01*
X1430Y655D02*
X1451Y655D01*
X1489Y655D02*
X1509Y655D01*
X1530Y655D02*
X1551Y655D01*
X1590Y655D02*
X1611Y655D01*
X1630Y655D02*
X1652Y655D01*
X1689Y655D02*
X1709Y655D01*
X1730Y655D02*
X1751Y655D01*
X1789Y655D02*
X1809Y655D01*
X1830Y655D02*
X1851Y655D01*
X1889Y655D02*
X1909Y655D01*
X1930Y655D02*
X1951Y655D01*
X991Y654D02*
X1011Y654D01*
X1032Y654D02*
X1053Y654D01*
X1089Y654D02*
X1109Y654D01*
X1130Y654D02*
X1151Y654D01*
X1189Y654D02*
X1209Y654D01*
X1230Y654D02*
X1251Y654D01*
X1289Y654D02*
X1309Y654D01*
X1330Y654D02*
X1351Y654D01*
X1389Y654D02*
X1409Y654D01*
X1430Y654D02*
X1451Y654D01*
X1489Y654D02*
X1509Y654D01*
X1530Y654D02*
X1551Y654D01*
X1590Y654D02*
X1611Y654D01*
X1631Y654D02*
X1652Y654D01*
X1689Y654D02*
X1709Y654D01*
X1730Y654D02*
X1751Y654D01*
X1789Y654D02*
X1809Y654D01*
X1830Y654D02*
X1851Y654D01*
X1889Y654D02*
X1909Y654D01*
X1930Y654D02*
X1951Y654D01*
X991Y653D02*
X1011Y653D01*
X1033Y653D02*
X1053Y653D01*
X1089Y653D02*
X1109Y653D01*
X1131Y653D02*
X1151Y653D01*
X1189Y653D02*
X1209Y653D01*
X1231Y653D02*
X1251Y653D01*
X1289Y653D02*
X1309Y653D01*
X1331Y653D02*
X1351Y653D01*
X1389Y653D02*
X1409Y653D01*
X1431Y653D02*
X1451Y653D01*
X1489Y653D02*
X1509Y653D01*
X1531Y653D02*
X1551Y653D01*
X1590Y653D02*
X1610Y653D01*
X1631Y653D02*
X1652Y653D01*
X1689Y653D02*
X1709Y653D01*
X1731Y653D02*
X1751Y653D01*
X1789Y653D02*
X1809Y653D01*
X1831Y653D02*
X1851Y653D01*
X1889Y653D02*
X1909Y653D01*
X1931Y653D02*
X1951Y653D01*
X991Y652D02*
X1011Y652D01*
X1033Y652D02*
X1053Y652D01*
X1089Y652D02*
X1109Y652D01*
X1131Y652D02*
X1151Y652D01*
X1189Y652D02*
X1209Y652D01*
X1231Y652D02*
X1251Y652D01*
X1289Y652D02*
X1309Y652D01*
X1331Y652D02*
X1351Y652D01*
X1389Y652D02*
X1409Y652D01*
X1431Y652D02*
X1451Y652D01*
X1489Y652D02*
X1509Y652D01*
X1531Y652D02*
X1551Y652D01*
X1590Y652D02*
X1610Y652D01*
X1631Y652D02*
X1652Y652D01*
X1689Y652D02*
X1709Y652D01*
X1731Y652D02*
X1751Y652D01*
X1789Y652D02*
X1809Y652D01*
X1831Y652D02*
X1851Y652D01*
X1889Y652D02*
X1909Y652D01*
X1931Y652D02*
X1951Y652D01*
X991Y651D02*
X1011Y651D01*
X1033Y651D02*
X1053Y651D01*
X1089Y651D02*
X1109Y651D01*
X1131Y651D02*
X1151Y651D01*
X1189Y651D02*
X1209Y651D01*
X1231Y651D02*
X1251Y651D01*
X1289Y651D02*
X1309Y651D01*
X1331Y651D02*
X1351Y651D01*
X1389Y651D02*
X1409Y651D01*
X1431Y651D02*
X1451Y651D01*
X1489Y651D02*
X1509Y651D01*
X1531Y651D02*
X1551Y651D01*
X1590Y651D02*
X1610Y651D01*
X1632Y651D02*
X1652Y651D01*
X1689Y651D02*
X1709Y651D01*
X1731Y651D02*
X1751Y651D01*
X1789Y651D02*
X1809Y651D01*
X1831Y651D02*
X1851Y651D01*
X1889Y651D02*
X1909Y651D01*
X1931Y651D02*
X1951Y651D01*
X991Y650D02*
X1011Y650D01*
X1033Y650D02*
X1053Y650D01*
X1089Y650D02*
X1109Y650D01*
X1131Y650D02*
X1151Y650D01*
X1189Y650D02*
X1209Y650D01*
X1231Y650D02*
X1251Y650D01*
X1289Y650D02*
X1309Y650D01*
X1331Y650D02*
X1351Y650D01*
X1389Y650D02*
X1409Y650D01*
X1431Y650D02*
X1451Y650D01*
X1489Y650D02*
X1509Y650D01*
X1531Y650D02*
X1551Y650D01*
X1590Y650D02*
X1610Y650D01*
X1632Y650D02*
X1652Y650D01*
X1689Y650D02*
X1709Y650D01*
X1731Y650D02*
X1751Y650D01*
X1789Y650D02*
X1809Y650D01*
X1831Y650D02*
X1851Y650D01*
X1889Y650D02*
X1909Y650D01*
X1931Y650D02*
X1951Y650D01*
X991Y649D02*
X1011Y649D01*
X1033Y649D02*
X1053Y649D01*
X1089Y649D02*
X1109Y649D01*
X1131Y649D02*
X1151Y649D01*
X1189Y649D02*
X1209Y649D01*
X1231Y649D02*
X1251Y649D01*
X1289Y649D02*
X1309Y649D01*
X1331Y649D02*
X1351Y649D01*
X1389Y649D02*
X1409Y649D01*
X1431Y649D02*
X1451Y649D01*
X1489Y649D02*
X1509Y649D01*
X1531Y649D02*
X1551Y649D01*
X1590Y649D02*
X1610Y649D01*
X1632Y649D02*
X1652Y649D01*
X1689Y649D02*
X1709Y649D01*
X1731Y649D02*
X1751Y649D01*
X1789Y649D02*
X1809Y649D01*
X1831Y649D02*
X1851Y649D01*
X1889Y649D02*
X1909Y649D01*
X1931Y649D02*
X1951Y649D01*
X991Y648D02*
X1011Y648D01*
X1032Y648D02*
X1053Y648D01*
X1089Y648D02*
X1109Y648D01*
X1130Y648D02*
X1151Y648D01*
X1189Y648D02*
X1209Y648D01*
X1230Y648D02*
X1251Y648D01*
X1289Y648D02*
X1309Y648D01*
X1330Y648D02*
X1351Y648D01*
X1389Y648D02*
X1409Y648D01*
X1430Y648D02*
X1451Y648D01*
X1489Y648D02*
X1509Y648D01*
X1530Y648D02*
X1551Y648D01*
X1590Y648D02*
X1610Y648D01*
X1632Y648D02*
X1652Y648D01*
X1689Y648D02*
X1709Y648D01*
X1730Y648D02*
X1751Y648D01*
X1789Y648D02*
X1809Y648D01*
X1830Y648D02*
X1851Y648D01*
X1889Y648D02*
X1909Y648D01*
X1930Y648D02*
X1951Y648D01*
X991Y647D02*
X1011Y647D01*
X1032Y647D02*
X1053Y647D01*
X1089Y647D02*
X1109Y647D01*
X1130Y647D02*
X1151Y647D01*
X1189Y647D02*
X1209Y647D01*
X1230Y647D02*
X1251Y647D01*
X1289Y647D02*
X1309Y647D01*
X1330Y647D02*
X1351Y647D01*
X1389Y647D02*
X1409Y647D01*
X1430Y647D02*
X1451Y647D01*
X1489Y647D02*
X1509Y647D01*
X1530Y647D02*
X1551Y647D01*
X1590Y647D02*
X1610Y647D01*
X1632Y647D02*
X1652Y647D01*
X1689Y647D02*
X1709Y647D01*
X1730Y647D02*
X1751Y647D01*
X1789Y647D02*
X1809Y647D01*
X1830Y647D02*
X1851Y647D01*
X1889Y647D02*
X1909Y647D01*
X1930Y647D02*
X1951Y647D01*
X991Y646D02*
X1012Y646D01*
X1032Y646D02*
X1053Y646D01*
X1089Y646D02*
X1110Y646D01*
X1130Y646D02*
X1151Y646D01*
X1189Y646D02*
X1210Y646D01*
X1230Y646D02*
X1251Y646D01*
X1289Y646D02*
X1310Y646D01*
X1330Y646D02*
X1351Y646D01*
X1389Y646D02*
X1410Y646D01*
X1430Y646D02*
X1451Y646D01*
X1489Y646D02*
X1510Y646D01*
X1530Y646D02*
X1551Y646D01*
X1590Y646D02*
X1610Y646D01*
X1631Y646D02*
X1652Y646D01*
X1689Y646D02*
X1710Y646D01*
X1730Y646D02*
X1751Y646D01*
X1789Y646D02*
X1810Y646D01*
X1830Y646D02*
X1851Y646D01*
X1889Y646D02*
X1910Y646D01*
X1930Y646D02*
X1951Y646D01*
X991Y645D02*
X1012Y645D01*
X1031Y645D02*
X1053Y645D01*
X1089Y645D02*
X1110Y645D01*
X1129Y645D02*
X1151Y645D01*
X1189Y645D02*
X1210Y645D01*
X1229Y645D02*
X1251Y645D01*
X1289Y645D02*
X1310Y645D01*
X1329Y645D02*
X1351Y645D01*
X1389Y645D02*
X1410Y645D01*
X1429Y645D02*
X1451Y645D01*
X1489Y645D02*
X1510Y645D01*
X1529Y645D02*
X1551Y645D01*
X1590Y645D02*
X1610Y645D01*
X1631Y645D02*
X1652Y645D01*
X1689Y645D02*
X1710Y645D01*
X1729Y645D02*
X1751Y645D01*
X1789Y645D02*
X1810Y645D01*
X1829Y645D02*
X1851Y645D01*
X1889Y645D02*
X1910Y645D01*
X1929Y645D02*
X1951Y645D01*
X991Y644D02*
X1013Y644D01*
X1030Y644D02*
X1053Y644D01*
X1089Y644D02*
X1111Y644D01*
X1128Y644D02*
X1151Y644D01*
X1189Y644D02*
X1211Y644D01*
X1228Y644D02*
X1251Y644D01*
X1289Y644D02*
X1311Y644D01*
X1328Y644D02*
X1351Y644D01*
X1389Y644D02*
X1411Y644D01*
X1428Y644D02*
X1451Y644D01*
X1489Y644D02*
X1511Y644D01*
X1528Y644D02*
X1551Y644D01*
X1590Y644D02*
X1611Y644D01*
X1631Y644D02*
X1652Y644D01*
X1689Y644D02*
X1711Y644D01*
X1728Y644D02*
X1751Y644D01*
X1789Y644D02*
X1811Y644D01*
X1828Y644D02*
X1851Y644D01*
X1889Y644D02*
X1911Y644D01*
X1928Y644D02*
X1951Y644D01*
X991Y643D02*
X1014Y643D01*
X1029Y643D02*
X1053Y643D01*
X1089Y643D02*
X1112Y643D01*
X1127Y643D02*
X1151Y643D01*
X1189Y643D02*
X1212Y643D01*
X1227Y643D02*
X1251Y643D01*
X1289Y643D02*
X1312Y643D01*
X1327Y643D02*
X1351Y643D01*
X1389Y643D02*
X1412Y643D01*
X1427Y643D02*
X1451Y643D01*
X1489Y643D02*
X1512Y643D01*
X1527Y643D02*
X1551Y643D01*
X1590Y643D02*
X1611Y643D01*
X1630Y643D02*
X1652Y643D01*
X1689Y643D02*
X1712Y643D01*
X1727Y643D02*
X1751Y643D01*
X1789Y643D02*
X1812Y643D01*
X1827Y643D02*
X1851Y643D01*
X1889Y643D02*
X1912Y643D01*
X1927Y643D02*
X1951Y643D01*
X991Y642D02*
X1016Y642D01*
X1028Y642D02*
X1053Y642D01*
X1089Y642D02*
X1114Y642D01*
X1126Y642D02*
X1151Y642D01*
X1189Y642D02*
X1214Y642D01*
X1226Y642D02*
X1251Y642D01*
X1289Y642D02*
X1314Y642D01*
X1326Y642D02*
X1351Y642D01*
X1389Y642D02*
X1414Y642D01*
X1426Y642D02*
X1451Y642D01*
X1489Y642D02*
X1513Y642D01*
X1526Y642D02*
X1551Y642D01*
X1590Y642D02*
X1612Y642D01*
X1629Y642D02*
X1652Y642D01*
X1689Y642D02*
X1713Y642D01*
X1726Y642D02*
X1751Y642D01*
X1789Y642D02*
X1813Y642D01*
X1826Y642D02*
X1851Y642D01*
X1889Y642D02*
X1913Y642D01*
X1926Y642D02*
X1951Y642D01*
X991Y641D02*
X1017Y641D01*
X1026Y641D02*
X1053Y641D01*
X1089Y641D02*
X1116Y641D01*
X1124Y641D02*
X1151Y641D01*
X1189Y641D02*
X1216Y641D01*
X1224Y641D02*
X1251Y641D01*
X1289Y641D02*
X1316Y641D01*
X1324Y641D02*
X1351Y641D01*
X1389Y641D02*
X1416Y641D01*
X1424Y641D02*
X1451Y641D01*
X1489Y641D02*
X1515Y641D01*
X1524Y641D02*
X1551Y641D01*
X1590Y641D02*
X1613Y641D01*
X1628Y641D02*
X1652Y641D01*
X1689Y641D02*
X1715Y641D01*
X1724Y641D02*
X1751Y641D01*
X1789Y641D02*
X1815Y641D01*
X1824Y641D02*
X1851Y641D01*
X1889Y641D02*
X1915Y641D01*
X1924Y641D02*
X1951Y641D01*
X991Y640D02*
X1053Y640D01*
X1089Y640D02*
X1151Y640D01*
X1189Y640D02*
X1251Y640D01*
X1289Y640D02*
X1351Y640D01*
X1389Y640D02*
X1451Y640D01*
X1489Y640D02*
X1551Y640D01*
X1590Y640D02*
X1614Y640D01*
X1627Y640D02*
X1652Y640D01*
X1689Y640D02*
X1751Y640D01*
X1789Y640D02*
X1851Y640D01*
X1889Y640D02*
X1951Y640D01*
X991Y639D02*
X1053Y639D01*
X1089Y639D02*
X1151Y639D01*
X1189Y639D02*
X1251Y639D01*
X1289Y639D02*
X1351Y639D01*
X1389Y639D02*
X1451Y639D01*
X1489Y639D02*
X1551Y639D01*
X1590Y639D02*
X1616Y639D01*
X1625Y639D02*
X1652Y639D01*
X1689Y639D02*
X1751Y639D01*
X1789Y639D02*
X1851Y639D01*
X1889Y639D02*
X1951Y639D01*
X991Y638D02*
X1053Y638D01*
X1089Y638D02*
X1151Y638D01*
X1189Y638D02*
X1251Y638D01*
X1289Y638D02*
X1351Y638D01*
X1389Y638D02*
X1451Y638D01*
X1489Y638D02*
X1551Y638D01*
X1590Y638D02*
X1652Y638D01*
X1689Y638D02*
X1751Y638D01*
X1789Y638D02*
X1851Y638D01*
X1889Y638D02*
X1951Y638D01*
X991Y637D02*
X1053Y637D01*
X1089Y637D02*
X1151Y637D01*
X1189Y637D02*
X1251Y637D01*
X1289Y637D02*
X1351Y637D01*
X1389Y637D02*
X1451Y637D01*
X1489Y637D02*
X1551Y637D01*
X1590Y637D02*
X1652Y637D01*
X1689Y637D02*
X1751Y637D01*
X1789Y637D02*
X1851Y637D01*
X1889Y637D02*
X1951Y637D01*
X991Y636D02*
X1053Y636D01*
X1089Y636D02*
X1151Y636D01*
X1189Y636D02*
X1251Y636D01*
X1289Y636D02*
X1351Y636D01*
X1389Y636D02*
X1451Y636D01*
X1489Y636D02*
X1551Y636D01*
X1590Y636D02*
X1652Y636D01*
X1689Y636D02*
X1751Y636D01*
X1789Y636D02*
X1851Y636D01*
X1889Y636D02*
X1951Y636D01*
X991Y635D02*
X1053Y635D01*
X1089Y635D02*
X1151Y635D01*
X1189Y635D02*
X1251Y635D01*
X1289Y635D02*
X1351Y635D01*
X1389Y635D02*
X1451Y635D01*
X1489Y635D02*
X1551Y635D01*
X1590Y635D02*
X1652Y635D01*
X1689Y635D02*
X1751Y635D01*
X1789Y635D02*
X1851Y635D01*
X1889Y635D02*
X1951Y635D01*
X991Y634D02*
X1053Y634D01*
X1089Y634D02*
X1151Y634D01*
X1189Y634D02*
X1251Y634D01*
X1289Y634D02*
X1351Y634D01*
X1389Y634D02*
X1451Y634D01*
X1489Y634D02*
X1551Y634D01*
X1590Y634D02*
X1652Y634D01*
X1689Y634D02*
X1751Y634D01*
X1789Y634D02*
X1851Y634D01*
X1889Y634D02*
X1951Y634D01*
X991Y633D02*
X1053Y633D01*
X1089Y633D02*
X1151Y633D01*
X1189Y633D02*
X1251Y633D01*
X1289Y633D02*
X1351Y633D01*
X1389Y633D02*
X1451Y633D01*
X1489Y633D02*
X1551Y633D01*
X1590Y633D02*
X1652Y633D01*
X1689Y633D02*
X1751Y633D01*
X1789Y633D02*
X1851Y633D01*
X1889Y633D02*
X1951Y633D01*
X991Y632D02*
X1053Y632D01*
X1089Y632D02*
X1151Y632D01*
X1189Y632D02*
X1251Y632D01*
X1289Y632D02*
X1351Y632D01*
X1389Y632D02*
X1451Y632D01*
X1489Y632D02*
X1551Y632D01*
X1590Y632D02*
X1652Y632D01*
X1689Y632D02*
X1751Y632D01*
X1789Y632D02*
X1851Y632D01*
X1889Y632D02*
X1951Y632D01*
X991Y631D02*
X1053Y631D01*
X1089Y631D02*
X1151Y631D01*
X1189Y631D02*
X1251Y631D01*
X1289Y631D02*
X1351Y631D01*
X1389Y631D02*
X1451Y631D01*
X1489Y631D02*
X1551Y631D01*
X1590Y631D02*
X1652Y631D01*
X1689Y631D02*
X1751Y631D01*
X1789Y631D02*
X1851Y631D01*
X1889Y631D02*
X1951Y631D01*
X991Y630D02*
X1053Y630D01*
X1089Y630D02*
X1151Y630D01*
X1189Y630D02*
X1251Y630D01*
X1289Y630D02*
X1351Y630D01*
X1389Y630D02*
X1451Y630D01*
X1489Y630D02*
X1551Y630D01*
X1590Y630D02*
X1652Y630D01*
X1689Y630D02*
X1751Y630D01*
X1789Y630D02*
X1851Y630D01*
X1889Y630D02*
X1951Y630D01*
X991Y629D02*
X1053Y629D01*
X1089Y629D02*
X1151Y629D01*
X1189Y629D02*
X1251Y629D01*
X1289Y629D02*
X1351Y629D01*
X1389Y629D02*
X1451Y629D01*
X1489Y629D02*
X1551Y629D01*
X1590Y629D02*
X1652Y629D01*
X1689Y629D02*
X1751Y629D01*
X1789Y629D02*
X1851Y629D01*
X1889Y629D02*
X1951Y629D01*
X991Y628D02*
X1053Y628D01*
X1089Y628D02*
X1151Y628D01*
X1189Y628D02*
X1251Y628D01*
X1289Y628D02*
X1351Y628D01*
X1389Y628D02*
X1451Y628D01*
X1489Y628D02*
X1551Y628D01*
X1590Y628D02*
X1652Y628D01*
X1689Y628D02*
X1751Y628D01*
X1789Y628D02*
X1851Y628D01*
X1889Y628D02*
X1951Y628D01*
X991Y627D02*
X1053Y627D01*
X1089Y627D02*
X1151Y627D01*
X1189Y627D02*
X1251Y627D01*
X1289Y627D02*
X1351Y627D01*
X1389Y627D02*
X1451Y627D01*
X1489Y627D02*
X1551Y627D01*
X1590Y627D02*
X1652Y627D01*
X1689Y627D02*
X1751Y627D01*
X1789Y627D02*
X1851Y627D01*
X1889Y627D02*
X1951Y627D01*
X991Y626D02*
X1053Y626D01*
X1089Y626D02*
X1151Y626D01*
X1189Y626D02*
X1251Y626D01*
X1289Y626D02*
X1351Y626D01*
X1389Y626D02*
X1451Y626D01*
X1489Y626D02*
X1551Y626D01*
X1590Y626D02*
X1652Y626D01*
X1689Y626D02*
X1751Y626D01*
X1789Y626D02*
X1851Y626D01*
X1889Y626D02*
X1951Y626D01*
X991Y625D02*
X1053Y625D01*
X1089Y625D02*
X1151Y625D01*
X1189Y625D02*
X1251Y625D01*
X1289Y625D02*
X1351Y625D01*
X1389Y625D02*
X1451Y625D01*
X1489Y625D02*
X1551Y625D01*
X1590Y625D02*
X1652Y625D01*
X1689Y625D02*
X1751Y625D01*
X1789Y625D02*
X1851Y625D01*
X1889Y625D02*
X1951Y625D01*
X991Y624D02*
X1053Y624D01*
X1089Y624D02*
X1151Y624D01*
X1189Y624D02*
X1251Y624D01*
X1289Y624D02*
X1351Y624D01*
X1389Y624D02*
X1451Y624D01*
X1489Y624D02*
X1551Y624D01*
X1590Y624D02*
X1652Y624D01*
X1689Y624D02*
X1751Y624D01*
X1789Y624D02*
X1851Y624D01*
X1889Y624D02*
X1951Y624D01*
X991Y623D02*
X1053Y623D01*
X1089Y623D02*
X1151Y623D01*
X1189Y623D02*
X1251Y623D01*
X1289Y623D02*
X1351Y623D01*
X1389Y623D02*
X1451Y623D01*
X1489Y623D02*
X1551Y623D01*
X1590Y623D02*
X1652Y623D01*
X1689Y623D02*
X1751Y623D01*
X1789Y623D02*
X1851Y623D01*
X1889Y623D02*
X1951Y623D01*
X991Y622D02*
X1053Y622D01*
X1089Y622D02*
X1151Y622D01*
X1189Y622D02*
X1251Y622D01*
X1289Y622D02*
X1351Y622D01*
X1389Y622D02*
X1451Y622D01*
X1489Y622D02*
X1550Y622D01*
X1590Y622D02*
X1652Y622D01*
X1689Y622D02*
X1750Y622D01*
X1789Y622D02*
X1850Y622D01*
X1889Y622D02*
X1950Y622D01*
X991Y621D02*
X1052Y621D01*
X1089Y621D02*
X1150Y621D01*
X1189Y621D02*
X1250Y621D01*
X1289Y621D02*
X1350Y621D01*
X1389Y621D02*
X1450Y621D01*
X1489Y621D02*
X1550Y621D01*
X1590Y621D02*
X1652Y621D01*
X1689Y621D02*
X1750Y621D01*
X1789Y621D02*
X1850Y621D01*
X1889Y621D02*
X1950Y621D01*
X991Y620D02*
X1052Y620D01*
X1089Y620D02*
X1150Y620D01*
X1189Y620D02*
X1250Y620D01*
X1289Y620D02*
X1350Y620D01*
X1389Y620D02*
X1450Y620D01*
X1489Y620D02*
X1550Y620D01*
X1590Y620D02*
X1651Y620D01*
X1689Y620D02*
X1750Y620D01*
X1789Y620D02*
X1850Y620D01*
X1889Y620D02*
X1950Y620D01*
X991Y619D02*
X1052Y619D01*
X1089Y619D02*
X1150Y619D01*
X1189Y619D02*
X1250Y619D01*
X1289Y619D02*
X1350Y619D01*
X1389Y619D02*
X1450Y619D01*
X1489Y619D02*
X1550Y619D01*
X1590Y619D02*
X1651Y619D01*
X1689Y619D02*
X1750Y619D01*
X1789Y619D02*
X1850Y619D01*
X1889Y619D02*
X1950Y619D01*
X992Y618D02*
X1052Y618D01*
X1090Y618D02*
X1150Y618D01*
X1190Y618D02*
X1250Y618D01*
X1290Y618D02*
X1350Y618D01*
X1390Y618D02*
X1450Y618D01*
X1490Y618D02*
X1550Y618D01*
X1590Y618D02*
X1651Y618D01*
X1690Y618D02*
X1750Y618D01*
X1790Y618D02*
X1850Y618D01*
X1890Y618D02*
X1950Y618D01*
X992Y617D02*
X1052Y617D01*
X1090Y617D02*
X1150Y617D01*
X1190Y617D02*
X1250Y617D01*
X1290Y617D02*
X1350Y617D01*
X1390Y617D02*
X1450Y617D01*
X1490Y617D02*
X1550Y617D01*
X1590Y617D02*
X1651Y617D01*
X1690Y617D02*
X1750Y617D01*
X1790Y617D02*
X1850Y617D01*
X1890Y617D02*
X1950Y617D01*
X992Y616D02*
X1052Y616D01*
X1090Y616D02*
X1150Y616D01*
X1190Y616D02*
X1250Y616D01*
X1290Y616D02*
X1349Y616D01*
X1390Y616D02*
X1449Y616D01*
X1490Y616D02*
X1549Y616D01*
X1591Y616D02*
X1651Y616D01*
X1690Y616D02*
X1749Y616D01*
X1790Y616D02*
X1849Y616D01*
X1890Y616D02*
X1949Y616D01*
X992Y615D02*
X1051Y615D01*
X1090Y615D02*
X1149Y615D01*
X1190Y615D02*
X1249Y615D01*
X1290Y615D02*
X1349Y615D01*
X1390Y615D02*
X1449Y615D01*
X1490Y615D02*
X1549Y615D01*
X1591Y615D02*
X1651Y615D01*
X1690Y615D02*
X1749Y615D01*
X1790Y615D02*
X1849Y615D01*
X1890Y615D02*
X1949Y615D01*
X993Y614D02*
X1051Y614D01*
X1091Y614D02*
X1149Y614D01*
X1191Y614D02*
X1249Y614D01*
X1291Y614D02*
X1349Y614D01*
X1391Y614D02*
X1449Y614D01*
X1491Y614D02*
X1549Y614D01*
X1591Y614D02*
X1650Y614D01*
X1691Y614D02*
X1749Y614D01*
X1791Y614D02*
X1849Y614D01*
X1891Y614D02*
X1949Y614D01*
X993Y613D02*
X1051Y613D01*
X1091Y613D02*
X1149Y613D01*
X1191Y613D02*
X1249Y613D01*
X1291Y613D02*
X1349Y613D01*
X1391Y613D02*
X1449Y613D01*
X1491Y613D02*
X1549Y613D01*
X1591Y613D02*
X1650Y613D01*
X1691Y613D02*
X1748Y613D01*
X1791Y613D02*
X1848Y613D01*
X1891Y613D02*
X1948Y613D01*
X993Y612D02*
X1050Y612D01*
X1091Y612D02*
X1148Y612D01*
X1191Y612D02*
X1248Y612D01*
X1291Y612D02*
X1348Y612D01*
X1391Y612D02*
X1448Y612D01*
X1491Y612D02*
X1548Y612D01*
X1592Y612D02*
X1650Y612D01*
X1691Y612D02*
X1748Y612D01*
X1791Y612D02*
X1848Y612D01*
X1891Y612D02*
X1948Y612D01*
X994Y611D02*
X1050Y611D01*
X1092Y611D02*
X1148Y611D01*
X1192Y611D02*
X1248Y611D01*
X1292Y611D02*
X1348Y611D01*
X1392Y611D02*
X1448Y611D01*
X1492Y611D02*
X1548Y611D01*
X1592Y611D02*
X1649Y611D01*
X1692Y611D02*
X1748Y611D01*
X1792Y611D02*
X1848Y611D01*
X1892Y611D02*
X1948Y611D01*
X994Y610D02*
X1049Y610D01*
X1092Y610D02*
X1147Y610D01*
X1192Y610D02*
X1247Y610D01*
X1292Y610D02*
X1347Y610D01*
X1392Y610D02*
X1447Y610D01*
X1492Y610D02*
X1547Y610D01*
X1592Y610D02*
X1649Y610D01*
X1692Y610D02*
X1747Y610D01*
X1792Y610D02*
X1847Y610D01*
X1892Y610D02*
X1947Y610D01*
X995Y609D02*
X1049Y609D01*
X1093Y609D02*
X1147Y609D01*
X1193Y609D02*
X1247Y609D01*
X1293Y609D02*
X1347Y609D01*
X1393Y609D02*
X1447Y609D01*
X1493Y609D02*
X1547Y609D01*
X1593Y609D02*
X1649Y609D01*
X1693Y609D02*
X1747Y609D01*
X1793Y609D02*
X1847Y609D01*
X1893Y609D02*
X1947Y609D01*
X996Y608D02*
X1048Y608D01*
X1094Y608D02*
X1146Y608D01*
X1194Y608D02*
X1246Y608D01*
X1294Y608D02*
X1346Y608D01*
X1394Y608D02*
X1446Y608D01*
X1493Y608D02*
X1546Y608D01*
X1593Y608D02*
X1648Y608D01*
X1694Y608D02*
X1746Y608D01*
X1793Y608D02*
X1846Y608D01*
X1893Y608D02*
X1946Y608D01*
X996Y607D02*
X1047Y607D01*
X1094Y607D02*
X1145Y607D01*
X1194Y607D02*
X1245Y607D01*
X1294Y607D02*
X1345Y607D01*
X1394Y607D02*
X1445Y607D01*
X1494Y607D02*
X1545Y607D01*
X1594Y607D02*
X1648Y607D01*
X1694Y607D02*
X1745Y607D01*
X1794Y607D02*
X1845Y607D01*
X1894Y607D02*
X1945Y607D01*
X997Y606D02*
X1047Y606D01*
X1095Y606D02*
X1145Y606D01*
X1195Y606D02*
X1245Y606D01*
X1295Y606D02*
X1345Y606D01*
X1395Y606D02*
X1445Y606D01*
X1495Y606D02*
X1545Y606D01*
X1595Y606D02*
X1647Y606D01*
X1695Y606D02*
X1745Y606D01*
X1795Y606D02*
X1845Y606D01*
X1895Y606D02*
X1945Y606D01*
X998Y605D02*
X1046Y605D01*
X1096Y605D02*
X1144Y605D01*
X1196Y605D02*
X1244Y605D01*
X1296Y605D02*
X1344Y605D01*
X1396Y605D02*
X1444Y605D01*
X1496Y605D02*
X1544Y605D01*
X1595Y605D02*
X1646Y605D01*
X1696Y605D02*
X1744Y605D01*
X1796Y605D02*
X1844Y605D01*
X1896Y605D02*
X1944Y605D01*
X998Y604D02*
X1045Y604D01*
X1096Y604D02*
X1143Y604D01*
X1196Y604D02*
X1243Y604D01*
X1296Y604D02*
X1343Y604D01*
X1396Y604D02*
X1443Y604D01*
X1496Y604D02*
X1543Y604D01*
X1596Y604D02*
X1646Y604D01*
X1696Y604D02*
X1743Y604D01*
X1796Y604D02*
X1843Y604D01*
X1896Y604D02*
X1943Y604D01*
X999Y603D02*
X1044Y603D01*
X1097Y603D02*
X1142Y603D01*
X1197Y603D02*
X1242Y603D01*
X1297Y603D02*
X1342Y603D01*
X1397Y603D02*
X1442Y603D01*
X1497Y603D02*
X1542Y603D01*
X1597Y603D02*
X1645Y603D01*
X1697Y603D02*
X1742Y603D01*
X1797Y603D02*
X1842Y603D01*
X1897Y603D02*
X1942Y603D01*
X1000Y602D02*
X1043Y602D01*
X1098Y602D02*
X1141Y602D01*
X1198Y602D02*
X1241Y602D01*
X1298Y602D02*
X1341Y602D01*
X1398Y602D02*
X1441Y602D01*
X1498Y602D02*
X1541Y602D01*
X1597Y602D02*
X1644Y602D01*
X1698Y602D02*
X1741Y602D01*
X1798Y602D02*
X1841Y602D01*
X1898Y602D02*
X1941Y602D01*
X1001Y601D02*
X1042Y601D01*
X1099Y601D02*
X1140Y601D01*
X1199Y601D02*
X1240Y601D01*
X1299Y601D02*
X1340Y601D01*
X1399Y601D02*
X1440Y601D01*
X1499Y601D02*
X1540Y601D01*
X1598Y601D02*
X1643Y601D01*
X1699Y601D02*
X1740Y601D01*
X1799Y601D02*
X1840Y601D01*
X1899Y601D02*
X1940Y601D01*
X1002Y600D02*
X1041Y600D01*
X1100Y600D02*
X1139Y600D01*
X1200Y600D02*
X1239Y600D01*
X1300Y600D02*
X1339Y600D01*
X1400Y600D02*
X1439Y600D01*
X1500Y600D02*
X1539Y600D01*
X1599Y600D02*
X1642Y600D01*
X1700Y600D02*
X1739Y600D01*
X1800Y600D02*
X1839Y600D01*
X1900Y600D02*
X1939Y600D01*
X1004Y599D02*
X1040Y599D01*
X1102Y599D02*
X1138Y599D01*
X1202Y599D02*
X1238Y599D01*
X1302Y599D02*
X1338Y599D01*
X1402Y599D02*
X1438Y599D01*
X1502Y599D02*
X1538Y599D01*
X1600Y599D02*
X1641Y599D01*
X1702Y599D02*
X1738Y599D01*
X1802Y599D02*
X1838Y599D01*
X1902Y599D02*
X1938Y599D01*
X1005Y598D02*
X1038Y598D01*
X1103Y598D02*
X1136Y598D01*
X1203Y598D02*
X1236Y598D01*
X1303Y598D02*
X1336Y598D01*
X1403Y598D02*
X1436Y598D01*
X1503Y598D02*
X1536Y598D01*
X1601Y598D02*
X1640Y598D01*
X1703Y598D02*
X1736Y598D01*
X1803Y598D02*
X1836Y598D01*
X1903Y598D02*
X1936Y598D01*
X1007Y597D02*
X1037Y597D01*
X1105Y597D02*
X1135Y597D01*
X1205Y597D02*
X1235Y597D01*
X1305Y597D02*
X1335Y597D01*
X1405Y597D02*
X1435Y597D01*
X1505Y597D02*
X1535Y597D01*
X1603Y597D02*
X1639Y597D01*
X1705Y597D02*
X1735Y597D01*
X1805Y597D02*
X1835Y597D01*
X1905Y597D02*
X1935Y597D01*
X1009Y596D02*
X1035Y596D01*
X1107Y596D02*
X1133Y596D01*
X1207Y596D02*
X1233Y596D01*
X1307Y596D02*
X1333Y596D01*
X1407Y596D02*
X1433Y596D01*
X1507Y596D02*
X1533Y596D01*
X1604Y596D02*
X1637Y596D01*
X1707Y596D02*
X1733Y596D01*
X1807Y596D02*
X1833Y596D01*
X1907Y596D02*
X1933Y596D01*
X1011Y595D02*
X1033Y595D01*
X1109Y595D02*
X1131Y595D01*
X1209Y595D02*
X1231Y595D01*
X1309Y595D02*
X1331Y595D01*
X1409Y595D02*
X1431Y595D01*
X1509Y595D02*
X1531Y595D01*
X1606Y595D02*
X1636Y595D01*
X1709Y595D02*
X1731Y595D01*
X1809Y595D02*
X1831Y595D01*
X1909Y595D02*
X1931Y595D01*
X1014Y594D02*
X1030Y594D01*
X1112Y594D02*
X1127Y594D01*
X1212Y594D02*
X1227Y594D01*
X1312Y594D02*
X1327Y594D01*
X1412Y594D02*
X1427Y594D01*
X1512Y594D02*
X1528Y594D01*
X1608Y594D02*
X1634Y594D01*
X1712Y594D02*
X1727Y594D01*
X1812Y594D02*
X1827Y594D01*
X1912Y594D02*
X1927Y594D01*
X1019Y593D02*
X1024Y593D01*
X1118Y593D02*
X1122Y593D01*
X1218Y593D02*
X1222Y593D01*
X1318Y593D02*
X1322Y593D01*
X1418Y593D02*
X1422Y593D01*
X1517Y593D02*
X1522Y593D01*
X1610Y593D02*
X1632Y593D01*
X1718Y593D02*
X1722Y593D01*
X1818Y593D02*
X1822Y593D01*
X1917Y593D02*
X1922Y593D01*
X1613Y592D02*
X1628Y592D01*
X1619Y591D02*
X1623Y591D01*
D02*
G04 End of Mask1*
M02*