; NON-PLATED HOLES START AT T1
; THROUGH (PLATED) HOLES START AT T100
M48
INCH
T100C0.038000
%
T100
X016204Y006466
X015194Y003861
X018194Y006486
X014194Y018611
X011194Y018611
X011194Y003861
X017194Y003861
X013194Y016486
X012194Y016486
X017194Y006486
X011194Y016486
X010194Y018611
X010194Y003861
X010214Y006486
X019194Y018611
X024444Y019611
X019194Y006486
X019194Y016486
X018194Y003861
X014194Y006486
X016194Y003861
X013194Y006486
X024444Y020611
X015194Y016486
X015194Y018611
X016194Y016486
X016194Y018611
X012194Y006486
X019194Y003861
X012194Y018611
X011194Y006486
X013194Y018611
X017194Y016486
X018194Y016486
X010214Y016486
X014194Y016486
X024444Y018611
X015194Y006486
X017194Y018611
X012194Y003861
X014194Y003861
X013194Y003861
X018194Y018611
T00
M30
