<?xml version="1.0" encoding="UTF-8" standalone="no"?>
<!-- Created with Fritzing (http://www.fritzing.org/) -->

<svg
   version="1.2"
   x="0in"
   y="0in"
   width="1.12417in"
   height="2.05134in"
   viewBox="0 0 80.9405 147.696"
   id="svg33"
   sodipodi:docname="ESP30_30_pcb.svg"
   inkscape:version="1.3 (1:1.3+202307231459+0e150ed6c4)"
   xmlns:inkscape="http://www.inkscape.org/namespaces/inkscape"
   xmlns:sodipodi="http://sodipodi.sourceforge.net/DTD/sodipodi-0.dtd"
   xmlns="http://www.w3.org/2000/svg"
   xmlns:svg="http://www.w3.org/2000/svg">
  <defs
     id="defs33" />
  <sodipodi:namedview
     id="namedview33"
     pagecolor="#ffffff"
     bordercolor="#000000"
     borderopacity="0.25"
     inkscape:showpageshadow="2"
     inkscape:pageopacity="0.0"
     inkscape:pagecheckerboard="0"
     inkscape:deskcolor="#d1d1d1"
     inkscape:document-units="in"
     inkscape:zoom="3.9608254"
     inkscape:cx="54.029143"
     inkscape:cy="98.464325"
     inkscape:window-width="1920"
     inkscape:window-height="980"
     inkscape:window-x="1920"
     inkscape:window-y="0"
     inkscape:window-maximized="1"
     inkscape:current-layer="copper1" />
  <g
     partID="10864261"
     id="g31">
    <g
       id="copper1">
      <g
         id="copper0">
        <circle
           cx="76.3427"
           cy="116.628"
           stroke-width="0.504"
           stroke="#f7bd13"
           fill="none"
           r="1.62"
           id="connector0pin"
           gorn="0.4.0.0" />
        <path
           d="m80.0049,116.629a1.87105,1.87105,0,0,1,-1.87105,1.87108l-3.7421,0a1.87105,1.87105,0,0,1,-1.87105,-1.87108l0,0a1.87105,1.87105,0,0,1,1.87105,-1.87108l3.7421,0a1.87105,1.87105,0,0,1,1.87105,1.87108zm-3.79649,-1.14761a1.15148,1.15148,0,1,0,0,2.30296,1.15148,1.15148,0,1,0,0,-2.30296z"
           stroke-width="0.719635"
           stroke="none"
           fill="#f7bd13"
           id="path423"
           gorn="0.4.0.1" />
        <circle
           cx="76.3427"
           cy="109.428"
           stroke-width="0.504"
           stroke="#f7bd13"
           fill="none"
           r="1.62"
           id="connector1pin"
           gorn="0.4.0.2" />
        <path
           d="m80.0107,109.429a1.87105,1.87105,0,0,1,-1.87105,1.87108l-3.7421,0a1.87105,1.87105,0,0,1,-1.87105,-1.87108l0,0a1.87105,1.87105,0,0,1,1.87105,-1.87108l3.7421,0a1.87105,1.87105,0,0,1,1.87105,1.87108zm-3.79649,-1.14732a1.15142,1.15142,0,1,0,0,2.30266,1.15142,1.15142,0,1,0,0,-2.30266z"
           stroke-width="0.719635"
           stroke="none"
           fill="#f7bd13"
           id="path467"
           gorn="0.4.0.3" />
        <circle
           cx="76.3427"
           cy="102.228"
           stroke-width="0.504"
           stroke="#f7bd13"
           fill="none"
           r="1.62"
           id="connector2pin"
           gorn="0.4.0.4" />
        <path
           d="m80.015,102.229a1.872,1.87105,0,0,1,-1.872,1.87108l-3.744,0a1.872,1.87105,0,0,1,-1.872,-1.87108l0,0a1.872,1.87105,0,0,1,1.872,-1.87108l3.744,0a1.872,1.87105,0,0,1,1.872,1.87108zm-3.79842,-1.14761a1.152,1.15142,0,1,0,0,2.30267,1.152,1.15142,0,1,0,0,-2.30267z"
           stroke-width="0.719635"
           stroke="none"
           fill="#f7bd13"
           id="path13574-4"
           gorn="0.4.0.5" />
        <circle
           cx="76.3427"
           cy="95.0281"
           stroke-width="0.504"
           stroke="#f7bd13"
           fill="none"
           r="1.62"
           id="connector3pin"
           gorn="0.4.0.6" />
        <path
           d="m80.0107,95.0292a1.87105,1.87105,0,0,1,-1.87105,1.87108l-3.7421,0a1.87105,1.87105,0,0,1,-1.87105,-1.87108l0,0a1.87105,1.87105,0,0,1,1.87105,-1.87108l3.7421,0a1.87105,1.87105,0,0,1,1.87105,1.87108zm-3.79649,-1.14733a1.15142,1.15142,0,1,0,0,2.30267,1.15142,1.15142,0,1,0,0,-2.30267z"
           stroke-width="0.719635"
           stroke="none"
           fill="#f7bd13"
           id="path461"
           gorn="0.4.0.7" />
        <circle
           cx="76.3427"
           cy="87.8281"
           stroke-width="0.504"
           stroke="#f7bd13"
           fill="none"
           r="1.62"
           id="connector4pin"
           gorn="0.4.0.8" />
        <path
           d="m80.015,87.8292a1.872,1.87105,0,0,1,-1.872,1.87108l-3.744,0a1.872,1.87105,0,0,1,-1.872,-1.87108l0,0a1.872,1.87105,0,0,1,1.872,-1.87108l3.744,0a1.872,1.87105,0,0,1,1.872,1.87108zm-3.79842,-1.14732a1.15206,1.15148,0,1,0,0,2.30296,1.15206,1.15148,0,1,0,0,-2.30296z"
           stroke-width="0.719635"
           stroke="none"
           fill="#f7bd13"
           id="path459"
           gorn="0.4.0.9" />
        <circle
           cx="76.3427"
           cy="80.6281"
           stroke-width="0.504"
           stroke="#f7bd13"
           fill="none"
           r="1.62"
           id="connector5pin"
           gorn="0.4.0.10" />
        <path
           d="m80.0107,80.6292a1.87105,1.87105,0,0,1,-1.87105,1.87108l-3.7421,0a1.87105,1.87105,0,0,1,-1.87105,-1.87108l0,0a1.87105,1.87105,0,0,1,1.87105,-1.87108l3.7421,0a1.87105,1.87105,0,0,1,1.87105,1.87108zm-3.79649,-1.14732a1.15148,1.15148,0,1,0,0,2.30296,1.15148,1.15148,0,1,0,0,-2.30296z"
           stroke-width="0.719635"
           stroke="none"
           fill="#f7bd13"
           id="path479"
           gorn="0.4.0.11" />
        <circle
           cx="76.3427"
           cy="73.4281"
           stroke-width="0.504"
           stroke="#f7bd13"
           fill="none"
           r="1.62"
           id="connector6pin"
           gorn="0.4.0.12" />
        <path
           d="m80.0107,73.4292a1.87105,1.87105,0,0,1,-1.87105,1.87108l-3.7421,0a1.87105,1.87105,0,0,1,-1.87105,-1.87108l0,0a1.87105,1.87105,0,0,1,1.87105,-1.87108l3.7421,0a1.87105,1.87105,0,0,1,1.87105,1.87108zm-3.79649,-1.14732a1.15148,1.15148,0,1,0,0,2.30296,1.15148,1.15148,0,1,0,0,-2.30296z"
           stroke-width="0.719635"
           stroke="none"
           fill="#f7bd13"
           id="path481"
           gorn="0.4.0.13" />
        <circle
           cx="76.3427"
           cy="66.2281"
           stroke-width="0.504"
           stroke="#f7bd13"
           fill="none"
           r="1.62"
           id="connector7pin"
           gorn="0.4.0.14" />
        <path
           d="m80.015,66.229a1.872,1.87105,0,0,1,-1.872,1.87108l-3.744,0a1.872,1.87105,0,0,1,-1.87201,-1.87108l0,0a1.872,1.87105,0,0,1,1.87201,-1.87079l3.744,0a1.872,1.87105,0,0,1,1.872,1.87079zm-3.79843,-1.14733a1.15207,1.15149,0,1,0,0,2.30297,1.15207,1.15149,0,1,0,0,-2.30297z"
           stroke-width="0.719635"
           stroke="none"
           fill="#f7bd13"
           id="path485"
           gorn="0.4.0.15" />
        <circle
           cx="76.3427"
           cy="59.0281"
           stroke-width="0.504"
           stroke="#f7bd13"
           fill="none"
           r="1.62"
           id="connector8pin"
           gorn="0.4.0.16" />
        <path
           d="m80.0107,59.0293a1.87105,1.87105,0,0,1,-1.87105,1.87078l-3.7421,0a1.87105,1.87105,0,0,1,-1.87106,-1.87078l0,0a1.87105,1.87105,0,0,1,1.87106,-1.87108l3.7421,0a1.87105,1.87105,0,0,1,1.87105,1.87108zm-3.7965,-1.14761a1.15148,1.15148,0,1,0,0,2.30296,1.15148,1.15148,0,1,0,0,-2.30296z"
           stroke-width="0.719635"
           stroke="none"
           fill="#f7bd13"
           id="path483"
           gorn="0.4.0.17" />
        <circle
           cx="76.3427"
           cy="51.8281"
           stroke-width="0.504"
           stroke="#f7bd13"
           fill="none"
           r="1.62"
           id="connector9pin"
           gorn="0.4.0.18" />
        <path
           d="m80.0107,51.829a1.87105,1.87105,0,0,1,-1.87105,1.87108l-3.7421,0a1.87105,1.87105,0,0,1,-1.87106,-1.87108l0,0a1.87105,1.87105,0,0,1,1.87106,-1.87108l3.7421,0a1.87105,1.87105,0,0,1,1.87105,1.87108zm-3.7965,-1.14761a1.15148,1.15148,0,1,0,0,2.30296,1.15148,1.15148,0,1,0,0,-2.30296z"
           stroke-width="0.719635"
           stroke="none"
           fill="#f7bd13"
           id="path469"
           gorn="0.4.0.19" />
        <circle
           cx="76.3427"
           cy="44.6281"
           stroke-width="0.504"
           stroke="#f7bd13"
           fill="none"
           r="1.62"
           id="connector10pin"
           gorn="0.4.0.20" />
        <path
           d="m80.0107,44.629a1.87105,1.87105,0,0,1,-1.87105,1.87108l-3.7421,0a1.87105,1.87105,0,0,1,-1.87106,-1.87108l0,0a1.87105,1.87105,0,0,1,1.87106,-1.87108l3.7421,0a1.87105,1.87105,0,0,1,1.87105,1.87108zm-3.7965,-1.14761a1.15148,1.15148,0,1,0,0,2.30296,1.15148,1.15148,0,1,0,0,-2.30296z"
           stroke-width="0.719635"
           stroke="none"
           fill="#f7bd13"
           id="path457"
           gorn="0.4.0.21" />
        <circle
           cx="76.3427"
           cy="37.4281"
           stroke-width="0.504"
           stroke="#f7bd13"
           fill="none"
           r="1.62"
           id="connector11pin"
           gorn="0.4.0.22" />
        <path
           d="m80.015,37.429a1.872,1.87105,0,0,1,-1.872,1.87108l-3.744,0a1.872,1.87105,0,0,1,-1.87201,-1.87108l0,0a1.872,1.87105,0,0,1,1.87201,-1.87108l3.744,0a1.872,1.87105,0,0,1,1.872,1.87108zm-3.79843,-1.14732a1.152,1.15142,0,1,0,0,2.30237,1.152,1.15142,0,1,0,0,-2.30237z"
           stroke-width="0.719635"
           stroke="none"
           fill="#f7bd13"
           id="path477"
           gorn="0.4.0.23" />
        <circle
           cx="76.3427"
           cy="30.2281"
           stroke-width="0.504"
           stroke="#f7bd13"
           fill="none"
           r="1.62"
           id="connector12pin"
           gorn="0.4.0.24" />
        <path
           d="m80.0107,30.229a1.87105,1.87105,0,0,1,-1.87105,1.87108l-3.7421,0a1.87105,1.87105,0,0,1,-1.87106,-1.87108l0,0a1.87105,1.87105,0,0,1,1.87106,-1.87108l3.7421,0a1.87105,1.87105,0,0,1,1.87105,1.87108zm-3.7965,-1.14732a1.15142,1.15142,0,1,0,0,2.30267,1.15142,1.15142,0,1,0,0,-2.30267z"
           stroke-width="0.719635"
           stroke="none"
           fill="#f7bd13"
           id="path475"
           gorn="0.4.0.25" />
        <circle
           cx="76.3427"
           cy="23.0281"
           stroke-width="0.504"
           stroke="#f7bd13"
           fill="none"
           r="1.62"
           id="connector13pin"
           gorn="0.4.0.26" />
        <path
           d="m80.015,23.029a1.872,1.87105,0,0,1,-1.872,1.87108l-3.744,0a1.872,1.87105,0,0,1,-1.87201,-1.87108l0,0a1.872,1.87105,0,0,1,1.87201,-1.87108l3.744,0a1.872,1.87105,0,0,1,1.872,1.87108zm-3.79843,-1.14732a1.152,1.15142,0,1,0,0,2.30267,1.152,1.15142,0,1,0,0,-2.30267z"
           stroke-width="0.719635"
           stroke="none"
           fill="#f7bd13"
           id="path473"
           gorn="0.4.0.27" />
        <circle
           cx="76.3427"
           cy="15.8281"
           stroke-width="0.504"
           stroke="#f7bd13"
           fill="none"
           r="1.62"
           id="connector14pin"
           gorn="0.4.0.28" />
        <path
           d="m80.0107,15.8291a1.87105,1.87105,0,0,1,-1.87105,1.87108l-3.7421,0a1.87105,1.87105,0,0,1,-1.87106,-1.87108l0,0a1.87105,1.87105,0,0,1,1.87106,-1.87108l3.7421,0a1.87105,1.87105,0,0,1,1.87105,1.87108zm-3.7965,-1.14732a1.15142,1.15142,0,1,0,0,2.30267,1.15142,1.15142,0,1,0,0,-2.30267z"
           stroke-width="0.719635"
           stroke="none"
           fill="#f7bd13"
           id="path471"
           gorn="0.4.0.29" />
        <circle
           cx="4.34173"
           cy="15.8281"
           stroke-width="0.504"
           stroke="#f7bd13"
           fill="none"
           r="1.62"
           id="connector15pin"
           gorn="0.4.0.30" />
        <path
           d="M8.18712,15.8291A1.87105,1.87105,0,0,1,6.31608,17.7001L2.57398,17.7001A1.87105,1.87105,0,0,1,0.702927,15.8291l0,0A1.87105,1.87105,0,0,1,2.57398,13.9579l3.7421,0a1.87105,1.87105,0,0,1,1.87105,1.87108zM4.44729,14.6823a1.15142,1.15142,0,1,0,0,2.30267,1.15142,1.15142,0,1,0,0,-2.30267z"
           stroke-width="0.719635"
           stroke="none"
           fill="#f7bd13"
           id="path425"
           gorn="0.4.0.31" />
        <circle
           cx="4.34173"
           cy="23.0281"
           stroke-width="0.504"
           stroke="#f7bd13"
           fill="none"
           r="1.62"
           id="connector16pin"
           gorn="0.4.0.32" />
        <path
           d="M8.18712,23.029A1.87105,1.87105,0,0,1,6.31608,24.9001L2.57398,24.9001A1.87105,1.87105,0,0,1,0.702927,23.029l0,0A1.87105,1.87105,0,0,1,2.57398,21.1579l3.7421,0a1.87105,1.87105,0,0,1,1.87105,1.87108zM4.44729,21.8817a1.15142,1.15142,0,1,0,0,2.30267,1.15142,1.15142,0,1,0,0,-2.30267z"
           stroke-width="0.719635"
           stroke="none"
           fill="#f7bd13"
           id="path431"
           gorn="0.4.0.33" />
        <circle
           cx="4.34173"
           cy="30.2281"
           stroke-width="0.504"
           stroke="#f7bd13"
           fill="none"
           r="1.62"
           id="connector17pin"
           gorn="0.4.0.34" />
        <path
           d="M8.18712,30.229A1.87105,1.87105,0,0,1,6.31608,32.1001L2.57398,32.1001A1.87105,1.87105,0,0,1,0.702927,30.229l0,0A1.87105,1.87105,0,0,1,2.57398,28.3579l3.7421,0a1.87105,1.87105,0,0,1,1.87105,1.87108zM4.44729,29.0817a1.15142,1.15142,0,1,0,0,2.30267,1.15142,1.15142,0,1,0,0,-2.30267z"
           stroke-width="0.719635"
           stroke="none"
           fill="#f7bd13"
           id="path433"
           gorn="0.4.0.35" />
        <circle
           cx="4.34173"
           cy="37.4281"
           stroke-width="0.504"
           stroke="#f7bd13"
           fill="none"
           r="1.62"
           id="connector18pin"
           gorn="0.4.0.36" />
        <path
           d="M8.18712,37.429A1.87105,1.87105,0,0,1,6.31608,39.3001L2.57398,39.3001A1.87105,1.87105,0,0,1,0.702927,37.429l0,0A1.87105,1.87105,0,0,1,2.57398,35.5579l3.7421,0a1.87105,1.87105,0,0,1,1.87105,1.87108zM4.44729,36.2817a1.15142,1.15142,0,1,0,0,2.30237,1.15142,1.15142,0,1,0,0,-2.30237z"
           stroke-width="0.719635"
           stroke="none"
           fill="#f7bd13"
           id="path435"
           gorn="0.4.0.37" />
        <circle
           cx="4.34173"
           cy="44.6281"
           stroke-width="0.504"
           stroke="#f7bd13"
           fill="none"
           r="1.62"
           id="connector19pin"
           gorn="0.4.0.38" />
        <path
           d="M8.11339,44.629A1.87105,1.87105,0,0,1,6.24231,46.5001L2.50021,46.5001A1.87105,1.87105,0,0,1,0.629162,44.629l0,0A1.87105,1.87105,0,0,1,2.50021,42.7579l3.7421,0a1.87105,1.87105,0,0,1,1.87105,1.87108zM4.37353,43.4814a1.15148,1.15148,0,1,0,0,2.30296,1.15148,1.15148,0,1,0,0,-2.30296z"
           stroke-width="0.719635"
           stroke="none"
           fill="#f7bd13"
           id="path437"
           gorn="0.4.0.39" />
        <circle
           cx="4.34173"
           cy="51.8281"
           stroke-width="0.504"
           stroke="#f7bd13"
           fill="none"
           r="1.62"
           id="connector20pin"
           gorn="0.4.0.40" />
        <path
           d="M8.18712,51.829A1.87105,1.87105,0,0,1,6.31608,53.7001L2.57398,53.7001A1.87105,1.87105,0,0,1,0.702927,51.829l0,0A1.87105,1.87105,0,0,1,2.57398,49.9579l3.7421,0a1.87105,1.87105,0,0,1,1.87105,1.87108zM4.44729,50.6814a1.15148,1.15148,0,1,0,0,2.30296,1.15148,1.15148,0,1,0,0,-2.30296z"
           stroke-width="0.719635"
           stroke="none"
           fill="#f7bd13"
           id="path439"
           gorn="0.4.0.41" />
        <circle
           cx="4.34173"
           cy="59.0281"
           stroke-width="0.504"
           stroke="#f7bd13"
           fill="none"
           r="1.62"
           id="connector21pin"
           gorn="0.4.0.42" />
        <path
           d="M8.18712,59.0293A1.87105,1.87105,0,0,1,6.31608,60.9001L2.57398,60.9001A1.87105,1.87105,0,0,1,0.702927,59.0293l0,0A1.87105,1.87105,0,0,1,2.57398,57.1583l3.7421,0a1.87105,1.87105,0,0,1,1.87105,1.87108zM4.44729,57.8817a1.15148,1.15148,0,1,0,0,2.30296,1.15148,1.15148,0,1,0,0,-2.30296z"
           stroke-width="0.719635"
           stroke="none"
           fill="#f7bd13"
           id="path441"
           gorn="0.4.0.43" />
        <circle
           cx="4.34173"
           cy="66.2281"
           stroke-width="0.504"
           stroke="#f7bd13"
           fill="none"
           r="1.62"
           id="connector22pin"
           gorn="0.4.0.44" />
        <path
           d="m8.18712,66.229a1.87105,1.87105,0,0,1,-1.87105,1.87108L2.57398,68.1001A1.87105,1.87105,0,0,1,0.702927,66.229l0,0A1.87105,1.87105,0,0,1,2.57398,64.3583l3.7421,0a1.87105,1.87105,0,0,1,1.87105,1.87079zM4.44729,65.0817a1.15149,1.15149,0,1,0,0,2.30297,1.15149,1.15149,0,1,0,0,-2.30297z"
           stroke-width="0.719635"
           stroke="none"
           fill="#f7bd13"
           id="path443"
           gorn="0.4.0.45" />
        <circle
           cx="4.34173"
           cy="73.4281"
           stroke-width="0.504"
           stroke="#f7bd13"
           fill="none"
           r="1.62"
           id="connector23pin"
           gorn="0.4.0.46" />
        <path
           d="m8.18683,73.4292a1.87105,1.87105,0,0,1,-1.87105,1.87108L2.5737,75.3005A1.87105,1.87105,0,0,1,0.702644,73.4292l0,0A1.87105,1.87105,0,0,1,2.5737,71.5579l3.7421,0a1.87105,1.87105,0,0,1,1.87105,1.87108zm-3.73984,-1.14672a1.15146,1.15146,0,1,0,0,2.30266,1.15146,1.15146,0,1,0,0,-2.30266z"
           stroke-width="0.719635"
           stroke="none"
           fill="#f7bd13"
           id="path445"
           gorn="0.4.0.47" />
        <circle
           cx="4.34173"
           cy="80.6281"
           stroke-width="0.504"
           stroke="#f7bd13"
           fill="none"
           r="1.62"
           id="connector24pin"
           gorn="0.4.0.48" />
        <path
           d="m8.18683,80.6292a1.87105,1.87105,0,0,1,-1.87105,1.87108L2.5737,82.5005A1.87105,1.87105,0,0,1,0.702644,80.6292l0,0a1.87105,1.87105,0,0,1,1.87105,-1.87108l3.7421,0a1.87105,1.87105,0,0,1,1.87105,1.87108zm-3.73984,-1.14732a1.15148,1.15148,0,1,0,0,2.30296,1.15148,1.15148,0,1,0,0,-2.30296z"
           stroke-width="0.719635"
           stroke="none"
           fill="#f7bd13"
           id="path447"
           gorn="0.4.0.49" />
        <circle
           cx="4.34173"
           cy="87.8281"
           stroke-width="0.504"
           stroke="#f7bd13"
           fill="none"
           r="1.62"
           id="connector25pin"
           gorn="0.4.0.50" />
        <path
           d="m8.18683,87.8292a1.87105,1.87105,0,0,1,-1.87105,1.87108L2.5737,89.7004A1.87105,1.87105,0,0,1,0.702644,87.8292l0,0a1.87105,1.87105,0,0,1,1.87105,-1.87108l3.7421,0a1.87105,1.87105,0,0,1,1.87105,1.87108zm-3.73984,-1.14732a1.15148,1.15148,0,1,0,0,2.30296,1.15148,1.15148,0,1,0,0,-2.30296z"
           stroke-width="0.719635"
           stroke="none"
           fill="#f7bd13"
           id="path449"
           gorn="0.4.0.51" />
        <circle
           cx="4.34173"
           cy="95.0281"
           stroke-width="0.504"
           stroke="#f7bd13"
           fill="none"
           r="1.62"
           id="connector26pin"
           gorn="0.4.0.52" />
        <path
           d="m8.18683,95.0292a1.87105,1.87105,0,0,1,-1.87105,1.87108L2.5737,96.9004A1.87105,1.87105,0,0,1,0.702644,95.0292l0,0a1.87105,1.87105,0,0,1,1.87105,-1.87108l3.7421,0a1.87105,1.87105,0,0,1,1.87105,1.87108zm-3.73984,-1.14733a1.15142,1.15142,0,1,0,0,2.30267,1.15142,1.15142,0,1,0,0,-2.30267z"
           stroke-width="0.719635"
           stroke="none"
           fill="#f7bd13"
           id="path451"
           gorn="0.4.0.53" />
        <circle
           cx="4.34173"
           cy="102.228"
           stroke-width="0.504"
           stroke="#f7bd13"
           fill="none"
           r="1.62"
           id="connector27pin"
           gorn="0.4.0.54" />
        <path
           d="m8.18683,102.229a1.87105,1.87105,0,0,1,-1.87105,1.87108L2.5737,104.1A1.87105,1.87105,0,0,1,0.702644,102.229l0,0a1.87105,1.87105,0,0,1,1.87105,-1.87108l3.7421,0a1.87105,1.87105,0,0,1,1.87105,1.87108zm-3.73984,-1.14761a1.15142,1.15142,0,1,0,0,2.30267,1.15142,1.15142,0,1,0,0,-2.30267z"
           stroke-width="0.719635"
           stroke="none"
           fill="#f7bd13"
           id="path455"
           gorn="0.4.0.55" />
        <circle
           cx="4.34193"
           cy="109.428"
           stroke-width="0.504"
           stroke="#f7bd13"
           fill="none"
           r="1.62"
           id="connector28pin"
           gorn="0.4.0.56" />
        <path
           d="m8.18683,109.429a1.87105,1.87105,0,0,1,-1.87105,1.87108L2.5737,111.3A1.87105,1.87105,0,0,1,0.702644,109.429l0,0a1.87105,1.87105,0,0,1,1.87105,-1.87108l3.7421,0a1.87105,1.87105,0,0,1,1.87105,1.87108zm-3.73984,-1.14732a1.15142,1.15142,0,1,0,0,2.30266,1.15142,1.15142,0,1,0,0,-2.30266z"
           stroke-width="0.719635"
           stroke="none"
           fill="#f7bd13"
           id="path453"
           gorn="0.4.0.57" />
        <circle
           cx="4.34173"
           cy="116.628"
           stroke-width="0.504"
           stroke="#f7bd13"
           fill="none"
           r="1.62"
           id="connector29pin"
           gorn="0.4.0.58" />
        <path
           d="m8.18683,116.629a1.87105,1.87105,0,0,1,-1.87105,1.87108L2.5737,118.5A1.87105,1.87105,0,0,1,0.702644,116.629l0,0a1.87105,1.87105,0,0,1,1.87105,-1.87108l3.7421,0a1.87105,1.87105,0,0,1,1.87105,1.87108zm-3.73984,-1.14761a1.15148,1.15148,0,1,0,0,2.30296,1.15148,1.15148,0,1,0,0,-2.30296z"
           stroke-width="0.719635"
           stroke="none"
           fill="#f7bd13"
           id="path463"
           gorn="0.4.0.59" />
      </g>
    </g>
  </g>
  <g
     partID="10864262"
     id="g33">
    <g
       id="silkscreen">
      <line
         stroke-width="0.72"
         stroke="#000000"
         x2="0.566929"
         y1="147.336"
         x1="80.5039"
         stroke-miterlimit="4"
         id="line13530"
         y2="147.336"
         stroke-linejoin="miter"
         gorn="0.3.3"
         stroke-dasharray="none" />
      <line
         stroke-width="0.72"
         stroke="#000000"
         x2="30.4067"
         y1="147.696"
         x1="30.4067"
         stroke-miterlimit="4"
         id="line80"
         y2="133.296"
         stroke-linejoin="miter"
         gorn="0.3.8"
         stroke-dasharray="none" />
      <line
         stroke-width="0.72"
         stroke="#000000"
         x2="50.7112"
         y1="147.696"
         x1="50.7112"
         stroke-miterlimit="4"
         id="line82"
         y2="133.296"
         stroke-linejoin="miter"
         gorn="0.3.9"
         stroke-dasharray="none" />
      <line
         stroke-width="0.72"
         stroke="#000000"
         x2="50.5672"
         y1="133.296"
         x1="30.4067"
         stroke-miterlimit="4"
         id="line84"
         y2="133.296"
         stroke-linejoin="miter"
         gorn="0.3.10"
         stroke-dasharray="none" />
      <circle
         cx="5.94"
         cy="141.756"
         stroke-width="0.72"
         stroke="#000000"
         fill="none"
         r="3.348"
         id="circle216"
         gorn="0.4.0.58" />
      <circle
         cx="73.692"
         cy="141.756"
         stroke-width="0.72"
         stroke="#000000"
         fill="none"
         r="3.348"
         id="circle218"
         gorn="0.4.0.58" />
      <line
         stroke-width="0.72"
         stroke="#000000"
         x2="0.36"
         y1="147.271"
         x1="0.36"
         id="line13522"
         stroke-miterlimit="4"
         y2="0.436534"
         stroke-linejoin="miter"
         gorn="0.3.0"
         stroke-dasharray="none" />
      <line
         stroke-width="0.72"
         stroke="#000000"
         x2="80.5805"
         y1="0.436542"
         x1="80.5805"
         id="line13526"
         stroke-miterlimit="4"
         y2="147.271"
         stroke-linejoin="miter"
         gorn="0.3.2"
         stroke-dasharray="none" />
      <line
         stroke-width="0.72"
         stroke="#000000"
         x2="80.5039"
         y1="0.36"
         x1="0.566929"
         id="line13524"
         stroke-miterlimit="4"
         y2="0.36"
         stroke-linejoin="miter"
         gorn="0.3.1"
         stroke-dasharray="none" />
      <circle
         cx="5.94"
         cy="7.18838"
         stroke-width="0.72"
         stroke="#000000"
         fill="none"
         r="3.348"
         id="circle222"
         gorn="0.4.0.58" />
      <circle
         cx="73.692"
         cy="7.18838"
         stroke-width="0.72"
         stroke="#000000"
         fill="none"
         r="3.348"
         id="circle220"
         gorn="0.4.0.58" />
    </g>
  </g>
</svg>
