<?xml version='1.0' encoding='UTF-8' standalone='no'?>
<!-- Created with Fritzing (http://www.fritzing.org/) -->
<svg xmlns:svg='http://www.w3.org/2000/svg' xmlns='http://www.w3.org/2000/svg' version='1.2' baseProfile='tiny' x='0in' y='0in' width='1.10972in' height='1.81in' viewBox='0 0 79.8998 130.32' >
<g partID='10857190'><g id="schematic">
<polygon fill="#FFFFFF" stroke="#000000" stroke-width="0.9" points="72.35,7.56,72.35,21.96,72.35,36.36,72.35,50.76,72.35,65.16,72.35,79.56,72.35,93.96,72.35,108.36,72.35,122.76,72.35,129.96,7.55,129.96,7.55,122.76,7.55,108.36,7.55,93.96,7.55,79.56,7.55,65.16,7.55,50.76,7.55,36.36,7.55,21.96,7.55,7.56,7.55,0.36,72.35,0.36" stroke-linecap="round"/>
<line fill="none" x1="7.55" x2="29.15" stroke="#000000" stroke-width="0.5" y2="7.56" stroke-linecap="round" y1="7.56"/>
<line fill="none" x1="7.55" x2="29.15" stroke="#000000" stroke-width="0.5" y2="21.96" stroke-linecap="round" y1="21.96"/>
<line fill="none" x1="7.55" x2="29.15" stroke="#000000" stroke-width="0.5" y2="36.36" stroke-linecap="round" y1="36.36"/>
<line fill="none" x1="7.55" x2="29.15" stroke="#000000" stroke-width="0.5" y2="50.76" stroke-linecap="round" y1="50.76"/>
<line fill="none" x1="7.55" x2="29.15" stroke="#000000" stroke-width="0.5" y2="65.16" stroke-linecap="round" y1="65.16"/>
<line fill="none" x1="7.55" x2="29.15" stroke="#000000" stroke-width="0.5" y2="79.56" stroke-linecap="round" y1="79.56"/>
<line fill="none" x1="7.55" x2="29.15" stroke="#000000" stroke-width="0.5" y2="93.96" stroke-linecap="round" y1="93.96"/>
<line fill="none" x1="7.55" x2="29.15" stroke="#000000" stroke-width="0.5" y2="108.36" stroke-linecap="round" y1="108.36"/>
<line fill="none" x1="7.55" x2="29.15" stroke="#000000" stroke-width="0.5" y2="122.76" stroke-linecap="round" y1="122.76"/>
<line fill="none" x1="29.15" x2="29.15" stroke="#000000" stroke-width="0.5" y2="11.16" stroke-linecap="round" y1="3.96"/>
<line fill="none" x1="29.15" x2="29.15" stroke="#000000" stroke-width="0.5" y2="25.56" stroke-linecap="round" y1="18.36"/>
<line fill="none" x1="29.15" x2="29.15" stroke="#000000" stroke-width="0.5" y2="54.36" stroke-linecap="round" y1="47.16"/>
<line fill="none" x1="29.15" x2="29.15" stroke="#000000" stroke-width="0.5" y2="68.76" stroke-linecap="round" y1="61.56"/>
<line fill="none" x1="29.15" x2="29.15" stroke="#000000" stroke-width="0.5" y2="83.16" stroke-linecap="round" y1="75.96"/>
<line fill="none" x1="29.15" x2="29.15" stroke="#000000" stroke-width="0.5" y2="97.56" stroke-linecap="round" y1="90.36"/>
<line fill="none" x1="29.15" x2="29.15" stroke="#000000" stroke-width="0.5" y2="111.96" stroke-linecap="round" y1="104.76"/>
<line fill="none" x1="29.15" x2="32.75" stroke="#000000" stroke-width="0.5" y2="108.36" stroke-linecap="round" y1="111.96"/>
<line fill="none" x1="32.75" x2="29.15" stroke="#000000" stroke-width="0.5" y2="104.76" stroke-linecap="round" y1="108.36"/>
<line fill="none" x1="29.15" x2="32.75" stroke="#000000" stroke-width="0.5" y2="93.96" stroke-linecap="round" y1="97.56"/>
<line fill="none" x1="32.75" x2="29.15" stroke="#000000" stroke-width="0.5" y2="90.36" stroke-linecap="round" y1="93.96"/>
<line fill="none" x1="29.15" x2="32.75" stroke="#000000" stroke-width="0.5" y2="79.56" stroke-linecap="round" y1="75.96"/>
<line fill="none" x1="32.75" x2="29.15" stroke="#000000" stroke-width="0.5" y2="83.16" stroke-linecap="round" y1="79.56"/>
<line fill="none" x1="29.15" x2="32.75" stroke="#000000" stroke-width="0.5" y2="7.56" stroke-linecap="round" y1="3.96"/>
<line fill="none" x1="32.75" x2="29.15" stroke="#000000" stroke-width="0.5" y2="11.16" stroke-linecap="round" y1="7.56"/>
<line fill="none" x1="29.15" x2="32.75" stroke="#000000" stroke-width="0.5" y2="21.96" stroke-linecap="round" y1="18.36"/>
<line fill="none" x1="32.75" x2="29.15" stroke="#000000" stroke-width="0.5" y2="25.56" stroke-linecap="round" y1="21.96"/>
<line fill="none" x1="29.15" x2="29.15" stroke="#000000" stroke-width="0.5" y2="39.96" stroke-linecap="round" y1="32.76"/>
<line fill="none" x1="29.15" x2="32.75" stroke="#000000" stroke-width="0.5" y2="36.36" stroke-linecap="round" y1="32.76"/>
<line fill="none" x1="32.75" x2="29.15" stroke="#000000" stroke-width="0.5" y2="39.96" stroke-linecap="round" y1="36.36"/>
<line fill="none" x1="29.15" x2="32.75" stroke="#000000" stroke-width="0.5" y2="50.76" stroke-linecap="round" y1="47.16"/>
<line fill="none" x1="32.75" x2="29.15" stroke="#000000" stroke-width="0.5" y2="54.36" stroke-linecap="round" y1="50.76"/>
<line fill="none" x1="29.15" x2="32.75" stroke="#000000" stroke-width="0.5" y2="65.16" stroke-linecap="round" y1="61.56"/>
<line fill="none" x1="29.15" x2="32.75" stroke="#000000" stroke-width="0.5" y2="65.16" stroke-linecap="round" y1="68.76"/>
<line fill="none" x1="29.15" x2="29.15" stroke="#000000" stroke-width="0.5" y2="125.46" stroke-linecap="round" y1="122.76"/>
<line fill="none" x1="27.35" x2="26.45" stroke="#000000" stroke-width="0.5" y2="125.46" stroke-linecap="round" y1="125.46"/>
<line fill="none" x1="29.15" x2="30.95" stroke="#000000" stroke-width="0.5" y2="125.46" stroke-linecap="round" y1="125.46"/>
<line fill="none" x1="30.95" x2="32.75" stroke="#000000" stroke-width="0.5" y2="125.46" stroke-linecap="round" y1="125.46"/>
<line fill="none" x1="29.15" x2="27.35" stroke="#000000" stroke-width="0.5" y2="125.46" stroke-linecap="round" y1="125.46"/>
<line fill="none" x1="27.35" x2="25.55" stroke="#000000" stroke-width="0.5" y2="125.46" stroke-linecap="round" y1="125.46"/>
<line fill="none" x1="25.55" x2="24.65" stroke="#000000" stroke-width="0.5" y2="126.36" stroke-linecap="round" y1="125.46"/>
<line fill="none" x1="27.35" x2="26.45" stroke="#000000" stroke-width="0.5" y2="126.36" stroke-linecap="round" y1="125.46"/>
<line fill="none" x1="29.15" x2="28.25" stroke="#000000" stroke-width="0.5" y2="126.36" stroke-linecap="round" y1="125.46"/>
<line fill="none" x1="30.95" x2="30.051" stroke="#000000" stroke-width="0.5" y2="126.36" stroke-linecap="round" y1="125.46"/>
<line fill="none" x1="32.75" x2="31.85" stroke="#000000" stroke-width="0.5" y2="126.36" stroke-linecap="round" y1="125.46"/>
<line fill="none" x1="34.551" x2="72.35" stroke="#000000" stroke-width="0.5" y2="7.56" stroke-linecap="round" y1="7.56"/>
<line fill="none" x1="34.551" x2="41.75" stroke="#000000" stroke-width="0.5" y2="21.96" stroke-linecap="round" y1="21.96"/>
<line fill="none" x1="41.75" x2="72.35" stroke="#000000" stroke-width="0.5" y2="21.96" stroke-linecap="round" y1="21.96"/>
<line fill="none" x1="34.551" x2="41.75" stroke="#000000" stroke-width="0.5" y2="36.36" stroke-linecap="round" y1="36.36"/>
<line fill="none" x1="41.75" x2="72.35" stroke="#000000" stroke-width="0.5" y2="36.36" stroke-linecap="round" y1="36.36"/>
<line fill="none" x1="34.551" x2="41.75" stroke="#000000" stroke-width="0.5" y2="50.76" stroke-linecap="round" y1="50.76"/>
<line fill="none" x1="41.75" x2="72.35" stroke="#000000" stroke-width="0.5" y2="50.76" stroke-linecap="round" y1="50.76"/>
<line fill="none" x1="72.35" x2="41.75" stroke="#000000" stroke-width="0.5" y2="65.16" stroke-linecap="round" y1="65.16"/>
<line fill="none" x1="41.75" x2="34.551" stroke="#000000" stroke-width="0.5" y2="65.16" stroke-linecap="round" y1="65.16"/>
<line fill="none" x1="34.551" x2="41.75" stroke="#000000" stroke-width="0.5" y2="79.56" stroke-linecap="round" y1="79.56"/>
<line fill="none" x1="41.75" x2="72.35" stroke="#000000" stroke-width="0.5" y2="79.56" stroke-linecap="round" y1="79.56"/>
<line fill="none" x1="72.35" x2="41.75" stroke="#000000" stroke-width="0.5" y2="93.96" stroke-linecap="round" y1="93.96"/>
<line fill="none" x1="41.75" x2="34.551" stroke="#000000" stroke-width="0.5" y2="93.96" stroke-linecap="round" y1="93.96"/>
<line fill="none" x1="34.551" x2="41.75" stroke="#000000" stroke-width="0.5" y2="108.36" stroke-linecap="round" y1="108.36"/>
<line fill="none" x1="41.75" x2="72.35" stroke="#000000" stroke-width="0.5" y2="108.36" stroke-linecap="round" y1="108.36"/>
<line fill="none" x1="41.75" x2="41.75" stroke="#000000" stroke-width="0.5" y2="28.26" stroke-linecap="round" y1="21.96"/>
<line fill="none" x1="41.75" x2="46.25" stroke="#000000" stroke-width="0.5" y2="28.26" stroke-linecap="round" y1="28.26"/>
<line fill="none" x1="46.25" x2="46.25" stroke="#000000" stroke-width="0.5" y2="25.56" stroke-linecap="round" y1="28.26"/>
<line fill="none" x1="46.25" x2="46.25" stroke="#000000" stroke-width="0.5" y2="30.96" stroke-linecap="round" y1="28.26"/>
<line fill="none" x1="46.25" x2="48.95" stroke="#000000" stroke-width="0.5" y2="28.26" stroke-linecap="round" y1="30.96"/>
<line fill="none" x1="48.95" x2="46.25" stroke="#000000" stroke-width="0.5" y2="25.56" stroke-linecap="round" y1="28.26"/>
<line fill="none" x1="48.95" x2="48.95" stroke="#000000" stroke-width="0.5" y2="28.26" stroke-linecap="round" y1="25.56"/>
<line fill="none" x1="48.95" x2="48.95" stroke="#000000" stroke-width="0.5" y2="30.96" stroke-linecap="round" y1="28.26"/>
<line fill="none" x1="41.75" x2="41.75" stroke="#000000" stroke-width="0.5" y2="42.66" stroke-linecap="round" y1="36.36"/>
<line fill="none" x1="41.75" x2="41.75" stroke="#000000" stroke-width="0.5" y2="57.06" stroke-linecap="round" y1="50.76"/>
<line fill="none" x1="41.75" x2="41.75" stroke="#000000" stroke-width="0.5" y2="71.46" stroke-linecap="round" y1="65.16"/>
<line fill="none" x1="41.75" x2="41.75" stroke="#000000" stroke-width="0.5" y2="85.86" stroke-linecap="round" y1="79.56"/>
<line fill="none" x1="41.75" x2="41.75" stroke="#000000" stroke-width="0.5" y2="100.26" stroke-linecap="round" y1="93.96"/>
<line fill="none" x1="41.75" x2="46.25" stroke="#000000" stroke-width="0.5" y2="42.66" stroke-linecap="round" y1="42.66"/>
<line fill="none" x1="41.75" x2="46.25" stroke="#000000" stroke-width="0.5" y2="57.06" stroke-linecap="round" y1="57.06"/>
<line fill="none" x1="41.75" x2="46.25" stroke="#000000" stroke-width="0.5" y2="71.46" stroke-linecap="round" y1="71.46"/>
<line fill="none" x1="41.75" x2="46.25" stroke="#000000" stroke-width="0.5" y2="85.86" stroke-linecap="round" y1="85.86"/>
<line fill="none" x1="41.75" x2="46.25" stroke="#000000" stroke-width="0.5" y2="100.26" stroke-linecap="round" y1="100.26"/>
<line fill="none" x1="46.25" x2="46.25" stroke="#000000" stroke-width="0.5" y2="45.36" stroke-linecap="round" y1="39.96"/>
<line fill="none" x1="46.25" x2="46.25" stroke="#000000" stroke-width="0.5" y2="59.76" stroke-linecap="round" y1="54.36"/>
<line fill="none" x1="46.25" x2="46.25" stroke="#000000" stroke-width="0.5" y2="74.16" stroke-linecap="round" y1="68.76"/>
<line fill="none" x1="46.25" x2="46.25" stroke="#000000" stroke-width="0.5" y2="88.56" stroke-linecap="round" y1="83.16"/>
<line fill="none" x1="46.25" x2="46.25" stroke="#000000" stroke-width="0.5" y2="102.96" stroke-linecap="round" y1="97.56"/>
<line fill="none" x1="46.25" x2="48.95" stroke="#000000" stroke-width="0.5" y2="100.26" stroke-linecap="round" y1="97.56"/>
<line fill="none" x1="48.95" x2="46.25" stroke="#000000" stroke-width="0.5" y2="102.96" stroke-linecap="round" y1="100.26"/>
<line fill="none" x1="46.25" x2="48.95" stroke="#000000" stroke-width="0.5" y2="85.86" stroke-linecap="round" y1="83.16"/>
<line fill="none" x1="48.95" x2="46.25" stroke="#000000" stroke-width="0.5" y2="88.56" stroke-linecap="round" y1="85.86"/>
<line fill="none" x1="46.25" x2="48.95" stroke="#000000" stroke-width="0.5" y2="71.46" stroke-linecap="round" y1="68.76"/>
<line fill="none" x1="48.95" x2="46.25" stroke="#000000" stroke-width="0.5" y2="74.16" stroke-linecap="round" y1="71.46"/>
<line fill="none" x1="46.25" x2="48.95" stroke="#000000" stroke-width="0.5" y2="57.06" stroke-linecap="round" y1="54.36"/>
<line fill="none" x1="48.95" x2="46.25" stroke="#000000" stroke-width="0.5" y2="59.76" stroke-linecap="round" y1="57.06"/>
<line fill="none" x1="46.25" x2="48.95" stroke="#000000" stroke-width="0.5" y2="42.66" stroke-linecap="round" y1="39.96"/>
<line fill="none" x1="48.95" x2="46.25" stroke="#000000" stroke-width="0.5" y2="45.36" stroke-linecap="round" y1="42.66"/>
<line fill="none" x1="48.95" x2="48.95" stroke="#000000" stroke-width="0.5" y2="42.66" stroke-linecap="round" y1="39.96"/>
<line fill="none" x1="48.95" x2="48.95" stroke="#000000" stroke-width="0.5" y2="45.36" stroke-linecap="round" y1="42.66"/>
<line fill="none" x1="48.95" x2="48.95" stroke="#000000" stroke-width="0.5" y2="57.06" stroke-linecap="round" y1="54.36"/>
<line fill="none" x1="48.95" x2="48.95" stroke="#000000" stroke-width="0.5" y2="59.76" stroke-linecap="round" y1="57.06"/>
<line fill="none" x1="48.95" x2="48.95" stroke="#000000" stroke-width="0.5" y2="71.46" stroke-linecap="round" y1="68.76"/>
<line fill="none" x1="48.95" x2="48.95" stroke="#000000" stroke-width="0.5" y2="74.16" stroke-linecap="round" y1="71.46"/>
<line fill="none" x1="48.95" x2="48.95" stroke="#000000" stroke-width="0.5" y2="85.86" stroke-linecap="round" y1="83.16"/>
<line fill="none" x1="48.95" x2="48.95" stroke="#000000" stroke-width="0.5" y2="88.56" stroke-linecap="round" y1="85.86"/>
<line fill="none" x1="48.95" x2="48.95" stroke="#000000" stroke-width="0.5" y2="100.26" stroke-linecap="round" y1="97.56"/>
<line fill="none" x1="48.95" x2="48.95" stroke="#000000" stroke-width="0.5" y2="102.96" stroke-linecap="round" y1="100.26"/>
<line fill="none" x1="66.051" x2="72.35" stroke="#000000" stroke-width="0.5" y2="122.76" stroke-linecap="round" y1="122.76"/>
<line fill="none" x1="66.051" x2="66.051" stroke="#000000" stroke-width="0.5" y2="42.66" stroke-linecap="round" y1="28.26"/>
<line fill="none" x1="66.051" x2="66.051" stroke="#000000" stroke-width="0.5" y2="57.06" stroke-linecap="round" y1="42.66"/>
<line fill="none" x1="66.051" x2="66.051" stroke="#000000" stroke-width="0.5" y2="71.46" stroke-linecap="round" y1="57.06"/>
<line fill="none" x1="66.051" x2="66.051" stroke="#000000" stroke-width="0.5" y2="85.86" stroke-linecap="round" y1="71.46"/>
<line fill="none" x1="66.051" x2="66.051" stroke="#000000" stroke-width="0.5" y2="100.26" stroke-linecap="round" y1="85.86"/>
<line fill="none" x1="66.051" x2="66.051" stroke="#000000" stroke-width="0.5" y2="122.76" stroke-linecap="round" y1="100.26"/>
<line fill="none" x1="48.95" x2="66.051" stroke="#000000" stroke-width="0.5" y2="100.26" stroke-linecap="round" y1="100.26"/>
<line fill="none" x1="48.95" x2="66.051" stroke="#000000" stroke-width="0.5" y2="85.86" stroke-linecap="round" y1="85.86"/>
<line fill="none" x1="48.95" x2="66.051" stroke="#000000" stroke-width="0.5" y2="71.46" stroke-linecap="round" y1="71.46"/>
<line fill="none" x1="48.95" x2="66.051" stroke="#000000" stroke-width="0.5" y2="42.66" stroke-linecap="round" y1="42.66"/>
<line fill="none" x1="48.95" x2="66.051" stroke="#000000" stroke-width="0.5" y2="57.06" stroke-linecap="round" y1="57.06"/>
<line fill="none" x1="48.95" x2="66.051" stroke="#000000" stroke-width="0.5" y2="28.26" stroke-linecap="round" y1="28.26"/>
<line fill="none" x1="41.75" x2="41.75" stroke="#000000" stroke-width="0.5" y2="13.86" stroke-linecap="round" y1="7.56"/>
<line fill="none" x1="41.75" x2="46.25" stroke="#000000" stroke-width="0.5" y2="13.86" stroke-linecap="round" y1="13.86"/>
<line fill="none" x1="46.25" x2="46.25" stroke="#000000" stroke-width="0.5" y2="11.16" stroke-linecap="round" y1="13.86"/>
<line fill="none" x1="46.25" x2="46.25" stroke="#000000" stroke-width="0.5" y2="16.56" stroke-linecap="round" y1="13.86"/>
<line fill="none" x1="46.25" x2="48.95" stroke="#000000" stroke-width="0.5" y2="13.86" stroke-linecap="round" y1="16.56"/>
<line fill="none" x1="48.95" x2="46.25" stroke="#000000" stroke-width="0.5" y2="11.16" stroke-linecap="round" y1="13.86"/>
<line fill="none" x1="48.95" x2="48.95" stroke="#000000" stroke-width="0.5" y2="13.86" stroke-linecap="round" y1="11.16"/>
<line fill="none" x1="48.95" x2="48.95" stroke="#000000" stroke-width="0.5" y2="16.56" stroke-linecap="round" y1="13.86"/>
<line fill="none" x1="48.95" x2="66.051" stroke="#000000" stroke-width="0.5" y2="13.86" stroke-linecap="round" y1="13.86"/>
<line fill="none" x1="66.051" x2="66.051" stroke="#000000" stroke-width="0.5" y2="28.26" stroke-linecap="round" y1="13.86"/>
<line fill="none" x1="41.75" x2="41.75" stroke="#000000" stroke-width="0.5" y2="114.66" stroke-linecap="round" y1="108.36"/>
<line fill="none" x1="41.75" x2="46.25" stroke="#000000" stroke-width="0.5" y2="114.66" stroke-linecap="round" y1="114.66"/>
<line fill="none" x1="46.25" x2="46.25" stroke="#000000" stroke-width="0.5" y2="117.36" stroke-linecap="round" y1="111.96"/>
<line fill="none" x1="46.25" x2="48.95" stroke="#000000" stroke-width="0.5" y2="114.66" stroke-linecap="round" y1="111.96"/>
<line fill="none" x1="48.95" x2="46.25" stroke="#000000" stroke-width="0.5" y2="117.36" stroke-linecap="round" y1="114.66"/>
<line fill="none" x1="48.95" x2="48.95" stroke="#000000" stroke-width="0.5" y2="114.66" stroke-linecap="round" y1="111.96"/>
<line fill="none" x1="48.95" x2="48.95" stroke="#000000" stroke-width="0.5" y2="117.36" stroke-linecap="round" y1="114.66"/>
<line fill="none" x1="48.95" x2="66.051" stroke="#000000" stroke-width="0.5" y2="114.66" stroke-linecap="round" y1="114.66"/>
<circle cy="7.56" r="0.9" fill="none" stroke="#000000" stroke-width="0.5" cx="33.65"/>
<circle cy="21.96" r="0.9" fill="none" stroke="#000000" stroke-width="0.5" cx="33.65"/>
<circle cy="36.36" r="0.9" fill="none" stroke="#000000" stroke-width="0.5" cx="33.65"/>
<circle cy="50.76" r="0.9" fill="none" stroke="#000000" stroke-width="0.5" cx="33.65"/>
<circle cy="65.16" r="0.9" fill="none" stroke="#000000" stroke-width="0.5" cx="33.65"/>
<circle cy="79.56" r="0.9" fill="none" stroke="#000000" stroke-width="0.5" cx="33.65"/>
<circle cy="93.96" r="0.9" fill="none" stroke="#000000" stroke-width="0.5" cx="33.65"/>
<circle cy="108.36" r="0.9" fill="none" stroke="#000000" stroke-width="0.5" cx="33.65"/>
<circle cy="28.26" r="0.402" fill="none" stroke="#000000" stroke-width="0.5" cx="66.051"/>
<circle cy="42.66" r="0.54" fill="none" stroke="#000000" stroke-width="0.5" cx="66.051"/>
<circle cy="57.06" r="0.569" fill="none" stroke="#000000" stroke-width="0.5" cx="66.051"/>
<circle cy="71.46" r="0.569" fill="none" stroke="#000000" stroke-width="0.5" cx="66.051"/>
<circle cy="85.86" r="0.569" fill="none" stroke="#000000" stroke-width="0.5" cx="66.051"/>
<circle cy="100.26" r="0.569" fill="none" stroke="#000000" stroke-width="0.5" cx="66.051"/>
<circle cy="28.26" r="0.509" fill="none" stroke="#000000" stroke-width="0.5" cx="66.051"/>
<circle cy="100.26" r="0.18" fill="none" stroke="#000000" stroke-width="0.5" cx="66.051"/>
<circle cy="100.26" r="0.742" fill="none" stroke="#000000" stroke-width="0.5" cx="66.051"/>
<circle cy="71.46" r="0.18" fill="none" stroke="#000000" stroke-width="0.5" cx="66.051"/>
<circle cy="57.06" r="0.18" fill="none" stroke="#000000" stroke-width="0.5" cx="66.051"/>
<circle cy="114.66" r="0.569" fill="none" stroke="#000000" stroke-width="0.5" cx="66.051"/>
<circle cy="114.66" r="0.18" fill="none" stroke="#000000" stroke-width="0.5" cx="66.051"/>
<circle cy="114.66" r="0.742" fill="none" stroke="#000000" stroke-width="0.5" cx="66.051"/>
<line fill="none" id="connector0pin" x1="0.35" x2="7.55" stroke="#787878" stroke-width="0.75" y2="7.56" stroke-linecap="round" y1="7.56"/>
<g x="0.35" width="0" fill="none" id="connector0terminal" y="7.56" height="0"/>
<g transform="matrix(1, 0, 0, 1, 3.2615, 6.5105)">
<text fill="#8C8C8C" font-size="2.5" font-family="'DroidSans'">1</text>
</g>
<line fill="none" id="connector1pin" x1="0.35" x2="7.55" stroke="#787878" stroke-width="0.75" y2="21.96" stroke-linecap="round" y1="21.96"/>
<g x="0.35" width="0" fill="none" id="connector1terminal" y="21.96" height="0.001"/>
<g transform="matrix(1, 0, 0, 1, 3.2615, 20.9109)">
<text fill="#8C8C8C" font-size="2.5" font-family="'DroidSans'">2</text>
</g>
<line fill="none" id="connector2pin" x1="0.35" x2="7.55" stroke="#787878" stroke-width="0.75" y2="36.36" stroke-linecap="round" y1="36.36"/>
<g x="0.35" width="0" fill="none" id="connector2terminal" y="36.36" height="0"/>
<g transform="matrix(1, 0, 0, 1, 3.2615, 35.3113)">
<text fill="#8C8C8C" font-size="2.5" font-family="'DroidSans'">3</text>
</g>
<line fill="none" id="connector3pin" x1="0.35" x2="7.55" stroke="#787878" stroke-width="0.75" y2="50.76" stroke-linecap="round" y1="50.76"/>
<g x="0.35" width="0" fill="none" id="connector3terminal" y="50.76" height="0"/>
<g transform="matrix(1, 0, 0, 1, 3.2615, 49.7097)">
<text fill="#8C8C8C" font-size="2.5" font-family="'DroidSans'">4</text>
</g>
<line fill="none" id="connector4pin" x1="0.35" x2="7.55" stroke="#787878" stroke-width="0.75" y2="65.16" stroke-linecap="round" y1="65.16"/>
<g x="0.35" width="0" fill="none" id="connector4terminal" y="65.16" height="0"/>
<g transform="matrix(1, 0, 0, 1, 3.2615, 64.1101)">
<text fill="#8C8C8C" font-size="2.5" font-family="'DroidSans'">5</text>
</g>
<line fill="none" id="connector5pin" x1="0.35" x2="7.55" stroke="#787878" stroke-width="0.75" y2="79.56" stroke-linecap="round" y1="79.56"/>
<g x="0.35" width="0" fill="none" id="connector5terminal" y="79.56" height="0"/>
<g transform="matrix(1, 0, 0, 1, 3.2615, 78.5105)">
<text fill="#8C8C8C" font-size="2.5" font-family="'DroidSans'">6</text>
</g>
<line fill="none" id="connector6pin" x1="0.35" x2="7.55" stroke="#787878" stroke-width="0.75" y2="93.96" stroke-linecap="round" y1="93.96"/>
<g x="0.35" width="0" fill="none" id="connector6terminal" y="93.96" height="0.001"/>
<g transform="matrix(1, 0, 0, 1, 3.2615, 92.9109)">
<text fill="#8C8C8C" font-size="2.5" font-family="'DroidSans'">7</text>
</g>
<line fill="none" id="connector7pin" x1="0.35" x2="7.55" stroke="#787878" stroke-width="0.75" y2="108.36" stroke-linecap="round" y1="108.36"/>
<g x="0.35" width="0" fill="none" id="connector7terminal" y="108.36" height="0"/>
<g transform="matrix(1, 0, 0, 1, 3.2615, 107.309)">
<text fill="#8C8C8C" font-size="2.5" font-family="'DroidSans'">8</text>
</g>
<line fill="none" id="connector8pin" x1="0.35" x2="7.55" stroke="#787878" stroke-width="0.75" y2="122.76" stroke-linecap="round" y1="122.76"/>
<g x="0.35" width="0" fill="none" id="connector8terminal" y="122.76" height="0.001"/>
<g transform="matrix(1, 0, 0, 1, 3.2615, 121.71)">
<text fill="#8C8C8C" font-size="2.5" font-family="'DroidSans'">9</text>
</g>
<line fill="none" id="connector9pin" x1="79.55" x2="72.35" stroke="#787878" stroke-width="0.75" y2="122.76" stroke-linecap="round" y1="122.76"/>
<g x="79.55" width="0.001" fill="none" id="connector9terminal" y="122.76" height="0.001"/>
<g transform="matrix(1, 0, 0, 1, 74.572, 121.71)">
<text fill="#8C8C8C" font-size="2.5" font-family="'DroidSans'">10</text>
</g>
<line fill="none" id="connector10pin" x1="79.55" x2="72.35" stroke="#787878" stroke-width="0.75" y2="108.36" stroke-linecap="round" y1="108.36"/>
<g x="79.55" width="0.001" fill="none" id="connector10terminal" y="108.36" height="0"/>
<g transform="matrix(1, 0, 0, 1, 74.572, 107.309)">
<text fill="#8C8C8C" font-size="2.5" font-family="'DroidSans'">11</text>
</g>
<line fill="none" id="connector11pin" x1="79.55" x2="72.35" stroke="#787878" stroke-width="0.75" y2="93.96" stroke-linecap="round" y1="93.96"/>
<g x="79.55" width="0.001" fill="none" id="connector11terminal" y="93.96" height="0.001"/>
<g transform="matrix(1, 0, 0, 1, 74.572, 92.9109)">
<text fill="#8C8C8C" font-size="2.5" font-family="'DroidSans'">12</text>
</g>
<line fill="none" id="connector12pin" x1="79.55" x2="72.35" stroke="#787878" stroke-width="0.75" y2="79.56" stroke-linecap="round" y1="79.56"/>
<g x="79.55" width="0.001" fill="none" id="connector12terminal" y="79.56" height="0"/>
<g transform="matrix(1, 0, 0, 1, 74.572, 78.5105)">
<text fill="#8C8C8C" font-size="2.5" font-family="'DroidSans'">13</text>
</g>
<line fill="none" id="connector13pin" x1="79.55" x2="72.35" stroke="#787878" stroke-width="0.75" y2="65.16" stroke-linecap="round" y1="65.16"/>
<g x="79.55" width="0.001" fill="none" id="connector13terminal" y="65.16" height="0"/>
<g transform="matrix(1, 0, 0, 1, 74.572, 64.1101)">
<text fill="#8C8C8C" font-size="2.5" font-family="'DroidSans'">14</text>
</g>
<line fill="none" id="connector14pin" x1="79.55" x2="72.35" stroke="#787878" stroke-width="0.75" y2="50.76" stroke-linecap="round" y1="50.76"/>
<g x="79.55" width="0.001" fill="none" id="connector14terminal" y="50.76" height="0"/>
<g transform="matrix(1, 0, 0, 1, 74.572, 49.7097)">
<text fill="#8C8C8C" font-size="2.5" font-family="'DroidSans'">15</text>
</g>
<line fill="none" id="connector15pin" x1="79.55" x2="72.35" stroke="#787878" stroke-width="0.75" y2="36.36" stroke-linecap="round" y1="36.36"/>
<g x="79.55" width="0.001" fill="none" id="connector15terminal" y="36.36" height="0"/>
<g transform="matrix(1, 0, 0, 1, 74.572, 35.3113)">
<text fill="#8C8C8C" font-size="2.5" font-family="'DroidSans'">16</text>
</g>
<line fill="none" id="connector16pin" x1="79.55" x2="72.35" stroke="#787878" stroke-width="0.75" y2="21.96" stroke-linecap="round" y1="21.96"/>
<g x="79.55" width="0.001" fill="none" id="connector16terminal" y="21.96" height="0.001"/>
<g transform="matrix(1, 0, 0, 1, 74.572, 20.9109)">
<text fill="#8C8C8C" font-size="2.5" font-family="'DroidSans'">17</text>
</g>
<line fill="none" id="connector17pin" x1="79.55" x2="72.35" stroke="#787878" stroke-width="0.75" y2="7.56" stroke-linecap="round" y1="7.56"/>
<g x="79.55" width="0.001" fill="none" id="connector17terminal" y="7.56" height="0"/>
<g transform="matrix(1, 0, 0, 1, 74.572, 6.5105)">
<text fill="#8C8C8C" font-size="2.5" font-family="'DroidSans'">18</text>
</g>
</g>
</g></svg>