<?xml version="1.0" encoding="UTF-8" standalone="no"?>
<!-- Created with Fritzing (http://www.fritzing.org/) -->

<svg
   version="1.2"
   x="0in"
   y="0in"
   width="0.35433072in"
   height="0.51181102in"
   viewBox="0 0 25.511811 36.850393"
   id="svg15"
   sodipodi:docname="LDO_3V3_bb.svg"
   inkscape:version="1.3 (1:1.3+202307231459+0e150ed6c4)"
   xmlns:inkscape="http://www.inkscape.org/namespaces/inkscape"
   xmlns:sodipodi="http://sodipodi.sourceforge.net/DTD/sodipodi-0.dtd"
   xmlns="http://www.w3.org/2000/svg"
   xmlns:svg="http://www.w3.org/2000/svg">
  <defs
     id="defs15" />
  <sodipodi:namedview
     id="namedview15"
     pagecolor="#ffffff"
     bordercolor="#000000"
     borderopacity="0.25"
     inkscape:showpageshadow="2"
     inkscape:pageopacity="0.0"
     inkscape:pagecheckerboard="0"
     inkscape:deskcolor="#d1d1d1"
     inkscape:document-units="mm"
     inkscape:zoom="10.582049"
     inkscape:cx="16.44294"
     inkscape:cy="33.358379"
     inkscape:window-width="1920"
     inkscape:window-height="980"
     inkscape:window-x="1920"
     inkscape:window-y="0"
     inkscape:window-maximized="1"
     inkscape:current-layer="breadboard" />
  <g
     partID="11885120"
     id="g15"
     transform="translate(1.9559054,0.34015748)">
    <g
       id="breadboard">
      <rect
         style="fill:#0000ff;fill-opacity:0.940013;stroke:none;stroke-width:0;stroke-linecap:round;stroke-dasharray:none;stroke-opacity:0.501103"
         id="rect15"
         width="25.51181"
         height="36.850391"
         x="-1.9559054"
         y="-0.34015748" />
      <rect
         style="fill:#999999;fill-opacity:1;stroke:none;stroke-width:0;stroke-linecap:round;stroke-dasharray:none;stroke-opacity:0.5"
         id="rect17-6"
         width="2.2983201"
         height="5.7599998"
         x="16.384253"
         y="12.959999" />
      <rect
         style="fill:#999999;fill-opacity:1;stroke:none;stroke-width:0;stroke-linecap:round;stroke-dasharray:none;stroke-opacity:0.5"
         id="rect17-7"
         width="11.303519"
         height="5.7599998"
         x="4.90168"
         y="27.304771" />
      <rect
         style="fill:#999999;fill-opacity:1;stroke:none;stroke-width:0;stroke-linecap:round;stroke-dasharray:none;stroke-opacity:0.5"
         id="rect17-3"
         width="2.2983201"
         height="5.7599998"
         x="9.4251966"
         y="12.959999" />
      <polygon
         fill="#404040"
         points="0,5.63578 1.56321,7.2 5.63578,7.2 7.2,5.63578 7.2,1.56321 5.63578,0 1.56321,0 0,1.56321 "
         id="polygon1" />
      <rect
         fill="none"
         height="2.7913799"
         id="connector0pin"
         x="2.2042999"
         y="2.2042999"
         width="2.7913799" />
      <g
         fill="none"
         height="2.26231"
         id="connector0terminal"
         x="2.51834"
         y="2.46934"
         width="2.1643" />
      <rect
         fill="#8d8c8c"
         height="2.2983201"
         x="2.4513299"
         y="2.4513299"
         width="2.2983201"
         id="rect1" />
      <rect
         fill="#8c8663"
         height="1.18216"
         x="3.0094099"
         y="3.0094099"
         width="1.18216"
         id="rect2" />
      <polygon
         fill="#b8af82"
         points="4.19058,3.00941 4.74965,2.45133 2.45133,2.45133 3.00941,3.00941 "
         id="polygon2" />
      <polygon
         fill="#80795b"
         points="4.74965,2.45133 4.74965,4.74965 4.19058,4.19058 4.19058,3.00941 "
         id="polygon3" />
      <polygon
         fill="#5e5b43"
         points="4.74965,4.74965 2.45133,4.74965 3.00941,4.19058 4.19058,4.19058 "
         id="polygon4" />
      <polygon
         fill="#9a916c"
         points="3.00941,4.19058 2.45133,4.74965 2.45133,2.45133 3.00941,3.00941 "
         id="polygon5" />
      <polygon
         fill="#404040"
         points="7.2,5.63578 8.76319,7.2 12.8358,7.2 14.4,5.63578 14.4,1.56321 12.8358,0 8.76319,0 7.2,1.56321 "
         id="polygon6" />
      <rect
         fill="none"
         height="2.7913799"
         id="connector1pin"
         x="9.4042797"
         y="2.2042999"
         width="2.7913799" />
      <g
         fill="none"
         height="2.26231"
         id="connector1terminal"
         x="9.71834"
         y="2.46934"
         width="2.1643" />
      <rect
         fill="#8d8c8c"
         height="2.2983201"
         x="9.65131"
         y="2.4513299"
         width="2.2983201"
         id="rect6" />
      <rect
         fill="#8c8663"
         height="1.18216"
         x="10.2094"
         y="3.0094099"
         width="1.18216"
         id="rect7" />
      <polygon
         fill="#b8af82"
         points="11.3906,3.00941 11.9496,2.45133 9.65131,2.45133 10.2094,3.00941 "
         id="polygon7" />
      <polygon
         fill="#80795b"
         points="11.9496,2.45133 11.9496,4.74965 11.3906,4.19058 11.3906,3.00941 "
         id="polygon8" />
      <polygon
         fill="#5e5b43"
         points="11.9496,4.74965 9.65131,4.74965 10.2094,4.19058 11.3906,4.19058 "
         id="polygon9" />
      <polygon
         fill="#9a916c"
         points="10.2094,4.19058 9.65131,4.74965 9.65131,2.45133 10.2094,3.00941 "
         id="polygon10" />
      <polygon
         fill="#404040"
         points="14.4,5.63578 15.9632,7.2 20.0358,7.2 21.6,5.63578 21.6,1.56321 20.0358,0 15.9632,0 14.4,1.56321 "
         id="polygon11" />
      <rect
         fill="none"
         height="2.7913799"
         id="connector2pin"
         x="16.6043"
         y="2.2042999"
         width="2.7913799" />
      <g
         fill="none"
         height="2.26231"
         id="connector2terminal"
         x="16.9183"
         y="2.46934"
         width="2.1643" />
      <rect
         fill="#8d8c8c"
         height="2.2983201"
         x="16.851299"
         y="2.4513299"
         width="2.2983201"
         id="rect11" />
      <rect
         fill="#8c8663"
         height="1.18216"
         x="17.409401"
         y="3.0094099"
         width="1.18216"
         id="rect12" />
      <polygon
         fill="#b8af82"
         points="18.5906,3.00941 19.1496,2.45133 16.8513,2.45133 17.4094,3.00941 "
         id="polygon12" />
      <polygon
         fill="#80795b"
         points="19.1496,2.45133 19.1496,4.74965 18.5906,4.19058 18.5906,3.00941 "
         id="polygon13" />
      <polygon
         fill="#5e5b43"
         points="19.1496,4.74965 16.8513,4.74965 17.4094,4.19058 18.5906,4.19058 "
         id="polygon14" />
      <polygon
         fill="#9a916c"
         points="17.4094,4.19058 16.8513,4.74965 16.8513,2.45133 17.4094,3.00941 "
         id="polygon15" />
      <rect
         style="fill:#999999;fill-opacity:1;stroke:none;stroke-width:0;stroke-linecap:round;stroke-dasharray:none;stroke-opacity:0.5"
         id="rect17"
         width="2.2983201"
         height="5.7599998"
         x="2.4513299"
         y="12.959999" />
      <rect
         style="fill:#404040;fill-opacity:1;stroke:none;stroke-width:0;stroke-linecap:round;stroke-dasharray:none;stroke-opacity:0.5"
         id="rect16"
         width="21.599998"
         height="10.799999"
         x="0"
         y="18" />
      <text
         x="5.4901085"
         fill="#e6e6e6"
         id="text-label"
         stroke="none"
         y="22.714304"
         font-size="4.66667px"
         text-anchor="start"
         font-family="OCRA">LDO</text>
      <text
         x="5.7317753"
         fill="#e6e6e6"
         id="text1"
         stroke="none"
         y="27.589455"
         font-size="3.33333px"
         text-anchor="start"
         font-family="OCRA">+3V3</text>
      <text
         x="0.70715773"
         fill="#e6e6e6"
         id="text-pin1"
         stroke="none"
         y="9.894825"
         font-size="1.8pt"
         text-anchor="start"
         font-family="OCRA">VIN</text>
      <text
         x="8.0518045"
         fill="#e6e6e6"
         id="text-pin2"
         stroke="none"
         y="9.7908249"
         font-size="2.4px"
         text-anchor="start"
         font-family="OCRA">3V3</text>
      <text
         x="15.396451"
         fill="#e6e6e6"
         id="text-pin2-6"
         stroke="none"
         y="9.7908249"
         font-size="2.4px"
         text-anchor="start"
         font-family="OCRA">GND</text>
    </g>
  </g>
</svg>
