<?xml version="1.0" encoding="UTF-8" standalone="no"?>
<!-- Created with Fritzing (http://www.fritzing.org/) -->

<svg
   version="1.2"
   x="0in"
   y="0in"
   width="0.55999994in"
   height="0.40000001in"
   viewBox="0 0 40.320138 28.800046"
   id="svg3"
   sodipodi:docname="DS18B20_schem.svg"
   inkscape:version="1.3 (1:1.3+202307231459+0e150ed6c4)"
   xmlns:inkscape="http://www.inkscape.org/namespaces/inkscape"
   xmlns:sodipodi="http://sodipodi.sourceforge.net/DTD/sodipodi-0.dtd"
   xmlns="http://www.w3.org/2000/svg"
   xmlns:svg="http://www.w3.org/2000/svg">
  <defs
     id="defs3" />
  <sodipodi:namedview
     id="namedview3"
     pagecolor="#ffffff"
     bordercolor="#000000"
     borderopacity="0.25"
     inkscape:showpageshadow="false"
     inkscape:pageopacity="0.0"
     inkscape:pagecheckerboard="0"
     inkscape:deskcolor="#d1d1d1"
     inkscape:document-units="in"
     showgrid="true"
     inkscape:zoom="11.607142"
     inkscape:cx="40.836926"
     inkscape:cy="27.224617"
     inkscape:window-width="1920"
     inkscape:window-height="980"
     inkscape:window-x="1920"
     inkscape:window-y="0"
     inkscape:window-maximized="1"
     inkscape:current-layer="schematic"
     showguides="false">
    <inkscape:grid
       id="grid3"
       units="in"
       originx="1.8387081e-07"
       originy="0.00010466922"
       spacingx="1.8000063"
       spacingy="1.8000028"
       empcolor="#009920"
       empopacity="1"
       color="#0054e5"
       opacity="0.14901961"
       empspacing="4"
       dotted="false"
       gridanglex="30"
       gridanglez="30"
       visible="true" />
  </sodipodi:namedview>
  <g
     transform="translate(-18.000063,-735.29797)"
     id="g2">
    <g
       id="schematic">
      <rect
         style="fill:none;fill-opacity:0.199575;stroke-width:0.391492;stroke-linecap:round;stroke-dasharray:none;paint-order:fill markers stroke"
         id="rect3"
         width="40.320141"
         height="28.800102"
         x="18.000063"
         y="735.29797" />
      <rect
         fill="none"
         y="735.55817"
         stroke-opacity="1"
         style="stroke-width:0.520352;stroke-linecap:round;stroke-miterlimit:4;stroke-dasharray:none"
         id="rect6478"
         stroke="#000000"
         height="28.279747"
         stroke-width="2.4"
         x="39.500313"
         width="18.199713" />
      <g
         fill="#000000"
         xml:space="preserve"
         style="font-style:normal;font-variant:normal;font-weight:normal;font-stretch:normal;line-height:125%;font-family:'Droid Sans';-inkscape-font-specification:'Droid Sans';text-align:center;letter-spacing:0px;word-spacing:0px;text-anchor:middle"
         id="text6578"
         font-size="14.4px"
         stroke="none"
         fill-opacity="1"
         transform="rotate(90,104.67711,778.06262)">&#10;<path
   d="m 69.90751,828.59196 q 0,0.38391 -0.09961,0.67444 -0.09961,0.28845 -0.288453,0.48352 -0.188843,0.19299 -0.464845,0.29053 -0.273927,0.0975 -0.62256,0.0975 H 67.67252 v -3.03394 h 0.844606 q 0.317506,0 0.574831,0.0955 0.257324,0.0955 0.437867,0.2843 0.180542,0.18677 0.278077,0.46485 0.09961,0.27807 0.09961,0.64331 z m -0.408814,0.0125 q 0,-0.30298 -0.06848,-0.52295 -0.06848,-0.22205 -0.199219,-0.36524 -0.130738,-0.14319 -0.321656,-0.21167 -0.190919,-0.0706 -0.433717,-0.0706 h -0.417115 v 2.37195 h 0.336182 q 0.547853,0 0.82593,-0.30298 0.278077,-0.30298 0.278077,-0.89856 z m 2.679083,0.72217 q 0,0.20129 -0.07263,0.36108 -0.07056,0.15772 -0.203369,0.2677 -0.132813,0.10999 -0.323732,0.16809 -0.190918,0.056 -0.429566,0.056 -0.230347,0 -0.431642,-0.0374 -0.199219,-0.0353 -0.334107,-0.10583 v -0.36936 q 0.07056,0.0332 0.159791,0.0664 0.09131,0.0311 0.190918,0.056 0.09961,0.0249 0.205445,0.0415 0.105835,0.0145 0.209595,0.0145 0.332032,0 0.489747,-0.12451 0.159791,-0.12452 0.159791,-0.35694 0,-0.11206 -0.03113,-0.19507 -0.02905,-0.083 -0.105836,-0.15149 -0.07471,-0.0706 -0.201294,-0.13488 -0.126587,-0.0664 -0.319581,-0.14319 -0.184693,-0.0726 -0.321656,-0.15772 -0.134888,-0.0872 -0.224121,-0.19507 -0.08716,-0.10791 -0.130738,-0.24487 -0.0415,-0.13696 -0.0415,-0.31128 0,-0.18262 0.06641,-0.32581 0.06641,-0.14319 0.186768,-0.24072 0.120362,-0.0996 0.286378,-0.15149 0.168091,-0.0519 0.369386,-0.0519 0.246948,0 0.444092,0.0477 0.197144,0.0457 0.350709,0.11829 l -0.139038,0.32373 q -0.134888,-0.0602 -0.30713,-0.10376 -0.170166,-0.0457 -0.352784,-0.0457 -0.253174,0 -0.392213,0.11829 -0.139038,0.11621 -0.139038,0.31543 0,0.11829 0.03113,0.20544 0.03113,0.0851 0.10376,0.15564 0.07263,0.0685 0.190918,0.13074 0.120362,0.0602 0.294679,0.12866 0.188843,0.0747 0.329957,0.15357 0.143188,0.0789 0.238648,0.17847 0.09546,0.0996 0.143188,0.23034 0.04981,0.13074 0.04981,0.30921 z m 1.670537,0.8114 H 73.48308 v -1.89466 q 0,-0.0892 0,-0.19091 0.0021,-0.10169 0.0042,-0.2013 0.0042,-0.10168 0.0062,-0.19299 0.0042,-0.0934 0.0062,-0.16394 -0.03528,0.0373 -0.06226,0.0643 -0.02698,0.027 -0.05603,0.0519 -0.02698,0.0249 -0.05811,0.0539 -0.03113,0.027 -0.07471,0.0643 l -0.30713,0.2511 -0.199219,-0.25525 0.794802,-0.62048 h 0.31128 z m 2.037846,-3.08167 q 0.174317,0 0.327882,0.0456 0.15564,0.0457 0.271851,0.13697 0.118286,0.0913 0.186768,0.22827 0.06848,0.13696 0.06848,0.31958 0,0.13904 -0.0415,0.2511 -0.0415,0.11206 -0.114136,0.20337 -0.07263,0.0892 -0.172242,0.16186 -0.09961,0.0706 -0.215821,0.12867 0.120362,0.0643 0.234498,0.14319 0.116211,0.0788 0.205445,0.17846 0.09131,0.0975 0.145264,0.21997 0.05603,0.12244 0.05603,0.27393 0,0.19092 -0.07056,0.34656 -0.06848,0.15356 -0.195069,0.26147 -0.124512,0.10791 -0.300904,0.16602 -0.174317,0.0581 -0.385987,0.0581 -0.228272,0 -0.406739,-0.056 -0.176392,-0.056 -0.298829,-0.15979 -0.120362,-0.10583 -0.184693,-0.25732 -0.06226,-0.15149 -0.06226,-0.34241 0,-0.15564 0.04565,-0.28015 0.04773,-0.12451 0.126587,-0.22412 0.07886,-0.0996 0.186768,-0.17639 0.10791,-0.0768 0.228272,-0.13489 -0.101685,-0.0643 -0.190919,-0.13904 -0.08923,-0.0768 -0.15564,-0.17017 -0.06433,-0.0934 -0.10376,-0.20544 -0.03735,-0.11414 -0.03735,-0.2511 0,-0.18054 0.06848,-0.31543 0.07056,-0.13696 0.188844,-0.22827 0.118286,-0.0913 0.271851,-0.13697 0.15564,-0.0456 0.323731,-0.0456 z m -0.581056,2.31177 q 0,0.10999 0.0332,0.20337 0.0332,0.0913 0.10376,0.15772 0.07056,0.0643 0.178467,0.10168 0.107911,0.0353 0.257325,0.0353 0.145264,0 0.25525,-0.0353 0.112061,-0.0374 0.186768,-0.10376 0.07471,-0.0685 0.112061,-0.16394 0.03735,-0.0955 0.03735,-0.21167 0,-0.10791 -0.0415,-0.19507 -0.03943,-0.0872 -0.116211,-0.16186 -0.07471,-0.0747 -0.180542,-0.14112 -0.105836,-0.0664 -0.236573,-0.13074 l -0.06226,-0.0291 q -0.261475,0.12451 -0.394288,0.28638 -0.132813,0.15979 -0.132813,0.38806 z m 0.576906,-1.99634 q -0.219972,0 -0.350709,0.10999 -0.128663,0.10998 -0.128663,0.31958 0,0.11828 0.03528,0.20337 0.03735,0.0851 0.101685,0.15149 0.06433,0.0664 0.153564,0.12036 0.09131,0.0519 0.197144,0.10168 0.09961,-0.0456 0.186768,-0.0996 0.08923,-0.0539 0.153565,-0.12243 0.06641,-0.0685 0.10376,-0.15564 0.03735,-0.0872 0.03735,-0.19922 0,-0.2096 -0.130738,-0.31958 -0.130737,-0.10999 -0.359009,-0.10999 z m 1.585452,-0.2677 h 0.828005 q 0.265626,0 0.46692,0.0415 0.20337,0.0394 0.338258,0.13074 0.136963,0.0892 0.205445,0.23657 0.06848,0.14527 0.06848,0.35901 0,0.12867 -0.0415,0.24073 -0.03943,0.11206 -0.116211,0.19714 -0.07678,0.0851 -0.190918,0.14319 -0.112061,0.056 -0.25525,0.0747 v 0.0208 q 0.143189,0.0249 0.267701,0.0726 0.126587,0.0457 0.219971,0.12866 0.09338,0.0809 0.147339,0.20545 0.05396,0.12451 0.05396,0.30298 0,0.20752 -0.06848,0.37146 -0.06641,0.16186 -0.195069,0.276 -0.126587,0.11206 -0.309205,0.17224 -0.182617,0.0602 -0.412965,0.0602 h -1.006472 z m 0.385988,1.28662 H 78.3598 q 0.174317,0 0.292604,-0.0311 0.118286,-0.0311 0.190918,-0.0913 0.07263,-0.0623 0.10376,-0.15357 0.0332,-0.0934 0.0332,-0.21582 0,-0.24902 -0.15979,-0.35693 -0.159791,-0.10791 -0.504274,-0.10791 h -0.462769 z m 0,0.32373 v 1.09571 h 0.552003 q 0.182617,0 0.305054,-0.0415 0.124512,-0.0415 0.199219,-0.11622 0.07678,-0.0747 0.109986,-0.17846 0.0332,-0.10584 0.0332,-0.23243 0,-0.11621 -0.03528,-0.21374 -0.0332,-0.0975 -0.112061,-0.16602 -0.07678,-0.0705 -0.205445,-0.10791 -0.128662,-0.0394 -0.319581,-0.0394 z m 3.932504,1.42359 h -1.892582 v -0.32373 l 0.72632,-0.79065 q 0.15564,-0.16809 0.278077,-0.30713 0.122437,-0.13904 0.20752,-0.27185 0.08716,-0.13281 0.132813,-0.26563 0.04565,-0.13489 0.04565,-0.2926 0,-0.12244 -0.03528,-0.21582 -0.03528,-0.0934 -0.101685,-0.15772 -0.06433,-0.0664 -0.153565,-0.0996 -0.08923,-0.0332 -0.199219,-0.0332 -0.197144,0 -0.356935,0.0809 -0.157715,0.0789 -0.300904,0.20337 l -0.21167,-0.24695 q 0.08301,-0.0747 0.178467,-0.13903 0.09546,-0.0664 0.205445,-0.11414 0.109985,-0.0477 0.232422,-0.0747 0.122437,-0.029 0.257325,-0.029 0.199219,0 0.35901,0.056 0.161865,0.056 0.273926,0.16187 0.112061,0.10376 0.172242,0.25525 0.06226,0.14941 0.06226,0.33825 0,0.17639 -0.05603,0.33619 -0.05396,0.15979 -0.151489,0.31543 -0.09546,0.15356 -0.230347,0.3092 -0.132813,0.15564 -0.288453,0.32373 l -0.583132,0.62049 v 0.0166 h 1.429813 z m 2.39063,-1.52112 q 0,0.36731 -0.05396,0.65784 -0.05188,0.29053 -0.170166,0.49182 -0.116212,0.20129 -0.300904,0.30713 -0.184693,0.10584 -0.448244,0.10584 -0.244873,0 -0.427491,-0.10584 -0.180542,-0.10584 -0.300904,-0.30713 -0.118286,-0.20129 -0.178467,-0.49182 -0.05811,-0.29053 -0.05811,-0.65784 0,-0.36731 0.05188,-0.65784 0.05396,-0.29053 0.168092,-0.48975 0.116211,-0.20129 0.298828,-0.30713 0.184693,-0.10583 0.446168,-0.10583 0.246949,0 0.429567,0.10583 0.182617,0.10376 0.302979,0.30506 0.120362,0.19922 0.180542,0.48975 0.06018,0.29052 0.06018,0.65991 z m -1.554325,0 q 0,0.31128 0.03113,0.5437 0.03113,0.23242 0.09961,0.38806 0.06848,0.15357 0.178467,0.23243 0.112061,0.0768 0.271851,0.0768 0.159791,0 0.271852,-0.0768 0.11206,-0.0768 0.182617,-0.23035 0.07263,-0.15357 0.10376,-0.38599 0.0332,-0.2345 0.0332,-0.54785 0,-0.31128 -0.0332,-0.5437 -0.03113,-0.23243 -0.10376,-0.38599 -0.07056,-0.15356 -0.182617,-0.23035 -0.112061,-0.0768 -0.271852,-0.0768 -0.15979,0 -0.271851,0.0768 -0.109985,0.0768 -0.178467,0.23035 -0.06848,0.15356 -0.09961,0.38599 -0.03113,0.23242 -0.03113,0.5437 z"
   id="tspan6580"
   style="font-size:4.25001px"
   aria-label="DS18B20" />&#10;</g>
      <g
         id="Pin3"
         transform="translate(0.44127989,21.669572)">
        <g
           fill="#000000"
           xml:space="preserve"
           style="font-style:normal;font-variant:normal;font-weight:normal;font-stretch:normal;line-height:125%;font-family:'Droid Sans';-inkscape-font-specification:'Droid Sans';text-align:center;letter-spacing:0px;word-spacing:0px;text-anchor:middle"
           id="text6522"
           font-size="6.4px"
           stroke="none"
           fill-opacity="1">&#10;<path
   d="m 33.103841,732.79158 q 0,0.0891 -0.02808,0.16236 -0.02808,0.0732 -0.07935,0.12695 -0.05005,0.0537 -0.12085,0.0891 -0.0708,0.0342 -0.157471,0.0488 v 0.007 q 0.216065,0.0269 0.32837,0.13794 0.112305,0.10987 0.112305,0.28687 0,0.11719 -0.04028,0.21484 -0.03906,0.0977 -0.11963,0.16846 -0.08057,0.0708 -0.203858,0.10987 -0.123291,0.0391 -0.291749,0.0391 -0.133057,0 -0.251466,-0.0208 -0.117188,-0.0208 -0.220948,-0.0757 v -0.20752 q 0.106202,0.0562 0.229493,0.0867 0.124512,0.0305 0.238038,0.0305 0.112305,0 0.194093,-0.0244 0.08179,-0.0244 0.134278,-0.0696 0.05371,-0.0452 0.07813,-0.11109 0.02564,-0.0659 0.02564,-0.1477 0,-0.083 -0.03296,-0.14161 -0.03174,-0.0598 -0.09155,-0.0977 -0.05981,-0.0391 -0.146485,-0.0574 -0.08545,-0.0183 -0.194093,-0.0183 h -0.162354 v -0.18432 h 0.162354 q 0.09888,0 0.175782,-0.0244 0.0769,-0.0244 0.128174,-0.0696 0.05249,-0.0452 0.07935,-0.10742 0.02686,-0.0623 0.02686,-0.13672 0,-0.0635 -0.02197,-0.11353 -0.02197,-0.05 -0.06226,-0.0842 -0.04028,-0.0354 -0.09644,-0.0537 -0.05615,-0.0183 -0.124512,-0.0183 -0.130616,0 -0.230714,0.0415 -0.09888,0.0403 -0.18921,0.1062 l -0.112305,-0.15259 q 0.04639,-0.0378 0.10254,-0.0708 0.05737,-0.033 0.124512,-0.0574 0.06714,-0.0256 0.142823,-0.0403 0.0769,-0.0146 0.162354,-0.0146 0.131836,0 0.230714,0.033 0.100098,0.033 0.167237,0.0928 0.06714,0.0586 0.101319,0.14038 0.03418,0.0806 0.03418,0.177 z"
   id="text6"
   style="font-size:2.50001px;line-height:125%"
   aria-label="3" /><path
   d="m 44.408047,734.00451 h 0.33838 l -0.835696,2.49854 H 43.59115 l -0.832278,-2.49854 h 0.336671 l 0.504152,1.58423 q 0.04956,0.15552 0.08545,0.30078 0.03589,0.14356 0.06494,0.27002 0.02563,-0.12646 0.06494,-0.27002 0.03931,-0.14526 0.09229,-0.31103 z m 2.51905,1.22534 q 0,0.31617 -0.08203,0.55543 -0.08203,0.23755 -0.23755,0.39819 -0.155518,0.15894 -0.382813,0.23926 -0.225587,0.0803 -0.512697,0.0803 h -0.62549 v -2.49854 h 0.695559 q 0.261475,0 0.47339,0.0786 0.211914,0.0786 0.360596,0.23413 0.148682,0.15381 0.229005,0.38282 0.08203,0.229 0.08203,0.52978 z m -0.336671,0.0103 q 0,-0.24951 -0.0564,-0.43067 -0.0564,-0.18286 -0.164063,-0.30078 -0.107667,-0.11792 -0.264894,-0.17432 -0.157227,-0.0581 -0.357178,-0.0581 h -0.343507 v 1.95337 h 0.276856 q 0.451173,0 0.680178,-0.24951 0.229004,-0.24951 0.229004,-0.73999 z m 2.730965,-0.0103 q 0,0.31617 -0.08203,0.55543 -0.08203,0.23755 -0.23755,0.39819 -0.155518,0.15894 -0.382813,0.23926 -0.225587,0.0803 -0.512697,0.0803 h -0.62549 v -2.49854 h 0.695558 q 0.261476,0 0.47339,0.0786 0.211915,0.0786 0.360597,0.23413 0.148682,0.15381 0.229005,0.38282 0.08203,0.229 0.08203,0.52978 z m -0.336671,0.0103 q 0,-0.24951 -0.0564,-0.43067 -0.0564,-0.18286 -0.164063,-0.30078 -0.107667,-0.11792 -0.264894,-0.17432 -0.157227,-0.0581 -0.357178,-0.0581 h -0.343507 v 1.95337 h 0.276856 q 0.451173,0 0.680178,-0.24951 0.229004,-0.24951 0.229004,-0.73999 z"
   id="tspan6524"
   style="font-size:3.50001px"
   aria-label="VDD" />&#10;</g>
        <rect
           fill="none"
           y="734.86853"
           id="connector3pin"
           stroke="none"
           height="0.72000247"
           x="24.398808"
           width="0.72000247"
           style="stroke-width:0.127" />
        <path
           fill="#c2c2c2"
           stroke-opacity="1"
           style="color:#000000;display:inline;overflow:visible;visibility:visible;fill:none;fill-rule:nonzero;stroke:#555555;stroke-width:0.727358;stroke-linecap:round;stroke-linejoin:miter;stroke-miterlimit:4;stroke-dasharray:none;stroke-dashoffset:0;stroke-opacity:1;marker:none;enable-background:accumulate"
           id="path6486"
           d="M 38.791465,735.22851 H 24.766202"
           stroke="#000000"
           stroke-width="2.4"
           fill-opacity="1" />
      </g>
      <g
         id="Pin2"
         transform="translate(1.962854,-14.743876)">
        <g
           fill="#000000"
           xml:space="preserve"
           style="font-style:normal;font-variant:normal;font-weight:normal;font-stretch:normal;line-height:125%;font-family:'Droid Sans';-inkscape-font-specification:'Droid Sans';text-align:start;letter-spacing:0px;word-spacing:0px;text-anchor:start"
           id="text6518"
           font-size="6.4px"
           stroke="none"
           fill-opacity="1"
           transform="translate(-7.316383,-0.1562085)">&#10;<path
   d="m 38.938928,763.50283 h -1.113285 v -0.19043 l 0.427247,-0.46509 q 0.09155,-0.0989 0.163575,-0.18067 0.07202,-0.0818 0.122071,-0.15991 0.05127,-0.0781 0.07813,-0.15625 0.02686,-0.0793 0.02686,-0.17212 0,-0.072 -0.02075,-0.12695 -0.02075,-0.0549 -0.05982,-0.0928 -0.03784,-0.0391 -0.09033,-0.0586 -0.05249,-0.0195 -0.117188,-0.0195 -0.115967,0 -0.209962,0.0476 -0.09277,0.0464 -0.177003,0.11963 l -0.12452,-0.14526 q 0.04883,-0.0439 0.104981,-0.0818 0.05615,-0.0391 0.12085,-0.0671 0.0647,-0.0281 0.136719,-0.0439 0.07202,-0.0171 0.151368,-0.0171 0.117188,0 0.211183,0.033 0.09521,0.033 0.161133,0.0952 0.06592,0.061 0.101319,0.15015 0.03662,0.0879 0.03662,0.19897 0,0.10376 -0.03296,0.19776 -0.03174,0.094 -0.08911,0.18555 -0.05615,0.0903 -0.135498,0.18188 -0.07813,0.0916 -0.169679,0.19043 l -0.343019,0.36499 v 0.01 h 0.841068 z"
   id="text5"
   style="font-size:2.50001px;line-height:125%;text-align:center;text-anchor:middle"
   aria-label="2" /><path
   d="m 50.394261,764.63879 q 0,0.31616 -0.08203,0.55542 -0.08203,0.23755 -0.23755,0.3982 -0.155518,0.15893 -0.382813,0.23925 -0.225587,0.0803 -0.512697,0.0803 h -0.62549 v -2.49854 h 0.695559 q 0.261475,0 0.47339,0.0786 0.211914,0.0786 0.360596,0.23413 0.148682,0.15381 0.229005,0.38281 0.08203,0.22901 0.08203,0.52979 z m -0.336671,0.0103 q 0,-0.24951 -0.0564,-0.43066 -0.0564,-0.18286 -0.164063,-0.30078 -0.107666,-0.11792 -0.264893,-0.17432 -0.157227,-0.0581 -0.357179,-0.0581 h -0.343507 v 1.95338 h 0.276856 q 0.451173,0 0.680178,-0.24951 0.229004,-0.24952 0.229004,-0.74 z m 2.930917,0.0103 q 0,0.22388 -0.04272,0.41699 -0.04102,0.19312 -0.123047,0.34864 -0.08032,0.1538 -0.201661,0.2666 -0.121338,0.11279 -0.280274,0.17773 0.07349,0.16065 0.189698,0.28199 0.11792,0.12304 0.271729,0.22558 l -0.206787,0.24268 q -0.176026,-0.12476 -0.324708,-0.29395 -0.146973,-0.16919 -0.234132,-0.38623 -0.02905,0.003 -0.06494,0.005 -0.03418,0.002 -0.06494,0.002 -0.278565,0 -0.483644,-0.0923 -0.20337,-0.0923 -0.33838,-0.26147 -0.133301,-0.16919 -0.198243,-0.40674 -0.06494,-0.23926 -0.06494,-0.52979 0,-0.29053 0.06494,-0.52637 0.06494,-0.23755 0.199952,-0.40503 0.13501,-0.16748 0.340089,-0.25806 0.205079,-0.0923 0.483644,-0.0923 0.264893,0 0.464845,0.0923 0.201661,0.0906 0.33838,0.25977 0.136719,0.16748 0.205079,0.40503 0.07007,0.23584 0.07007,0.52808 z m -1.830327,0 q 0,0.23413 0.04443,0.42212 0.04443,0.18628 0.135011,0.31787 0.09229,0.12988 0.232422,0.19995 0.141846,0.0684 0.336671,0.0684 0.194825,0 0.334962,-0.0684 0.141846,-0.0701 0.232422,-0.19995 0.09229,-0.13159 0.135011,-0.31787 0.04272,-0.18799 0.04272,-0.42212 0,-0.23584 -0.04272,-0.42212 -0.04273,-0.18628 -0.133302,-0.31446 -0.09058,-0.12988 -0.230713,-0.19824 -0.140137,-0.0701 -0.334962,-0.0701 -0.194825,0 -0.336671,0.0701 -0.141846,0.0684 -0.234132,0.19824 -0.09228,0.12818 -0.136719,0.31446 -0.04443,0.18628 -0.04443,0.42212 z"
   id="tspan6520"
   style="font-size:3.50001px"
   aria-label="DQ" />&#10;</g>
        <rect
           fill="none"
           y="764.08191"
           id="connector2pin"
           stroke="none"
           height="0.72000247"
           x="22.877234"
           width="0.72000247"
           style="stroke-width:0.127001" />
        <path
           fill="#c2c2c2"
           stroke-opacity="1"
           style="color:#000000;display:inline;overflow:visible;visibility:visible;fill:none;fill-opacity:1;fill-rule:nonzero;stroke:#555555;stroke-width:0.735629;stroke-linecap:round;stroke-linejoin:miter;stroke-miterlimit:4;stroke-dasharray:none;stroke-dashoffset:0;stroke-opacity:1;marker:none;enable-background:accumulate"
           id="path6484"
           d="M 37.261488,764.44193 H 23.253031"
           stroke="#000000"
           stroke-width="2.4"
           fill-opacity="1" />
      </g>
      <g
         id="Pin1"
         transform="translate(0.93459171,-56.442247)">
        <g
           fill="#000000"
           xml:space="preserve"
           style="font-style:normal;font-variant:normal;font-weight:normal;font-stretch:normal;line-height:125%;font-family:'Droid Sans';-inkscape-font-specification:'Droid Sans';text-align:center;letter-spacing:0px;word-spacing:0px;text-anchor:middle"
           id="text6514"
           font-size="6.4px"
           stroke="none"
           fill-opacity="1"
           transform="translate(-2.4762025,-1.0486678)">&#10;<path
   d="m 45.864572,799.76403 h 0.827151 v 1.22535 q -0.09399,0.0308 -0.189698,0.0547 -0.0957,0.0239 -0.196534,0.0393 -0.10083,0.0171 -0.211914,0.0256 -0.111085,0.009 -0.239259,0.009 -0.268311,0 -0.475099,-0.0889 -0.206788,-0.0906 -0.348634,-0.25635 -0.141846,-0.16748 -0.215332,-0.40503 -0.07349,-0.23926 -0.07349,-0.53663 0,-0.29394 0.08032,-0.53149 0.08203,-0.23755 0.237549,-0.40332 0.155518,-0.16748 0.382814,-0.25635 0.229004,-0.0906 0.521241,-0.0906 0.189698,0 0.364015,0.0376 0.174317,0.0376 0.324708,0.10938 l -0.123047,0.27685 q -0.06152,-0.029 -0.133301,-0.0547 -0.07007,-0.0256 -0.145264,-0.0444 -0.0752,-0.0205 -0.155518,-0.0325 -0.07861,-0.012 -0.157227,-0.012 -0.208497,0 -0.369142,0.0701 -0.160645,0.0684 -0.27002,0.19824 -0.107667,0.12988 -0.164063,0.31616 -0.0564,0.18628 -0.0564,0.42041 0,0.22217 0.04614,0.40674 0.04785,0.18457 0.150391,0.31787 0.102539,0.13331 0.264893,0.20679 0.162354,0.0735 0.391359,0.0735 0.0752,0 0.136719,-0.003 0.06323,-0.005 0.116211,-0.012 0.05298,-0.007 0.09912,-0.0154 0.04785,-0.0103 0.09229,-0.0188 v -0.74512 h -0.510988 z m 3.289804,1.31934 H 48.786944 L 47.55818,799.0155 h -0.01367 q 0.01025,0.13159 0.01709,0.26147 0.0068,0.11109 0.01025,0.23242 0.0051,0.12134 0.0051,0.21876 v 1.35522 h -0.293946 v -2.49854 h 0.364015 l 1.223636,2.05762 h 0.01196 q -0.0051,-0.12988 -0.01196,-0.25634 -0.0017,-0.0547 -0.0051,-0.11109 -0.0017,-0.0581 -0.0051,-0.1145 -0.0017,-0.0581 -0.0034,-0.11108 0,-0.053 0,-0.0974 v -1.36719 h 0.297364 z m 2.52076,-1.27319 q 0,0.31616 -0.08203,0.55542 -0.08203,0.23755 -0.237549,0.39819 -0.155518,0.15894 -0.382814,0.23926 -0.225586,0.0803 -0.512697,0.0803 h -0.62549 v -2.49854 h 0.695559 q 0.261475,0 0.47339,0.0786 0.211915,0.0786 0.360597,0.23413 0.148682,0.15381 0.229004,0.38281 0.08203,0.229 0.08203,0.52979 z m -0.336671,0.0103 q 0,-0.24951 -0.0564,-0.43066 -0.0564,-0.18287 -0.164063,-0.30079 -0.107666,-0.11792 -0.264893,-0.17431 -0.157227,-0.0581 -0.357179,-0.0581 H 50.152423 V 800.81 h 0.276856 q 0.451174,0 0.680178,-0.24952 0.229005,-0.24951 0.229005,-0.73999 z"
   id="tspan6516"
   style="font-size:3.50001px"
   aria-label="GND" />&#10;<path
   d="m 34.808332,798.88745 h -0.214845 v -1.11451 q 0,-0.0525 0,-0.1123 0.0012,-0.0598 0.0024,-0.11841 0.0024,-0.0598 0.0037,-0.11352 0.0024,-0.0549 0.0037,-0.0964 -0.02075,0.022 -0.03662,0.0378 -0.01587,0.0159 -0.03296,0.0305 -0.01587,0.0147 -0.03418,0.0317 -0.01831,0.0159 -0.04395,0.0378 l -0.180664,0.1477 -0.117188,-0.15014 0.467531,-0.36499 h 0.183106 z"
   id="text4"
   style="font-size:2.50001px"
   aria-label="1" /></g>
        <rect
           fill="none"
           y="798.58026"
           id="connector1pin"
           stroke="none"
           height="0.72000247"
           x="23.905495"
           width="0.72000247"
           style="stroke-width:0.127" />
        <path
           fill="#c2c2c2"
           stroke-opacity="1"
           style="color:#000000;display:inline;overflow:visible;visibility:visible;fill-rule:nonzero;stroke:#555555;stroke-width:0.726516;stroke-linecap:round;stroke-miterlimit:4;stroke-dasharray:none;stroke-opacity:1;marker:none;enable-background:accumulate"
           id="path6480"
           d="M 38.299004,798.9403 H 24.272039"
           stroke="#000000"
           stroke-width="2.4"
           fill-opacity="1"
           transform="translate(2.6721866e-7,1.7256667e-5)" />
      </g>
    </g>
  </g>
</svg>
