<?xml version='1.0' encoding='UTF-8' standalone='no'?>
<!-- Created with Fritzing (http://www.fritzing.org/) -->
<svg xmlns="http://www.w3.org/2000/svg" viewBox="0 0 104.882 172.913" y="0in" xmlns:svg="http://www.w3.org/2000/svg" version="1.2" height="2.40157in" x="0in" width="1.45669in"  baseProfile="tiny">
 <g partID="57830">
  <g id="board" >
   <rect id="boardoutline" y="0.288" stroke="black" height="172.337" x="0.288" fill-opacity="0.5" width="104.306" stroke-width="0.5"  fill="none"/>
  </g>
 </g>
 <g partID="13140661">
  <g transform="translate(85.4644,92.4784)">
   <g id="copper1">
    <g id="copper0">
     <rect id="square" y="3.24" height="4.32" stroke="black" x="5.616" width="4.32" stroke-width="1.44" fill="none"/>
     <circle id="connector0pin" cx="7.776" stroke="black" cy="5.4" stroke-width="1.44" r="2.16" fill="none"/>
     <circle id="connector1pin" cx="7.776" stroke="black" cy="12.6" stroke-width="1.44" r="2.16" fill="none"/>
     <circle id="connector2pin" cx="7.776" stroke="black" cy="19.8" stroke-width="1.44" r="2.16" fill="none"/>
     <circle id="connector3pin" cx="7.776" stroke="black" cy="27" stroke-width="1.44" r="2.16" fill="none"/>
     <circle id="connector4pin" cx="7.776" stroke="black" cy="34.2" stroke-width="1.44" r="2.16" fill="none"/>
     <circle id="connector5pin" cx="7.776" stroke="black" cy="41.4" stroke-width="1.44" r="2.16" fill="none"/>
     <circle id="connector6pin" cx="7.776" stroke="black" cy="48.6" stroke-width="1.44" r="2.16" fill="none"/>
     <circle id="connector7pin" cx="7.776" stroke="black" cy="55.8" stroke-width="1.44" r="2.16" fill="none"/>
     <circle id="connector8pin" cx="7.776" stroke="black" cy="63" stroke-width="1.44" r="2.16" fill="none"/>
    </g>
   </g>
  </g>
 </g>
 <g partID="13140651">
  <g transform="translate(71.0644,92.4784)">
   <g id="copper1">
    <g id="copper0">
     <rect id="square" y="3.24" height="4.32" stroke="black" x="5.616" width="4.32" stroke-width="1.44" fill="none"/>
     <circle id="connector0pin" cx="7.776" stroke="black" cy="5.4" stroke-width="1.44" r="2.16" fill="none"/>
     <circle id="connector1pin" cx="7.776" stroke="black" cy="12.6" stroke-width="1.44" r="2.16" fill="none"/>
     <circle id="connector2pin" cx="7.776" stroke="black" cy="19.8" stroke-width="1.44" r="2.16" fill="none"/>
     <circle id="connector3pin" cx="7.776" stroke="black" cy="27" stroke-width="1.44" r="2.16" fill="none"/>
     <circle id="connector4pin" cx="7.776" stroke="black" cy="34.2" stroke-width="1.44" r="2.16" fill="none"/>
     <circle id="connector5pin" cx="7.776" stroke="black" cy="41.4" stroke-width="1.44" r="2.16" fill="none"/>
     <circle id="connector6pin" cx="7.776" stroke="black" cy="48.6" stroke-width="1.44" r="2.16" fill="none"/>
     <circle id="connector7pin" cx="7.776" stroke="black" cy="55.8" stroke-width="1.44" r="2.16" fill="none"/>
     <circle id="connector8pin" cx="7.776" stroke="black" cy="63" stroke-width="1.44" r="2.16" fill="none"/>
    </g>
   </g>
  </g>
 </g>
 <g partID="13139561">
  <g transform="translate(85.4644,13.2784)">
   <g id="copper1">
    <g id="copper0">
     <rect id="square" y="3.24" height="4.32" stroke="black" x="5.616" width="4.32" stroke-width="1.44" fill="none"/>
     <circle id="connector0pin" cx="7.776" stroke="black" cy="5.4" stroke-width="1.44" r="2.16" fill="none"/>
     <circle id="connector1pin" cx="7.776" stroke="black" cy="12.6" stroke-width="1.44" r="2.16" fill="none"/>
     <circle id="connector2pin" cx="7.776" stroke="black" cy="19.8" stroke-width="1.44" r="2.16" fill="none"/>
     <circle id="connector3pin" cx="7.776" stroke="black" cy="27" stroke-width="1.44" r="2.16" fill="none"/>
     <circle id="connector4pin" cx="7.776" stroke="black" cy="34.2" stroke-width="1.44" r="2.16" fill="none"/>
     <circle id="connector5pin" cx="7.776" stroke="black" cy="41.4" stroke-width="1.44" r="2.16" fill="none"/>
     <circle id="connector6pin" cx="7.776" stroke="black" cy="48.6" stroke-width="1.44" r="2.16" fill="none"/>
     <circle id="connector7pin" cx="7.776" stroke="black" cy="55.8" stroke-width="1.44" r="2.16" fill="none"/>
     <circle id="connector8pin" cx="7.776" stroke="black" cy="63" stroke-width="1.44" r="2.16" fill="none"/>
    </g>
   </g>
  </g>
 </g>
 <g partID="13138771">
  <g transform="translate(71.0644,13.2784)">
   <g id="copper1">
    <g id="copper0">
     <rect id="square" y="3.24" height="4.32" stroke="black" x="5.616" width="4.32" stroke-width="1.44" fill="none"/>
     <circle id="connector0pin" cx="7.776" stroke="black" cy="5.4" stroke-width="1.44" r="2.16" fill="none"/>
     <circle id="connector1pin" cx="7.776" stroke="black" cy="12.6" stroke-width="1.44" r="2.16" fill="none"/>
     <circle id="connector2pin" cx="7.776" stroke="black" cy="19.8" stroke-width="1.44" r="2.16" fill="none"/>
     <circle id="connector3pin" cx="7.776" stroke="black" cy="27" stroke-width="1.44" r="2.16" fill="none"/>
     <circle id="connector4pin" cx="7.776" stroke="black" cy="34.2" stroke-width="1.44" r="2.16" fill="none"/>
     <circle id="connector5pin" cx="7.776" stroke="black" cy="41.4" stroke-width="1.44" r="2.16" fill="none"/>
     <circle id="connector6pin" cx="7.776" stroke="black" cy="48.6" stroke-width="1.44" r="2.16" fill="none"/>
     <circle id="connector7pin" cx="7.776" stroke="black" cy="55.8" stroke-width="1.44" r="2.16" fill="none"/>
     <circle id="connector8pin" cx="7.776" stroke="black" cy="63" stroke-width="1.44" r="2.16" fill="none"/>
    </g>
   </g>
  </g>
 </g>
 <g partID="13056641">
  <g transform="translate(0.70496,1.74296)">
   <g id="copper1" >
    <circle id="nonconn0" cx="6.13543" stroke="black" cy="6.13543" stroke-width="0" r="4.53543"  fill="black"/>
   </g>
  </g>
 </g>
 <g partID="13056671">
  <g transform="translate(87.1052,1.74296)">
   <g id="copper1" >
    <circle id="nonconn0" cx="6.13543" stroke="black" cy="6.13543" stroke-width="0" r="4.53543"  fill="black"/>
   </g>
  </g>
 </g>
 <g partID="13056731">
  <g transform="translate(0.70496,160.143)">
   <g id="copper1" >
    <circle id="nonconn0" cx="6.13543" stroke="black" cy="6.13543" stroke-width="0" r="4.53543"  fill="black"/>
   </g>
  </g>
 </g>
 <g partID="13056761">
  <g transform="translate(87.1052,160.143)">
   <g id="copper1" >
    <circle id="nonconn0" cx="6.13543" stroke="black" cy="6.13543" stroke-width="0" r="4.53543"  fill="black"/>
   </g>
  </g>
 </g>
 <g partID="13147011">
  <g transform="translate(87.1052,80.9432)">
   <g id="copper1" >
    <circle id="nonconn0" cx="6.13543" stroke="black" cy="6.13543" stroke-width="0" r="4.53543"  fill="black"/>
   </g>
  </g>
 </g>
 <g partID="13056831">
  <g transform="translate(0.70488,80.9424)">
   <g id="copper1" >
    <circle id="nonconn0" cx="6.13543" stroke="black" cy="6.13543" stroke-width="0" r="4.53543"  fill="black"/>
   </g>
  </g>
 </g>
 <g partID="12361151">
  <g transform="translate(50.9404,143.778)">
   <g id="copper1" >
    <!--  <rect width="55" x="10" y="35" fill="none" height="55" stroke="rgb(255, 191, 0)" stroke-width="20" /> -->
    <circle id="connector0pin" cx="2.7" stroke="black" cy="4.5" stroke-width="1.44" r="1.98"  fill="none"/>
    <circle id="connector1pin" cx="9.9" stroke="black" cy="4.5" stroke-width="1.44" r="1.98"  fill="none"/>
   </g>
  </g>
 </g>
 <g partID="12301101">
  <g transform="translate(50.9404,64.5784)">
   <g id="copper1" >
    <!--  <rect width="55" x="10" y="35" fill="none" height="55" stroke="rgb(255, 191, 0)" stroke-width="20" /> -->
    <circle id="connector0pin" cx="2.7" stroke="black" cy="4.5" stroke-width="1.44" r="1.98"  fill="none"/>
    <circle id="connector1pin" cx="9.9" stroke="black" cy="4.5" stroke-width="1.44" r="1.98"  fill="none"/>
   </g>
  </g>
 </g>
 <g partID="12361161">
  <g transform="translate(50.9404,129.378)">
   <g id="copper1" >
    <!--  <rect width="55" x="10" y="35" fill="none" height="55" stroke="rgb(255, 191, 0)" stroke-width="20" /> -->
    <circle id="connector0pin" cx="2.7" stroke="black" cy="4.5" stroke-width="1.44" r="1.98"  fill="none"/>
    <circle id="connector1pin" cx="9.9" stroke="black" cy="4.5" stroke-width="1.44" r="1.98"  fill="none"/>
   </g>
  </g>
 </g>
 <g partID="12301081">
  <g transform="translate(50.9404,50.1784)">
   <g id="copper1" >
    <!--  <rect width="55" x="10" y="35" fill="none" height="55" stroke="rgb(255, 191, 0)" stroke-width="20" /> -->
    <circle id="connector0pin" cx="2.7" stroke="black" cy="4.5" stroke-width="1.44" r="1.98"  fill="none"/>
    <circle id="connector1pin" cx="9.9" stroke="black" cy="4.5" stroke-width="1.44" r="1.98"  fill="none"/>
   </g>
  </g>
 </g>
 <g partID="12361171">
  <g transform="translate(50.9404,114.978)">
   <g id="copper1" >
    <!--  <rect width="55" x="10" y="35" fill="none" height="55" stroke="rgb(255, 191, 0)" stroke-width="20" /> -->
    <circle id="connector0pin" cx="2.7" stroke="black" cy="4.5" stroke-width="1.44" r="1.98"  fill="none"/>
    <circle id="connector1pin" cx="9.9" stroke="black" cy="4.5" stroke-width="1.44" r="1.98"  fill="none"/>
   </g>
  </g>
 </g>
 <g partID="12301061">
  <g transform="translate(50.9404,35.7784)">
   <g id="copper1" >
    <!--  <rect width="55" x="10" y="35" fill="none" height="55" stroke="rgb(255, 191, 0)" stroke-width="20" /> -->
    <circle id="connector0pin" cx="2.7" stroke="black" cy="4.5" stroke-width="1.44" r="1.98"  fill="none"/>
    <circle id="connector1pin" cx="9.9" stroke="black" cy="4.5" stroke-width="1.44" r="1.98"  fill="none"/>
   </g>
  </g>
 </g>
 <g partID="12361181">
  <g transform="translate(50.9404,100.578)">
   <g id="copper1" >
    <!--  <rect width="55" x="10" y="35" fill="none" height="55" stroke="rgb(255, 191, 0)" stroke-width="20" /> -->
    <circle id="connector0pin" cx="2.7" stroke="black" cy="4.5" stroke-width="1.44" r="1.98"  fill="none"/>
    <circle id="connector1pin" cx="9.9" stroke="black" cy="4.5" stroke-width="1.44" r="1.98"  fill="none"/>
   </g>
  </g>
 </g>
 <g partID="12301041">
  <g transform="translate(50.9404,21.3784)">
   <g id="copper1" >
    <!--  <rect width="55" x="10" y="35" fill="none" height="55" stroke="rgb(255, 191, 0)" stroke-width="20" /> -->
    <circle id="connector0pin" cx="2.7" stroke="black" cy="4.5" stroke-width="1.44" r="1.98"  fill="none"/>
    <circle id="connector1pin" cx="9.9" stroke="black" cy="4.5" stroke-width="1.44" r="1.98"  fill="none"/>
   </g>
  </g>
 </g>
 <g partID="12361191">
  <g transform="translate(49.1404,136.578)">
   <g id="copper1" >
    <!-- <rect width="55" x="35" y="35" fill="none" height="55" stroke="rgb(255, 191, 0)" stroke-width="20" /> -->
    <circle id="connector0pin" cx="4.5" stroke="black" cy="4.5" stroke-width="1.44" r="1.98"  fill="none"/>
    <circle id="connector1pin" cx="11.7" stroke="black" cy="4.5" stroke-width="1.44" r="1.98"  fill="none"/>
   </g>
  </g>
 </g>
 <g partID="12301021">
  <g transform="translate(49.1404,57.3784)">
   <g id="copper1" >
    <!-- <rect width="55" x="35" y="35" fill="none" height="55" stroke="rgb(255, 191, 0)" stroke-width="20" /> -->
    <circle id="connector0pin" cx="4.5" stroke="black" cy="4.5" stroke-width="1.44" r="1.98"  fill="none"/>
    <circle id="connector1pin" cx="11.7" stroke="black" cy="4.5" stroke-width="1.44" r="1.98"  fill="none"/>
   </g>
  </g>
 </g>
 <g partID="12361201">
  <g transform="translate(49.1404,122.178)">
   <g id="copper1" >
    <!-- <rect width="55" x="35" y="35" fill="none" height="55" stroke="rgb(255, 191, 0)" stroke-width="20" /> -->
    <circle id="connector0pin" cx="4.5" stroke="black" cy="4.5" stroke-width="1.44" r="1.98"  fill="none"/>
    <circle id="connector1pin" cx="11.7" stroke="black" cy="4.5" stroke-width="1.44" r="1.98"  fill="none"/>
   </g>
  </g>
 </g>
 <g partID="12301001">
  <g transform="translate(49.1404,42.9784)">
   <g id="copper1" >
    <!-- <rect width="55" x="35" y="35" fill="none" height="55" stroke="rgb(255, 191, 0)" stroke-width="20" /> -->
    <circle id="connector0pin" cx="4.5" stroke="black" cy="4.5" stroke-width="1.44" r="1.98"  fill="none"/>
    <circle id="connector1pin" cx="11.7" stroke="black" cy="4.5" stroke-width="1.44" r="1.98"  fill="none"/>
   </g>
  </g>
 </g>
 <g partID="12361211">
  <g transform="translate(49.1404,107.778)">
   <g id="copper1" >
    <!-- <rect width="55" x="35" y="35" fill="none" height="55" stroke="rgb(255, 191, 0)" stroke-width="20" /> -->
    <circle id="connector0pin" cx="4.5" stroke="black" cy="4.5" stroke-width="1.44" r="1.98"  fill="none"/>
    <circle id="connector1pin" cx="11.7" stroke="black" cy="4.5" stroke-width="1.44" r="1.98"  fill="none"/>
   </g>
  </g>
 </g>
 <g partID="12300981">
  <g transform="translate(49.1404,28.5784)">
   <g id="copper1" >
    <!-- <rect width="55" x="35" y="35" fill="none" height="55" stroke="rgb(255, 191, 0)" stroke-width="20" /> -->
    <circle id="connector0pin" cx="4.5" stroke="black" cy="4.5" stroke-width="1.44" r="1.98"  fill="none"/>
    <circle id="connector1pin" cx="11.7" stroke="black" cy="4.5" stroke-width="1.44" r="1.98"  fill="none"/>
   </g>
  </g>
 </g>
 <g partID="12361221">
  <g transform="translate(49.1404,93.3784)">
   <g id="copper1" >
    <!-- <rect width="55" x="35" y="35" fill="none" height="55" stroke="rgb(255, 191, 0)" stroke-width="20" /> -->
    <circle id="connector0pin" cx="4.5" stroke="black" cy="4.5" stroke-width="1.44" r="1.98"  fill="none"/>
    <circle id="connector1pin" cx="11.7" stroke="black" cy="4.5" stroke-width="1.44" r="1.98"  fill="none"/>
   </g>
  </g>
 </g>
 <g partID="74911">
  <g transform="translate(49.1404,14.1784)">
   <g id="copper1" >
    <!-- <rect width="55" x="35" y="35" fill="none" height="55" stroke="rgb(255, 191, 0)" stroke-width="20" /> -->
    <circle id="connector0pin" cx="4.5" stroke="black" cy="4.5" stroke-width="1.44" r="1.98"  fill="none"/>
    <circle id="connector1pin" cx="11.7" stroke="black" cy="4.5" stroke-width="1.44" r="1.98"  fill="none"/>
   </g>
  </g>
 </g>
 <g partID="12361331">
  <g transform="translate(16.9204,93.5584)">
   <g id="copper1" >
    <g id="copper0" >
     <rect id="square" y="2.34" height="3.96" stroke="black" x="2.34" width="3.96" stroke-width="1.44"  fill="none"/>
     <circle id="connector0pin" cx="4.32" stroke="black" cy="4.32" stroke-width="1.44" r="1.98"  fill="none"/>
     <circle id="connector17pin" cx="25.92" stroke="black" cy="4.32" stroke-width="1.44" r="1.98"  fill="none"/>
     <circle id="connector1pin" cx="4.32" stroke="black" cy="11.52" stroke-width="1.44" r="1.98"  fill="none"/>
     <circle id="connector16pin" cx="25.92" stroke="black" cy="11.52" stroke-width="1.44" r="1.98"  fill="none"/>
     <circle id="connector2pin" cx="4.32" stroke="black" cy="18.72" stroke-width="1.44" r="1.98"  fill="none"/>
     <circle id="connector15pin" cx="25.92" stroke="black" cy="18.72" stroke-width="1.44" r="1.98"  fill="none"/>
     <circle id="connector3pin" cx="4.32" stroke="black" cy="25.92" stroke-width="1.44" r="1.98"  fill="none"/>
     <circle id="connector14pin" cx="25.92" stroke="black" cy="25.92" stroke-width="1.44" r="1.98"  fill="none"/>
     <circle id="connector4pin" cx="4.32" stroke="black" cy="33.12" stroke-width="1.44" r="1.98"  fill="none"/>
     <circle id="connector13pin" cx="25.92" stroke="black" cy="33.12" stroke-width="1.44" r="1.98"  fill="none"/>
     <circle id="connector5pin" cx="4.32" stroke="black" cy="40.32" stroke-width="1.44" r="1.98"  fill="none"/>
     <circle id="connector12pin" cx="25.92" stroke="black" cy="40.32" stroke-width="1.44" r="1.98"  fill="none"/>
     <circle id="connector6pin" cx="4.32" stroke="black" cy="47.52" stroke-width="1.44" r="1.98"  fill="none"/>
     <circle id="connector11pin" cx="25.92" stroke="black" cy="47.52" stroke-width="1.44" r="1.98"  fill="none"/>
     <circle id="connector7pin" cx="4.32" stroke="black" cy="54.72" stroke-width="1.44" r="1.98"  fill="none"/>
     <circle id="connector10pin" cx="25.92" stroke="black" cy="54.72" stroke-width="1.44" r="1.98"  fill="none"/>
     <circle id="connector8pin" cx="4.32" stroke="black" cy="61.92" stroke-width="1.44" r="1.98"  fill="none"/>
     <circle id="connector9pin" cx="25.92" stroke="black" cy="61.92" stroke-width="1.44" r="1.98"  fill="none"/>
    </g>
   </g>
  </g>
 </g>
 <g partID="12308851">
  <g transform="translate(16.9204,14.3584)">
   <g id="copper1" >
    <g id="copper0" >
     <rect id="square" y="2.34" height="3.96" stroke="black" x="2.34" width="3.96" stroke-width="1.44"  fill="none"/>
     <circle id="connector0pin" cx="4.32" stroke="black" cy="4.32" stroke-width="1.44" r="1.98"  fill="none"/>
     <circle id="connector17pin" cx="25.92" stroke="black" cy="4.32" stroke-width="1.44" r="1.98"  fill="none"/>
     <circle id="connector1pin" cx="4.32" stroke="black" cy="11.52" stroke-width="1.44" r="1.98"  fill="none"/>
     <circle id="connector16pin" cx="25.92" stroke="black" cy="11.52" stroke-width="1.44" r="1.98"  fill="none"/>
     <circle id="connector2pin" cx="4.32" stroke="black" cy="18.72" stroke-width="1.44" r="1.98"  fill="none"/>
     <circle id="connector15pin" cx="25.92" stroke="black" cy="18.72" stroke-width="1.44" r="1.98"  fill="none"/>
     <circle id="connector3pin" cx="4.32" stroke="black" cy="25.92" stroke-width="1.44" r="1.98"  fill="none"/>
     <circle id="connector14pin" cx="25.92" stroke="black" cy="25.92" stroke-width="1.44" r="1.98"  fill="none"/>
     <circle id="connector4pin" cx="4.32" stroke="black" cy="33.12" stroke-width="1.44" r="1.98"  fill="none"/>
     <circle id="connector13pin" cx="25.92" stroke="black" cy="33.12" stroke-width="1.44" r="1.98"  fill="none"/>
     <circle id="connector5pin" cx="4.32" stroke="black" cy="40.32" stroke-width="1.44" r="1.98"  fill="none"/>
     <circle id="connector12pin" cx="25.92" stroke="black" cy="40.32" stroke-width="1.44" r="1.98"  fill="none"/>
     <circle id="connector6pin" cx="4.32" stroke="black" cy="47.52" stroke-width="1.44" r="1.98"  fill="none"/>
     <circle id="connector11pin" cx="25.92" stroke="black" cy="47.52" stroke-width="1.44" r="1.98"  fill="none"/>
     <circle id="connector7pin" cx="4.32" stroke="black" cy="54.72" stroke-width="1.44" r="1.98"  fill="none"/>
     <circle id="connector10pin" cx="25.92" stroke="black" cy="54.72" stroke-width="1.44" r="1.98"  fill="none"/>
     <circle id="connector8pin" cx="4.32" stroke="black" cy="61.92" stroke-width="1.44" r="1.98"  fill="none"/>
     <circle id="connector9pin" cx="25.92" stroke="black" cy="61.92" stroke-width="1.44" r="1.98"  fill="none"/>
    </g>
   </g>
  </g>
 </g>
 <g partID="12348781">
  <g transform="translate(40.6804,2.8384)">
   <g transform="matrix(0,1,-1,0,0,0)">
    <g id="copper1" >
     <g id="copper0" >
      <circle id="connector0pin" cx="5.04" stroke="black" cy="5.04" stroke-width="1.44" r="2.088"  fill="none"/>
      <circle id="connector1pin" cx="5.04" stroke="black" cy="12.24" stroke-width="1.44" r="2.088"  fill="none"/>
     </g>
    </g>
   </g>
  </g>
 </g>
 <g partID="12361351">
  <g transform="translate(1.8004,92.8384)">
   <g id="copper1" >
    <g id="copper0" >
     <circle id="connector0pin" cx="5.04" stroke="black" cy="5.04" stroke-width="1.44" r="2.088"  fill="none"/>
     <circle id="connector1pin" cx="5.04" stroke="black" cy="12.24" stroke-width="1.44" r="2.088"  fill="none"/>
     <circle id="connector2pin" cx="5.04" stroke="black" cy="19.44" stroke-width="1.44" r="2.088"  fill="none"/>
     <circle id="connector3pin" cx="5.04" stroke="black" cy="26.64" stroke-width="1.44" r="2.088"  fill="none"/>
    </g>
   </g>
  </g>
 </g>
 <g partID="12354831">
  <g transform="translate(1.8004,13.6384)">
   <g id="copper1" >
    <g id="copper0" >
     <circle id="connector0pin" cx="5.04" stroke="black" cy="5.04" stroke-width="1.44" r="2.088"  fill="none"/>
     <circle id="connector1pin" cx="5.04" stroke="black" cy="12.24" stroke-width="1.44" r="2.088"  fill="none"/>
     <circle id="connector2pin" cx="5.04" stroke="black" cy="19.44" stroke-width="1.44" r="2.088"  fill="none"/>
     <circle id="connector3pin" cx="5.04" stroke="black" cy="26.64" stroke-width="1.44" r="2.088"  fill="none"/>
    </g>
   </g>
  </g>
 </g>
 <g partID="12361361">
  <g transform="translate(1.8004,128.838)">
   <g id="copper1" >
    <g id="copper0" >
     <circle id="connector0pin" cx="5.04" stroke="black" cy="5.04" stroke-width="1.44" r="2.088"  fill="none"/>
     <circle id="connector1pin" cx="5.04" stroke="black" cy="12.24" stroke-width="1.44" r="2.088"  fill="none"/>
     <circle id="connector2pin" cx="5.04" stroke="black" cy="19.44" stroke-width="1.44" r="2.088"  fill="none"/>
     <circle id="connector3pin" cx="5.04" stroke="black" cy="26.64" stroke-width="1.44" r="2.088"  fill="none"/>
    </g>
   </g>
  </g>
 </g>
 <g partID="12354051">
  <g transform="translate(1.8004,49.6384)">
   <g id="copper1" >
    <g id="copper0" >
     <circle id="connector0pin" cx="5.04" stroke="black" cy="5.04" stroke-width="1.44" r="2.088"  fill="none"/>
     <circle id="connector1pin" cx="5.04" stroke="black" cy="12.24" stroke-width="1.44" r="2.088"  fill="none"/>
     <circle id="connector2pin" cx="5.04" stroke="black" cy="19.44" stroke-width="1.44" r="2.088"  fill="none"/>
     <circle id="connector3pin" cx="5.04" stroke="black" cy="26.64" stroke-width="1.44" r="2.088"  fill="none"/>
    </g>
   </g>
  </g>
 </g>
 <g partID="12361391">
  <g transform="translate(40.6804,161.238)">
   <g transform="matrix(0,1,-1,0,0,0)">
    <g id="copper1" >
     <g id="copper0" >
      <circle id="connector0pin" cx="5.04" stroke="black" cy="5.04" stroke-width="1.44" r="2.088"  fill="none"/>
      <circle id="connector1pin" cx="5.04" stroke="black" cy="12.24" stroke-width="1.44" r="2.088"  fill="none"/>
     </g>
    </g>
   </g>
  </g>
 </g>
</svg>
