<?xml version='1.0' encoding='UTF-8' standalone='no'?>
<!-- Created with Fritzing (http://www.fritzing.org/) -->
<svg xmlns="http://www.w3.org/2000/svg" viewBox="0 0 104.882 172.913" y="0in" xmlns:svg="http://www.w3.org/2000/svg" version="1.2" height="2.40157in" x="0in" width="1.45669in"  baseProfile="tiny">
 <g transform="matrix(-1, 0, 0, 1, 104.882, 0)">
  <g partID="57831">
   <g id="silkscreen0">
    <rect y="0.288" stroke="black" height="172.337" x="0.288" width="104.306" stroke-width="0.576" fill="none"/>
   </g>
  </g>
  <g partID="57830">
   <g id="board">
    <rect id="boardoutline" y="0.288" stroke="black" height="172.337" x="0.288" fill-opacity="0.5" width="104.306" stroke-width="0.5" fill="none"/>
   </g>
  </g>
  <g partID="57831">
   <g id="silkscreen0">
    <rect y="0.288" stroke="black" height="172.337" x="0.288" width="104.306" stroke-width="0.576" fill="none"/>
   </g>
  </g>
  <g partID="13140660">
   <g transform="translate(85.4644,92.4784)">
    <g id="copper0">
     <rect id="square" y="3.24" height="4.32" stroke="white" x="5.616" width="4.32" stroke-width="2.16" fill="white"/>
     <circle id="connector0pin" cx="7.776" stroke="white" cy="5.4" stroke-width="2.16" r="2.16" fill="white"/>
     <circle id="connector1pin" cx="7.776" stroke="white" cy="12.6" stroke-width="2.16" r="2.16" fill="white"/>
     <circle id="connector2pin" cx="7.776" stroke="white" cy="19.8" stroke-width="2.16" r="2.16" fill="white"/>
     <circle id="connector3pin" cx="7.776" stroke="white" cy="27" stroke-width="2.16" r="2.16" fill="white"/>
     <circle id="connector4pin" cx="7.776" stroke="white" cy="34.2" stroke-width="2.16" r="2.16" fill="white"/>
     <circle id="connector5pin" cx="7.776" stroke="white" cy="41.4" stroke-width="2.16" r="2.16" fill="white"/>
     <circle id="connector6pin" cx="7.776" stroke="white" cy="48.6" stroke-width="2.16" r="2.16" fill="white"/>
     <circle id="connector7pin" cx="7.776" stroke="white" cy="55.8" stroke-width="2.16" r="2.16" fill="white"/>
     <circle id="connector8pin" cx="7.776" stroke="white" cy="63" stroke-width="2.16" r="2.16" fill="white"/>
    </g>
   </g>
  </g>
  <g partID="13140650">
   <g transform="translate(71.0644,92.4784)">
    <g id="copper0">
     <rect id="square" y="3.24" height="4.32" stroke="white" x="5.616" width="4.32" stroke-width="2.16" fill="white"/>
     <circle id="connector0pin" cx="7.776" stroke="white" cy="5.4" stroke-width="2.16" r="2.16" fill="white"/>
     <circle id="connector1pin" cx="7.776" stroke="white" cy="12.6" stroke-width="2.16" r="2.16" fill="white"/>
     <circle id="connector2pin" cx="7.776" stroke="white" cy="19.8" stroke-width="2.16" r="2.16" fill="white"/>
     <circle id="connector3pin" cx="7.776" stroke="white" cy="27" stroke-width="2.16" r="2.16" fill="white"/>
     <circle id="connector4pin" cx="7.776" stroke="white" cy="34.2" stroke-width="2.16" r="2.16" fill="white"/>
     <circle id="connector5pin" cx="7.776" stroke="white" cy="41.4" stroke-width="2.16" r="2.16" fill="white"/>
     <circle id="connector6pin" cx="7.776" stroke="white" cy="48.6" stroke-width="2.16" r="2.16" fill="white"/>
     <circle id="connector7pin" cx="7.776" stroke="white" cy="55.8" stroke-width="2.16" r="2.16" fill="white"/>
     <circle id="connector8pin" cx="7.776" stroke="white" cy="63" stroke-width="2.16" r="2.16" fill="white"/>
    </g>
   </g>
  </g>
  <g partID="13139560">
   <g transform="translate(85.4644,13.2784)">
    <g id="copper0">
     <rect id="square" y="3.24" height="4.32" stroke="white" x="5.616" width="4.32" stroke-width="2.16" fill="white"/>
     <circle id="connector0pin" cx="7.776" stroke="white" cy="5.4" stroke-width="2.16" r="2.16" fill="white"/>
     <circle id="connector1pin" cx="7.776" stroke="white" cy="12.6" stroke-width="2.16" r="2.16" fill="white"/>
     <circle id="connector2pin" cx="7.776" stroke="white" cy="19.8" stroke-width="2.16" r="2.16" fill="white"/>
     <circle id="connector3pin" cx="7.776" stroke="white" cy="27" stroke-width="2.16" r="2.16" fill="white"/>
     <circle id="connector4pin" cx="7.776" stroke="white" cy="34.2" stroke-width="2.16" r="2.16" fill="white"/>
     <circle id="connector5pin" cx="7.776" stroke="white" cy="41.4" stroke-width="2.16" r="2.16" fill="white"/>
     <circle id="connector6pin" cx="7.776" stroke="white" cy="48.6" stroke-width="2.16" r="2.16" fill="white"/>
     <circle id="connector7pin" cx="7.776" stroke="white" cy="55.8" stroke-width="2.16" r="2.16" fill="white"/>
     <circle id="connector8pin" cx="7.776" stroke="white" cy="63" stroke-width="2.16" r="2.16" fill="white"/>
    </g>
   </g>
  </g>
  <g partID="13138770">
   <g transform="translate(71.0644,13.2784)">
    <g id="copper0">
     <rect id="square" y="3.24" height="4.32" stroke="white" x="5.616" width="4.32" stroke-width="2.16" fill="white"/>
     <circle id="connector0pin" cx="7.776" stroke="white" cy="5.4" stroke-width="2.16" r="2.16" fill="white"/>
     <circle id="connector1pin" cx="7.776" stroke="white" cy="12.6" stroke-width="2.16" r="2.16" fill="white"/>
     <circle id="connector2pin" cx="7.776" stroke="white" cy="19.8" stroke-width="2.16" r="2.16" fill="white"/>
     <circle id="connector3pin" cx="7.776" stroke="white" cy="27" stroke-width="2.16" r="2.16" fill="white"/>
     <circle id="connector4pin" cx="7.776" stroke="white" cy="34.2" stroke-width="2.16" r="2.16" fill="white"/>
     <circle id="connector5pin" cx="7.776" stroke="white" cy="41.4" stroke-width="2.16" r="2.16" fill="white"/>
     <circle id="connector6pin" cx="7.776" stroke="white" cy="48.6" stroke-width="2.16" r="2.16" fill="white"/>
     <circle id="connector7pin" cx="7.776" stroke="white" cy="55.8" stroke-width="2.16" r="2.16" fill="white"/>
     <circle id="connector8pin" cx="7.776" stroke="white" cy="63" stroke-width="2.16" r="2.16" fill="white"/>
    </g>
   </g>
  </g>
  <g partID="13056640">
   <g transform="translate(0.70496,1.74296)">
    <g id="copper0">
     <circle id="nonconn0" cx="6.13543" stroke="white" cy="6.13543" stroke-width="0.72" r="4.53543" fill="white"/>
    </g>
   </g>
  </g>
  <g partID="13056670">
   <g transform="translate(87.1052,1.74296)">
    <g id="copper0">
     <circle id="nonconn0" cx="6.13543" stroke="white" cy="6.13543" stroke-width="0.72" r="4.53543" fill="white"/>
    </g>
   </g>
  </g>
  <g partID="13056730">
   <g transform="translate(0.70496,160.143)">
    <g id="copper0">
     <circle id="nonconn0" cx="6.13543" stroke="white" cy="6.13543" stroke-width="0.72" r="4.53543" fill="white"/>
    </g>
   </g>
  </g>
  <g partID="13056760">
   <g transform="translate(87.1052,160.143)">
    <g id="copper0">
     <circle id="nonconn0" cx="6.13543" stroke="white" cy="6.13543" stroke-width="0.72" r="4.53543" fill="white"/>
    </g>
   </g>
  </g>
  <g partID="13147010">
   <g transform="translate(87.1052,80.9432)">
    <g id="copper0">
     <circle id="nonconn0" cx="6.13543" stroke="white" cy="6.13543" stroke-width="0.72" r="4.53543" fill="white"/>
    </g>
   </g>
  </g>
  <g partID="13056830">
   <g transform="translate(0.70488,80.9424)">
    <g id="copper0">
     <circle id="nonconn0" cx="6.13543" stroke="white" cy="6.13543" stroke-width="0.72" r="4.53543" fill="white"/>
    </g>
   </g>
  </g>
  <g partID="12361150">
   <g transform="translate(50.9404,143.778)">
    <g id="copper0">
     <g id="copper1">
      <!--  <rect width="55" x="10" y="35" fill="none" height="55" stroke="rgb(255, 191, 0)" stroke-width="20" /> -->
      <circle id="connector0pin" cx="2.7" stroke="white" cy="4.5" stroke-width="2.16" r="1.98" fill="white"/>
      <circle id="connector1pin" cx="9.9" stroke="white" cy="4.5" stroke-width="2.16" r="1.98" fill="white"/>
     </g>
    </g>
   </g>
  </g>
  <g partID="12301100">
   <g transform="translate(50.9404,64.5784)">
    <g id="copper0">
     <g id="copper1">
      <!--  <rect width="55" x="10" y="35" fill="none" height="55" stroke="rgb(255, 191, 0)" stroke-width="20" /> -->
      <circle id="connector0pin" cx="2.7" stroke="white" cy="4.5" stroke-width="2.16" r="1.98" fill="white"/>
      <circle id="connector1pin" cx="9.9" stroke="white" cy="4.5" stroke-width="2.16" r="1.98" fill="white"/>
     </g>
    </g>
   </g>
  </g>
  <g partID="12361160">
   <g transform="translate(50.9404,129.378)">
    <g id="copper0">
     <g id="copper1">
      <!--  <rect width="55" x="10" y="35" fill="none" height="55" stroke="rgb(255, 191, 0)" stroke-width="20" /> -->
      <circle id="connector0pin" cx="2.7" stroke="white" cy="4.5" stroke-width="2.16" r="1.98" fill="white"/>
      <circle id="connector1pin" cx="9.9" stroke="white" cy="4.5" stroke-width="2.16" r="1.98" fill="white"/>
     </g>
    </g>
   </g>
  </g>
  <g partID="12301080">
   <g transform="translate(50.9404,50.1784)">
    <g id="copper0">
     <g id="copper1">
      <!--  <rect width="55" x="10" y="35" fill="none" height="55" stroke="rgb(255, 191, 0)" stroke-width="20" /> -->
      <circle id="connector0pin" cx="2.7" stroke="white" cy="4.5" stroke-width="2.16" r="1.98" fill="white"/>
      <circle id="connector1pin" cx="9.9" stroke="white" cy="4.5" stroke-width="2.16" r="1.98" fill="white"/>
     </g>
    </g>
   </g>
  </g>
  <g partID="12361170">
   <g transform="translate(50.9404,114.978)">
    <g id="copper0">
     <g id="copper1">
      <!--  <rect width="55" x="10" y="35" fill="none" height="55" stroke="rgb(255, 191, 0)" stroke-width="20" /> -->
      <circle id="connector0pin" cx="2.7" stroke="white" cy="4.5" stroke-width="2.16" r="1.98" fill="white"/>
      <circle id="connector1pin" cx="9.9" stroke="white" cy="4.5" stroke-width="2.16" r="1.98" fill="white"/>
     </g>
    </g>
   </g>
  </g>
  <g partID="12301060">
   <g transform="translate(50.9404,35.7784)">
    <g id="copper0">
     <g id="copper1">
      <!--  <rect width="55" x="10" y="35" fill="none" height="55" stroke="rgb(255, 191, 0)" stroke-width="20" /> -->
      <circle id="connector0pin" cx="2.7" stroke="white" cy="4.5" stroke-width="2.16" r="1.98" fill="white"/>
      <circle id="connector1pin" cx="9.9" stroke="white" cy="4.5" stroke-width="2.16" r="1.98" fill="white"/>
     </g>
    </g>
   </g>
  </g>
  <g partID="12361180">
   <g transform="translate(50.9404,100.578)">
    <g id="copper0">
     <g id="copper1">
      <!--  <rect width="55" x="10" y="35" fill="none" height="55" stroke="rgb(255, 191, 0)" stroke-width="20" /> -->
      <circle id="connector0pin" cx="2.7" stroke="white" cy="4.5" stroke-width="2.16" r="1.98" fill="white"/>
      <circle id="connector1pin" cx="9.9" stroke="white" cy="4.5" stroke-width="2.16" r="1.98" fill="white"/>
     </g>
    </g>
   </g>
  </g>
  <g partID="12301040">
   <g transform="translate(50.9404,21.3784)">
    <g id="copper0">
     <g id="copper1">
      <!--  <rect width="55" x="10" y="35" fill="none" height="55" stroke="rgb(255, 191, 0)" stroke-width="20" /> -->
      <circle id="connector0pin" cx="2.7" stroke="white" cy="4.5" stroke-width="2.16" r="1.98" fill="white"/>
      <circle id="connector1pin" cx="9.9" stroke="white" cy="4.5" stroke-width="2.16" r="1.98" fill="white"/>
     </g>
    </g>
   </g>
  </g>
  <g partID="12361190">
   <g transform="translate(49.1404,136.578)">
    <g id="copper0">
     <g id="copper1">
      <!-- <rect width="55" x="35" y="35" fill="none" height="55" stroke="rgb(255, 191, 0)" stroke-width="20" /> -->
      <circle id="connector0pin" cx="4.5" stroke="white" cy="4.5" stroke-width="2.16" r="1.98" fill="white"/>
      <circle id="connector1pin" cx="11.7" stroke="white" cy="4.5" stroke-width="2.16" r="1.98" fill="white"/>
     </g>
    </g>
   </g>
  </g>
  <g partID="12301020">
   <g transform="translate(49.1404,57.3784)">
    <g id="copper0">
     <g id="copper1">
      <!-- <rect width="55" x="35" y="35" fill="none" height="55" stroke="rgb(255, 191, 0)" stroke-width="20" /> -->
      <circle id="connector0pin" cx="4.5" stroke="white" cy="4.5" stroke-width="2.16" r="1.98" fill="white"/>
      <circle id="connector1pin" cx="11.7" stroke="white" cy="4.5" stroke-width="2.16" r="1.98" fill="white"/>
     </g>
    </g>
   </g>
  </g>
  <g partID="12361200">
   <g transform="translate(49.1404,122.178)">
    <g id="copper0">
     <g id="copper1">
      <!-- <rect width="55" x="35" y="35" fill="none" height="55" stroke="rgb(255, 191, 0)" stroke-width="20" /> -->
      <circle id="connector0pin" cx="4.5" stroke="white" cy="4.5" stroke-width="2.16" r="1.98" fill="white"/>
      <circle id="connector1pin" cx="11.7" stroke="white" cy="4.5" stroke-width="2.16" r="1.98" fill="white"/>
     </g>
    </g>
   </g>
  </g>
  <g partID="12301000">
   <g transform="translate(49.1404,42.9784)">
    <g id="copper0">
     <g id="copper1">
      <!-- <rect width="55" x="35" y="35" fill="none" height="55" stroke="rgb(255, 191, 0)" stroke-width="20" /> -->
      <circle id="connector0pin" cx="4.5" stroke="white" cy="4.5" stroke-width="2.16" r="1.98" fill="white"/>
      <circle id="connector1pin" cx="11.7" stroke="white" cy="4.5" stroke-width="2.16" r="1.98" fill="white"/>
     </g>
    </g>
   </g>
  </g>
  <g partID="12361210">
   <g transform="translate(49.1404,107.778)">
    <g id="copper0">
     <g id="copper1">
      <!-- <rect width="55" x="35" y="35" fill="none" height="55" stroke="rgb(255, 191, 0)" stroke-width="20" /> -->
      <circle id="connector0pin" cx="4.5" stroke="white" cy="4.5" stroke-width="2.16" r="1.98" fill="white"/>
      <circle id="connector1pin" cx="11.7" stroke="white" cy="4.5" stroke-width="2.16" r="1.98" fill="white"/>
     </g>
    </g>
   </g>
  </g>
  <g partID="12300980">
   <g transform="translate(49.1404,28.5784)">
    <g id="copper0">
     <g id="copper1">
      <!-- <rect width="55" x="35" y="35" fill="none" height="55" stroke="rgb(255, 191, 0)" stroke-width="20" /> -->
      <circle id="connector0pin" cx="4.5" stroke="white" cy="4.5" stroke-width="2.16" r="1.98" fill="white"/>
      <circle id="connector1pin" cx="11.7" stroke="white" cy="4.5" stroke-width="2.16" r="1.98" fill="white"/>
     </g>
    </g>
   </g>
  </g>
  <g partID="12361220">
   <g transform="translate(49.1404,93.3784)">
    <g id="copper0">
     <g id="copper1">
      <!-- <rect width="55" x="35" y="35" fill="none" height="55" stroke="rgb(255, 191, 0)" stroke-width="20" /> -->
      <circle id="connector0pin" cx="4.5" stroke="white" cy="4.5" stroke-width="2.16" r="1.98" fill="white"/>
      <circle id="connector1pin" cx="11.7" stroke="white" cy="4.5" stroke-width="2.16" r="1.98" fill="white"/>
     </g>
    </g>
   </g>
  </g>
  <g partID="74910">
   <g transform="translate(49.1404,14.1784)">
    <g id="copper0">
     <g id="copper1">
      <!-- <rect width="55" x="35" y="35" fill="none" height="55" stroke="rgb(255, 191, 0)" stroke-width="20" /> -->
      <circle id="connector0pin" cx="4.5" stroke="white" cy="4.5" stroke-width="2.16" r="1.98" fill="white"/>
      <circle id="connector1pin" cx="11.7" stroke="white" cy="4.5" stroke-width="2.16" r="1.98" fill="white"/>
     </g>
    </g>
   </g>
  </g>
  <g partID="12361330">
   <g transform="translate(16.9204,93.5584)">
    <g id="copper0">
     <rect id="square" y="2.34" height="3.96" stroke="white" x="2.34" width="3.96" stroke-width="2.16" fill="white"/>
     <circle id="connector0pin" cx="4.32" stroke="white" cy="4.32" stroke-width="2.16" r="1.98" fill="white"/>
     <circle id="connector17pin" cx="25.92" stroke="white" cy="4.32" stroke-width="2.16" r="1.98" fill="white"/>
     <circle id="connector1pin" cx="4.32" stroke="white" cy="11.52" stroke-width="2.16" r="1.98" fill="white"/>
     <circle id="connector16pin" cx="25.92" stroke="white" cy="11.52" stroke-width="2.16" r="1.98" fill="white"/>
     <circle id="connector2pin" cx="4.32" stroke="white" cy="18.72" stroke-width="2.16" r="1.98" fill="white"/>
     <circle id="connector15pin" cx="25.92" stroke="white" cy="18.72" stroke-width="2.16" r="1.98" fill="white"/>
     <circle id="connector3pin" cx="4.32" stroke="white" cy="25.92" stroke-width="2.16" r="1.98" fill="white"/>
     <circle id="connector14pin" cx="25.92" stroke="white" cy="25.92" stroke-width="2.16" r="1.98" fill="white"/>
     <circle id="connector4pin" cx="4.32" stroke="white" cy="33.12" stroke-width="2.16" r="1.98" fill="white"/>
     <circle id="connector13pin" cx="25.92" stroke="white" cy="33.12" stroke-width="2.16" r="1.98" fill="white"/>
     <circle id="connector5pin" cx="4.32" stroke="white" cy="40.32" stroke-width="2.16" r="1.98" fill="white"/>
     <circle id="connector12pin" cx="25.92" stroke="white" cy="40.32" stroke-width="2.16" r="1.98" fill="white"/>
     <circle id="connector6pin" cx="4.32" stroke="white" cy="47.52" stroke-width="2.16" r="1.98" fill="white"/>
     <circle id="connector11pin" cx="25.92" stroke="white" cy="47.52" stroke-width="2.16" r="1.98" fill="white"/>
     <circle id="connector7pin" cx="4.32" stroke="white" cy="54.72" stroke-width="2.16" r="1.98" fill="white"/>
     <circle id="connector10pin" cx="25.92" stroke="white" cy="54.72" stroke-width="2.16" r="1.98" fill="white"/>
     <circle id="connector8pin" cx="4.32" stroke="white" cy="61.92" stroke-width="2.16" r="1.98" fill="white"/>
     <circle id="connector9pin" cx="25.92" stroke="white" cy="61.92" stroke-width="2.16" r="1.98" fill="white"/>
    </g>
   </g>
  </g>
  <g partID="12308850">
   <g transform="translate(16.9204,14.3584)">
    <g id="copper0">
     <rect id="square" y="2.34" height="3.96" stroke="white" x="2.34" width="3.96" stroke-width="2.16" fill="white"/>
     <circle id="connector0pin" cx="4.32" stroke="white" cy="4.32" stroke-width="2.16" r="1.98" fill="white"/>
     <circle id="connector17pin" cx="25.92" stroke="white" cy="4.32" stroke-width="2.16" r="1.98" fill="white"/>
     <circle id="connector1pin" cx="4.32" stroke="white" cy="11.52" stroke-width="2.16" r="1.98" fill="white"/>
     <circle id="connector16pin" cx="25.92" stroke="white" cy="11.52" stroke-width="2.16" r="1.98" fill="white"/>
     <circle id="connector2pin" cx="4.32" stroke="white" cy="18.72" stroke-width="2.16" r="1.98" fill="white"/>
     <circle id="connector15pin" cx="25.92" stroke="white" cy="18.72" stroke-width="2.16" r="1.98" fill="white"/>
     <circle id="connector3pin" cx="4.32" stroke="white" cy="25.92" stroke-width="2.16" r="1.98" fill="white"/>
     <circle id="connector14pin" cx="25.92" stroke="white" cy="25.92" stroke-width="2.16" r="1.98" fill="white"/>
     <circle id="connector4pin" cx="4.32" stroke="white" cy="33.12" stroke-width="2.16" r="1.98" fill="white"/>
     <circle id="connector13pin" cx="25.92" stroke="white" cy="33.12" stroke-width="2.16" r="1.98" fill="white"/>
     <circle id="connector5pin" cx="4.32" stroke="white" cy="40.32" stroke-width="2.16" r="1.98" fill="white"/>
     <circle id="connector12pin" cx="25.92" stroke="white" cy="40.32" stroke-width="2.16" r="1.98" fill="white"/>
     <circle id="connector6pin" cx="4.32" stroke="white" cy="47.52" stroke-width="2.16" r="1.98" fill="white"/>
     <circle id="connector11pin" cx="25.92" stroke="white" cy="47.52" stroke-width="2.16" r="1.98" fill="white"/>
     <circle id="connector7pin" cx="4.32" stroke="white" cy="54.72" stroke-width="2.16" r="1.98" fill="white"/>
     <circle id="connector10pin" cx="25.92" stroke="white" cy="54.72" stroke-width="2.16" r="1.98" fill="white"/>
     <circle id="connector8pin" cx="4.32" stroke="white" cy="61.92" stroke-width="2.16" r="1.98" fill="white"/>
     <circle id="connector9pin" cx="25.92" stroke="white" cy="61.92" stroke-width="2.16" r="1.98" fill="white"/>
    </g>
   </g>
  </g>
  <g partID="12348780">
   <g transform="translate(40.6804,2.8384)">
    <g transform="matrix(0,1,-1,0,0,0)">
     <g id="copper0">
      <circle id="connector0pin" cx="5.04" stroke="white" cy="5.04" stroke-width="2.16" r="2.088" fill="white"/>
      <circle id="connector1pin" cx="5.04" stroke="white" cy="12.24" stroke-width="2.16" r="2.088" fill="white"/>
     </g>
    </g>
   </g>
  </g>
  <g partID="12361350">
   <g transform="translate(1.8004,92.8384)">
    <g id="copper0">
     <circle id="connector0pin" cx="5.04" stroke="white" cy="5.04" stroke-width="2.16" r="2.088" fill="white"/>
     <circle id="connector1pin" cx="5.04" stroke="white" cy="12.24" stroke-width="2.16" r="2.088" fill="white"/>
     <circle id="connector2pin" cx="5.04" stroke="white" cy="19.44" stroke-width="2.16" r="2.088" fill="white"/>
     <circle id="connector3pin" cx="5.04" stroke="white" cy="26.64" stroke-width="2.16" r="2.088" fill="white"/>
    </g>
   </g>
  </g>
  <g partID="12354830">
   <g transform="translate(1.8004,13.6384)">
    <g id="copper0">
     <circle id="connector0pin" cx="5.04" stroke="white" cy="5.04" stroke-width="2.16" r="2.088" fill="white"/>
     <circle id="connector1pin" cx="5.04" stroke="white" cy="12.24" stroke-width="2.16" r="2.088" fill="white"/>
     <circle id="connector2pin" cx="5.04" stroke="white" cy="19.44" stroke-width="2.16" r="2.088" fill="white"/>
     <circle id="connector3pin" cx="5.04" stroke="white" cy="26.64" stroke-width="2.16" r="2.088" fill="white"/>
    </g>
   </g>
  </g>
  <g partID="12361360">
   <g transform="translate(1.8004,128.838)">
    <g id="copper0">
     <circle id="connector0pin" cx="5.04" stroke="white" cy="5.04" stroke-width="2.16" r="2.088" fill="white"/>
     <circle id="connector1pin" cx="5.04" stroke="white" cy="12.24" stroke-width="2.16" r="2.088" fill="white"/>
     <circle id="connector2pin" cx="5.04" stroke="white" cy="19.44" stroke-width="2.16" r="2.088" fill="white"/>
     <circle id="connector3pin" cx="5.04" stroke="white" cy="26.64" stroke-width="2.16" r="2.088" fill="white"/>
    </g>
   </g>
  </g>
  <g partID="12354050">
   <g transform="translate(1.8004,49.6384)">
    <g id="copper0">
     <circle id="connector0pin" cx="5.04" stroke="white" cy="5.04" stroke-width="2.16" r="2.088" fill="white"/>
     <circle id="connector1pin" cx="5.04" stroke="white" cy="12.24" stroke-width="2.16" r="2.088" fill="white"/>
     <circle id="connector2pin" cx="5.04" stroke="white" cy="19.44" stroke-width="2.16" r="2.088" fill="white"/>
     <circle id="connector3pin" cx="5.04" stroke="white" cy="26.64" stroke-width="2.16" r="2.088" fill="white"/>
    </g>
   </g>
  </g>
  <g partID="12361390">
   <g transform="translate(40.6804,161.238)">
    <g transform="matrix(0,1,-1,0,0,0)">
     <g id="copper0">
      <circle id="connector0pin" cx="5.04" stroke="white" cy="5.04" stroke-width="2.16" r="2.088" fill="white"/>
      <circle id="connector1pin" cx="5.04" stroke="white" cy="12.24" stroke-width="2.16" r="2.088" fill="white"/>
     </g>
    </g>
   </g>
  </g>
 </g>
</svg>
