<?xml version='1.0' encoding='UTF-8' standalone='no'?>
<!-- Created with Fritzing (http://www.fritzing.org/) -->
<svg xmlns="http://www.w3.org/2000/svg" viewBox="0 0 104.882 172.913" y="0in" xmlns:svg="http://www.w3.org/2000/svg" version="1.2" height="2.40157in" x="0in" width="1.45669in"  baseProfile="tiny">
 <g transform="matrix(-1, 0, 0, 1, 104.882, 0)">
  <g partID="57832">
   <g id="silkscreen">
    <rect y="0.288" stroke="black" height="172.337" x="0.288" width="104.306" stroke-width="0.576" fill="none"/>
   </g>
  </g>
  <g partID="57830">
   <g id="board">
    <rect id="boardoutline" y="0.288" stroke="black" height="172.337" x="0.288" fill-opacity="0.5" width="104.306" stroke-width="0.5" fill="none"/>
   </g>
  </g>
  <g partID="13135980">
   <g transform="translate(72.01,24.0457)">
    <g transform="matrix(0,1,-1,0,0,0)">
     <g id="silkscreen">
      <text id="label" font-family="OCRA" font-size="7.2" y="6.48" xml:space="preserve" x="64.8" stroke-width="0" xmlns:xml="http://www.w3.org/XML/1998/namespace" fill="black" text-anchor="middle">sekt1953@gmail.com</text>
     </g>
    </g>
   </g>
  </g>
  <g partID="13140662">
   <g transform="translate(85.4644,92.4784)">
    <g id="silkscreen">
     <line x1="1.44" id="vertical-left" stroke="black" x2="1.44" stroke-width="0.72" y2="66.96" y1="1.44"/>
     <line x1="1.44" id="bottom" stroke="black" x2="16.992" stroke-width="0.72" y2="66.96" y1="66.96"/>
     <line x1="16.992" id="vertical-right" stroke="black" x2="16.992" stroke-width="0.72" y2="1.44" y1="66.96"/>
     <line x1="16.992" id="top" stroke="black" x2="1.44" stroke-width="0.72" y2="1.44" y1="1.44"/>
     <line x1="14.112" id="mid-vertical" stroke="black" x2="14.112" stroke-width="0.36" y2="1.44" y1="66.96"/>
    </g>
   </g>
  </g>
  <g partID="13140652">
   <g transform="translate(71.0644,92.4784)">
    <g id="silkscreen">
     <line x1="1.44" id="vertical-left" stroke="black" x2="1.44" stroke-width="0.72" y2="66.96" y1="1.44"/>
     <line x1="1.44" id="bottom" stroke="black" x2="16.992" stroke-width="0.72" y2="66.96" y1="66.96"/>
     <line x1="16.992" id="vertical-right" stroke="black" x2="16.992" stroke-width="0.72" y2="1.44" y1="66.96"/>
     <line x1="16.992" id="top" stroke="black" x2="1.44" stroke-width="0.72" y2="1.44" y1="1.44"/>
     <line x1="14.112" id="mid-vertical" stroke="black" x2="14.112" stroke-width="0.36" y2="1.44" y1="66.96"/>
    </g>
   </g>
  </g>
  <g partID="13139562">
   <g transform="translate(85.4644,13.2784)">
    <g id="silkscreen">
     <line x1="1.44" id="vertical-left" stroke="black" x2="1.44" stroke-width="0.72" y2="66.96" y1="1.44"/>
     <line x1="1.44" id="bottom" stroke="black" x2="16.992" stroke-width="0.72" y2="66.96" y1="66.96"/>
     <line x1="16.992" id="vertical-right" stroke="black" x2="16.992" stroke-width="0.72" y2="1.44" y1="66.96"/>
     <line x1="16.992" id="top" stroke="black" x2="1.44" stroke-width="0.72" y2="1.44" y1="1.44"/>
     <line x1="14.112" id="mid-vertical" stroke="black" x2="14.112" stroke-width="0.36" y2="1.44" y1="66.96"/>
    </g>
   </g>
  </g>
  <g partID="13138772">
   <g transform="translate(71.0644,13.2784)">
    <g id="silkscreen">
     <line x1="1.44" id="vertical-left" stroke="black" x2="1.44" stroke-width="0.72" y2="66.96" y1="1.44"/>
     <line x1="1.44" id="bottom" stroke="black" x2="16.992" stroke-width="0.72" y2="66.96" y1="66.96"/>
     <line x1="16.992" id="vertical-right" stroke="black" x2="16.992" stroke-width="0.72" y2="1.44" y1="66.96"/>
     <line x1="16.992" id="top" stroke="black" x2="1.44" stroke-width="0.72" y2="1.44" y1="1.44"/>
     <line x1="14.112" id="mid-vertical" stroke="black" x2="14.112" stroke-width="0.36" y2="1.44" y1="66.96"/>
    </g>
   </g>
  </g>
  <g partID="13131970">
   <g transform="translate(17.1376,89.8491)">
    <g transform="matrix(0,1,-1,0,0,0)">
     <g id="silkscreen">
      <text id="label" font-family="OCRA" font-size="5.45124" y="4.90612" xml:space="preserve" x="35.4331" stroke-width="0" xmlns:xml="http://www.w3.org/XML/1998/namespace" fill="black" text-anchor="middle">20240810 1415</text>
     </g>
    </g>
   </g>
  </g>
  <g partID="57832">
   <g id="silkscreen">
    <rect y="0.288" stroke="black" height="172.337" x="0.288" width="104.306" stroke-width="0.576" fill="none"/>
   </g>
  </g>
  <g partID="12361152">
   <g transform="translate(50.9404,143.778)">
    <g id="silkscreen">
     <circle cx="9.9" stroke="black" cy="4.5" stroke-width="0.72" r="4.104" fill="none"/>
     <rect y="3.78" stroke="black" height="1.44" x="5.58" width="1.44" stroke-width="0.72" fill="black"/>
    </g>
   </g>
  </g>
  <g partID="12301102">
   <g transform="translate(50.9404,64.5784)">
    <g id="silkscreen">
     <circle cx="9.9" stroke="black" cy="4.5" stroke-width="0.72" r="4.104" fill="none"/>
     <rect y="3.78" stroke="black" height="1.44" x="5.58" width="1.44" stroke-width="0.72" fill="black"/>
    </g>
   </g>
  </g>
  <g partID="12361162">
   <g transform="translate(50.9404,129.378)">
    <g id="silkscreen">
     <circle cx="9.9" stroke="black" cy="4.5" stroke-width="0.72" r="4.104" fill="none"/>
     <rect y="3.78" stroke="black" height="1.44" x="5.58" width="1.44" stroke-width="0.72" fill="black"/>
    </g>
   </g>
  </g>
  <g partID="12301082">
   <g transform="translate(50.9404,50.1784)">
    <g id="silkscreen">
     <circle cx="9.9" stroke="black" cy="4.5" stroke-width="0.72" r="4.104" fill="none"/>
     <rect y="3.78" stroke="black" height="1.44" x="5.58" width="1.44" stroke-width="0.72" fill="black"/>
    </g>
   </g>
  </g>
  <g partID="12361172">
   <g transform="translate(50.9404,114.978)">
    <g id="silkscreen">
     <circle cx="9.9" stroke="black" cy="4.5" stroke-width="0.72" r="4.104" fill="none"/>
     <rect y="3.78" stroke="black" height="1.44" x="5.58" width="1.44" stroke-width="0.72" fill="black"/>
    </g>
   </g>
  </g>
  <g partID="12301062">
   <g transform="translate(50.9404,35.7784)">
    <g id="silkscreen">
     <circle cx="9.9" stroke="black" cy="4.5" stroke-width="0.72" r="4.104" fill="none"/>
     <rect y="3.78" stroke="black" height="1.44" x="5.58" width="1.44" stroke-width="0.72" fill="black"/>
    </g>
   </g>
  </g>
  <g partID="12361182">
   <g transform="translate(50.9404,100.578)">
    <g id="silkscreen">
     <circle cx="9.9" stroke="black" cy="4.5" stroke-width="0.72" r="4.104" fill="none"/>
     <rect y="3.78" stroke="black" height="1.44" x="5.58" width="1.44" stroke-width="0.72" fill="black"/>
    </g>
   </g>
  </g>
  <g partID="12301042">
   <g transform="translate(50.9404,21.3784)">
    <g id="silkscreen">
     <circle cx="9.9" stroke="black" cy="4.5" stroke-width="0.72" r="4.104" fill="none"/>
     <rect y="3.78" stroke="black" height="1.44" x="5.58" width="1.44" stroke-width="0.72" fill="black"/>
    </g>
   </g>
  </g>
  <g partID="12361192">
   <g transform="translate(49.1404,136.578)">
    <g id="silkscreen">
     <circle cx="4.5" stroke="black" cy="4.5" stroke-width="0.72" r="4.104" fill="none"/>
     <rect y="3.78" stroke="black" height="1.44" x="7.38" width="1.44" stroke-width="0.72" fill="black"/>
    </g>
   </g>
  </g>
  <g partID="12301022">
   <g transform="translate(49.1404,57.3784)">
    <g id="silkscreen">
     <circle cx="4.5" stroke="black" cy="4.5" stroke-width="0.72" r="4.104" fill="none"/>
     <rect y="3.78" stroke="black" height="1.44" x="7.38" width="1.44" stroke-width="0.72" fill="black"/>
    </g>
   </g>
  </g>
  <g partID="12361202">
   <g transform="translate(49.1404,122.178)">
    <g id="silkscreen">
     <circle cx="4.5" stroke="black" cy="4.5" stroke-width="0.72" r="4.104" fill="none"/>
     <rect y="3.78" stroke="black" height="1.44" x="7.38" width="1.44" stroke-width="0.72" fill="black"/>
    </g>
   </g>
  </g>
  <g partID="12301002">
   <g transform="translate(49.1404,42.9784)">
    <g id="silkscreen">
     <circle cx="4.5" stroke="black" cy="4.5" stroke-width="0.72" r="4.104" fill="none"/>
     <rect y="3.78" stroke="black" height="1.44" x="7.38" width="1.44" stroke-width="0.72" fill="black"/>
    </g>
   </g>
  </g>
  <g partID="12361212">
   <g transform="translate(49.1404,107.778)">
    <g id="silkscreen">
     <circle cx="4.5" stroke="black" cy="4.5" stroke-width="0.72" r="4.104" fill="none"/>
     <rect y="3.78" stroke="black" height="1.44" x="7.38" width="1.44" stroke-width="0.72" fill="black"/>
    </g>
   </g>
  </g>
  <g partID="12300982">
   <g transform="translate(49.1404,28.5784)">
    <g id="silkscreen">
     <circle cx="4.5" stroke="black" cy="4.5" stroke-width="0.72" r="4.104" fill="none"/>
     <rect y="3.78" stroke="black" height="1.44" x="7.38" width="1.44" stroke-width="0.72" fill="black"/>
    </g>
   </g>
  </g>
  <g partID="12361222">
   <g transform="translate(49.1404,93.3784)">
    <g id="silkscreen">
     <circle cx="4.5" stroke="black" cy="4.5" stroke-width="0.72" r="4.104" fill="none"/>
     <rect y="3.78" stroke="black" height="1.44" x="7.38" width="1.44" stroke-width="0.72" fill="black"/>
    </g>
   </g>
  </g>
  <g partID="74912">
   <g transform="translate(49.1404,14.1784)">
    <g id="silkscreen">
     <circle cx="4.5" stroke="black" cy="4.5" stroke-width="0.72" r="4.104" fill="none"/>
     <rect y="3.78" stroke="black" height="1.44" x="7.38" width="1.44" stroke-width="0.72" fill="black"/>
    </g>
   </g>
  </g>
  <g partID="12361332">
   <g transform="translate(16.9204,93.5584)">
    <g id="silkscreen">
     <line x1="0.72" stroke="black" x2="0.72" stroke-width="0.72" y2="65.52" y1="0.72"/>
     <line x1="0.72" stroke="black" x2="29.52" stroke-width="0.72" y2="65.52" y1="65.52"/>
     <line x1="29.52" stroke="black" x2="29.52" stroke-width="0.72" y2="0.72" y1="65.52"/>
     <line x1="0.72" stroke="black" x2="11.52" stroke-width="0.72" y2="0.72" y1="0.72"/>
     <line x1="18.72" stroke="black" x2="29.52" stroke-width="0.72" y2="0.72" y1="0.72"/>
    </g>
   </g>
  </g>
  <g partID="12308852">
   <g transform="translate(16.9204,14.3584)">
    <g id="silkscreen">
     <line x1="0.72" stroke="black" x2="0.72" stroke-width="0.72" y2="65.52" y1="0.72"/>
     <line x1="0.72" stroke="black" x2="29.52" stroke-width="0.72" y2="65.52" y1="65.52"/>
     <line x1="29.52" stroke="black" x2="29.52" stroke-width="0.72" y2="0.72" y1="65.52"/>
     <line x1="0.72" stroke="black" x2="11.52" stroke-width="0.72" y2="0.72" y1="0.72"/>
     <line x1="18.72" stroke="black" x2="29.52" stroke-width="0.72" y2="0.72" y1="0.72"/>
    </g>
   </g>
  </g>
  <g partID="12348782">
   <g transform="translate(40.6804,2.8384)">
    <g transform="matrix(0,1,-1,0,0,0)">
     <g id="silkscreen">
      <line x1="1.44" stroke="black" x2="1.44" stroke-width="0.72" y2="15.84" y1="1.44"/>
      <line x1="1.44" stroke="black" x2="8.64" stroke-width="0.72" y2="15.84" y1="15.84"/>
      <line x1="8.64" stroke="black" x2="8.64" stroke-width="0.72" y2="1.44" y1="15.84"/>
      <line x1="8.64" stroke="black" x2="1.44" stroke-width="0.72" y2="1.44" y1="1.44"/>
      <line x1="1.44" stroke="black" x2="3.96" stroke-width="0.36" y2="1.44" y1="3.96"/>
      <!-- 120 -->
     </g>
    </g>
   </g>
  </g>
  <g partID="12361352">
   <g transform="translate(1.8004,92.8384)">
    <g id="silkscreen">
     <line x1="1.44" stroke="black" x2="1.44" stroke-width="0.72" y2="30.24" y1="1.44"/>
     <line x1="1.44" stroke="black" x2="8.64" stroke-width="0.72" y2="30.24" y1="30.24"/>
     <line x1="8.64" stroke="black" x2="8.64" stroke-width="0.72" y2="1.44" y1="30.24"/>
     <line x1="8.64" stroke="black" x2="1.44" stroke-width="0.72" y2="1.44" y1="1.44"/>
     <line x1="1.44" stroke="black" x2="3.96" stroke-width="0.36" y2="1.44" y1="3.96"/>
     <!-- 120 -->
    </g>
   </g>
  </g>
  <g partID="12354832">
   <g transform="translate(1.8004,13.6384)">
    <g id="silkscreen">
     <line x1="1.44" stroke="black" x2="1.44" stroke-width="0.72" y2="30.24" y1="1.44"/>
     <line x1="1.44" stroke="black" x2="8.64" stroke-width="0.72" y2="30.24" y1="30.24"/>
     <line x1="8.64" stroke="black" x2="8.64" stroke-width="0.72" y2="1.44" y1="30.24"/>
     <line x1="8.64" stroke="black" x2="1.44" stroke-width="0.72" y2="1.44" y1="1.44"/>
     <line x1="1.44" stroke="black" x2="3.96" stroke-width="0.36" y2="1.44" y1="3.96"/>
     <!-- 120 -->
    </g>
   </g>
  </g>
  <g partID="12361362">
   <g transform="translate(1.8004,128.838)">
    <g id="silkscreen">
     <line x1="1.44" stroke="black" x2="1.44" stroke-width="0.72" y2="30.24" y1="1.44"/>
     <line x1="1.44" stroke="black" x2="8.64" stroke-width="0.72" y2="30.24" y1="30.24"/>
     <line x1="8.64" stroke="black" x2="8.64" stroke-width="0.72" y2="1.44" y1="30.24"/>
     <line x1="8.64" stroke="black" x2="1.44" stroke-width="0.72" y2="1.44" y1="1.44"/>
     <line x1="1.44" stroke="black" x2="3.96" stroke-width="0.36" y2="1.44" y1="3.96"/>
     <!-- 120 -->
    </g>
   </g>
  </g>
  <g partID="12354052">
   <g transform="translate(1.8004,49.6384)">
    <g id="silkscreen">
     <line x1="1.44" stroke="black" x2="1.44" stroke-width="0.72" y2="30.24" y1="1.44"/>
     <line x1="1.44" stroke="black" x2="8.64" stroke-width="0.72" y2="30.24" y1="30.24"/>
     <line x1="8.64" stroke="black" x2="8.64" stroke-width="0.72" y2="1.44" y1="30.24"/>
     <line x1="8.64" stroke="black" x2="1.44" stroke-width="0.72" y2="1.44" y1="1.44"/>
     <line x1="1.44" stroke="black" x2="3.96" stroke-width="0.36" y2="1.44" y1="3.96"/>
     <!-- 120 -->
    </g>
   </g>
  </g>
  <g partID="12361392">
   <g transform="translate(40.6804,161.238)">
    <g transform="matrix(0,1,-1,0,0,0)">
     <g id="silkscreen">
      <line x1="1.44" stroke="black" x2="1.44" stroke-width="0.72" y2="15.84" y1="1.44"/>
      <line x1="1.44" stroke="black" x2="8.64" stroke-width="0.72" y2="15.84" y1="15.84"/>
      <line x1="8.64" stroke="black" x2="8.64" stroke-width="0.72" y2="1.44" y1="15.84"/>
      <line x1="8.64" stroke="black" x2="1.44" stroke-width="0.72" y2="1.44" y1="1.44"/>
      <line x1="1.44" stroke="black" x2="3.96" stroke-width="0.36" y2="1.44" y1="3.96"/>
      <!-- 120 -->
     </g>
    </g>
   </g>
  </g>
  <g partID="12312220">
   <g transform="translate(17.0734,3.96464)">
    <g transform="matrix(0,1,-1,0,0,0)">
     <g id="silkscreen">
      <text id="label" font-family="OCRA" font-size="5.45125" y="4.90612" xml:space="preserve" x="46.3356" stroke-width="0" xmlns:xml="http://www.w3.org/XML/1998/namespace" fill="black" text-anchor="middle">Signal Led Driver</text>
     </g>
    </g>
   </g>
  </g>
  <g partID="13160670">
   <g transform="translate(15.692,162.434)">
    <g id="silkscreen">
     <text id="label" font-family="OCRA" y="6.48" font-size="7.2" xml:space="preserve" x="3.6" stroke-width="0" xmlns:xml="http://www.w3.org/XML/1998/namespace" fill="black" text-anchor="middle">-</text>
    </g>
   </g>
  </g>
  <g partID="13160690">
   <g transform="translate(16.6317,4.12624)">
    <g id="silkscreen">
     <text id="label" font-family="OCRA" y="6.63587" font-size="7.37323" xml:space="preserve" x="3.68662" stroke-width="0" xmlns:xml="http://www.w3.org/XML/1998/namespace" fill="black" text-anchor="middle">-</text>
    </g>
   </g>
  </g>
  <g partID="13160650">
   <g transform="translate(40.8981,162.871)">
    <g id="silkscreen">
     <text id="label" font-family="OCRA" y="6.48" font-size="7.2" xml:space="preserve" x="3.6" stroke-width="0" xmlns:xml="http://www.w3.org/XML/1998/namespace" fill="black" text-anchor="middle">+</text>
    </g>
   </g>
  </g>
  <g partID="13160620">
   <g transform="translate(40.6811,2.55005)">
    <g id="silkscreen">
     <text id="label" font-family="OCRA" y="8.35063" font-size="9.2785" xml:space="preserve" x="4.63925" stroke-width="0" xmlns:xml="http://www.w3.org/XML/1998/namespace" fill="black" text-anchor="middle">+</text>
    </g>
   </g>
  </g>
  <g partID="12301100" id="partLabel">
   <g transform="translate(52.8604,74.9264)">
    <g transform="matrix(1,0,0,1,0,0)">
     <g id="silkscreenLabel" font-family="'OCRA'" font-size="5" stroke="none" fill-opacity="1" fill="#000000" font-style="normal" font-weight="normal">
      <text y="3.75" x="0">R10</text>
     </g>
    </g>
   </g>
  </g>
  <g partID="12361220" id="partLabel">
   <g transform="translate(51.7476,88.6344)">
    <g id="silkscreenLabel" font-family="'OCRA'" font-size="5" stroke="none" fill-opacity="1" fill="#000000" font-style="normal" font-weight="normal">
     <text y="3.75" x="0">R11</text>
    </g>
   </g>
  </g>
  <g partID="12361150" id="partLabel">
   <g transform="translate(51.9116,153.855)">
    <g transform="matrix(1,0,0,1,0,0)">
     <g id="silkscreenLabel" font-family="'OCRA'" font-size="5" stroke="none" fill-opacity="1" fill="#000000" font-style="normal" font-weight="normal">
      <text y="3.75" x="0">R18</text>
     </g>
    </g>
   </g>
  </g>
  <g partID="74910" id="partLabel">
   <g transform="translate(54.7292,10.6541)">
    <g id="silkscreenLabel" font-family="'OCRA'" font-size="5" stroke="none" fill-opacity="1" fill="#000000" font-style="normal" font-weight="normal">
     <text y="3.75" x="0">R3</text>
    </g>
   </g>
  </g>
  <g partID="12361330" id="partLabel">
   <g transform="translate(37.01,96.7184)">
    <g transform="matrix(0,1,-1,0,0,0)">
     <g id="silkscreenLabel" font-family="'OCRA'" font-size="5" stroke="none" fill-opacity="1" fill="#000000" font-style="normal" font-weight="normal">
      <text y="3.75" x="0">IC2</text>
      <text y="8.75" x="0">ULN2803A</text>
     </g>
    </g>
   </g>
  </g>
  <g partID="12308850" id="partLabel">
   <g transform="translate(37.01,17.5182)">
    <g transform="matrix(0,1,-1,0,0,0)">
     <g id="silkscreenLabel" font-family="'OCRA'" font-size="5" stroke="none" fill-opacity="1" fill="#000000" font-style="normal" font-weight="normal">
      <text y="3.75" x="0">IC1</text>
      <text y="8.75" x="0">ULN2803A</text>
     </g>
    </g>
   </g>
  </g>
  <g partID="12361390" id="partLabel">
   <g transform="translate(33.1988,158.835)">
    <g id="silkscreenLabel" font-family="'OCRA'" font-size="5" stroke="none" fill-opacity="1" fill="#000000" font-style="normal" font-weight="normal">
     <text y="3.75" x="0">J6</text>
    </g>
   </g>
  </g>
  <g partID="12348780" id="partLabel">
   <g transform="translate(32.3516,0.62184)">
    <g id="silkscreenLabel" font-family="'OCRA'" font-size="5" stroke="none" fill-opacity="1" fill="#000000" font-style="normal" font-weight="normal">
     <text y="3.75" x="0">J5</text>
    </g>
   </g>
  </g>
  <g partID="12361360" id="partLabel">
   <g transform="translate(3.44056,125.128)">
    <g id="silkscreenLabel" font-family="'OCRA'" font-size="5" stroke="none" fill-opacity="1" fill="#000000" font-style="normal" font-weight="normal">
     <text y="3.75" x="0">J4</text>
    </g>
   </g>
  </g>
  <g partID="12354050" id="partLabel">
   <g transform="translate(3.44056,45.9279)">
    <g id="silkscreenLabel" font-family="'OCRA'" font-size="5" stroke="none" fill-opacity="1" fill="#000000" font-style="normal" font-weight="normal">
     <text y="3.75" x="0">J2</text>
    </g>
   </g>
  </g>
  <g partID="12354830" id="partLabel">
   <g transform="translate(9.56944,9.55)">
    <g id="silkscreenLabel" font-family="'OCRA'" font-size="5" stroke="none" fill-opacity="1" fill="#000000" font-style="normal" font-weight="normal">
     <text y="3.75" x="0">J1</text>
    </g>
   </g>
  </g>
  <g partID="12361350" id="partLabel">
   <g transform="translate(9.30496,89.4808)">
    <g id="silkscreenLabel" font-family="'OCRA'" font-size="5" stroke="none" fill-opacity="1" fill="#000000" font-style="normal" font-weight="normal">
     <text y="3.75" x="0">J3</text>
    </g>
   </g>
  </g>
  <g partID="13140650" id="partLabel">
   <g transform="translate(74.9004,88.6208)">
    <g id="silkscreenLabel" font-family="'OCRA'" font-size="5" stroke="none" fill-opacity="1" fill="#000000" font-style="normal" font-weight="normal">
     <text y="3.75" x="0">J9</text>
    </g>
   </g>
  </g>
  <g partID="13139560" id="partLabel">
   <g transform="translate(96.7844,9.60432)">
    <g id="silkscreenLabel" font-family="'OCRA'" font-size="5" stroke="none" fill-opacity="1" fill="#000000" font-style="normal" font-weight="normal">
     <text y="3.75" x="0">J8</text>
    </g>
   </g>
  </g>
  <g partID="13138770" id="partLabel">
   <g transform="translate(73.8116,9.63904)">
    <g id="silkscreenLabel" font-family="'OCRA'" font-size="5" stroke="none" fill-opacity="1" fill="#000000" font-style="normal" font-weight="normal">
     <text y="3.75" x="0">J7</text>
    </g>
   </g>
  </g>
  <g partID="13140660" id="partLabel">
   <g transform="translate(92.9596,89.344)">
    <g id="silkscreenLabel" font-family="'OCRA'" font-size="5" stroke="none" fill-opacity="1" fill="#000000" font-style="normal" font-weight="normal">
     <text y="3.75" x="0">J10</text>
    </g>
   </g>
  </g>
  <g partID="13140661">
   <g transform="translate(85.4644,92.4784)">
    <g id="copper1">
     <g id="copper0">
      <rect id="square" y="3.24" height="4.32" stroke="white" x="5.616" width="4.32" stroke-width="2.16" fill="white"/>
      <circle id="connector0pin" cx="7.776" stroke="white" cy="5.4" stroke-width="2.16" r="2.16" fill="white"/>
      <circle id="connector1pin" cx="7.776" stroke="white" cy="12.6" stroke-width="2.16" r="2.16" fill="white"/>
      <circle id="connector2pin" cx="7.776" stroke="white" cy="19.8" stroke-width="2.16" r="2.16" fill="white"/>
      <circle id="connector3pin" cx="7.776" stroke="white" cy="27" stroke-width="2.16" r="2.16" fill="white"/>
      <circle id="connector4pin" cx="7.776" stroke="white" cy="34.2" stroke-width="2.16" r="2.16" fill="white"/>
      <circle id="connector5pin" cx="7.776" stroke="white" cy="41.4" stroke-width="2.16" r="2.16" fill="white"/>
      <circle id="connector6pin" cx="7.776" stroke="white" cy="48.6" stroke-width="2.16" r="2.16" fill="white"/>
      <circle id="connector7pin" cx="7.776" stroke="white" cy="55.8" stroke-width="2.16" r="2.16" fill="white"/>
      <circle id="connector8pin" cx="7.776" stroke="white" cy="63" stroke-width="2.16" r="2.16" fill="white"/>
     </g>
    </g>
   </g>
  </g>
  <g partID="13140651">
   <g transform="translate(71.0644,92.4784)">
    <g id="copper1">
     <g id="copper0">
      <rect id="square" y="3.24" height="4.32" stroke="white" x="5.616" width="4.32" stroke-width="2.16" fill="white"/>
      <circle id="connector0pin" cx="7.776" stroke="white" cy="5.4" stroke-width="2.16" r="2.16" fill="white"/>
      <circle id="connector1pin" cx="7.776" stroke="white" cy="12.6" stroke-width="2.16" r="2.16" fill="white"/>
      <circle id="connector2pin" cx="7.776" stroke="white" cy="19.8" stroke-width="2.16" r="2.16" fill="white"/>
      <circle id="connector3pin" cx="7.776" stroke="white" cy="27" stroke-width="2.16" r="2.16" fill="white"/>
      <circle id="connector4pin" cx="7.776" stroke="white" cy="34.2" stroke-width="2.16" r="2.16" fill="white"/>
      <circle id="connector5pin" cx="7.776" stroke="white" cy="41.4" stroke-width="2.16" r="2.16" fill="white"/>
      <circle id="connector6pin" cx="7.776" stroke="white" cy="48.6" stroke-width="2.16" r="2.16" fill="white"/>
      <circle id="connector7pin" cx="7.776" stroke="white" cy="55.8" stroke-width="2.16" r="2.16" fill="white"/>
      <circle id="connector8pin" cx="7.776" stroke="white" cy="63" stroke-width="2.16" r="2.16" fill="white"/>
     </g>
    </g>
   </g>
  </g>
  <g partID="13139561">
   <g transform="translate(85.4644,13.2784)">
    <g id="copper1">
     <g id="copper0">
      <rect id="square" y="3.24" height="4.32" stroke="white" x="5.616" width="4.32" stroke-width="2.16" fill="white"/>
      <circle id="connector0pin" cx="7.776" stroke="white" cy="5.4" stroke-width="2.16" r="2.16" fill="white"/>
      <circle id="connector1pin" cx="7.776" stroke="white" cy="12.6" stroke-width="2.16" r="2.16" fill="white"/>
      <circle id="connector2pin" cx="7.776" stroke="white" cy="19.8" stroke-width="2.16" r="2.16" fill="white"/>
      <circle id="connector3pin" cx="7.776" stroke="white" cy="27" stroke-width="2.16" r="2.16" fill="white"/>
      <circle id="connector4pin" cx="7.776" stroke="white" cy="34.2" stroke-width="2.16" r="2.16" fill="white"/>
      <circle id="connector5pin" cx="7.776" stroke="white" cy="41.4" stroke-width="2.16" r="2.16" fill="white"/>
      <circle id="connector6pin" cx="7.776" stroke="white" cy="48.6" stroke-width="2.16" r="2.16" fill="white"/>
      <circle id="connector7pin" cx="7.776" stroke="white" cy="55.8" stroke-width="2.16" r="2.16" fill="white"/>
      <circle id="connector8pin" cx="7.776" stroke="white" cy="63" stroke-width="2.16" r="2.16" fill="white"/>
     </g>
    </g>
   </g>
  </g>
  <g partID="13138771">
   <g transform="translate(71.0644,13.2784)">
    <g id="copper1">
     <g id="copper0">
      <rect id="square" y="3.24" height="4.32" stroke="white" x="5.616" width="4.32" stroke-width="2.16" fill="white"/>
      <circle id="connector0pin" cx="7.776" stroke="white" cy="5.4" stroke-width="2.16" r="2.16" fill="white"/>
      <circle id="connector1pin" cx="7.776" stroke="white" cy="12.6" stroke-width="2.16" r="2.16" fill="white"/>
      <circle id="connector2pin" cx="7.776" stroke="white" cy="19.8" stroke-width="2.16" r="2.16" fill="white"/>
      <circle id="connector3pin" cx="7.776" stroke="white" cy="27" stroke-width="2.16" r="2.16" fill="white"/>
      <circle id="connector4pin" cx="7.776" stroke="white" cy="34.2" stroke-width="2.16" r="2.16" fill="white"/>
      <circle id="connector5pin" cx="7.776" stroke="white" cy="41.4" stroke-width="2.16" r="2.16" fill="white"/>
      <circle id="connector6pin" cx="7.776" stroke="white" cy="48.6" stroke-width="2.16" r="2.16" fill="white"/>
      <circle id="connector7pin" cx="7.776" stroke="white" cy="55.8" stroke-width="2.16" r="2.16" fill="white"/>
      <circle id="connector8pin" cx="7.776" stroke="white" cy="63" stroke-width="2.16" r="2.16" fill="white"/>
     </g>
    </g>
   </g>
  </g>
  <g partID="13056641">
   <g transform="translate(0.70496,1.74296)">
    <g id="copper1">
     <circle id="nonconn0" cx="6.13543" stroke="white" cy="6.13543" stroke-width="0.72" r="4.53543" fill="white"/>
    </g>
   </g>
  </g>
  <g partID="13056671">
   <g transform="translate(87.1052,1.74296)">
    <g id="copper1">
     <circle id="nonconn0" cx="6.13543" stroke="white" cy="6.13543" stroke-width="0.72" r="4.53543" fill="white"/>
    </g>
   </g>
  </g>
  <g partID="13056731">
   <g transform="translate(0.70496,160.143)">
    <g id="copper1">
     <circle id="nonconn0" cx="6.13543" stroke="white" cy="6.13543" stroke-width="0.72" r="4.53543" fill="white"/>
    </g>
   </g>
  </g>
  <g partID="13056761">
   <g transform="translate(87.1052,160.143)">
    <g id="copper1">
     <circle id="nonconn0" cx="6.13543" stroke="white" cy="6.13543" stroke-width="0.72" r="4.53543" fill="white"/>
    </g>
   </g>
  </g>
  <g partID="13147011">
   <g transform="translate(87.1052,80.9432)">
    <g id="copper1">
     <circle id="nonconn0" cx="6.13543" stroke="white" cy="6.13543" stroke-width="0.72" r="4.53543" fill="white"/>
    </g>
   </g>
  </g>
  <g partID="13056831">
   <g transform="translate(0.70488,80.9424)">
    <g id="copper1">
     <circle id="nonconn0" cx="6.13543" stroke="white" cy="6.13543" stroke-width="0.72" r="4.53543" fill="white"/>
    </g>
   </g>
  </g>
  <g partID="12361151">
   <g transform="translate(50.9404,143.778)">
    <g id="copper1">
     <!--  <rect width="55" x="10" y="35" fill="none" height="55" stroke="rgb(255, 191, 0)" stroke-width="20" /> -->
     <circle id="connector0pin" cx="2.7" stroke="white" cy="4.5" stroke-width="2.16" r="1.98" fill="white"/>
     <circle id="connector1pin" cx="9.9" stroke="white" cy="4.5" stroke-width="2.16" r="1.98" fill="white"/>
    </g>
   </g>
  </g>
  <g partID="12301101">
   <g transform="translate(50.9404,64.5784)">
    <g id="copper1">
     <!--  <rect width="55" x="10" y="35" fill="none" height="55" stroke="rgb(255, 191, 0)" stroke-width="20" /> -->
     <circle id="connector0pin" cx="2.7" stroke="white" cy="4.5" stroke-width="2.16" r="1.98" fill="white"/>
     <circle id="connector1pin" cx="9.9" stroke="white" cy="4.5" stroke-width="2.16" r="1.98" fill="white"/>
    </g>
   </g>
  </g>
  <g partID="12361161">
   <g transform="translate(50.9404,129.378)">
    <g id="copper1">
     <!--  <rect width="55" x="10" y="35" fill="none" height="55" stroke="rgb(255, 191, 0)" stroke-width="20" /> -->
     <circle id="connector0pin" cx="2.7" stroke="white" cy="4.5" stroke-width="2.16" r="1.98" fill="white"/>
     <circle id="connector1pin" cx="9.9" stroke="white" cy="4.5" stroke-width="2.16" r="1.98" fill="white"/>
    </g>
   </g>
  </g>
  <g partID="12301081">
   <g transform="translate(50.9404,50.1784)">
    <g id="copper1">
     <!--  <rect width="55" x="10" y="35" fill="none" height="55" stroke="rgb(255, 191, 0)" stroke-width="20" /> -->
     <circle id="connector0pin" cx="2.7" stroke="white" cy="4.5" stroke-width="2.16" r="1.98" fill="white"/>
     <circle id="connector1pin" cx="9.9" stroke="white" cy="4.5" stroke-width="2.16" r="1.98" fill="white"/>
    </g>
   </g>
  </g>
  <g partID="12361171">
   <g transform="translate(50.9404,114.978)">
    <g id="copper1">
     <!--  <rect width="55" x="10" y="35" fill="none" height="55" stroke="rgb(255, 191, 0)" stroke-width="20" /> -->
     <circle id="connector0pin" cx="2.7" stroke="white" cy="4.5" stroke-width="2.16" r="1.98" fill="white"/>
     <circle id="connector1pin" cx="9.9" stroke="white" cy="4.5" stroke-width="2.16" r="1.98" fill="white"/>
    </g>
   </g>
  </g>
  <g partID="12301061">
   <g transform="translate(50.9404,35.7784)">
    <g id="copper1">
     <!--  <rect width="55" x="10" y="35" fill="none" height="55" stroke="rgb(255, 191, 0)" stroke-width="20" /> -->
     <circle id="connector0pin" cx="2.7" stroke="white" cy="4.5" stroke-width="2.16" r="1.98" fill="white"/>
     <circle id="connector1pin" cx="9.9" stroke="white" cy="4.5" stroke-width="2.16" r="1.98" fill="white"/>
    </g>
   </g>
  </g>
  <g partID="12361181">
   <g transform="translate(50.9404,100.578)">
    <g id="copper1">
     <!--  <rect width="55" x="10" y="35" fill="none" height="55" stroke="rgb(255, 191, 0)" stroke-width="20" /> -->
     <circle id="connector0pin" cx="2.7" stroke="white" cy="4.5" stroke-width="2.16" r="1.98" fill="white"/>
     <circle id="connector1pin" cx="9.9" stroke="white" cy="4.5" stroke-width="2.16" r="1.98" fill="white"/>
    </g>
   </g>
  </g>
  <g partID="12301041">
   <g transform="translate(50.9404,21.3784)">
    <g id="copper1">
     <!--  <rect width="55" x="10" y="35" fill="none" height="55" stroke="rgb(255, 191, 0)" stroke-width="20" /> -->
     <circle id="connector0pin" cx="2.7" stroke="white" cy="4.5" stroke-width="2.16" r="1.98" fill="white"/>
     <circle id="connector1pin" cx="9.9" stroke="white" cy="4.5" stroke-width="2.16" r="1.98" fill="white"/>
    </g>
   </g>
  </g>
  <g partID="12361191">
   <g transform="translate(49.1404,136.578)">
    <g id="copper1">
     <!-- <rect width="55" x="35" y="35" fill="none" height="55" stroke="rgb(255, 191, 0)" stroke-width="20" /> -->
     <circle id="connector0pin" cx="4.5" stroke="white" cy="4.5" stroke-width="2.16" r="1.98" fill="white"/>
     <circle id="connector1pin" cx="11.7" stroke="white" cy="4.5" stroke-width="2.16" r="1.98" fill="white"/>
    </g>
   </g>
  </g>
  <g partID="12301021">
   <g transform="translate(49.1404,57.3784)">
    <g id="copper1">
     <!-- <rect width="55" x="35" y="35" fill="none" height="55" stroke="rgb(255, 191, 0)" stroke-width="20" /> -->
     <circle id="connector0pin" cx="4.5" stroke="white" cy="4.5" stroke-width="2.16" r="1.98" fill="white"/>
     <circle id="connector1pin" cx="11.7" stroke="white" cy="4.5" stroke-width="2.16" r="1.98" fill="white"/>
    </g>
   </g>
  </g>
  <g partID="12361201">
   <g transform="translate(49.1404,122.178)">
    <g id="copper1">
     <!-- <rect width="55" x="35" y="35" fill="none" height="55" stroke="rgb(255, 191, 0)" stroke-width="20" /> -->
     <circle id="connector0pin" cx="4.5" stroke="white" cy="4.5" stroke-width="2.16" r="1.98" fill="white"/>
     <circle id="connector1pin" cx="11.7" stroke="white" cy="4.5" stroke-width="2.16" r="1.98" fill="white"/>
    </g>
   </g>
  </g>
  <g partID="12301001">
   <g transform="translate(49.1404,42.9784)">
    <g id="copper1">
     <!-- <rect width="55" x="35" y="35" fill="none" height="55" stroke="rgb(255, 191, 0)" stroke-width="20" /> -->
     <circle id="connector0pin" cx="4.5" stroke="white" cy="4.5" stroke-width="2.16" r="1.98" fill="white"/>
     <circle id="connector1pin" cx="11.7" stroke="white" cy="4.5" stroke-width="2.16" r="1.98" fill="white"/>
    </g>
   </g>
  </g>
  <g partID="12361211">
   <g transform="translate(49.1404,107.778)">
    <g id="copper1">
     <!-- <rect width="55" x="35" y="35" fill="none" height="55" stroke="rgb(255, 191, 0)" stroke-width="20" /> -->
     <circle id="connector0pin" cx="4.5" stroke="white" cy="4.5" stroke-width="2.16" r="1.98" fill="white"/>
     <circle id="connector1pin" cx="11.7" stroke="white" cy="4.5" stroke-width="2.16" r="1.98" fill="white"/>
    </g>
   </g>
  </g>
  <g partID="12300981">
   <g transform="translate(49.1404,28.5784)">
    <g id="copper1">
     <!-- <rect width="55" x="35" y="35" fill="none" height="55" stroke="rgb(255, 191, 0)" stroke-width="20" /> -->
     <circle id="connector0pin" cx="4.5" stroke="white" cy="4.5" stroke-width="2.16" r="1.98" fill="white"/>
     <circle id="connector1pin" cx="11.7" stroke="white" cy="4.5" stroke-width="2.16" r="1.98" fill="white"/>
    </g>
   </g>
  </g>
  <g partID="12361221">
   <g transform="translate(49.1404,93.3784)">
    <g id="copper1">
     <!-- <rect width="55" x="35" y="35" fill="none" height="55" stroke="rgb(255, 191, 0)" stroke-width="20" /> -->
     <circle id="connector0pin" cx="4.5" stroke="white" cy="4.5" stroke-width="2.16" r="1.98" fill="white"/>
     <circle id="connector1pin" cx="11.7" stroke="white" cy="4.5" stroke-width="2.16" r="1.98" fill="white"/>
    </g>
   </g>
  </g>
  <g partID="74911">
   <g transform="translate(49.1404,14.1784)">
    <g id="copper1">
     <!-- <rect width="55" x="35" y="35" fill="none" height="55" stroke="rgb(255, 191, 0)" stroke-width="20" /> -->
     <circle id="connector0pin" cx="4.5" stroke="white" cy="4.5" stroke-width="2.16" r="1.98" fill="white"/>
     <circle id="connector1pin" cx="11.7" stroke="white" cy="4.5" stroke-width="2.16" r="1.98" fill="white"/>
    </g>
   </g>
  </g>
  <g partID="12361331">
   <g transform="translate(16.9204,93.5584)">
    <g id="copper1">
     <g id="copper0">
      <rect id="square" y="2.34" height="3.96" stroke="white" x="2.34" width="3.96" stroke-width="2.16" fill="white"/>
      <circle id="connector0pin" cx="4.32" stroke="white" cy="4.32" stroke-width="2.16" r="1.98" fill="white"/>
      <circle id="connector17pin" cx="25.92" stroke="white" cy="4.32" stroke-width="2.16" r="1.98" fill="white"/>
      <circle id="connector1pin" cx="4.32" stroke="white" cy="11.52" stroke-width="2.16" r="1.98" fill="white"/>
      <circle id="connector16pin" cx="25.92" stroke="white" cy="11.52" stroke-width="2.16" r="1.98" fill="white"/>
      <circle id="connector2pin" cx="4.32" stroke="white" cy="18.72" stroke-width="2.16" r="1.98" fill="white"/>
      <circle id="connector15pin" cx="25.92" stroke="white" cy="18.72" stroke-width="2.16" r="1.98" fill="white"/>
      <circle id="connector3pin" cx="4.32" stroke="white" cy="25.92" stroke-width="2.16" r="1.98" fill="white"/>
      <circle id="connector14pin" cx="25.92" stroke="white" cy="25.92" stroke-width="2.16" r="1.98" fill="white"/>
      <circle id="connector4pin" cx="4.32" stroke="white" cy="33.12" stroke-width="2.16" r="1.98" fill="white"/>
      <circle id="connector13pin" cx="25.92" stroke="white" cy="33.12" stroke-width="2.16" r="1.98" fill="white"/>
      <circle id="connector5pin" cx="4.32" stroke="white" cy="40.32" stroke-width="2.16" r="1.98" fill="white"/>
      <circle id="connector12pin" cx="25.92" stroke="white" cy="40.32" stroke-width="2.16" r="1.98" fill="white"/>
      <circle id="connector6pin" cx="4.32" stroke="white" cy="47.52" stroke-width="2.16" r="1.98" fill="white"/>
      <circle id="connector11pin" cx="25.92" stroke="white" cy="47.52" stroke-width="2.16" r="1.98" fill="white"/>
      <circle id="connector7pin" cx="4.32" stroke="white" cy="54.72" stroke-width="2.16" r="1.98" fill="white"/>
      <circle id="connector10pin" cx="25.92" stroke="white" cy="54.72" stroke-width="2.16" r="1.98" fill="white"/>
      <circle id="connector8pin" cx="4.32" stroke="white" cy="61.92" stroke-width="2.16" r="1.98" fill="white"/>
      <circle id="connector9pin" cx="25.92" stroke="white" cy="61.92" stroke-width="2.16" r="1.98" fill="white"/>
     </g>
    </g>
   </g>
  </g>
  <g partID="12308851">
   <g transform="translate(16.9204,14.3584)">
    <g id="copper1">
     <g id="copper0">
      <rect id="square" y="2.34" height="3.96" stroke="white" x="2.34" width="3.96" stroke-width="2.16" fill="white"/>
      <circle id="connector0pin" cx="4.32" stroke="white" cy="4.32" stroke-width="2.16" r="1.98" fill="white"/>
      <circle id="connector17pin" cx="25.92" stroke="white" cy="4.32" stroke-width="2.16" r="1.98" fill="white"/>
      <circle id="connector1pin" cx="4.32" stroke="white" cy="11.52" stroke-width="2.16" r="1.98" fill="white"/>
      <circle id="connector16pin" cx="25.92" stroke="white" cy="11.52" stroke-width="2.16" r="1.98" fill="white"/>
      <circle id="connector2pin" cx="4.32" stroke="white" cy="18.72" stroke-width="2.16" r="1.98" fill="white"/>
      <circle id="connector15pin" cx="25.92" stroke="white" cy="18.72" stroke-width="2.16" r="1.98" fill="white"/>
      <circle id="connector3pin" cx="4.32" stroke="white" cy="25.92" stroke-width="2.16" r="1.98" fill="white"/>
      <circle id="connector14pin" cx="25.92" stroke="white" cy="25.92" stroke-width="2.16" r="1.98" fill="white"/>
      <circle id="connector4pin" cx="4.32" stroke="white" cy="33.12" stroke-width="2.16" r="1.98" fill="white"/>
      <circle id="connector13pin" cx="25.92" stroke="white" cy="33.12" stroke-width="2.16" r="1.98" fill="white"/>
      <circle id="connector5pin" cx="4.32" stroke="white" cy="40.32" stroke-width="2.16" r="1.98" fill="white"/>
      <circle id="connector12pin" cx="25.92" stroke="white" cy="40.32" stroke-width="2.16" r="1.98" fill="white"/>
      <circle id="connector6pin" cx="4.32" stroke="white" cy="47.52" stroke-width="2.16" r="1.98" fill="white"/>
      <circle id="connector11pin" cx="25.92" stroke="white" cy="47.52" stroke-width="2.16" r="1.98" fill="white"/>
      <circle id="connector7pin" cx="4.32" stroke="white" cy="54.72" stroke-width="2.16" r="1.98" fill="white"/>
      <circle id="connector10pin" cx="25.92" stroke="white" cy="54.72" stroke-width="2.16" r="1.98" fill="white"/>
      <circle id="connector8pin" cx="4.32" stroke="white" cy="61.92" stroke-width="2.16" r="1.98" fill="white"/>
      <circle id="connector9pin" cx="25.92" stroke="white" cy="61.92" stroke-width="2.16" r="1.98" fill="white"/>
     </g>
    </g>
   </g>
  </g>
  <g partID="12348781">
   <g transform="translate(40.6804,2.8384)">
    <g transform="matrix(0,1,-1,0,0,0)">
     <g id="copper1">
      <g id="copper0">
       <circle id="connector0pin" cx="5.04" stroke="white" cy="5.04" stroke-width="2.16" r="2.088" fill="white"/>
       <circle id="connector1pin" cx="5.04" stroke="white" cy="12.24" stroke-width="2.16" r="2.088" fill="white"/>
      </g>
     </g>
    </g>
   </g>
  </g>
  <g partID="12361351">
   <g transform="translate(1.8004,92.8384)">
    <g id="copper1">
     <g id="copper0">
      <circle id="connector0pin" cx="5.04" stroke="white" cy="5.04" stroke-width="2.16" r="2.088" fill="white"/>
      <circle id="connector1pin" cx="5.04" stroke="white" cy="12.24" stroke-width="2.16" r="2.088" fill="white"/>
      <circle id="connector2pin" cx="5.04" stroke="white" cy="19.44" stroke-width="2.16" r="2.088" fill="white"/>
      <circle id="connector3pin" cx="5.04" stroke="white" cy="26.64" stroke-width="2.16" r="2.088" fill="white"/>
     </g>
    </g>
   </g>
  </g>
  <g partID="12354831">
   <g transform="translate(1.8004,13.6384)">
    <g id="copper1">
     <g id="copper0">
      <circle id="connector0pin" cx="5.04" stroke="white" cy="5.04" stroke-width="2.16" r="2.088" fill="white"/>
      <circle id="connector1pin" cx="5.04" stroke="white" cy="12.24" stroke-width="2.16" r="2.088" fill="white"/>
      <circle id="connector2pin" cx="5.04" stroke="white" cy="19.44" stroke-width="2.16" r="2.088" fill="white"/>
      <circle id="connector3pin" cx="5.04" stroke="white" cy="26.64" stroke-width="2.16" r="2.088" fill="white"/>
     </g>
    </g>
   </g>
  </g>
  <g partID="12361361">
   <g transform="translate(1.8004,128.838)">
    <g id="copper1">
     <g id="copper0">
      <circle id="connector0pin" cx="5.04" stroke="white" cy="5.04" stroke-width="2.16" r="2.088" fill="white"/>
      <circle id="connector1pin" cx="5.04" stroke="white" cy="12.24" stroke-width="2.16" r="2.088" fill="white"/>
      <circle id="connector2pin" cx="5.04" stroke="white" cy="19.44" stroke-width="2.16" r="2.088" fill="white"/>
      <circle id="connector3pin" cx="5.04" stroke="white" cy="26.64" stroke-width="2.16" r="2.088" fill="white"/>
     </g>
    </g>
   </g>
  </g>
  <g partID="12354051">
   <g transform="translate(1.8004,49.6384)">
    <g id="copper1">
     <g id="copper0">
      <circle id="connector0pin" cx="5.04" stroke="white" cy="5.04" stroke-width="2.16" r="2.088" fill="white"/>
      <circle id="connector1pin" cx="5.04" stroke="white" cy="12.24" stroke-width="2.16" r="2.088" fill="white"/>
      <circle id="connector2pin" cx="5.04" stroke="white" cy="19.44" stroke-width="2.16" r="2.088" fill="white"/>
      <circle id="connector3pin" cx="5.04" stroke="white" cy="26.64" stroke-width="2.16" r="2.088" fill="white"/>
     </g>
    </g>
   </g>
  </g>
  <g partID="12361391">
   <g transform="translate(40.6804,161.238)">
    <g transform="matrix(0,1,-1,0,0,0)">
     <g id="copper1">
      <g id="copper0">
       <circle id="connector0pin" cx="5.04" stroke="white" cy="5.04" stroke-width="2.16" r="2.088" fill="white"/>
       <circle id="connector1pin" cx="5.04" stroke="white" cy="12.24" stroke-width="2.16" r="2.088" fill="white"/>
      </g>
     </g>
    </g>
   </g>
  </g>
 </g>
</svg>
