<?xml version='1.0' encoding='UTF-8' standalone='no'?>
<!-- Created with Fritzing (http://www.fritzing.org/) -->
<svg xmlns="http://www.w3.org/2000/svg" width="2.24409in" xmlns:svg="http://www.w3.org/2000/svg" height="2.20472in" viewBox="0 0 161.575 158.74" x="0in" baseProfile="tiny" y="0in"  version="1.2">
 <g transform="matrix(-1, 0, 0, 1, 161.575, 0)">
  <g partID="57830">
   <g id="board" >
    <rect width="160.999" stroke="black" height="158.164" x="0.288" id="boardoutline" y="0.288"  fill-opacity="0.5" stroke-width="0.5" fill="none"/>
   </g>
  </g>
  <g partID="12301100">
   <g transform="translate(69.0911,60.7162)">
    <g id="copper0" >
     <g id="copper1" >
      <!--  <rect width="55" x="10" y="35" fill="none" height="55" stroke="rgb(255, 191, 0)" stroke-width="20" /> -->
      <circle stroke="black" cx="2.7" r="1.98" cy="4.5" id="connector0pin"  stroke-width="2.16" fill="black"/>
      <circle stroke="black" cx="9.9" r="1.98" cy="4.5" id="connector1pin"  stroke-width="2.16" fill="black"/>
     </g>
    </g>
   </g>
  </g>
  <g partID="12361150">
   <g transform="translate(69.0911,136.316)">
    <g id="copper0" >
     <g id="copper1" >
      <!--  <rect width="55" x="10" y="35" fill="none" height="55" stroke="rgb(255, 191, 0)" stroke-width="20" /> -->
      <circle stroke="black" cx="2.7" r="1.98" cy="4.5" id="connector0pin"  stroke-width="2.16" fill="black"/>
      <circle stroke="black" cx="9.9" r="1.98" cy="4.5" id="connector1pin"  stroke-width="2.16" fill="black"/>
     </g>
    </g>
   </g>
  </g>
  <g partID="12301080">
   <g transform="translate(69.0911,46.3162)">
    <g id="copper0" >
     <g id="copper1" >
      <!--  <rect width="55" x="10" y="35" fill="none" height="55" stroke="rgb(255, 191, 0)" stroke-width="20" /> -->
      <circle stroke="black" cx="2.7" r="1.98" cy="4.5" id="connector0pin"  stroke-width="2.16" fill="black"/>
      <circle stroke="black" cx="9.9" r="1.98" cy="4.5" id="connector1pin"  stroke-width="2.16" fill="black"/>
     </g>
    </g>
   </g>
  </g>
  <g partID="12361160">
   <g transform="translate(69.0911,121.916)">
    <g id="copper0" >
     <g id="copper1" >
      <!--  <rect width="55" x="10" y="35" fill="none" height="55" stroke="rgb(255, 191, 0)" stroke-width="20" /> -->
      <circle stroke="black" cx="2.7" r="1.98" cy="4.5" id="connector0pin"  stroke-width="2.16" fill="black"/>
      <circle stroke="black" cx="9.9" r="1.98" cy="4.5" id="connector1pin"  stroke-width="2.16" fill="black"/>
     </g>
    </g>
   </g>
  </g>
  <g partID="12361170">
   <g transform="translate(69.0911,107.516)">
    <g id="copper0" >
     <g id="copper1" >
      <!--  <rect width="55" x="10" y="35" fill="none" height="55" stroke="rgb(255, 191, 0)" stroke-width="20" /> -->
      <circle stroke="black" cx="2.7" r="1.98" cy="4.5" id="connector0pin"  stroke-width="2.16" fill="black"/>
      <circle stroke="black" cx="9.9" r="1.98" cy="4.5" id="connector1pin"  stroke-width="2.16" fill="black"/>
     </g>
    </g>
   </g>
  </g>
  <g partID="12301060">
   <g transform="translate(69.0911,31.9162)">
    <g id="copper0" >
     <g id="copper1" >
      <!--  <rect width="55" x="10" y="35" fill="none" height="55" stroke="rgb(255, 191, 0)" stroke-width="20" /> -->
      <circle stroke="black" cx="2.7" r="1.98" cy="4.5" id="connector0pin"  stroke-width="2.16" fill="black"/>
      <circle stroke="black" cx="9.9" r="1.98" cy="4.5" id="connector1pin"  stroke-width="2.16" fill="black"/>
     </g>
    </g>
   </g>
  </g>
  <g partID="12361180">
   <g transform="translate(69.0911,93.1162)">
    <g id="copper0" >
     <g id="copper1" >
      <!--  <rect width="55" x="10" y="35" fill="none" height="55" stroke="rgb(255, 191, 0)" stroke-width="20" /> -->
      <circle stroke="black" cx="2.7" r="1.98" cy="4.5" id="connector0pin"  stroke-width="2.16" fill="black"/>
      <circle stroke="black" cx="9.9" r="1.98" cy="4.5" id="connector1pin"  stroke-width="2.16" fill="black"/>
     </g>
    </g>
   </g>
  </g>
  <g partID="12301040">
   <g transform="translate(69.0911,17.5162)">
    <g id="copper0" >
     <g id="copper1" >
      <!--  <rect width="55" x="10" y="35" fill="none" height="55" stroke="rgb(255, 191, 0)" stroke-width="20" /> -->
      <circle stroke="black" cx="2.7" r="1.98" cy="4.5" id="connector0pin"  stroke-width="2.16" fill="black"/>
      <circle stroke="black" cx="9.9" r="1.98" cy="4.5" id="connector1pin"  stroke-width="2.16" fill="black"/>
     </g>
    </g>
   </g>
  </g>
  <g partID="12301020">
   <g transform="translate(67.2911,53.5162)">
    <g id="copper0" >
     <g id="copper1" >
      <!-- <rect width="55" x="35" y="35" fill="none" height="55" stroke="rgb(255, 191, 0)" stroke-width="20" /> -->
      <circle stroke="black" cx="4.5" r="1.98" cy="4.5" id="connector0pin"  stroke-width="2.16" fill="black"/>
      <circle stroke="black" cx="11.7" r="1.98" cy="4.5" id="connector1pin"  stroke-width="2.16" fill="black"/>
     </g>
    </g>
   </g>
  </g>
  <g partID="12361190">
   <g transform="translate(67.2911,129.116)">
    <g id="copper0" >
     <g id="copper1" >
      <!-- <rect width="55" x="35" y="35" fill="none" height="55" stroke="rgb(255, 191, 0)" stroke-width="20" /> -->
      <circle stroke="black" cx="4.5" r="1.98" cy="4.5" id="connector0pin"  stroke-width="2.16" fill="black"/>
      <circle stroke="black" cx="11.7" r="1.98" cy="4.5" id="connector1pin"  stroke-width="2.16" fill="black"/>
     </g>
    </g>
   </g>
  </g>
  <g partID="12361200">
   <g transform="translate(67.2911,114.716)">
    <g id="copper0" >
     <g id="copper1" >
      <!-- <rect width="55" x="35" y="35" fill="none" height="55" stroke="rgb(255, 191, 0)" stroke-width="20" /> -->
      <circle stroke="black" cx="4.5" r="1.98" cy="4.5" id="connector0pin"  stroke-width="2.16" fill="black"/>
      <circle stroke="black" cx="11.7" r="1.98" cy="4.5" id="connector1pin"  stroke-width="2.16" fill="black"/>
     </g>
    </g>
   </g>
  </g>
  <g partID="12301000">
   <g transform="translate(67.2911,39.1162)">
    <g id="copper0" >
     <g id="copper1" >
      <!-- <rect width="55" x="35" y="35" fill="none" height="55" stroke="rgb(255, 191, 0)" stroke-width="20" /> -->
      <circle stroke="black" cx="4.5" r="1.98" cy="4.5" id="connector0pin"  stroke-width="2.16" fill="black"/>
      <circle stroke="black" cx="11.7" r="1.98" cy="4.5" id="connector1pin"  stroke-width="2.16" fill="black"/>
     </g>
    </g>
   </g>
  </g>
  <g partID="12300980">
   <g transform="translate(67.2911,24.7162)">
    <g id="copper0" >
     <g id="copper1" >
      <!-- <rect width="55" x="35" y="35" fill="none" height="55" stroke="rgb(255, 191, 0)" stroke-width="20" /> -->
      <circle stroke="black" cx="4.5" r="1.98" cy="4.5" id="connector0pin"  stroke-width="2.16" fill="black"/>
      <circle stroke="black" cx="11.7" r="1.98" cy="4.5" id="connector1pin"  stroke-width="2.16" fill="black"/>
     </g>
    </g>
   </g>
  </g>
  <g partID="12361210">
   <g transform="translate(67.2911,100.316)">
    <g id="copper0" >
     <g id="copper1" >
      <!-- <rect width="55" x="35" y="35" fill="none" height="55" stroke="rgb(255, 191, 0)" stroke-width="20" /> -->
      <circle stroke="black" cx="4.5" r="1.98" cy="4.5" id="connector0pin"  stroke-width="2.16" fill="black"/>
      <circle stroke="black" cx="11.7" r="1.98" cy="4.5" id="connector1pin"  stroke-width="2.16" fill="black"/>
     </g>
    </g>
   </g>
  </g>
  <g partID="74910">
   <g transform="translate(67.2911,10.3162)">
    <g id="copper0" >
     <g id="copper1" >
      <!-- <rect width="55" x="35" y="35" fill="none" height="55" stroke="rgb(255, 191, 0)" stroke-width="20" /> -->
      <circle stroke="black" cx="4.5" r="1.98" cy="4.5" id="connector0pin"  stroke-width="2.16" fill="black"/>
      <circle stroke="black" cx="11.7" r="1.98" cy="4.5" id="connector1pin"  stroke-width="2.16" fill="black"/>
     </g>
    </g>
   </g>
  </g>
  <g partID="12361220">
   <g transform="translate(67.2911,85.9162)">
    <g id="copper0" >
     <g id="copper1" >
      <!-- <rect width="55" x="35" y="35" fill="none" height="55" stroke="rgb(255, 191, 0)" stroke-width="20" /> -->
      <circle stroke="black" cx="4.5" r="1.98" cy="4.5" id="connector0pin"  stroke-width="2.16" fill="black"/>
      <circle stroke="black" cx="11.7" r="1.98" cy="4.5" id="connector1pin"  stroke-width="2.16" fill="black"/>
     </g>
    </g>
   </g>
  </g>
  <g partID="12361230">
   <g transform="translate(117.151,122.816)">
    <g id="copper0" >
     <rect width="4.464" stroke="black" height="4.464" x="6.408" y="12.168"  stroke-width="2.16" fill="black"/>
     <circle stroke="black" cx="8.64" r="2.232" cy="14.4" id="connector0pad"  stroke-width="2.16" fill="black"/>
     <circle stroke="black" cx="15.84" r="2.232" cy="14.4" id="connector1pad"  stroke-width="2.16" fill="black"/>
     <circle stroke="black" cx="23.04" r="2.232" cy="14.4" id="connector2pad"  stroke-width="2.16" fill="black"/>
    </g>
   </g>
  </g>
  <g partID="12302090">
   <g transform="translate(117.151,50.8162)">
    <g id="copper0" >
     <rect width="4.464" stroke="black" height="4.464" x="6.408" y="12.168"  stroke-width="2.16" fill="black"/>
     <circle stroke="black" cx="8.64" r="2.232" cy="14.4" id="connector0pad"  stroke-width="2.16" fill="black"/>
     <circle stroke="black" cx="15.84" r="2.232" cy="14.4" id="connector1pad"  stroke-width="2.16" fill="black"/>
     <circle stroke="black" cx="23.04" r="2.232" cy="14.4" id="connector2pad"  stroke-width="2.16" fill="black"/>
    </g>
   </g>
  </g>
  <g partID="12302070">
   <g transform="translate(84.7511,43.6162)">
    <g id="copper0" >
     <rect width="4.464" stroke="black" height="4.464" x="6.408" y="12.168"  stroke-width="2.16" fill="black"/>
     <circle stroke="black" cx="8.64" r="2.232" cy="14.4" id="connector0pad"  stroke-width="2.16" fill="black"/>
     <circle stroke="black" cx="15.84" r="2.232" cy="14.4" id="connector1pad"  stroke-width="2.16" fill="black"/>
     <circle stroke="black" cx="23.04" r="2.232" cy="14.4" id="connector2pad"  stroke-width="2.16" fill="black"/>
    </g>
   </g>
  </g>
  <g partID="12361240">
   <g transform="translate(84.7511,115.616)">
    <g id="copper0" >
     <rect width="4.464" stroke="black" height="4.464" x="6.408" y="12.168"  stroke-width="2.16" fill="black"/>
     <circle stroke="black" cx="8.64" r="2.232" cy="14.4" id="connector0pad"  stroke-width="2.16" fill="black"/>
     <circle stroke="black" cx="15.84" r="2.232" cy="14.4" id="connector1pad"  stroke-width="2.16" fill="black"/>
     <circle stroke="black" cx="23.04" r="2.232" cy="14.4" id="connector2pad"  stroke-width="2.16" fill="black"/>
    </g>
   </g>
  </g>
  <g partID="12302050">
   <g transform="translate(117.151,36.4162)">
    <g id="copper0" >
     <rect width="4.464" stroke="black" height="4.464" x="6.408" y="12.168"  stroke-width="2.16" fill="black"/>
     <circle stroke="black" cx="8.64" r="2.232" cy="14.4" id="connector0pad"  stroke-width="2.16" fill="black"/>
     <circle stroke="black" cx="15.84" r="2.232" cy="14.4" id="connector1pad"  stroke-width="2.16" fill="black"/>
     <circle stroke="black" cx="23.04" r="2.232" cy="14.4" id="connector2pad"  stroke-width="2.16" fill="black"/>
    </g>
   </g>
  </g>
  <g partID="12361250">
   <g transform="translate(117.151,108.416)">
    <g id="copper0" >
     <rect width="4.464" stroke="black" height="4.464" x="6.408" y="12.168"  stroke-width="2.16" fill="black"/>
     <circle stroke="black" cx="8.64" r="2.232" cy="14.4" id="connector0pad"  stroke-width="2.16" fill="black"/>
     <circle stroke="black" cx="15.84" r="2.232" cy="14.4" id="connector1pad"  stroke-width="2.16" fill="black"/>
     <circle stroke="black" cx="23.04" r="2.232" cy="14.4" id="connector2pad"  stroke-width="2.16" fill="black"/>
    </g>
   </g>
  </g>
  <g partID="12302030">
   <g transform="translate(84.7511,29.2162)">
    <g id="copper0" >
     <rect width="4.464" stroke="black" height="4.464" x="6.408" y="12.168"  stroke-width="2.16" fill="black"/>
     <circle stroke="black" cx="8.64" r="2.232" cy="14.4" id="connector0pad"  stroke-width="2.16" fill="black"/>
     <circle stroke="black" cx="15.84" r="2.232" cy="14.4" id="connector1pad"  stroke-width="2.16" fill="black"/>
     <circle stroke="black" cx="23.04" r="2.232" cy="14.4" id="connector2pad"  stroke-width="2.16" fill="black"/>
    </g>
   </g>
  </g>
  <g partID="12361260">
   <g transform="translate(84.7511,101.216)">
    <g id="copper0" >
     <rect width="4.464" stroke="black" height="4.464" x="6.408" y="12.168"  stroke-width="2.16" fill="black"/>
     <circle stroke="black" cx="8.64" r="2.232" cy="14.4" id="connector0pad"  stroke-width="2.16" fill="black"/>
     <circle stroke="black" cx="15.84" r="2.232" cy="14.4" id="connector1pad"  stroke-width="2.16" fill="black"/>
     <circle stroke="black" cx="23.04" r="2.232" cy="14.4" id="connector2pad"  stroke-width="2.16" fill="black"/>
    </g>
   </g>
  </g>
  <g partID="12302010">
   <g transform="translate(117.151,22.0162)">
    <g id="copper0" >
     <rect width="4.464" stroke="black" height="4.464" x="6.408" y="12.168"  stroke-width="2.16" fill="black"/>
     <circle stroke="black" cx="8.64" r="2.232" cy="14.4" id="connector0pad"  stroke-width="2.16" fill="black"/>
     <circle stroke="black" cx="15.84" r="2.232" cy="14.4" id="connector1pad"  stroke-width="2.16" fill="black"/>
     <circle stroke="black" cx="23.04" r="2.232" cy="14.4" id="connector2pad"  stroke-width="2.16" fill="black"/>
    </g>
   </g>
  </g>
  <g partID="12361270">
   <g transform="translate(117.151,94.0162)">
    <g id="copper0" >
     <rect width="4.464" stroke="black" height="4.464" x="6.408" y="12.168"  stroke-width="2.16" fill="black"/>
     <circle stroke="black" cx="8.64" r="2.232" cy="14.4" id="connector0pad"  stroke-width="2.16" fill="black"/>
     <circle stroke="black" cx="15.84" r="2.232" cy="14.4" id="connector1pad"  stroke-width="2.16" fill="black"/>
     <circle stroke="black" cx="23.04" r="2.232" cy="14.4" id="connector2pad"  stroke-width="2.16" fill="black"/>
    </g>
   </g>
  </g>
  <g partID="12301990">
   <g transform="translate(84.7511,14.8162)">
    <g id="copper0" >
     <rect width="4.464" stroke="black" height="4.464" x="6.408" y="12.168"  stroke-width="2.16" fill="black"/>
     <circle stroke="black" cx="8.64" r="2.232" cy="14.4" id="connector0pad"  stroke-width="2.16" fill="black"/>
     <circle stroke="black" cx="15.84" r="2.232" cy="14.4" id="connector1pad"  stroke-width="2.16" fill="black"/>
     <circle stroke="black" cx="23.04" r="2.232" cy="14.4" id="connector2pad"  stroke-width="2.16" fill="black"/>
    </g>
   </g>
  </g>
  <g partID="12361280">
   <g transform="translate(84.7511,86.8162)">
    <g id="copper0" >
     <rect width="4.464" stroke="black" height="4.464" x="6.408" y="12.168"  stroke-width="2.16" fill="black"/>
     <circle stroke="black" cx="8.64" r="2.232" cy="14.4" id="connector0pad"  stroke-width="2.16" fill="black"/>
     <circle stroke="black" cx="15.84" r="2.232" cy="14.4" id="connector1pad"  stroke-width="2.16" fill="black"/>
     <circle stroke="black" cx="23.04" r="2.232" cy="14.4" id="connector2pad"  stroke-width="2.16" fill="black"/>
    </g>
   </g>
  </g>
  <g partID="12301970">
   <g transform="translate(117.151,7.61624)">
    <g id="copper0" >
     <rect width="4.464" stroke="black" height="4.464" x="6.408" y="12.168"  stroke-width="2.16" fill="black"/>
     <circle stroke="black" cx="8.64" r="2.232" cy="14.4" id="connector0pad"  stroke-width="2.16" fill="black"/>
     <circle stroke="black" cx="15.84" r="2.232" cy="14.4" id="connector1pad"  stroke-width="2.16" fill="black"/>
     <circle stroke="black" cx="23.04" r="2.232" cy="14.4" id="connector2pad"  stroke-width="2.16" fill="black"/>
    </g>
   </g>
  </g>
  <g partID="12361290">
   <g transform="translate(117.151,79.6162)">
    <g id="copper0" >
     <rect width="4.464" stroke="black" height="4.464" x="6.408" y="12.168"  stroke-width="2.16" fill="black"/>
     <circle stroke="black" cx="8.64" r="2.232" cy="14.4" id="connector0pad"  stroke-width="2.16" fill="black"/>
     <circle stroke="black" cx="15.84" r="2.232" cy="14.4" id="connector1pad"  stroke-width="2.16" fill="black"/>
     <circle stroke="black" cx="23.04" r="2.232" cy="14.4" id="connector2pad"  stroke-width="2.16" fill="black"/>
    </g>
   </g>
  </g>
  <g partID="74970">
   <g transform="translate(84.7511,0.41624)">
    <g id="copper0" >
     <rect width="4.464" stroke="black" height="4.464" x="6.408" y="12.168"  stroke-width="2.16" fill="black"/>
     <circle stroke="black" cx="8.64" r="2.232" cy="14.4" id="connector0pad"  stroke-width="2.16" fill="black"/>
     <circle stroke="black" cx="15.84" r="2.232" cy="14.4" id="connector1pad"  stroke-width="2.16" fill="black"/>
     <circle stroke="black" cx="23.04" r="2.232" cy="14.4" id="connector2pad"  stroke-width="2.16" fill="black"/>
    </g>
   </g>
  </g>
  <g partID="12361300">
   <g transform="translate(84.7511,72.4162)">
    <g id="copper0" >
     <rect width="4.464" stroke="black" height="4.464" x="6.408" y="12.168"  stroke-width="2.16" fill="black"/>
     <circle stroke="black" cx="8.64" r="2.232" cy="14.4" id="connector0pad"  stroke-width="2.16" fill="black"/>
     <circle stroke="black" cx="15.84" r="2.232" cy="14.4" id="connector1pad"  stroke-width="2.16" fill="black"/>
     <circle stroke="black" cx="23.04" r="2.232" cy="14.4" id="connector2pad"  stroke-width="2.16" fill="black"/>
    </g>
   </g>
  </g>
  <g partID="12305140">
   <g transform="translate(22.1111,73.1362)">
    <g transform="matrix(-1,0,0,-1,0,0)">
     <g gorn="0.5.0" id="copper0" >
      <rect width="3.96" stroke="black" height="3.96" gorn="0.5.0.0" x="2.34" id="square" y="2.34"  stroke-width="2.16" fill="black"/>
      <circle stroke="black" cx="4.32" r="1.98" gorn="0.5.0.1" cy="4.32" id="connector0pin"  stroke-width="2.16" fill="black"/>
      <circle stroke="black" cx="4.32" r="1.98" gorn="0.5.0.2" cy="11.52" id="connector1pin"  stroke-width="2.16" fill="black"/>
      <circle stroke="black" cx="4.32" r="1.98" gorn="0.5.0.3" cy="18.72" id="connector2pin"  stroke-width="2.16" fill="black"/>
      <circle stroke="black" cx="4.32" r="1.98" gorn="0.5.0.4" cy="25.92" id="connector3pin"  stroke-width="2.16" fill="black"/>
      <circle stroke="black" cx="4.32" r="1.98" gorn="0.5.0.5" cy="33.12" id="connector4pin"  stroke-width="2.16" fill="black"/>
      <circle stroke="black" cx="4.32" r="1.98" gorn="0.5.0.6" cy="40.32" id="connector5pin"  stroke-width="2.16" fill="black"/>
      <circle stroke="black" cx="4.32" r="1.98" gorn="0.5.0.7" cy="47.52" id="connector6pin"  stroke-width="2.16" fill="black"/>
      <circle stroke="black" cx="4.32" r="1.98" gorn="0.5.0.8" cy="54.72" id="connector7pin"  stroke-width="2.16" fill="black"/>
      <circle stroke="black" cx="4.32" r="1.98" gorn="0.5.0.9" cy="61.92" id="connector8pin"  stroke-width="2.16" fill="black"/>
     </g>
    </g>
   </g>
  </g>
  <g partID="12361310">
   <g transform="translate(22.1111,152.336)">
    <g transform="matrix(-1,0,0,-1,0,0)">
     <g gorn="0.5.0" id="copper0" >
      <rect width="3.96" stroke="black" height="3.96" gorn="0.5.0.0" x="2.34" id="square" y="2.34"  stroke-width="2.16" fill="black"/>
      <circle stroke="black" cx="4.32" r="1.98" gorn="0.5.0.1" cy="4.32" id="connector0pin"  stroke-width="2.16" fill="black"/>
      <circle stroke="black" cx="4.32" r="1.98" gorn="0.5.0.2" cy="11.52" id="connector1pin"  stroke-width="2.16" fill="black"/>
      <circle stroke="black" cx="4.32" r="1.98" gorn="0.5.0.3" cy="18.72" id="connector2pin"  stroke-width="2.16" fill="black"/>
      <circle stroke="black" cx="4.32" r="1.98" gorn="0.5.0.4" cy="25.92" id="connector3pin"  stroke-width="2.16" fill="black"/>
      <circle stroke="black" cx="4.32" r="1.98" gorn="0.5.0.5" cy="33.12" id="connector4pin"  stroke-width="2.16" fill="black"/>
      <circle stroke="black" cx="4.32" r="1.98" gorn="0.5.0.6" cy="40.32" id="connector5pin"  stroke-width="2.16" fill="black"/>
      <circle stroke="black" cx="4.32" r="1.98" gorn="0.5.0.7" cy="47.52" id="connector6pin"  stroke-width="2.16" fill="black"/>
      <circle stroke="black" cx="4.32" r="1.98" gorn="0.5.0.8" cy="54.72" id="connector7pin"  stroke-width="2.16" fill="black"/>
      <circle stroke="black" cx="4.32" r="1.98" gorn="0.5.0.9" cy="61.92" id="connector8pin"  stroke-width="2.16" fill="black"/>
     </g>
    </g>
   </g>
  </g>
  <g partID="12297250">
   <g transform="translate(65.3111,73.1362)">
    <g transform="matrix(-1,0,0,-1,0,0)">
     <g gorn="0.5.0" id="copper0" >
      <rect width="3.96" stroke="black" height="3.96" gorn="0.5.0.0" x="2.34" id="square" y="2.34"  stroke-width="2.16" fill="black"/>
      <circle stroke="black" cx="4.32" r="1.98" gorn="0.5.0.1" cy="4.32" id="connector0pin"  stroke-width="2.16" fill="black"/>
      <circle stroke="black" cx="4.32" r="1.98" gorn="0.5.0.2" cy="11.52" id="connector1pin"  stroke-width="2.16" fill="black"/>
      <circle stroke="black" cx="4.32" r="1.98" gorn="0.5.0.3" cy="18.72" id="connector2pin"  stroke-width="2.16" fill="black"/>
      <circle stroke="black" cx="4.32" r="1.98" gorn="0.5.0.4" cy="25.92" id="connector3pin"  stroke-width="2.16" fill="black"/>
      <circle stroke="black" cx="4.32" r="1.98" gorn="0.5.0.5" cy="33.12" id="connector4pin"  stroke-width="2.16" fill="black"/>
      <circle stroke="black" cx="4.32" r="1.98" gorn="0.5.0.6" cy="40.32" id="connector5pin"  stroke-width="2.16" fill="black"/>
      <circle stroke="black" cx="4.32" r="1.98" gorn="0.5.0.7" cy="47.52" id="connector6pin"  stroke-width="2.16" fill="black"/>
      <circle stroke="black" cx="4.32" r="1.98" gorn="0.5.0.8" cy="54.72" id="connector7pin"  stroke-width="2.16" fill="black"/>
      <circle stroke="black" cx="4.32" r="1.98" gorn="0.5.0.9" cy="61.92" id="connector8pin"  stroke-width="2.16" fill="black"/>
     </g>
    </g>
   </g>
  </g>
  <g partID="12361320">
   <g transform="translate(65.3111,152.336)">
    <g transform="matrix(-1,0,0,-1,0,0)">
     <g gorn="0.5.0" id="copper0" >
      <rect width="3.96" stroke="black" height="3.96" gorn="0.5.0.0" x="2.34" id="square" y="2.34"  stroke-width="2.16" fill="black"/>
      <circle stroke="black" cx="4.32" r="1.98" gorn="0.5.0.1" cy="4.32" id="connector0pin"  stroke-width="2.16" fill="black"/>
      <circle stroke="black" cx="4.32" r="1.98" gorn="0.5.0.2" cy="11.52" id="connector1pin"  stroke-width="2.16" fill="black"/>
      <circle stroke="black" cx="4.32" r="1.98" gorn="0.5.0.3" cy="18.72" id="connector2pin"  stroke-width="2.16" fill="black"/>
      <circle stroke="black" cx="4.32" r="1.98" gorn="0.5.0.4" cy="25.92" id="connector3pin"  stroke-width="2.16" fill="black"/>
      <circle stroke="black" cx="4.32" r="1.98" gorn="0.5.0.5" cy="33.12" id="connector4pin"  stroke-width="2.16" fill="black"/>
      <circle stroke="black" cx="4.32" r="1.98" gorn="0.5.0.6" cy="40.32" id="connector5pin"  stroke-width="2.16" fill="black"/>
      <circle stroke="black" cx="4.32" r="1.98" gorn="0.5.0.7" cy="47.52" id="connector6pin"  stroke-width="2.16" fill="black"/>
      <circle stroke="black" cx="4.32" r="1.98" gorn="0.5.0.8" cy="54.72" id="connector7pin"  stroke-width="2.16" fill="black"/>
      <circle stroke="black" cx="4.32" r="1.98" gorn="0.5.0.9" cy="61.92" id="connector8pin"  stroke-width="2.16" fill="black"/>
     </g>
    </g>
   </g>
  </g>
  <g partID="12308850">
   <g transform="translate(24.2711,6.89624)">
    <g id="copper0" >
     <rect width="3.96" stroke="black" height="3.96" x="2.34" id="square" y="2.34"  stroke-width="2.16" fill="black"/>
     <circle stroke="black" cx="4.32" r="1.98" cy="4.32" id="connector0pin"  stroke-width="2.16" fill="black"/>
     <circle stroke="black" cx="25.92" r="1.98" cy="4.32" id="connector17pin"  stroke-width="2.16" fill="black"/>
     <circle stroke="black" cx="4.32" r="1.98" cy="11.52" id="connector1pin"  stroke-width="2.16" fill="black"/>
     <circle stroke="black" cx="25.92" r="1.98" cy="11.52" id="connector16pin"  stroke-width="2.16" fill="black"/>
     <circle stroke="black" cx="4.32" r="1.98" cy="18.72" id="connector2pin"  stroke-width="2.16" fill="black"/>
     <circle stroke="black" cx="25.92" r="1.98" cy="18.72" id="connector15pin"  stroke-width="2.16" fill="black"/>
     <circle stroke="black" cx="4.32" r="1.98" cy="25.92" id="connector3pin"  stroke-width="2.16" fill="black"/>
     <circle stroke="black" cx="25.92" r="1.98" cy="25.92" id="connector14pin"  stroke-width="2.16" fill="black"/>
     <circle stroke="black" cx="4.32" r="1.98" cy="33.12" id="connector4pin"  stroke-width="2.16" fill="black"/>
     <circle stroke="black" cx="25.92" r="1.98" cy="33.12" id="connector13pin"  stroke-width="2.16" fill="black"/>
     <circle stroke="black" cx="4.32" r="1.98" cy="40.32" id="connector5pin"  stroke-width="2.16" fill="black"/>
     <circle stroke="black" cx="25.92" r="1.98" cy="40.32" id="connector12pin"  stroke-width="2.16" fill="black"/>
     <circle stroke="black" cx="4.32" r="1.98" cy="47.52" id="connector6pin"  stroke-width="2.16" fill="black"/>
     <circle stroke="black" cx="25.92" r="1.98" cy="47.52" id="connector11pin"  stroke-width="2.16" fill="black"/>
     <circle stroke="black" cx="4.32" r="1.98" cy="54.72" id="connector7pin"  stroke-width="2.16" fill="black"/>
     <circle stroke="black" cx="25.92" r="1.98" cy="54.72" id="connector10pin"  stroke-width="2.16" fill="black"/>
     <circle stroke="black" cx="4.32" r="1.98" cy="61.92" id="connector8pin"  stroke-width="2.16" fill="black"/>
     <circle stroke="black" cx="25.92" r="1.98" cy="61.92" id="connector9pin"  stroke-width="2.16" fill="black"/>
    </g>
   </g>
  </g>
  <g partID="12361330">
   <g transform="translate(24.2711,86.0962)">
    <g id="copper0" >
     <rect width="3.96" stroke="black" height="3.96" x="2.34" id="square" y="2.34"  stroke-width="2.16" fill="black"/>
     <circle stroke="black" cx="4.32" r="1.98" cy="4.32" id="connector0pin"  stroke-width="2.16" fill="black"/>
     <circle stroke="black" cx="25.92" r="1.98" cy="4.32" id="connector17pin"  stroke-width="2.16" fill="black"/>
     <circle stroke="black" cx="4.32" r="1.98" cy="11.52" id="connector1pin"  stroke-width="2.16" fill="black"/>
     <circle stroke="black" cx="25.92" r="1.98" cy="11.52" id="connector16pin"  stroke-width="2.16" fill="black"/>
     <circle stroke="black" cx="4.32" r="1.98" cy="18.72" id="connector2pin"  stroke-width="2.16" fill="black"/>
     <circle stroke="black" cx="25.92" r="1.98" cy="18.72" id="connector15pin"  stroke-width="2.16" fill="black"/>
     <circle stroke="black" cx="4.32" r="1.98" cy="25.92" id="connector3pin"  stroke-width="2.16" fill="black"/>
     <circle stroke="black" cx="25.92" r="1.98" cy="25.92" id="connector14pin"  stroke-width="2.16" fill="black"/>
     <circle stroke="black" cx="4.32" r="1.98" cy="33.12" id="connector4pin"  stroke-width="2.16" fill="black"/>
     <circle stroke="black" cx="25.92" r="1.98" cy="33.12" id="connector13pin"  stroke-width="2.16" fill="black"/>
     <circle stroke="black" cx="4.32" r="1.98" cy="40.32" id="connector5pin"  stroke-width="2.16" fill="black"/>
     <circle stroke="black" cx="25.92" r="1.98" cy="40.32" id="connector12pin"  stroke-width="2.16" fill="black"/>
     <circle stroke="black" cx="4.32" r="1.98" cy="47.52" id="connector6pin"  stroke-width="2.16" fill="black"/>
     <circle stroke="black" cx="25.92" r="1.98" cy="47.52" id="connector11pin"  stroke-width="2.16" fill="black"/>
     <circle stroke="black" cx="4.32" r="1.98" cy="54.72" id="connector7pin"  stroke-width="2.16" fill="black"/>
     <circle stroke="black" cx="25.92" r="1.98" cy="54.72" id="connector10pin"  stroke-width="2.16" fill="black"/>
     <circle stroke="black" cx="4.32" r="1.98" cy="61.92" id="connector8pin"  stroke-width="2.16" fill="black"/>
     <circle stroke="black" cx="25.92" r="1.98" cy="61.92" id="connector9pin"  stroke-width="2.16" fill="black"/>
    </g>
   </g>
  </g>
  <g partID="12348780">
   <g transform="translate(145.231,2.57624)">
    <g transform="matrix(0,1,-1,0,0,0)">
     <g id="copper0" >
      <circle stroke="black" cx="5.04" r="2.088" cy="5.04" id="connector0pin"  stroke-width="2.16" fill="black"/>
      <circle stroke="black" cx="5.04" r="2.088" cy="12.24" id="connector1pin"  stroke-width="2.16" fill="black"/>
     </g>
    </g>
   </g>
  </g>
  <g partID="12354830">
   <g transform="translate(1.95112,6.17624)">
    <g id="copper0" >
     <circle stroke="black" cx="5.04" r="2.088" cy="5.04" id="connector0pin"  stroke-width="2.16" fill="black"/>
     <circle stroke="black" cx="5.04" r="2.088" cy="12.24" id="connector1pin"  stroke-width="2.16" fill="black"/>
     <circle stroke="black" cx="5.04" r="2.088" cy="19.44" id="connector2pin"  stroke-width="2.16" fill="black"/>
     <circle stroke="black" cx="5.04" r="2.088" cy="26.64" id="connector3pin"  stroke-width="2.16" fill="black"/>
    </g>
   </g>
  </g>
  <g partID="12361350">
   <g transform="translate(1.95112,85.3762)">
    <g id="copper0" >
     <circle stroke="black" cx="5.04" r="2.088" cy="5.04" id="connector0pin"  stroke-width="2.16" fill="black"/>
     <circle stroke="black" cx="5.04" r="2.088" cy="12.24" id="connector1pin"  stroke-width="2.16" fill="black"/>
     <circle stroke="black" cx="5.04" r="2.088" cy="19.44" id="connector2pin"  stroke-width="2.16" fill="black"/>
     <circle stroke="black" cx="5.04" r="2.088" cy="26.64" id="connector3pin"  stroke-width="2.16" fill="black"/>
    </g>
   </g>
  </g>
  <g partID="12354050">
   <g transform="translate(1.95112,42.1762)">
    <g id="copper0" >
     <circle stroke="black" cx="5.04" r="2.088" cy="5.04" id="connector0pin"  stroke-width="2.16" fill="black"/>
     <circle stroke="black" cx="5.04" r="2.088" cy="12.24" id="connector1pin"  stroke-width="2.16" fill="black"/>
     <circle stroke="black" cx="5.04" r="2.088" cy="19.44" id="connector2pin"  stroke-width="2.16" fill="black"/>
     <circle stroke="black" cx="5.04" r="2.088" cy="26.64" id="connector3pin"  stroke-width="2.16" fill="black"/>
    </g>
   </g>
  </g>
  <g partID="12361360">
   <g transform="translate(1.95112,121.376)">
    <g id="copper0" >
     <circle stroke="black" cx="5.04" r="2.088" cy="5.04" id="connector0pin"  stroke-width="2.16" fill="black"/>
     <circle stroke="black" cx="5.04" r="2.088" cy="12.24" id="connector1pin"  stroke-width="2.16" fill="black"/>
     <circle stroke="black" cx="5.04" r="2.088" cy="19.44" id="connector2pin"  stroke-width="2.16" fill="black"/>
     <circle stroke="black" cx="5.04" r="2.088" cy="26.64" id="connector3pin"  stroke-width="2.16" fill="black"/>
    </g>
   </g>
  </g>
  <g partID="12361390">
   <g transform="translate(145.231,146.576)">
    <g transform="matrix(0,1,-1,0,0,0)">
     <g id="copper0" >
      <circle stroke="black" cx="5.04" r="2.088" cy="5.04" id="connector0pin"  stroke-width="2.16" fill="black"/>
      <circle stroke="black" cx="5.04" r="2.088" cy="12.24" id="connector1pin"  stroke-width="2.16" fill="black"/>
     </g>
    </g>
   </g>
  </g>
  <g partID="12369130">
   <g transform="translate(149.551,2.57624)">
    <g id="copper0" >
     <circle stroke="black" cx="5.04" r="2.088" cy="5.04" id="connector0pin"  stroke-width="2.16" fill="black"/>
     <circle stroke="black" cx="5.04" r="2.088" cy="12.24" id="connector1pin"  stroke-width="2.16" fill="black"/>
     <circle stroke="black" cx="5.04" r="2.088" cy="19.44" id="connector2pin"  stroke-width="2.16" fill="black"/>
     <circle stroke="black" cx="5.04" r="2.088" cy="26.64" id="connector3pin"  stroke-width="2.16" fill="black"/>
     <circle stroke="black" cx="5.04" r="2.088" cy="33.84" id="connector4pin"  stroke-width="2.16" fill="black"/>
     <circle stroke="black" cx="5.04" r="2.088" cy="41.04" id="connector5pin"  stroke-width="2.16" fill="black"/>
     <circle stroke="black" cx="5.04" r="2.088" cy="48.24" id="connector6pin"  stroke-width="2.16" fill="black"/>
     <circle stroke="black" cx="5.04" r="2.088" cy="55.44" id="connector7pin"  stroke-width="2.16" fill="black"/>
     <circle stroke="black" cx="5.04" r="2.088" cy="62.64" id="connector8pin"  stroke-width="2.16" fill="black"/>
    </g>
   </g>
  </g>
  <g partID="12406310">
   <g transform="translate(149.551,74.5762)">
    <g id="copper0" >
     <circle stroke="black" cx="5.04" r="2.088" cy="5.04" id="connector0pin"  stroke-width="2.16" fill="black"/>
     <circle stroke="black" cx="5.04" r="2.088" cy="12.24" id="connector1pin"  stroke-width="2.16" fill="black"/>
     <circle stroke="black" cx="5.04" r="2.088" cy="19.44" id="connector2pin"  stroke-width="2.16" fill="black"/>
     <circle stroke="black" cx="5.04" r="2.088" cy="26.64" id="connector3pin"  stroke-width="2.16" fill="black"/>
     <circle stroke="black" cx="5.04" r="2.088" cy="33.84" id="connector4pin"  stroke-width="2.16" fill="black"/>
     <circle stroke="black" cx="5.04" r="2.088" cy="41.04" id="connector5pin"  stroke-width="2.16" fill="black"/>
     <circle stroke="black" cx="5.04" r="2.088" cy="48.24" id="connector6pin"  stroke-width="2.16" fill="black"/>
     <circle stroke="black" cx="5.04" r="2.088" cy="55.44" id="connector7pin"  stroke-width="2.16" fill="black"/>
     <circle stroke="black" cx="5.04" r="2.088" cy="62.64" id="connector8pin"  stroke-width="2.16" fill="black"/>
    </g>
   </g>
  </g>
 </g>
</svg>
