<?xml version='1.0' encoding='UTF-8' standalone='no'?>
<!-- Created with Fritzing (http://www.fritzing.org/) -->
<svg xmlns="http://www.w3.org/2000/svg" viewBox="0 0 164.409 80.0447"  y="0in" x="0in" version="1.2" height="1.11173in" xmlns:svg="http://www.w3.org/2000/svg" baseProfile="tiny" width="2.28346in">
 <g transform="matrix(-1, 0, 0, 1, 164.409, 0)">
  <g partID="57832">
   <g id="silkscreen">
    <rect y="0.288" stroke="black" x="0.288" fill="none" height="79.4687" stroke-width="0.576" width="163.833"/>
   </g>
  </g>
  <g partID="57830">
   <g id="board">
    <rect y="0.288" fill-opacity="0.5" stroke="black" x="0.288" fill="none" height="79.4687" stroke-width="0.5" id="boardoutline" width="163.833"/>
   </g>
  </g>
  <g partID="57832">
   <g id="silkscreen">
    <rect y="0.288" stroke="black" x="0.288" fill="none" height="79.4687" stroke-width="0.576" width="163.833"/>
   </g>
  </g>
  <g partID="74912">
   <g transform="translate(67.2911,10.3163)">
    <g id="silkscreen">
     <circle stroke="black" fill="none" cx="4.5" r="4.104" stroke-width="0.72" cy="4.5"/>
     <rect y="3.78" stroke="black" x="7.38" fill="black" height="1.44" stroke-width="0.72" width="1.44"/>
    </g>
   </g>
  </g>
  <g partID="74972">
   <g transform="translate(84.7511,0.416276)">
    <g id="silkscreen">
     <line stroke="black" y2="5.76" x2="30.24" stroke-width="0.72" x1="1.44" y1="5.76"/>
     <line stroke="black" y2="18.72" x2="30.24" stroke-width="0.72" x1="30.24" y1="5.76"/>
     <line stroke="black" y2="18.72" x2="1.44" stroke-width="0.72" x1="30.24" y1="18.72"/>
     <line stroke="black" y2="5.76" x2="1.44" stroke-width="0.72" x1="1.44" y1="18.72"/>
     <line stroke="black" y2="5.76" x2="30.24" stroke-width="0.72" x1="1.44" y1="5.76"/>
     <line stroke="black" y2="10.08" x2="30.24" stroke-width="0.72" x1="30.24" y1="5.76"/>
     <line stroke="black" y2="10.08" x2="1.44" stroke-width="0.72" x1="30.24" y1="10.08"/>
     <line stroke="black" y2="5.76" x2="1.44" stroke-width="0.72" x1="1.44" y1="10.08"/>
     <line stroke="black" y2="10.08" x2="10.8" stroke-width="0.36" x1="10.8" y1="5.76"/>
     <line stroke="black" y2="10.08" x2="20.88" stroke-width="0.36" x1="20.88" y1="5.76"/>
    </g>
   </g>
  </g>
  <g partID="12297252">
   <g transform="translate(65.3111,73.1363)">
    <g transform="matrix(-1,0,0,-1,0,0)">
     <g id="silkscreen" gorn="0.4">
      <rect y="0.72" stroke="black" x="0.72" height="64.8" fill="none" stroke-width="0.72" id="rect1-0" width="7.2" gorn="0.4.0"/>
      <line stroke="black" y2="7.92" x2="7.92" x1="0.72" stroke-width="0.72" y1="7.92" id="line1" gorn="0.4.1"/>
     </g>
    </g>
   </g>
  </g>
  <g partID="12300982">
   <g transform="translate(67.2911,24.7163)">
    <g id="silkscreen">
     <circle stroke="black" fill="none" cx="4.5" r="4.104" stroke-width="0.72" cy="4.5"/>
     <rect y="3.78" stroke="black" x="7.38" fill="black" height="1.44" stroke-width="0.72" width="1.44"/>
    </g>
   </g>
  </g>
  <g partID="12301002">
   <g transform="translate(67.2911,39.1163)">
    <g id="silkscreen">
     <circle stroke="black" fill="none" cx="4.5" r="4.104" stroke-width="0.72" cy="4.5"/>
     <rect y="3.78" stroke="black" x="7.38" fill="black" height="1.44" stroke-width="0.72" width="1.44"/>
    </g>
   </g>
  </g>
  <g partID="12301022">
   <g transform="translate(67.2911,53.5163)">
    <g id="silkscreen">
     <circle stroke="black" fill="none" cx="4.5" r="4.104" stroke-width="0.72" cy="4.5"/>
     <rect y="3.78" stroke="black" x="7.38" fill="black" height="1.44" stroke-width="0.72" width="1.44"/>
    </g>
   </g>
  </g>
  <g partID="12301042">
   <g transform="translate(69.0911,17.5163)">
    <g id="silkscreen">
     <circle stroke="black" fill="none" cx="9.9" r="4.104" stroke-width="0.72" cy="4.5"/>
     <rect y="3.78" stroke="black" x="5.58" fill="black" height="1.44" stroke-width="0.72" width="1.44"/>
    </g>
   </g>
  </g>
  <g partID="12301062">
   <g transform="translate(69.0911,31.9163)">
    <g id="silkscreen">
     <circle stroke="black" fill="none" cx="9.9" r="4.104" stroke-width="0.72" cy="4.5"/>
     <rect y="3.78" stroke="black" x="5.58" fill="black" height="1.44" stroke-width="0.72" width="1.44"/>
    </g>
   </g>
  </g>
  <g partID="12301082">
   <g transform="translate(69.0911,46.3163)">
    <g id="silkscreen">
     <circle stroke="black" fill="none" cx="9.9" r="4.104" stroke-width="0.72" cy="4.5"/>
     <rect y="3.78" stroke="black" x="5.58" fill="black" height="1.44" stroke-width="0.72" width="1.44"/>
    </g>
   </g>
  </g>
  <g partID="12301102">
   <g transform="translate(69.0911,60.7163)">
    <g id="silkscreen">
     <circle stroke="black" fill="none" cx="9.9" r="4.104" stroke-width="0.72" cy="4.5"/>
     <rect y="3.78" stroke="black" x="5.58" fill="black" height="1.44" stroke-width="0.72" width="1.44"/>
    </g>
   </g>
  </g>
  <g partID="12301972">
   <g transform="translate(120.751,5.81628)">
    <g id="silkscreen">
     <line stroke="black" y2="5.76" x2="30.24" stroke-width="0.72" x1="1.44" y1="5.76"/>
     <line stroke="black" y2="18.72" x2="30.24" stroke-width="0.72" x1="30.24" y1="5.76"/>
     <line stroke="black" y2="18.72" x2="1.44" stroke-width="0.72" x1="30.24" y1="18.72"/>
     <line stroke="black" y2="5.76" x2="1.44" stroke-width="0.72" x1="1.44" y1="18.72"/>
     <line stroke="black" y2="5.76" x2="30.24" stroke-width="0.72" x1="1.44" y1="5.76"/>
     <line stroke="black" y2="10.08" x2="30.24" stroke-width="0.72" x1="30.24" y1="5.76"/>
     <line stroke="black" y2="10.08" x2="1.44" stroke-width="0.72" x1="30.24" y1="10.08"/>
     <line stroke="black" y2="5.76" x2="1.44" stroke-width="0.72" x1="1.44" y1="10.08"/>
     <line stroke="black" y2="10.08" x2="10.8" stroke-width="0.36" x1="10.8" y1="5.76"/>
     <line stroke="black" y2="10.08" x2="20.88" stroke-width="0.36" x1="20.88" y1="5.76"/>
    </g>
   </g>
  </g>
  <g partID="12301992">
   <g transform="translate(84.7511,14.8163)">
    <g id="silkscreen">
     <line stroke="black" y2="5.76" x2="30.24" stroke-width="0.72" x1="1.44" y1="5.76"/>
     <line stroke="black" y2="18.72" x2="30.24" stroke-width="0.72" x1="30.24" y1="5.76"/>
     <line stroke="black" y2="18.72" x2="1.44" stroke-width="0.72" x1="30.24" y1="18.72"/>
     <line stroke="black" y2="5.76" x2="1.44" stroke-width="0.72" x1="1.44" y1="18.72"/>
     <line stroke="black" y2="5.76" x2="30.24" stroke-width="0.72" x1="1.44" y1="5.76"/>
     <line stroke="black" y2="10.08" x2="30.24" stroke-width="0.72" x1="30.24" y1="5.76"/>
     <line stroke="black" y2="10.08" x2="1.44" stroke-width="0.72" x1="30.24" y1="10.08"/>
     <line stroke="black" y2="5.76" x2="1.44" stroke-width="0.72" x1="1.44" y1="10.08"/>
     <line stroke="black" y2="10.08" x2="10.8" stroke-width="0.36" x1="10.8" y1="5.76"/>
     <line stroke="black" y2="10.08" x2="20.88" stroke-width="0.36" x1="20.88" y1="5.76"/>
    </g>
   </g>
  </g>
  <g partID="12302012">
   <g transform="translate(120.751,20.2163)">
    <g id="silkscreen">
     <line stroke="black" y2="5.76" x2="30.24" stroke-width="0.72" x1="1.44" y1="5.76"/>
     <line stroke="black" y2="18.72" x2="30.24" stroke-width="0.72" x1="30.24" y1="5.76"/>
     <line stroke="black" y2="18.72" x2="1.44" stroke-width="0.72" x1="30.24" y1="18.72"/>
     <line stroke="black" y2="5.76" x2="1.44" stroke-width="0.72" x1="1.44" y1="18.72"/>
     <line stroke="black" y2="5.76" x2="30.24" stroke-width="0.72" x1="1.44" y1="5.76"/>
     <line stroke="black" y2="10.08" x2="30.24" stroke-width="0.72" x1="30.24" y1="5.76"/>
     <line stroke="black" y2="10.08" x2="1.44" stroke-width="0.72" x1="30.24" y1="10.08"/>
     <line stroke="black" y2="5.76" x2="1.44" stroke-width="0.72" x1="1.44" y1="10.08"/>
     <line stroke="black" y2="10.08" x2="10.8" stroke-width="0.36" x1="10.8" y1="5.76"/>
     <line stroke="black" y2="10.08" x2="20.88" stroke-width="0.36" x1="20.88" y1="5.76"/>
    </g>
   </g>
  </g>
  <g partID="12302032">
   <g transform="translate(84.7511,29.2163)">
    <g id="silkscreen">
     <line stroke="black" y2="5.76" x2="30.24" stroke-width="0.72" x1="1.44" y1="5.76"/>
     <line stroke="black" y2="18.72" x2="30.24" stroke-width="0.72" x1="30.24" y1="5.76"/>
     <line stroke="black" y2="18.72" x2="1.44" stroke-width="0.72" x1="30.24" y1="18.72"/>
     <line stroke="black" y2="5.76" x2="1.44" stroke-width="0.72" x1="1.44" y1="18.72"/>
     <line stroke="black" y2="5.76" x2="30.24" stroke-width="0.72" x1="1.44" y1="5.76"/>
     <line stroke="black" y2="10.08" x2="30.24" stroke-width="0.72" x1="30.24" y1="5.76"/>
     <line stroke="black" y2="10.08" x2="1.44" stroke-width="0.72" x1="30.24" y1="10.08"/>
     <line stroke="black" y2="5.76" x2="1.44" stroke-width="0.72" x1="1.44" y1="10.08"/>
     <line stroke="black" y2="10.08" x2="10.8" stroke-width="0.36" x1="10.8" y1="5.76"/>
     <line stroke="black" y2="10.08" x2="20.88" stroke-width="0.36" x1="20.88" y1="5.76"/>
    </g>
   </g>
  </g>
  <g partID="12302052">
   <g transform="translate(120.751,34.6163)">
    <g id="silkscreen">
     <line stroke="black" y2="5.76" x2="30.24" stroke-width="0.72" x1="1.44" y1="5.76"/>
     <line stroke="black" y2="18.72" x2="30.24" stroke-width="0.72" x1="30.24" y1="5.76"/>
     <line stroke="black" y2="18.72" x2="1.44" stroke-width="0.72" x1="30.24" y1="18.72"/>
     <line stroke="black" y2="5.76" x2="1.44" stroke-width="0.72" x1="1.44" y1="18.72"/>
     <line stroke="black" y2="5.76" x2="30.24" stroke-width="0.72" x1="1.44" y1="5.76"/>
     <line stroke="black" y2="10.08" x2="30.24" stroke-width="0.72" x1="30.24" y1="5.76"/>
     <line stroke="black" y2="10.08" x2="1.44" stroke-width="0.72" x1="30.24" y1="10.08"/>
     <line stroke="black" y2="5.76" x2="1.44" stroke-width="0.72" x1="1.44" y1="10.08"/>
     <line stroke="black" y2="10.08" x2="10.8" stroke-width="0.36" x1="10.8" y1="5.76"/>
     <line stroke="black" y2="10.08" x2="20.88" stroke-width="0.36" x1="20.88" y1="5.76"/>
    </g>
   </g>
  </g>
  <g partID="12302072">
   <g transform="translate(84.7511,43.6163)">
    <g id="silkscreen">
     <line stroke="black" y2="5.76" x2="30.24" stroke-width="0.72" x1="1.44" y1="5.76"/>
     <line stroke="black" y2="18.72" x2="30.24" stroke-width="0.72" x1="30.24" y1="5.76"/>
     <line stroke="black" y2="18.72" x2="1.44" stroke-width="0.72" x1="30.24" y1="18.72"/>
     <line stroke="black" y2="5.76" x2="1.44" stroke-width="0.72" x1="1.44" y1="18.72"/>
     <line stroke="black" y2="5.76" x2="30.24" stroke-width="0.72" x1="1.44" y1="5.76"/>
     <line stroke="black" y2="10.08" x2="30.24" stroke-width="0.72" x1="30.24" y1="5.76"/>
     <line stroke="black" y2="10.08" x2="1.44" stroke-width="0.72" x1="30.24" y1="10.08"/>
     <line stroke="black" y2="5.76" x2="1.44" stroke-width="0.72" x1="1.44" y1="10.08"/>
     <line stroke="black" y2="10.08" x2="10.8" stroke-width="0.36" x1="10.8" y1="5.76"/>
     <line stroke="black" y2="10.08" x2="20.88" stroke-width="0.36" x1="20.88" y1="5.76"/>
    </g>
   </g>
  </g>
  <g partID="12302092">
   <g transform="translate(120.751,49.0163)">
    <g id="silkscreen">
     <line stroke="black" y2="5.76" x2="30.24" stroke-width="0.72" x1="1.44" y1="5.76"/>
     <line stroke="black" y2="18.72" x2="30.24" stroke-width="0.72" x1="30.24" y1="5.76"/>
     <line stroke="black" y2="18.72" x2="1.44" stroke-width="0.72" x1="30.24" y1="18.72"/>
     <line stroke="black" y2="5.76" x2="1.44" stroke-width="0.72" x1="1.44" y1="18.72"/>
     <line stroke="black" y2="5.76" x2="30.24" stroke-width="0.72" x1="1.44" y1="5.76"/>
     <line stroke="black" y2="10.08" x2="30.24" stroke-width="0.72" x1="30.24" y1="5.76"/>
     <line stroke="black" y2="10.08" x2="1.44" stroke-width="0.72" x1="30.24" y1="10.08"/>
     <line stroke="black" y2="5.76" x2="1.44" stroke-width="0.72" x1="1.44" y1="10.08"/>
     <line stroke="black" y2="10.08" x2="10.8" stroke-width="0.36" x1="10.8" y1="5.76"/>
     <line stroke="black" y2="10.08" x2="20.88" stroke-width="0.36" x1="20.88" y1="5.76"/>
    </g>
   </g>
  </g>
  <g partID="12305142">
   <g transform="translate(22.1111,73.1363)">
    <g transform="matrix(-1,0,0,-1,0,0)">
     <g id="silkscreen" gorn="0.4">
      <rect y="0.72" stroke="black" x="0.72" height="64.8" fill="none" stroke-width="0.72" id="rect1-0" width="7.2" gorn="0.4.0"/>
      <line stroke="black" y2="7.92" x2="7.92" x1="0.72" stroke-width="0.72" y1="7.92" id="line1" gorn="0.4.1"/>
     </g>
    </g>
   </g>
  </g>
  <g partID="12308852">
   <g transform="translate(24.2711,6.89628)">
    <g id="silkscreen">
     <line stroke="black" y2="65.52" x2="0.72" stroke-width="0.72" x1="0.72" y1="0.72"/>
     <line stroke="black" y2="65.52" x2="29.52" stroke-width="0.72" x1="0.72" y1="65.52"/>
     <line stroke="black" y2="0.72" x2="29.52" stroke-width="0.72" x1="29.52" y1="65.52"/>
     <line stroke="black" y2="0.72" x2="11.52" stroke-width="0.72" x1="0.72" y1="0.72"/>
     <line stroke="black" y2="0.72" x2="29.52" stroke-width="0.72" x1="18.72" y1="0.72"/>
    </g>
   </g>
  </g>
  <g partID="12312220">
   <g transform="translate(4.54469,0.913337)">
    <g id="silkscreen">
     <text y="4.90612" font-size="5.45125" x="43.61" xml:space="preserve" fill="black" stroke-width="0" xmlns:xml="http://www.w3.org/XML/1998/namespace" id="label" font-family="OCRA" text-anchor="middle">LED strip driver</text>
    </g>
   </g>
  </g>
  <g partID="12315422">
   <g transform="translate(153.151,0.776276)">
    <g id="silkscreen">
     <line stroke="black" y2="37.44" x2="1.44" stroke-width="0.72" x1="1.44" y1="1.44"/>
     <line stroke="black" y2="37.44" x2="8.64" stroke-width="0.72" x1="1.44" y1="37.44"/>
     <line stroke="black" y2="1.44" x2="8.64" stroke-width="0.72" x1="8.64" y1="37.44"/>
     <line stroke="black" y2="1.44" x2="1.44" stroke-width="0.72" x1="8.64" y1="1.44"/>
     <line stroke="black" y2="1.44" x2="3.96" stroke-width="0.36" x1="1.44" y1="3.96"/>
     <!-- 120 -->
    </g>
   </g>
  </g>
  <g partID="12315792">
   <g transform="translate(153.151,40.3763)">
    <g id="silkscreen">
     <line stroke="black" y2="37.44" x2="1.44" stroke-width="0.72" x1="1.44" y1="1.44"/>
     <line stroke="black" y2="37.44" x2="8.64" stroke-width="0.72" x1="1.44" y1="37.44"/>
     <line stroke="black" y2="1.44" x2="8.64" stroke-width="0.72" x1="8.64" y1="37.44"/>
     <line stroke="black" y2="1.44" x2="1.44" stroke-width="0.72" x1="8.64" y1="1.44"/>
     <line stroke="black" y2="1.44" x2="3.96" stroke-width="0.36" x1="1.44" y1="3.96"/>
     <!-- 120 -->
    </g>
   </g>
  </g>
  <g partID="12319252">
   <g transform="translate(148.831,69.1763)">
    <g transform="matrix(0,1,-1,0,0,0)">
     <g id="silkscreen">
      <line stroke="black" y2="15.84" x2="1.44" stroke-width="0.72" x1="1.44" y1="1.44"/>
      <line stroke="black" y2="15.84" x2="8.64" stroke-width="0.72" x1="1.44" y1="15.84"/>
      <line stroke="black" y2="1.44" x2="8.64" stroke-width="0.72" x1="8.64" y1="15.84"/>
      <line stroke="black" y2="1.44" x2="1.44" stroke-width="0.72" x1="8.64" y1="1.44"/>
      <line stroke="black" y2="1.44" x2="3.96" stroke-width="0.36" x1="1.44" y1="3.96"/>
      <!-- 120 -->
     </g>
    </g>
   </g>
  </g>
  <g partID="12348782">
   <g transform="translate(148.831,0.776276)">
    <g transform="matrix(0,1,-1,0,0,0)">
     <g id="silkscreen">
      <line stroke="black" y2="15.84" x2="1.44" stroke-width="0.72" x1="1.44" y1="1.44"/>
      <line stroke="black" y2="15.84" x2="8.64" stroke-width="0.72" x1="1.44" y1="15.84"/>
      <line stroke="black" y2="1.44" x2="8.64" stroke-width="0.72" x1="8.64" y1="15.84"/>
      <line stroke="black" y2="1.44" x2="1.44" stroke-width="0.72" x1="8.64" y1="1.44"/>
      <line stroke="black" y2="1.44" x2="3.96" stroke-width="0.36" x1="1.44" y1="3.96"/>
      <!-- 120 -->
     </g>
    </g>
   </g>
  </g>
  <g partID="12354052">
   <g transform="translate(1.95111,42.1763)">
    <g id="silkscreen">
     <line stroke="black" y2="30.24" x2="1.44" stroke-width="0.72" x1="1.44" y1="1.44"/>
     <line stroke="black" y2="30.24" x2="8.64" stroke-width="0.72" x1="1.44" y1="30.24"/>
     <line stroke="black" y2="1.44" x2="8.64" stroke-width="0.72" x1="8.64" y1="30.24"/>
     <line stroke="black" y2="1.44" x2="1.44" stroke-width="0.72" x1="8.64" y1="1.44"/>
     <line stroke="black" y2="1.44" x2="3.96" stroke-width="0.36" x1="1.44" y1="3.96"/>
     <!-- 120 -->
    </g>
   </g>
  </g>
  <g partID="12354832">
   <g transform="translate(1.95111,6.17628)">
    <g id="silkscreen">
     <line stroke="black" y2="30.24" x2="1.44" stroke-width="0.72" x1="1.44" y1="1.44"/>
     <line stroke="black" y2="30.24" x2="8.64" stroke-width="0.72" x1="1.44" y1="30.24"/>
     <line stroke="black" y2="1.44" x2="8.64" stroke-width="0.72" x1="8.64" y1="30.24"/>
     <line stroke="black" y2="1.44" x2="1.44" stroke-width="0.72" x1="8.64" y1="1.44"/>
     <line stroke="black" y2="1.44" x2="3.96" stroke-width="0.36" x1="1.44" y1="3.96"/>
     <!-- 120 -->
    </g>
   </g>
  </g>
  <g partID="12301100" id="partLabel">
   <g transform="translate(71.0111,71.0639)">
    <g transform="matrix(1,0,0,1,0,0)">
     <g fill-opacity="1" font-size="5" font-weight="normal" stroke="none" fill="#000000" font-family="'OCRA'" id="silkscreenLabel" font-style="normal">
      <text y="3.75" x="0">R10</text>
     </g>
    </g>
   </g>
  </g>
  <g partID="74910" id="partLabel">
   <g transform="translate(72.8796,6.79194)">
    <g fill-opacity="1" font-size="5" font-weight="normal" stroke="none" fill="#000000" font-family="'OCRA'" id="silkscreenLabel" font-style="normal">
     <text y="3.75" x="0">R3</text>
    </g>
   </g>
  </g>
  <g partID="74970" id="partLabel">
   <g transform="translate(87.1343,6.64755)">
    <g fill-opacity="1" font-size="5" font-weight="normal" stroke="none" fill="#000000" font-family="'OCRA'" id="silkscreenLabel" font-style="normal">
     <text y="3.75" x="0">Q1</text>
    </g>
   </g>
  </g>
  <g partID="12297250" id="partLabel">
   <g transform="translate(56.0568,74.4112)">
    <g fill-opacity="1" font-size="5" font-weight="normal" stroke="none" fill="#000000" font-family="'OCRA'" id="silkscreenLabel" font-style="normal">
     <text y="3.75" x="0">R2</text>
    </g>
   </g>
  </g>
  <g partID="12302050" id="partLabel">
   <g transform="translate(122.504,40.9735)">
    <g fill-opacity="1" font-size="5" font-weight="normal" stroke="none" fill="#000000" font-family="'OCRA'" id="silkscreenLabel" font-style="normal">
     <text y="3.75" x="0">Q6</text>
    </g>
   </g>
  </g>
  <g partID="12302030" id="partLabel">
   <g transform="translate(86.7564,35.4475)">
    <g fill-opacity="1" font-size="5" font-weight="normal" stroke="none" fill="#000000" font-family="'OCRA'" id="silkscreenLabel" font-style="normal">
     <text y="3.75" x="0">Q5</text>
    </g>
   </g>
  </g>
  <g partID="12302010" id="partLabel">
   <g transform="translate(122.882,26.5735)">
    <g fill-opacity="1" font-size="5" font-weight="normal" stroke="none" fill="#000000" font-family="'OCRA'" id="silkscreenLabel" font-style="normal">
     <text y="3.75" x="0">Q4</text>
    </g>
   </g>
  </g>
  <g partID="12301990" id="partLabel">
   <g transform="translate(86.8824,20.9216)">
    <g fill-opacity="1" font-size="5" font-weight="normal" stroke="none" fill="#000000" font-family="'OCRA'" id="silkscreenLabel" font-style="normal">
     <text y="3.75" x="0">Q3</text>
    </g>
   </g>
  </g>
  <g partID="12301970" id="partLabel">
   <g transform="translate(123.512,11.9216)">
    <g fill-opacity="1" font-size="5" font-weight="normal" stroke="none" fill="#000000" font-family="'OCRA'" id="silkscreenLabel" font-style="normal">
     <text y="3.75" x="0">Q2</text>
    </g>
   </g>
  </g>
  <g partID="12302070" id="partLabel">
   <g transform="translate(86.5045,49.8475)">
    <g fill-opacity="1" font-size="5" font-weight="normal" stroke="none" fill="#000000" font-family="'OCRA'" id="silkscreenLabel" font-style="normal">
     <text y="3.75" x="0">Q7</text>
    </g>
   </g>
  </g>
  <g partID="12302090" id="partLabel">
   <g transform="translate(123.008,55.3735)">
    <g fill-opacity="1" font-size="5" font-weight="normal" stroke="none" fill="#000000" font-family="'OCRA'" id="silkscreenLabel" font-style="normal">
     <text y="3.75" x="0">Q8</text>
    </g>
   </g>
  </g>
  <g partID="12305140" id="partLabel">
   <g transform="translate(12.0795,74.5597)">
    <g transform="matrix(1,0,0,1,0,0)">
     <g fill-opacity="1" font-size="5" font-weight="normal" stroke="none" fill="#000000" font-family="'OCRA'" id="silkscreenLabel" font-style="normal">
      <text y="3.75" x="0">R1</text>
     </g>
    </g>
   </g>
  </g>
  <g partID="12308850" id="partLabel">
   <g transform="translate(44.3609,10.0561)">
    <g transform="matrix(0,1,-1,0,0,0)">
     <g fill-opacity="1" font-size="5" font-weight="normal" stroke="none" fill="#000000" font-family="'OCRA'" id="silkscreenLabel" font-style="normal">
      <text y="3.75" x="0">IC1</text>
      <text y="8.75" x="0">ULN2803A</text>
     </g>
    </g>
   </g>
  </g>
  <g partID="12315420" id="partLabel">
   <g transform="translate(147.402,3.59164)">
    <g fill-opacity="1" font-size="5" font-weight="normal" stroke="none" fill="#000000" font-family="'OCRA'" id="silkscreenLabel" font-style="normal">
     <text y="3.75" x="0">J5</text>
    </g>
   </g>
  </g>
  <g partID="12319250" id="partLabel">
   <g transform="translate(147.684,72.7328)">
    <g fill-opacity="1" font-size="5" font-weight="normal" stroke="none" fill="#000000" font-family="'OCRA'" id="silkscreenLabel" font-style="normal">
     <text y="3.75" x="0">J4</text>
    </g>
   </g>
  </g>
  <g partID="12315790" id="partLabel">
   <g transform="translate(151.181,38.1529)">
    <g fill-opacity="1" font-size="5" font-weight="normal" stroke="none" fill="#000000" font-family="'OCRA'" id="silkscreenLabel" font-style="normal">
     <text y="3.75" x="0">J6</text>
    </g>
   </g>
  </g>
  <g partID="12348780" id="partLabel">
   <g transform="translate(122.431,3.9211)">
    <g fill-opacity="1" font-size="5" font-weight="normal" stroke="none" fill="#000000" font-family="'OCRA'" id="silkscreenLabel" font-style="normal">
     <text y="3.75" x="0">J3</text>
    </g>
   </g>
  </g>
  <g partID="12354050" id="partLabel">
   <g transform="translate(3.59128,38.4658)">
    <g fill-opacity="1" font-size="5" font-weight="normal" stroke="none" fill="#000000" font-family="'OCRA'" id="silkscreenLabel" font-style="normal">
     <text y="3.75" x="0">J2</text>
    </g>
   </g>
  </g>
  <g partID="12354830" id="partLabel">
   <g transform="translate(3.84321,1.58402)">
    <g fill-opacity="1" font-size="5" font-weight="normal" stroke="none" fill="#000000" font-family="'OCRA'" id="silkscreenLabel" font-style="normal">
     <text y="3.75" x="0">J1</text>
    </g>
   </g>
  </g>
  <g partID="74911">
   <g transform="translate(67.2911,10.3163)">
    <g id="copper1">
     <!-- <rect width="55" x="35" y="35" fill="none" height="55" stroke="rgb(255, 191, 0)" stroke-width="20" /> -->
     <circle stroke="white" fill="white" cx="4.5" r="1.98" stroke-width="2.16" cy="4.5" id="connector0pin"/>
     <circle stroke="white" fill="white" cx="11.7" r="1.98" stroke-width="2.16" cy="4.5" id="connector1pin"/>
    </g>
   </g>
  </g>
  <g partID="74971">
   <g transform="translate(84.7511,0.416276)">
    <g id="copper1">
     <g id="copper0">
      <rect y="12.168" stroke="white" x="6.408" fill="white" height="4.464" stroke-width="2.16" width="4.464"/>
      <circle stroke="white" fill="white" cx="8.64" r="2.232" stroke-width="2.16" cy="14.4" id="connector0pad"/>
      <circle stroke="white" fill="white" cx="15.84" r="2.232" stroke-width="2.16" cy="14.4" id="connector1pad"/>
      <circle stroke="white" fill="white" cx="23.04" r="2.232" stroke-width="2.16" cy="14.4" id="connector2pad"/>
     </g>
    </g>
   </g>
  </g>
  <g partID="12297251">
   <g transform="translate(65.3111,73.1363)">
    <g transform="matrix(-1,0,0,-1,0,0)">
     <g id="copper1" gorn="0.5">
      <g id="copper0" gorn="0.5.0">
       <rect y="2.34" stroke="white" x="2.34" height="3.96" fill="white" stroke-width="2.16" id="square" width="3.96" gorn="0.5.0.0"/>
       <circle stroke="white" fill="white" cx="4.32" r="1.98" stroke-width="2.16" id="connector0pin" cy="4.32" gorn="0.5.0.1"/>
       <circle stroke="white" fill="white" cx="4.32" r="1.98" stroke-width="2.16" id="connector1pin" cy="11.52" gorn="0.5.0.2"/>
       <circle stroke="white" fill="white" cx="4.32" r="1.98" stroke-width="2.16" id="connector2pin" cy="18.72" gorn="0.5.0.3"/>
       <circle stroke="white" fill="white" cx="4.32" r="1.98" stroke-width="2.16" id="connector3pin" cy="25.92" gorn="0.5.0.4"/>
       <circle stroke="white" fill="white" cx="4.32" r="1.98" stroke-width="2.16" id="connector4pin" cy="33.12" gorn="0.5.0.5"/>
       <circle stroke="white" fill="white" cx="4.32" r="1.98" stroke-width="2.16" id="connector5pin" cy="40.32" gorn="0.5.0.6"/>
       <circle stroke="white" fill="white" cx="4.32" r="1.98" stroke-width="2.16" id="connector6pin" cy="47.52" gorn="0.5.0.7"/>
       <circle stroke="white" fill="white" cx="4.32" r="1.98" stroke-width="2.16" id="connector7pin" cy="54.72" gorn="0.5.0.8"/>
       <circle stroke="white" fill="white" cx="4.32" r="1.98" stroke-width="2.16" id="connector8pin" cy="61.92" gorn="0.5.0.9"/>
      </g>
     </g>
    </g>
   </g>
  </g>
  <g partID="12300981">
   <g transform="translate(67.2911,24.7163)">
    <g id="copper1">
     <!-- <rect width="55" x="35" y="35" fill="none" height="55" stroke="rgb(255, 191, 0)" stroke-width="20" /> -->
     <circle stroke="white" fill="white" cx="4.5" r="1.98" stroke-width="2.16" cy="4.5" id="connector0pin"/>
     <circle stroke="white" fill="white" cx="11.7" r="1.98" stroke-width="2.16" cy="4.5" id="connector1pin"/>
    </g>
   </g>
  </g>
  <g partID="12301001">
   <g transform="translate(67.2911,39.1163)">
    <g id="copper1">
     <!-- <rect width="55" x="35" y="35" fill="none" height="55" stroke="rgb(255, 191, 0)" stroke-width="20" /> -->
     <circle stroke="white" fill="white" cx="4.5" r="1.98" stroke-width="2.16" cy="4.5" id="connector0pin"/>
     <circle stroke="white" fill="white" cx="11.7" r="1.98" stroke-width="2.16" cy="4.5" id="connector1pin"/>
    </g>
   </g>
  </g>
  <g partID="12301021">
   <g transform="translate(67.2911,53.5163)">
    <g id="copper1">
     <!-- <rect width="55" x="35" y="35" fill="none" height="55" stroke="rgb(255, 191, 0)" stroke-width="20" /> -->
     <circle stroke="white" fill="white" cx="4.5" r="1.98" stroke-width="2.16" cy="4.5" id="connector0pin"/>
     <circle stroke="white" fill="white" cx="11.7" r="1.98" stroke-width="2.16" cy="4.5" id="connector1pin"/>
    </g>
   </g>
  </g>
  <g partID="12301041">
   <g transform="translate(69.0911,17.5163)">
    <g id="copper1">
     <!--  <rect width="55" x="10" y="35" fill="none" height="55" stroke="rgb(255, 191, 0)" stroke-width="20" /> -->
     <circle stroke="white" fill="white" cx="2.7" r="1.98" stroke-width="2.16" cy="4.5" id="connector0pin"/>
     <circle stroke="white" fill="white" cx="9.9" r="1.98" stroke-width="2.16" cy="4.5" id="connector1pin"/>
    </g>
   </g>
  </g>
  <g partID="12301061">
   <g transform="translate(69.0911,31.9163)">
    <g id="copper1">
     <!--  <rect width="55" x="10" y="35" fill="none" height="55" stroke="rgb(255, 191, 0)" stroke-width="20" /> -->
     <circle stroke="white" fill="white" cx="2.7" r="1.98" stroke-width="2.16" cy="4.5" id="connector0pin"/>
     <circle stroke="white" fill="white" cx="9.9" r="1.98" stroke-width="2.16" cy="4.5" id="connector1pin"/>
    </g>
   </g>
  </g>
  <g partID="12301081">
   <g transform="translate(69.0911,46.3163)">
    <g id="copper1">
     <!--  <rect width="55" x="10" y="35" fill="none" height="55" stroke="rgb(255, 191, 0)" stroke-width="20" /> -->
     <circle stroke="white" fill="white" cx="2.7" r="1.98" stroke-width="2.16" cy="4.5" id="connector0pin"/>
     <circle stroke="white" fill="white" cx="9.9" r="1.98" stroke-width="2.16" cy="4.5" id="connector1pin"/>
    </g>
   </g>
  </g>
  <g partID="12301101">
   <g transform="translate(69.0911,60.7163)">
    <g id="copper1">
     <!--  <rect width="55" x="10" y="35" fill="none" height="55" stroke="rgb(255, 191, 0)" stroke-width="20" /> -->
     <circle stroke="white" fill="white" cx="2.7" r="1.98" stroke-width="2.16" cy="4.5" id="connector0pin"/>
     <circle stroke="white" fill="white" cx="9.9" r="1.98" stroke-width="2.16" cy="4.5" id="connector1pin"/>
    </g>
   </g>
  </g>
  <g partID="12301971">
   <g transform="translate(120.751,5.81628)">
    <g id="copper1">
     <g id="copper0">
      <rect y="12.168" stroke="white" x="6.408" fill="white" height="4.464" stroke-width="2.16" width="4.464"/>
      <circle stroke="white" fill="white" cx="8.64" r="2.232" stroke-width="2.16" cy="14.4" id="connector0pad"/>
      <circle stroke="white" fill="white" cx="15.84" r="2.232" stroke-width="2.16" cy="14.4" id="connector1pad"/>
      <circle stroke="white" fill="white" cx="23.04" r="2.232" stroke-width="2.16" cy="14.4" id="connector2pad"/>
     </g>
    </g>
   </g>
  </g>
  <g partID="12301991">
   <g transform="translate(84.7511,14.8163)">
    <g id="copper1">
     <g id="copper0">
      <rect y="12.168" stroke="white" x="6.408" fill="white" height="4.464" stroke-width="2.16" width="4.464"/>
      <circle stroke="white" fill="white" cx="8.64" r="2.232" stroke-width="2.16" cy="14.4" id="connector0pad"/>
      <circle stroke="white" fill="white" cx="15.84" r="2.232" stroke-width="2.16" cy="14.4" id="connector1pad"/>
      <circle stroke="white" fill="white" cx="23.04" r="2.232" stroke-width="2.16" cy="14.4" id="connector2pad"/>
     </g>
    </g>
   </g>
  </g>
  <g partID="12302011">
   <g transform="translate(120.751,20.2163)">
    <g id="copper1">
     <g id="copper0">
      <rect y="12.168" stroke="white" x="6.408" fill="white" height="4.464" stroke-width="2.16" width="4.464"/>
      <circle stroke="white" fill="white" cx="8.64" r="2.232" stroke-width="2.16" cy="14.4" id="connector0pad"/>
      <circle stroke="white" fill="white" cx="15.84" r="2.232" stroke-width="2.16" cy="14.4" id="connector1pad"/>
      <circle stroke="white" fill="white" cx="23.04" r="2.232" stroke-width="2.16" cy="14.4" id="connector2pad"/>
     </g>
    </g>
   </g>
  </g>
  <g partID="12302031">
   <g transform="translate(84.7511,29.2163)">
    <g id="copper1">
     <g id="copper0">
      <rect y="12.168" stroke="white" x="6.408" fill="white" height="4.464" stroke-width="2.16" width="4.464"/>
      <circle stroke="white" fill="white" cx="8.64" r="2.232" stroke-width="2.16" cy="14.4" id="connector0pad"/>
      <circle stroke="white" fill="white" cx="15.84" r="2.232" stroke-width="2.16" cy="14.4" id="connector1pad"/>
      <circle stroke="white" fill="white" cx="23.04" r="2.232" stroke-width="2.16" cy="14.4" id="connector2pad"/>
     </g>
    </g>
   </g>
  </g>
  <g partID="12302051">
   <g transform="translate(120.751,34.6163)">
    <g id="copper1">
     <g id="copper0">
      <rect y="12.168" stroke="white" x="6.408" fill="white" height="4.464" stroke-width="2.16" width="4.464"/>
      <circle stroke="white" fill="white" cx="8.64" r="2.232" stroke-width="2.16" cy="14.4" id="connector0pad"/>
      <circle stroke="white" fill="white" cx="15.84" r="2.232" stroke-width="2.16" cy="14.4" id="connector1pad"/>
      <circle stroke="white" fill="white" cx="23.04" r="2.232" stroke-width="2.16" cy="14.4" id="connector2pad"/>
     </g>
    </g>
   </g>
  </g>
  <g partID="12302071">
   <g transform="translate(84.7511,43.6163)">
    <g id="copper1">
     <g id="copper0">
      <rect y="12.168" stroke="white" x="6.408" fill="white" height="4.464" stroke-width="2.16" width="4.464"/>
      <circle stroke="white" fill="white" cx="8.64" r="2.232" stroke-width="2.16" cy="14.4" id="connector0pad"/>
      <circle stroke="white" fill="white" cx="15.84" r="2.232" stroke-width="2.16" cy="14.4" id="connector1pad"/>
      <circle stroke="white" fill="white" cx="23.04" r="2.232" stroke-width="2.16" cy="14.4" id="connector2pad"/>
     </g>
    </g>
   </g>
  </g>
  <g partID="12302091">
   <g transform="translate(120.751,49.0163)">
    <g id="copper1">
     <g id="copper0">
      <rect y="12.168" stroke="white" x="6.408" fill="white" height="4.464" stroke-width="2.16" width="4.464"/>
      <circle stroke="white" fill="white" cx="8.64" r="2.232" stroke-width="2.16" cy="14.4" id="connector0pad"/>
      <circle stroke="white" fill="white" cx="15.84" r="2.232" stroke-width="2.16" cy="14.4" id="connector1pad"/>
      <circle stroke="white" fill="white" cx="23.04" r="2.232" stroke-width="2.16" cy="14.4" id="connector2pad"/>
     </g>
    </g>
   </g>
  </g>
  <g partID="12305141">
   <g transform="translate(22.1111,73.1363)">
    <g transform="matrix(-1,0,0,-1,0,0)">
     <g id="copper1" gorn="0.5">
      <g id="copper0" gorn="0.5.0">
       <rect y="2.34" stroke="white" x="2.34" height="3.96" fill="white" stroke-width="2.16" id="square" width="3.96" gorn="0.5.0.0"/>
       <circle stroke="white" fill="white" cx="4.32" r="1.98" stroke-width="2.16" id="connector0pin" cy="4.32" gorn="0.5.0.1"/>
       <circle stroke="white" fill="white" cx="4.32" r="1.98" stroke-width="2.16" id="connector1pin" cy="11.52" gorn="0.5.0.2"/>
       <circle stroke="white" fill="white" cx="4.32" r="1.98" stroke-width="2.16" id="connector2pin" cy="18.72" gorn="0.5.0.3"/>
       <circle stroke="white" fill="white" cx="4.32" r="1.98" stroke-width="2.16" id="connector3pin" cy="25.92" gorn="0.5.0.4"/>
       <circle stroke="white" fill="white" cx="4.32" r="1.98" stroke-width="2.16" id="connector4pin" cy="33.12" gorn="0.5.0.5"/>
       <circle stroke="white" fill="white" cx="4.32" r="1.98" stroke-width="2.16" id="connector5pin" cy="40.32" gorn="0.5.0.6"/>
       <circle stroke="white" fill="white" cx="4.32" r="1.98" stroke-width="2.16" id="connector6pin" cy="47.52" gorn="0.5.0.7"/>
       <circle stroke="white" fill="white" cx="4.32" r="1.98" stroke-width="2.16" id="connector7pin" cy="54.72" gorn="0.5.0.8"/>
       <circle stroke="white" fill="white" cx="4.32" r="1.98" stroke-width="2.16" id="connector8pin" cy="61.92" gorn="0.5.0.9"/>
      </g>
     </g>
    </g>
   </g>
  </g>
  <g partID="12308851">
   <g transform="translate(24.2711,6.89628)">
    <g id="copper1">
     <g id="copper0">
      <rect y="2.34" stroke="white" x="2.34" fill="white" height="3.96" stroke-width="2.16" id="square" width="3.96"/>
      <circle stroke="white" fill="white" cx="4.32" r="1.98" stroke-width="2.16" cy="4.32" id="connector0pin"/>
      <circle stroke="white" fill="white" cx="25.92" r="1.98" stroke-width="2.16" cy="4.32" id="connector17pin"/>
      <circle stroke="white" fill="white" cx="4.32" r="1.98" stroke-width="2.16" cy="11.52" id="connector1pin"/>
      <circle stroke="white" fill="white" cx="25.92" r="1.98" stroke-width="2.16" cy="11.52" id="connector16pin"/>
      <circle stroke="white" fill="white" cx="4.32" r="1.98" stroke-width="2.16" cy="18.72" id="connector2pin"/>
      <circle stroke="white" fill="white" cx="25.92" r="1.98" stroke-width="2.16" cy="18.72" id="connector15pin"/>
      <circle stroke="white" fill="white" cx="4.32" r="1.98" stroke-width="2.16" cy="25.92" id="connector3pin"/>
      <circle stroke="white" fill="white" cx="25.92" r="1.98" stroke-width="2.16" cy="25.92" id="connector14pin"/>
      <circle stroke="white" fill="white" cx="4.32" r="1.98" stroke-width="2.16" cy="33.12" id="connector4pin"/>
      <circle stroke="white" fill="white" cx="25.92" r="1.98" stroke-width="2.16" cy="33.12" id="connector13pin"/>
      <circle stroke="white" fill="white" cx="4.32" r="1.98" stroke-width="2.16" cy="40.32" id="connector5pin"/>
      <circle stroke="white" fill="white" cx="25.92" r="1.98" stroke-width="2.16" cy="40.32" id="connector12pin"/>
      <circle stroke="white" fill="white" cx="4.32" r="1.98" stroke-width="2.16" cy="47.52" id="connector6pin"/>
      <circle stroke="white" fill="white" cx="25.92" r="1.98" stroke-width="2.16" cy="47.52" id="connector11pin"/>
      <circle stroke="white" fill="white" cx="4.32" r="1.98" stroke-width="2.16" cy="54.72" id="connector7pin"/>
      <circle stroke="white" fill="white" cx="25.92" r="1.98" stroke-width="2.16" cy="54.72" id="connector10pin"/>
      <circle stroke="white" fill="white" cx="4.32" r="1.98" stroke-width="2.16" cy="61.92" id="connector8pin"/>
      <circle stroke="white" fill="white" cx="25.92" r="1.98" stroke-width="2.16" cy="61.92" id="connector9pin"/>
     </g>
    </g>
   </g>
  </g>
  <g partID="12315421">
   <g transform="translate(153.151,0.776276)">
    <g id="copper1">
     <g id="copper0">
      <circle stroke="white" fill="white" cx="5.04" r="2.088" stroke-width="2.16" cy="5.04" id="connector0pin"/>
      <circle stroke="white" fill="white" cx="5.04" r="2.088" stroke-width="2.16" cy="12.24" id="connector1pin"/>
      <circle stroke="white" fill="white" cx="5.04" r="2.088" stroke-width="2.16" cy="19.44" id="connector2pin"/>
      <circle stroke="white" fill="white" cx="5.04" r="2.088" stroke-width="2.16" cy="26.64" id="connector3pin"/>
      <circle stroke="white" fill="white" cx="5.04" r="2.088" stroke-width="2.16" cy="33.84" id="connector4pin"/>
     </g>
    </g>
   </g>
  </g>
  <g partID="12315791">
   <g transform="translate(153.151,40.3763)">
    <g id="copper1">
     <g id="copper0">
      <circle stroke="white" fill="white" cx="5.04" r="2.088" stroke-width="2.16" cy="5.04" id="connector0pin"/>
      <circle stroke="white" fill="white" cx="5.04" r="2.088" stroke-width="2.16" cy="12.24" id="connector1pin"/>
      <circle stroke="white" fill="white" cx="5.04" r="2.088" stroke-width="2.16" cy="19.44" id="connector2pin"/>
      <circle stroke="white" fill="white" cx="5.04" r="2.088" stroke-width="2.16" cy="26.64" id="connector3pin"/>
      <circle stroke="white" fill="white" cx="5.04" r="2.088" stroke-width="2.16" cy="33.84" id="connector4pin"/>
     </g>
    </g>
   </g>
  </g>
  <g partID="12319251">
   <g transform="translate(148.831,69.1763)">
    <g transform="matrix(0,1,-1,0,0,0)">
     <g id="copper1">
      <g id="copper0">
       <circle stroke="white" fill="white" cx="5.04" r="2.088" stroke-width="2.16" cy="5.04" id="connector0pin"/>
       <circle stroke="white" fill="white" cx="5.04" r="2.088" stroke-width="2.16" cy="12.24" id="connector1pin"/>
      </g>
     </g>
    </g>
   </g>
  </g>
  <g partID="12348781">
   <g transform="translate(148.831,0.776276)">
    <g transform="matrix(0,1,-1,0,0,0)">
     <g id="copper1">
      <g id="copper0">
       <circle stroke="white" fill="white" cx="5.04" r="2.088" stroke-width="2.16" cy="5.04" id="connector0pin"/>
       <circle stroke="white" fill="white" cx="5.04" r="2.088" stroke-width="2.16" cy="12.24" id="connector1pin"/>
      </g>
     </g>
    </g>
   </g>
  </g>
  <g partID="12354051">
   <g transform="translate(1.95111,42.1763)">
    <g id="copper1">
     <g id="copper0">
      <circle stroke="white" fill="white" cx="5.04" r="2.088" stroke-width="2.16" cy="5.04" id="connector0pin"/>
      <circle stroke="white" fill="white" cx="5.04" r="2.088" stroke-width="2.16" cy="12.24" id="connector1pin"/>
      <circle stroke="white" fill="white" cx="5.04" r="2.088" stroke-width="2.16" cy="19.44" id="connector2pin"/>
      <circle stroke="white" fill="white" cx="5.04" r="2.088" stroke-width="2.16" cy="26.64" id="connector3pin"/>
     </g>
    </g>
   </g>
  </g>
  <g partID="12354831">
   <g transform="translate(1.95111,6.17628)">
    <g id="copper1">
     <g id="copper0">
      <circle stroke="white" fill="white" cx="5.04" r="2.088" stroke-width="2.16" cy="5.04" id="connector0pin"/>
      <circle stroke="white" fill="white" cx="5.04" r="2.088" stroke-width="2.16" cy="12.24" id="connector1pin"/>
      <circle stroke="white" fill="white" cx="5.04" r="2.088" stroke-width="2.16" cy="19.44" id="connector2pin"/>
      <circle stroke="white" fill="white" cx="5.04" r="2.088" stroke-width="2.16" cy="26.64" id="connector3pin"/>
     </g>
    </g>
   </g>
  </g>
 </g>
</svg>
