<?xml version='1.0' encoding='UTF-8' standalone='no'?>
<!-- Created with Fritzing (http://www.fritzing.org/) -->
<svg xmlns="http://www.w3.org/2000/svg" width="2.24409in" xmlns:svg="http://www.w3.org/2000/svg" height="2.20472in" viewBox="0 0 161.575 158.74" x="0in" baseProfile="tiny" y="0in"  version="1.2">
 <g partID="57830">
  <g id="board" >
   <rect width="160.999" stroke="black" height="158.164" x="0.288" id="boardoutline" y="0.288"  fill-opacity="0.5" stroke-width="0.5" fill="none"/>
  </g>
 </g>
 <g partID="12301100">
  <g transform="translate(69.0911,60.7162)">
   <g id="copper0" >
    <g id="copper1" >
     <!--  <rect width="55" x="10" y="35" fill="none" height="55" stroke="rgb(255, 191, 0)" stroke-width="20" /> -->
     <circle stroke="black" cx="2.7" r="1.98" cy="4.5" id="connector0pin"  stroke-width="1.44" fill="none"/>
     <circle stroke="black" cx="9.9" r="1.98" cy="4.5" id="connector1pin"  stroke-width="1.44" fill="none"/>
    </g>
   </g>
  </g>
 </g>
 <g partID="12361150">
  <g transform="translate(69.0911,136.316)">
   <g id="copper0" >
    <g id="copper1" >
     <!--  <rect width="55" x="10" y="35" fill="none" height="55" stroke="rgb(255, 191, 0)" stroke-width="20" /> -->
     <circle stroke="black" cx="2.7" r="1.98" cy="4.5" id="connector0pin"  stroke-width="1.44" fill="none"/>
     <circle stroke="black" cx="9.9" r="1.98" cy="4.5" id="connector1pin"  stroke-width="1.44" fill="none"/>
    </g>
   </g>
  </g>
 </g>
 <g partID="12361160">
  <g transform="translate(69.0911,121.916)">
   <g id="copper0" >
    <g id="copper1" >
     <!--  <rect width="55" x="10" y="35" fill="none" height="55" stroke="rgb(255, 191, 0)" stroke-width="20" /> -->
     <circle stroke="black" cx="2.7" r="1.98" cy="4.5" id="connector0pin"  stroke-width="1.44" fill="none"/>
     <circle stroke="black" cx="9.9" r="1.98" cy="4.5" id="connector1pin"  stroke-width="1.44" fill="none"/>
    </g>
   </g>
  </g>
 </g>
 <g partID="12301080">
  <g transform="translate(69.0911,46.3162)">
   <g id="copper0" >
    <g id="copper1" >
     <!--  <rect width="55" x="10" y="35" fill="none" height="55" stroke="rgb(255, 191, 0)" stroke-width="20" /> -->
     <circle stroke="black" cx="2.7" r="1.98" cy="4.5" id="connector0pin"  stroke-width="1.44" fill="none"/>
     <circle stroke="black" cx="9.9" r="1.98" cy="4.5" id="connector1pin"  stroke-width="1.44" fill="none"/>
    </g>
   </g>
  </g>
 </g>
 <g partID="12361170">
  <g transform="translate(69.0911,107.516)">
   <g id="copper0" >
    <g id="copper1" >
     <!--  <rect width="55" x="10" y="35" fill="none" height="55" stroke="rgb(255, 191, 0)" stroke-width="20" /> -->
     <circle stroke="black" cx="2.7" r="1.98" cy="4.5" id="connector0pin"  stroke-width="1.44" fill="none"/>
     <circle stroke="black" cx="9.9" r="1.98" cy="4.5" id="connector1pin"  stroke-width="1.44" fill="none"/>
    </g>
   </g>
  </g>
 </g>
 <g partID="12301060">
  <g transform="translate(69.0911,31.9162)">
   <g id="copper0" >
    <g id="copper1" >
     <!--  <rect width="55" x="10" y="35" fill="none" height="55" stroke="rgb(255, 191, 0)" stroke-width="20" /> -->
     <circle stroke="black" cx="2.7" r="1.98" cy="4.5" id="connector0pin"  stroke-width="1.44" fill="none"/>
     <circle stroke="black" cx="9.9" r="1.98" cy="4.5" id="connector1pin"  stroke-width="1.44" fill="none"/>
    </g>
   </g>
  </g>
 </g>
 <g partID="12301040">
  <g transform="translate(69.0911,17.5162)">
   <g id="copper0" >
    <g id="copper1" >
     <!--  <rect width="55" x="10" y="35" fill="none" height="55" stroke="rgb(255, 191, 0)" stroke-width="20" /> -->
     <circle stroke="black" cx="2.7" r="1.98" cy="4.5" id="connector0pin"  stroke-width="1.44" fill="none"/>
     <circle stroke="black" cx="9.9" r="1.98" cy="4.5" id="connector1pin"  stroke-width="1.44" fill="none"/>
    </g>
   </g>
  </g>
 </g>
 <g partID="12361180">
  <g transform="translate(69.0911,93.1162)">
   <g id="copper0" >
    <g id="copper1" >
     <!--  <rect width="55" x="10" y="35" fill="none" height="55" stroke="rgb(255, 191, 0)" stroke-width="20" /> -->
     <circle stroke="black" cx="2.7" r="1.98" cy="4.5" id="connector0pin"  stroke-width="1.44" fill="none"/>
     <circle stroke="black" cx="9.9" r="1.98" cy="4.5" id="connector1pin"  stroke-width="1.44" fill="none"/>
    </g>
   </g>
  </g>
 </g>
 <g partID="12301020">
  <g transform="translate(67.2911,53.5162)">
   <g id="copper0" >
    <g id="copper1" >
     <!-- <rect width="55" x="35" y="35" fill="none" height="55" stroke="rgb(255, 191, 0)" stroke-width="20" /> -->
     <circle stroke="black" cx="4.5" r="1.98" cy="4.5" id="connector0pin"  stroke-width="1.44" fill="none"/>
     <circle stroke="black" cx="11.7" r="1.98" cy="4.5" id="connector1pin"  stroke-width="1.44" fill="none"/>
    </g>
   </g>
  </g>
 </g>
 <g partID="12361190">
  <g transform="translate(67.2911,129.116)">
   <g id="copper0" >
    <g id="copper1" >
     <!-- <rect width="55" x="35" y="35" fill="none" height="55" stroke="rgb(255, 191, 0)" stroke-width="20" /> -->
     <circle stroke="black" cx="4.5" r="1.98" cy="4.5" id="connector0pin"  stroke-width="1.44" fill="none"/>
     <circle stroke="black" cx="11.7" r="1.98" cy="4.5" id="connector1pin"  stroke-width="1.44" fill="none"/>
    </g>
   </g>
  </g>
 </g>
 <g partID="12301000">
  <g transform="translate(67.2911,39.1162)">
   <g id="copper0" >
    <g id="copper1" >
     <!-- <rect width="55" x="35" y="35" fill="none" height="55" stroke="rgb(255, 191, 0)" stroke-width="20" /> -->
     <circle stroke="black" cx="4.5" r="1.98" cy="4.5" id="connector0pin"  stroke-width="1.44" fill="none"/>
     <circle stroke="black" cx="11.7" r="1.98" cy="4.5" id="connector1pin"  stroke-width="1.44" fill="none"/>
    </g>
   </g>
  </g>
 </g>
 <g partID="12361200">
  <g transform="translate(67.2911,114.716)">
   <g id="copper0" >
    <g id="copper1" >
     <!-- <rect width="55" x="35" y="35" fill="none" height="55" stroke="rgb(255, 191, 0)" stroke-width="20" /> -->
     <circle stroke="black" cx="4.5" r="1.98" cy="4.5" id="connector0pin"  stroke-width="1.44" fill="none"/>
     <circle stroke="black" cx="11.7" r="1.98" cy="4.5" id="connector1pin"  stroke-width="1.44" fill="none"/>
    </g>
   </g>
  </g>
 </g>
 <g partID="12300980">
  <g transform="translate(67.2911,24.7162)">
   <g id="copper0" >
    <g id="copper1" >
     <!-- <rect width="55" x="35" y="35" fill="none" height="55" stroke="rgb(255, 191, 0)" stroke-width="20" /> -->
     <circle stroke="black" cx="4.5" r="1.98" cy="4.5" id="connector0pin"  stroke-width="1.44" fill="none"/>
     <circle stroke="black" cx="11.7" r="1.98" cy="4.5" id="connector1pin"  stroke-width="1.44" fill="none"/>
    </g>
   </g>
  </g>
 </g>
 <g partID="12361210">
  <g transform="translate(67.2911,100.316)">
   <g id="copper0" >
    <g id="copper1" >
     <!-- <rect width="55" x="35" y="35" fill="none" height="55" stroke="rgb(255, 191, 0)" stroke-width="20" /> -->
     <circle stroke="black" cx="4.5" r="1.98" cy="4.5" id="connector0pin"  stroke-width="1.44" fill="none"/>
     <circle stroke="black" cx="11.7" r="1.98" cy="4.5" id="connector1pin"  stroke-width="1.44" fill="none"/>
    </g>
   </g>
  </g>
 </g>
 <g partID="74910">
  <g transform="translate(67.2911,10.3162)">
   <g id="copper0" >
    <g id="copper1" >
     <!-- <rect width="55" x="35" y="35" fill="none" height="55" stroke="rgb(255, 191, 0)" stroke-width="20" /> -->
     <circle stroke="black" cx="4.5" r="1.98" cy="4.5" id="connector0pin"  stroke-width="1.44" fill="none"/>
     <circle stroke="black" cx="11.7" r="1.98" cy="4.5" id="connector1pin"  stroke-width="1.44" fill="none"/>
    </g>
   </g>
  </g>
 </g>
 <g partID="12361220">
  <g transform="translate(67.2911,85.9162)">
   <g id="copper0" >
    <g id="copper1" >
     <!-- <rect width="55" x="35" y="35" fill="none" height="55" stroke="rgb(255, 191, 0)" stroke-width="20" /> -->
     <circle stroke="black" cx="4.5" r="1.98" cy="4.5" id="connector0pin"  stroke-width="1.44" fill="none"/>
     <circle stroke="black" cx="11.7" r="1.98" cy="4.5" id="connector1pin"  stroke-width="1.44" fill="none"/>
    </g>
   </g>
  </g>
 </g>
 <g partID="12361230">
  <g transform="translate(117.151,122.816)">
   <g id="copper0" >
    <rect width="4.464" stroke="black" height="4.464" x="6.408" y="12.168"  stroke-width="1.44" fill="none"/>
    <circle stroke="black" cx="8.64" r="2.232" cy="14.4" id="connector0pad"  stroke-width="1.44" fill="none"/>
    <circle stroke="black" cx="15.84" r="2.232" cy="14.4" id="connector1pad"  stroke-width="1.44" fill="none"/>
    <circle stroke="black" cx="23.04" r="2.232" cy="14.4" id="connector2pad"  stroke-width="1.44" fill="none"/>
   </g>
  </g>
 </g>
 <g partID="12302090">
  <g transform="translate(117.151,50.8162)">
   <g id="copper0" >
    <rect width="4.464" stroke="black" height="4.464" x="6.408" y="12.168"  stroke-width="1.44" fill="none"/>
    <circle stroke="black" cx="8.64" r="2.232" cy="14.4" id="connector0pad"  stroke-width="1.44" fill="none"/>
    <circle stroke="black" cx="15.84" r="2.232" cy="14.4" id="connector1pad"  stroke-width="1.44" fill="none"/>
    <circle stroke="black" cx="23.04" r="2.232" cy="14.4" id="connector2pad"  stroke-width="1.44" fill="none"/>
   </g>
  </g>
 </g>
 <g partID="12302070">
  <g transform="translate(84.7511,43.6162)">
   <g id="copper0" >
    <rect width="4.464" stroke="black" height="4.464" x="6.408" y="12.168"  stroke-width="1.44" fill="none"/>
    <circle stroke="black" cx="8.64" r="2.232" cy="14.4" id="connector0pad"  stroke-width="1.44" fill="none"/>
    <circle stroke="black" cx="15.84" r="2.232" cy="14.4" id="connector1pad"  stroke-width="1.44" fill="none"/>
    <circle stroke="black" cx="23.04" r="2.232" cy="14.4" id="connector2pad"  stroke-width="1.44" fill="none"/>
   </g>
  </g>
 </g>
 <g partID="12361240">
  <g transform="translate(84.7511,115.616)">
   <g id="copper0" >
    <rect width="4.464" stroke="black" height="4.464" x="6.408" y="12.168"  stroke-width="1.44" fill="none"/>
    <circle stroke="black" cx="8.64" r="2.232" cy="14.4" id="connector0pad"  stroke-width="1.44" fill="none"/>
    <circle stroke="black" cx="15.84" r="2.232" cy="14.4" id="connector1pad"  stroke-width="1.44" fill="none"/>
    <circle stroke="black" cx="23.04" r="2.232" cy="14.4" id="connector2pad"  stroke-width="1.44" fill="none"/>
   </g>
  </g>
 </g>
 <g partID="12302050">
  <g transform="translate(117.151,36.4162)">
   <g id="copper0" >
    <rect width="4.464" stroke="black" height="4.464" x="6.408" y="12.168"  stroke-width="1.44" fill="none"/>
    <circle stroke="black" cx="8.64" r="2.232" cy="14.4" id="connector0pad"  stroke-width="1.44" fill="none"/>
    <circle stroke="black" cx="15.84" r="2.232" cy="14.4" id="connector1pad"  stroke-width="1.44" fill="none"/>
    <circle stroke="black" cx="23.04" r="2.232" cy="14.4" id="connector2pad"  stroke-width="1.44" fill="none"/>
   </g>
  </g>
 </g>
 <g partID="12361250">
  <g transform="translate(117.151,108.416)">
   <g id="copper0" >
    <rect width="4.464" stroke="black" height="4.464" x="6.408" y="12.168"  stroke-width="1.44" fill="none"/>
    <circle stroke="black" cx="8.64" r="2.232" cy="14.4" id="connector0pad"  stroke-width="1.44" fill="none"/>
    <circle stroke="black" cx="15.84" r="2.232" cy="14.4" id="connector1pad"  stroke-width="1.44" fill="none"/>
    <circle stroke="black" cx="23.04" r="2.232" cy="14.4" id="connector2pad"  stroke-width="1.44" fill="none"/>
   </g>
  </g>
 </g>
 <g partID="12302030">
  <g transform="translate(84.7511,29.2162)">
   <g id="copper0" >
    <rect width="4.464" stroke="black" height="4.464" x="6.408" y="12.168"  stroke-width="1.44" fill="none"/>
    <circle stroke="black" cx="8.64" r="2.232" cy="14.4" id="connector0pad"  stroke-width="1.44" fill="none"/>
    <circle stroke="black" cx="15.84" r="2.232" cy="14.4" id="connector1pad"  stroke-width="1.44" fill="none"/>
    <circle stroke="black" cx="23.04" r="2.232" cy="14.4" id="connector2pad"  stroke-width="1.44" fill="none"/>
   </g>
  </g>
 </g>
 <g partID="12361260">
  <g transform="translate(84.7511,101.216)">
   <g id="copper0" >
    <rect width="4.464" stroke="black" height="4.464" x="6.408" y="12.168"  stroke-width="1.44" fill="none"/>
    <circle stroke="black" cx="8.64" r="2.232" cy="14.4" id="connector0pad"  stroke-width="1.44" fill="none"/>
    <circle stroke="black" cx="15.84" r="2.232" cy="14.4" id="connector1pad"  stroke-width="1.44" fill="none"/>
    <circle stroke="black" cx="23.04" r="2.232" cy="14.4" id="connector2pad"  stroke-width="1.44" fill="none"/>
   </g>
  </g>
 </g>
 <g partID="12302010">
  <g transform="translate(117.151,22.0162)">
   <g id="copper0" >
    <rect width="4.464" stroke="black" height="4.464" x="6.408" y="12.168"  stroke-width="1.44" fill="none"/>
    <circle stroke="black" cx="8.64" r="2.232" cy="14.4" id="connector0pad"  stroke-width="1.44" fill="none"/>
    <circle stroke="black" cx="15.84" r="2.232" cy="14.4" id="connector1pad"  stroke-width="1.44" fill="none"/>
    <circle stroke="black" cx="23.04" r="2.232" cy="14.4" id="connector2pad"  stroke-width="1.44" fill="none"/>
   </g>
  </g>
 </g>
 <g partID="12361270">
  <g transform="translate(117.151,94.0162)">
   <g id="copper0" >
    <rect width="4.464" stroke="black" height="4.464" x="6.408" y="12.168"  stroke-width="1.44" fill="none"/>
    <circle stroke="black" cx="8.64" r="2.232" cy="14.4" id="connector0pad"  stroke-width="1.44" fill="none"/>
    <circle stroke="black" cx="15.84" r="2.232" cy="14.4" id="connector1pad"  stroke-width="1.44" fill="none"/>
    <circle stroke="black" cx="23.04" r="2.232" cy="14.4" id="connector2pad"  stroke-width="1.44" fill="none"/>
   </g>
  </g>
 </g>
 <g partID="12361280">
  <g transform="translate(84.7511,86.8162)">
   <g id="copper0" >
    <rect width="4.464" stroke="black" height="4.464" x="6.408" y="12.168"  stroke-width="1.44" fill="none"/>
    <circle stroke="black" cx="8.64" r="2.232" cy="14.4" id="connector0pad"  stroke-width="1.44" fill="none"/>
    <circle stroke="black" cx="15.84" r="2.232" cy="14.4" id="connector1pad"  stroke-width="1.44" fill="none"/>
    <circle stroke="black" cx="23.04" r="2.232" cy="14.4" id="connector2pad"  stroke-width="1.44" fill="none"/>
   </g>
  </g>
 </g>
 <g partID="12301990">
  <g transform="translate(84.7511,14.8162)">
   <g id="copper0" >
    <rect width="4.464" stroke="black" height="4.464" x="6.408" y="12.168"  stroke-width="1.44" fill="none"/>
    <circle stroke="black" cx="8.64" r="2.232" cy="14.4" id="connector0pad"  stroke-width="1.44" fill="none"/>
    <circle stroke="black" cx="15.84" r="2.232" cy="14.4" id="connector1pad"  stroke-width="1.44" fill="none"/>
    <circle stroke="black" cx="23.04" r="2.232" cy="14.4" id="connector2pad"  stroke-width="1.44" fill="none"/>
   </g>
  </g>
 </g>
 <g partID="12301970">
  <g transform="translate(117.151,7.61624)">
   <g id="copper0" >
    <rect width="4.464" stroke="black" height="4.464" x="6.408" y="12.168"  stroke-width="1.44" fill="none"/>
    <circle stroke="black" cx="8.64" r="2.232" cy="14.4" id="connector0pad"  stroke-width="1.44" fill="none"/>
    <circle stroke="black" cx="15.84" r="2.232" cy="14.4" id="connector1pad"  stroke-width="1.44" fill="none"/>
    <circle stroke="black" cx="23.04" r="2.232" cy="14.4" id="connector2pad"  stroke-width="1.44" fill="none"/>
   </g>
  </g>
 </g>
 <g partID="12361290">
  <g transform="translate(117.151,79.6162)">
   <g id="copper0" >
    <rect width="4.464" stroke="black" height="4.464" x="6.408" y="12.168"  stroke-width="1.44" fill="none"/>
    <circle stroke="black" cx="8.64" r="2.232" cy="14.4" id="connector0pad"  stroke-width="1.44" fill="none"/>
    <circle stroke="black" cx="15.84" r="2.232" cy="14.4" id="connector1pad"  stroke-width="1.44" fill="none"/>
    <circle stroke="black" cx="23.04" r="2.232" cy="14.4" id="connector2pad"  stroke-width="1.44" fill="none"/>
   </g>
  </g>
 </g>
 <g partID="74970">
  <g transform="translate(84.7511,0.41624)">
   <g id="copper0" >
    <rect width="4.464" stroke="black" height="4.464" x="6.408" y="12.168"  stroke-width="1.44" fill="none"/>
    <circle stroke="black" cx="8.64" r="2.232" cy="14.4" id="connector0pad"  stroke-width="1.44" fill="none"/>
    <circle stroke="black" cx="15.84" r="2.232" cy="14.4" id="connector1pad"  stroke-width="1.44" fill="none"/>
    <circle stroke="black" cx="23.04" r="2.232" cy="14.4" id="connector2pad"  stroke-width="1.44" fill="none"/>
   </g>
  </g>
 </g>
 <g partID="12361300">
  <g transform="translate(84.7511,72.4162)">
   <g id="copper0" >
    <rect width="4.464" stroke="black" height="4.464" x="6.408" y="12.168"  stroke-width="1.44" fill="none"/>
    <circle stroke="black" cx="8.64" r="2.232" cy="14.4" id="connector0pad"  stroke-width="1.44" fill="none"/>
    <circle stroke="black" cx="15.84" r="2.232" cy="14.4" id="connector1pad"  stroke-width="1.44" fill="none"/>
    <circle stroke="black" cx="23.04" r="2.232" cy="14.4" id="connector2pad"  stroke-width="1.44" fill="none"/>
   </g>
  </g>
 </g>
 <g partID="12305140">
  <g transform="translate(22.1111,73.1362)">
   <g transform="matrix(-1,0,0,-1,0,0)">
    <g gorn="0.5.0" id="copper0" >
     <rect width="3.96" stroke="black" height="3.96" gorn="0.5.0.0" x="2.34" id="square" y="2.34"  stroke-width="1.44" fill="none"/>
     <circle stroke="black" cx="4.32" r="1.98" gorn="0.5.0.1" cy="4.32" id="connector0pin"  stroke-width="1.44" fill="none"/>
     <circle stroke="black" cx="4.32" r="1.98" gorn="0.5.0.2" cy="11.52" id="connector1pin"  stroke-width="1.44" fill="none"/>
     <circle stroke="black" cx="4.32" r="1.98" gorn="0.5.0.3" cy="18.72" id="connector2pin"  stroke-width="1.44" fill="none"/>
     <circle stroke="black" cx="4.32" r="1.98" gorn="0.5.0.4" cy="25.92" id="connector3pin"  stroke-width="1.44" fill="none"/>
     <circle stroke="black" cx="4.32" r="1.98" gorn="0.5.0.5" cy="33.12" id="connector4pin"  stroke-width="1.44" fill="none"/>
     <circle stroke="black" cx="4.32" r="1.98" gorn="0.5.0.6" cy="40.32" id="connector5pin"  stroke-width="1.44" fill="none"/>
     <circle stroke="black" cx="4.32" r="1.98" gorn="0.5.0.7" cy="47.52" id="connector6pin"  stroke-width="1.44" fill="none"/>
     <circle stroke="black" cx="4.32" r="1.98" gorn="0.5.0.8" cy="54.72" id="connector7pin"  stroke-width="1.44" fill="none"/>
     <circle stroke="black" cx="4.32" r="1.98" gorn="0.5.0.9" cy="61.92" id="connector8pin"  stroke-width="1.44" fill="none"/>
    </g>
   </g>
  </g>
 </g>
 <g partID="12361310">
  <g transform="translate(22.1111,152.336)">
   <g transform="matrix(-1,0,0,-1,0,0)">
    <g gorn="0.5.0" id="copper0" >
     <rect width="3.96" stroke="black" height="3.96" gorn="0.5.0.0" x="2.34" id="square" y="2.34"  stroke-width="1.44" fill="none"/>
     <circle stroke="black" cx="4.32" r="1.98" gorn="0.5.0.1" cy="4.32" id="connector0pin"  stroke-width="1.44" fill="none"/>
     <circle stroke="black" cx="4.32" r="1.98" gorn="0.5.0.2" cy="11.52" id="connector1pin"  stroke-width="1.44" fill="none"/>
     <circle stroke="black" cx="4.32" r="1.98" gorn="0.5.0.3" cy="18.72" id="connector2pin"  stroke-width="1.44" fill="none"/>
     <circle stroke="black" cx="4.32" r="1.98" gorn="0.5.0.4" cy="25.92" id="connector3pin"  stroke-width="1.44" fill="none"/>
     <circle stroke="black" cx="4.32" r="1.98" gorn="0.5.0.5" cy="33.12" id="connector4pin"  stroke-width="1.44" fill="none"/>
     <circle stroke="black" cx="4.32" r="1.98" gorn="0.5.0.6" cy="40.32" id="connector5pin"  stroke-width="1.44" fill="none"/>
     <circle stroke="black" cx="4.32" r="1.98" gorn="0.5.0.7" cy="47.52" id="connector6pin"  stroke-width="1.44" fill="none"/>
     <circle stroke="black" cx="4.32" r="1.98" gorn="0.5.0.8" cy="54.72" id="connector7pin"  stroke-width="1.44" fill="none"/>
     <circle stroke="black" cx="4.32" r="1.98" gorn="0.5.0.9" cy="61.92" id="connector8pin"  stroke-width="1.44" fill="none"/>
    </g>
   </g>
  </g>
 </g>
 <g partID="12297250">
  <g transform="translate(65.3111,73.1362)">
   <g transform="matrix(-1,0,0,-1,0,0)">
    <g gorn="0.5.0" id="copper0" >
     <rect width="3.96" stroke="black" height="3.96" gorn="0.5.0.0" x="2.34" id="square" y="2.34"  stroke-width="1.44" fill="none"/>
     <circle stroke="black" cx="4.32" r="1.98" gorn="0.5.0.1" cy="4.32" id="connector0pin"  stroke-width="1.44" fill="none"/>
     <circle stroke="black" cx="4.32" r="1.98" gorn="0.5.0.2" cy="11.52" id="connector1pin"  stroke-width="1.44" fill="none"/>
     <circle stroke="black" cx="4.32" r="1.98" gorn="0.5.0.3" cy="18.72" id="connector2pin"  stroke-width="1.44" fill="none"/>
     <circle stroke="black" cx="4.32" r="1.98" gorn="0.5.0.4" cy="25.92" id="connector3pin"  stroke-width="1.44" fill="none"/>
     <circle stroke="black" cx="4.32" r="1.98" gorn="0.5.0.5" cy="33.12" id="connector4pin"  stroke-width="1.44" fill="none"/>
     <circle stroke="black" cx="4.32" r="1.98" gorn="0.5.0.6" cy="40.32" id="connector5pin"  stroke-width="1.44" fill="none"/>
     <circle stroke="black" cx="4.32" r="1.98" gorn="0.5.0.7" cy="47.52" id="connector6pin"  stroke-width="1.44" fill="none"/>
     <circle stroke="black" cx="4.32" r="1.98" gorn="0.5.0.8" cy="54.72" id="connector7pin"  stroke-width="1.44" fill="none"/>
     <circle stroke="black" cx="4.32" r="1.98" gorn="0.5.0.9" cy="61.92" id="connector8pin"  stroke-width="1.44" fill="none"/>
    </g>
   </g>
  </g>
 </g>
 <g partID="12361320">
  <g transform="translate(65.3111,152.336)">
   <g transform="matrix(-1,0,0,-1,0,0)">
    <g gorn="0.5.0" id="copper0" >
     <rect width="3.96" stroke="black" height="3.96" gorn="0.5.0.0" x="2.34" id="square" y="2.34"  stroke-width="1.44" fill="none"/>
     <circle stroke="black" cx="4.32" r="1.98" gorn="0.5.0.1" cy="4.32" id="connector0pin"  stroke-width="1.44" fill="none"/>
     <circle stroke="black" cx="4.32" r="1.98" gorn="0.5.0.2" cy="11.52" id="connector1pin"  stroke-width="1.44" fill="none"/>
     <circle stroke="black" cx="4.32" r="1.98" gorn="0.5.0.3" cy="18.72" id="connector2pin"  stroke-width="1.44" fill="none"/>
     <circle stroke="black" cx="4.32" r="1.98" gorn="0.5.0.4" cy="25.92" id="connector3pin"  stroke-width="1.44" fill="none"/>
     <circle stroke="black" cx="4.32" r="1.98" gorn="0.5.0.5" cy="33.12" id="connector4pin"  stroke-width="1.44" fill="none"/>
     <circle stroke="black" cx="4.32" r="1.98" gorn="0.5.0.6" cy="40.32" id="connector5pin"  stroke-width="1.44" fill="none"/>
     <circle stroke="black" cx="4.32" r="1.98" gorn="0.5.0.7" cy="47.52" id="connector6pin"  stroke-width="1.44" fill="none"/>
     <circle stroke="black" cx="4.32" r="1.98" gorn="0.5.0.8" cy="54.72" id="connector7pin"  stroke-width="1.44" fill="none"/>
     <circle stroke="black" cx="4.32" r="1.98" gorn="0.5.0.9" cy="61.92" id="connector8pin"  stroke-width="1.44" fill="none"/>
    </g>
   </g>
  </g>
 </g>
 <g partID="12308850">
  <g transform="translate(24.2711,6.89624)">
   <g id="copper0" >
    <rect width="3.96" stroke="black" height="3.96" x="2.34" id="square" y="2.34"  stroke-width="1.44" fill="none"/>
    <circle stroke="black" cx="4.32" r="1.98" cy="4.32" id="connector0pin"  stroke-width="1.44" fill="none"/>
    <circle stroke="black" cx="25.92" r="1.98" cy="4.32" id="connector17pin"  stroke-width="1.44" fill="none"/>
    <circle stroke="black" cx="4.32" r="1.98" cy="11.52" id="connector1pin"  stroke-width="1.44" fill="none"/>
    <circle stroke="black" cx="25.92" r="1.98" cy="11.52" id="connector16pin"  stroke-width="1.44" fill="none"/>
    <circle stroke="black" cx="4.32" r="1.98" cy="18.72" id="connector2pin"  stroke-width="1.44" fill="none"/>
    <circle stroke="black" cx="25.92" r="1.98" cy="18.72" id="connector15pin"  stroke-width="1.44" fill="none"/>
    <circle stroke="black" cx="4.32" r="1.98" cy="25.92" id="connector3pin"  stroke-width="1.44" fill="none"/>
    <circle stroke="black" cx="25.92" r="1.98" cy="25.92" id="connector14pin"  stroke-width="1.44" fill="none"/>
    <circle stroke="black" cx="4.32" r="1.98" cy="33.12" id="connector4pin"  stroke-width="1.44" fill="none"/>
    <circle stroke="black" cx="25.92" r="1.98" cy="33.12" id="connector13pin"  stroke-width="1.44" fill="none"/>
    <circle stroke="black" cx="4.32" r="1.98" cy="40.32" id="connector5pin"  stroke-width="1.44" fill="none"/>
    <circle stroke="black" cx="25.92" r="1.98" cy="40.32" id="connector12pin"  stroke-width="1.44" fill="none"/>
    <circle stroke="black" cx="4.32" r="1.98" cy="47.52" id="connector6pin"  stroke-width="1.44" fill="none"/>
    <circle stroke="black" cx="25.92" r="1.98" cy="47.52" id="connector11pin"  stroke-width="1.44" fill="none"/>
    <circle stroke="black" cx="4.32" r="1.98" cy="54.72" id="connector7pin"  stroke-width="1.44" fill="none"/>
    <circle stroke="black" cx="25.92" r="1.98" cy="54.72" id="connector10pin"  stroke-width="1.44" fill="none"/>
    <circle stroke="black" cx="4.32" r="1.98" cy="61.92" id="connector8pin"  stroke-width="1.44" fill="none"/>
    <circle stroke="black" cx="25.92" r="1.98" cy="61.92" id="connector9pin"  stroke-width="1.44" fill="none"/>
   </g>
  </g>
 </g>
 <g partID="12361330">
  <g transform="translate(24.2711,86.0962)">
   <g id="copper0" >
    <rect width="3.96" stroke="black" height="3.96" x="2.34" id="square" y="2.34"  stroke-width="1.44" fill="none"/>
    <circle stroke="black" cx="4.32" r="1.98" cy="4.32" id="connector0pin"  stroke-width="1.44" fill="none"/>
    <circle stroke="black" cx="25.92" r="1.98" cy="4.32" id="connector17pin"  stroke-width="1.44" fill="none"/>
    <circle stroke="black" cx="4.32" r="1.98" cy="11.52" id="connector1pin"  stroke-width="1.44" fill="none"/>
    <circle stroke="black" cx="25.92" r="1.98" cy="11.52" id="connector16pin"  stroke-width="1.44" fill="none"/>
    <circle stroke="black" cx="4.32" r="1.98" cy="18.72" id="connector2pin"  stroke-width="1.44" fill="none"/>
    <circle stroke="black" cx="25.92" r="1.98" cy="18.72" id="connector15pin"  stroke-width="1.44" fill="none"/>
    <circle stroke="black" cx="4.32" r="1.98" cy="25.92" id="connector3pin"  stroke-width="1.44" fill="none"/>
    <circle stroke="black" cx="25.92" r="1.98" cy="25.92" id="connector14pin"  stroke-width="1.44" fill="none"/>
    <circle stroke="black" cx="4.32" r="1.98" cy="33.12" id="connector4pin"  stroke-width="1.44" fill="none"/>
    <circle stroke="black" cx="25.92" r="1.98" cy="33.12" id="connector13pin"  stroke-width="1.44" fill="none"/>
    <circle stroke="black" cx="4.32" r="1.98" cy="40.32" id="connector5pin"  stroke-width="1.44" fill="none"/>
    <circle stroke="black" cx="25.92" r="1.98" cy="40.32" id="connector12pin"  stroke-width="1.44" fill="none"/>
    <circle stroke="black" cx="4.32" r="1.98" cy="47.52" id="connector6pin"  stroke-width="1.44" fill="none"/>
    <circle stroke="black" cx="25.92" r="1.98" cy="47.52" id="connector11pin"  stroke-width="1.44" fill="none"/>
    <circle stroke="black" cx="4.32" r="1.98" cy="54.72" id="connector7pin"  stroke-width="1.44" fill="none"/>
    <circle stroke="black" cx="25.92" r="1.98" cy="54.72" id="connector10pin"  stroke-width="1.44" fill="none"/>
    <circle stroke="black" cx="4.32" r="1.98" cy="61.92" id="connector8pin"  stroke-width="1.44" fill="none"/>
    <circle stroke="black" cx="25.92" r="1.98" cy="61.92" id="connector9pin"  stroke-width="1.44" fill="none"/>
   </g>
  </g>
 </g>
 <g partID="12348780">
  <g transform="translate(145.231,2.57624)">
   <g transform="matrix(0,1,-1,0,0,0)">
    <g id="copper0" >
     <circle stroke="black" cx="5.04" r="2.088" cy="5.04" id="connector0pin"  stroke-width="1.44" fill="none"/>
     <circle stroke="black" cx="5.04" r="2.088" cy="12.24" id="connector1pin"  stroke-width="1.44" fill="none"/>
    </g>
   </g>
  </g>
 </g>
 <g partID="12354830">
  <g transform="translate(1.95112,6.17624)">
   <g id="copper0" >
    <circle stroke="black" cx="5.04" r="2.088" cy="5.04" id="connector0pin"  stroke-width="1.44" fill="none"/>
    <circle stroke="black" cx="5.04" r="2.088" cy="12.24" id="connector1pin"  stroke-width="1.44" fill="none"/>
    <circle stroke="black" cx="5.04" r="2.088" cy="19.44" id="connector2pin"  stroke-width="1.44" fill="none"/>
    <circle stroke="black" cx="5.04" r="2.088" cy="26.64" id="connector3pin"  stroke-width="1.44" fill="none"/>
   </g>
  </g>
 </g>
 <g partID="12361350">
  <g transform="translate(1.95112,85.3762)">
   <g id="copper0" >
    <circle stroke="black" cx="5.04" r="2.088" cy="5.04" id="connector0pin"  stroke-width="1.44" fill="none"/>
    <circle stroke="black" cx="5.04" r="2.088" cy="12.24" id="connector1pin"  stroke-width="1.44" fill="none"/>
    <circle stroke="black" cx="5.04" r="2.088" cy="19.44" id="connector2pin"  stroke-width="1.44" fill="none"/>
    <circle stroke="black" cx="5.04" r="2.088" cy="26.64" id="connector3pin"  stroke-width="1.44" fill="none"/>
   </g>
  </g>
 </g>
 <g partID="12354050">
  <g transform="translate(1.95112,42.1762)">
   <g id="copper0" >
    <circle stroke="black" cx="5.04" r="2.088" cy="5.04" id="connector0pin"  stroke-width="1.44" fill="none"/>
    <circle stroke="black" cx="5.04" r="2.088" cy="12.24" id="connector1pin"  stroke-width="1.44" fill="none"/>
    <circle stroke="black" cx="5.04" r="2.088" cy="19.44" id="connector2pin"  stroke-width="1.44" fill="none"/>
    <circle stroke="black" cx="5.04" r="2.088" cy="26.64" id="connector3pin"  stroke-width="1.44" fill="none"/>
   </g>
  </g>
 </g>
 <g partID="12361360">
  <g transform="translate(1.95112,121.376)">
   <g id="copper0" >
    <circle stroke="black" cx="5.04" r="2.088" cy="5.04" id="connector0pin"  stroke-width="1.44" fill="none"/>
    <circle stroke="black" cx="5.04" r="2.088" cy="12.24" id="connector1pin"  stroke-width="1.44" fill="none"/>
    <circle stroke="black" cx="5.04" r="2.088" cy="19.44" id="connector2pin"  stroke-width="1.44" fill="none"/>
    <circle stroke="black" cx="5.04" r="2.088" cy="26.64" id="connector3pin"  stroke-width="1.44" fill="none"/>
   </g>
  </g>
 </g>
 <g partID="12361390">
  <g transform="translate(145.231,146.576)">
   <g transform="matrix(0,1,-1,0,0,0)">
    <g id="copper0" >
     <circle stroke="black" cx="5.04" r="2.088" cy="5.04" id="connector0pin"  stroke-width="1.44" fill="none"/>
     <circle stroke="black" cx="5.04" r="2.088" cy="12.24" id="connector1pin"  stroke-width="1.44" fill="none"/>
    </g>
   </g>
  </g>
 </g>
 <g partID="12369130">
  <g transform="translate(149.551,2.57624)">
   <g id="copper0" >
    <circle stroke="black" cx="5.04" r="2.088" cy="5.04" id="connector0pin"  stroke-width="1.44" fill="none"/>
    <circle stroke="black" cx="5.04" r="2.088" cy="12.24" id="connector1pin"  stroke-width="1.44" fill="none"/>
    <circle stroke="black" cx="5.04" r="2.088" cy="19.44" id="connector2pin"  stroke-width="1.44" fill="none"/>
    <circle stroke="black" cx="5.04" r="2.088" cy="26.64" id="connector3pin"  stroke-width="1.44" fill="none"/>
    <circle stroke="black" cx="5.04" r="2.088" cy="33.84" id="connector4pin"  stroke-width="1.44" fill="none"/>
    <circle stroke="black" cx="5.04" r="2.088" cy="41.04" id="connector5pin"  stroke-width="1.44" fill="none"/>
    <circle stroke="black" cx="5.04" r="2.088" cy="48.24" id="connector6pin"  stroke-width="1.44" fill="none"/>
    <circle stroke="black" cx="5.04" r="2.088" cy="55.44" id="connector7pin"  stroke-width="1.44" fill="none"/>
    <circle stroke="black" cx="5.04" r="2.088" cy="62.64" id="connector8pin"  stroke-width="1.44" fill="none"/>
   </g>
  </g>
 </g>
 <g partID="12406310">
  <g transform="translate(149.551,74.5762)">
   <g id="copper0" >
    <circle stroke="black" cx="5.04" r="2.088" cy="5.04" id="connector0pin"  stroke-width="1.44" fill="none"/>
    <circle stroke="black" cx="5.04" r="2.088" cy="12.24" id="connector1pin"  stroke-width="1.44" fill="none"/>
    <circle stroke="black" cx="5.04" r="2.088" cy="19.44" id="connector2pin"  stroke-width="1.44" fill="none"/>
    <circle stroke="black" cx="5.04" r="2.088" cy="26.64" id="connector3pin"  stroke-width="1.44" fill="none"/>
    <circle stroke="black" cx="5.04" r="2.088" cy="33.84" id="connector4pin"  stroke-width="1.44" fill="none"/>
    <circle stroke="black" cx="5.04" r="2.088" cy="41.04" id="connector5pin"  stroke-width="1.44" fill="none"/>
    <circle stroke="black" cx="5.04" r="2.088" cy="48.24" id="connector6pin"  stroke-width="1.44" fill="none"/>
    <circle stroke="black" cx="5.04" r="2.088" cy="55.44" id="connector7pin"  stroke-width="1.44" fill="none"/>
    <circle stroke="black" cx="5.04" r="2.088" cy="62.64" id="connector8pin"  stroke-width="1.44" fill="none"/>
   </g>
  </g>
 </g>
 <g partID="12301120">
  <line stroke="black" y1="11.6147" x2="70.5958" stroke-linecap="round" x1="62.1865" y2="14.4178" stroke-width="1.728"/>
 </g>
 <g partID="12361400">
  <line stroke="black" y1="90.4162" x2="70.5311" stroke-linecap="round" x1="62.2511" y2="90.4162" stroke-width="1.728"/>
 </g>
 <g partID="12301930">
  <line stroke="black" y1="14.8162" x2="80.2511" stroke-linecap="round" x1="91.8791" y2="14.8162" stroke-width="1.728"/>
 </g>
 <g partID="12405590">
  <line stroke="black" y1="86.7944" x2="80.1187" stroke-linecap="round" x1="86.2532" y2="89.8539" stroke-width="1.728"/>
 </g>
 <g partID="12361410">
  <line stroke="black" y1="86.8116" x2="86.2532" stroke-linecap="round" x1="91.8791" y2="86.7944" stroke-width="1.728"/>
 </g>
 <g partID="12361420">
  <line stroke="black" y1="94.0147" x2="86.2532" stroke-linecap="round" x1="124.279" y2="93.9772" stroke-width="1.728"/>
 </g>
 <g partID="12396040">
  <line stroke="black" y1="93.9772" x2="80.1176" stroke-linecap="round" x1="86.2532" y2="97.0518" stroke-width="1.728"/>
 </g>
 <g partID="12302110">
  <line stroke="black" y1="22.0162" x2="80.2511" stroke-linecap="round" x1="124.279" y2="22.0162" stroke-width="1.728"/>
 </g>
 <g partID="12405840">
  <line stroke="black" y1="108.478" x2="80.043" stroke-linecap="round" x1="84.3558" y2="111.323" stroke-width="1.728"/>
 </g>
 <g partID="12361450">
  <line stroke="black" y1="108.419" x2="84.3558" stroke-linecap="round" x1="124.279" y2="108.478" stroke-width="1.728"/>
 </g>
 <g partID="12302250">
  <line stroke="black" y1="36.4162" x2="80.2511" stroke-linecap="round" x1="124.279" y2="36.4162" stroke-width="1.728"/>
 </g>
 <g partID="12361480">
  <line stroke="black" y1="122.817" x2="86.2532" stroke-linecap="round" x1="124.279" y2="122.844" stroke-width="1.728"/>
 </g>
 <g partID="12405980">
  <line stroke="black" y1="122.844" x2="80.1217" stroke-linecap="round" x1="86.2532" y2="125.86" stroke-width="1.728"/>
 </g>
 <g partID="12302390">
  <line stroke="black" y1="50.8162" x2="80.2511" stroke-linecap="round" x1="124.279" y2="50.8162" stroke-width="1.728"/>
 </g>
 <g partID="12361510">
  <line stroke="black" y1="137.216" x2="86.2532" stroke-linecap="round" x1="124.279" y2="137.209" stroke-width="1.728"/>
 </g>
 <g partID="12406120">
  <line stroke="black" y1="137.209" x2="80.1196" stroke-linecap="round" x1="86.2532" y2="140.256" stroke-width="1.728"/>
 </g>
 <g partID="12302530">
  <line stroke="black" y1="65.2162" x2="80.2511" stroke-linecap="round" x1="124.279" y2="65.2162" stroke-width="1.728"/>
 </g>
 <g partID="12394250">
  <line stroke="black" y1="75.9128" x2="17.8463" stroke-linecap="round" x1="41.1365" y2="76.0626" stroke-width="3.456"/>
 </g>
 <g partID="12361540">
  <line stroke="black" y1="155.195" x2="17.8135" stroke-linecap="round" x1="50.1315" y2="155.234" stroke-width="3.456"/>
 </g>
 <g partID="12305980">
  <line stroke="black" y1="76.0626" x2="17.8007" stroke-linecap="round" x1="17.8463" y2="70.0762" stroke-width="3.456"/>
 </g>
 <g partID="12361550">
  <line stroke="black" y1="155.234" x2="17.795" stroke-linecap="round" x1="17.8135" y2="149.276" stroke-width="3.456"/>
 </g>
 <g partID="12407160">
  <line stroke="black" y1="69.5935" x2="41.1365" stroke-linecap="round" x1="49.1994" y2="75.9128" stroke-width="3.456"/>
 </g>
 <g partID="12407870">
  <line stroke="black" y1="149.276" x2="50.1315" stroke-linecap="round" x1="50.1807" y2="155.195" stroke-width="3.456"/>
 </g>
 <g partID="12405160">
  <line stroke="black" y1="155.234" x2="50.1315" stroke-linecap="round" x1="84.3558" y2="155.195" stroke-width="3.456"/>
 </g>
 <g partID="12404950">
  <line stroke="black" y1="144.392" x2="84.3558" stroke-linecap="round" x1="96.9595" y2="155.234" stroke-width="3.456"/>
 </g>
 <g partID="12361710">
  <line stroke="black" y1="150.646" x2="133.009" stroke-linecap="round" x1="139.227" y2="144.392" stroke-width="3.456"/>
 </g>
 <g partID="12404740">
  <line stroke="black" y1="144.392" x2="96.9595" stroke-linecap="round" x1="133.009" y2="144.392" stroke-width="3.456"/>
 </g>
 <g partID="12369640">
  <line stroke="black" y1="14.8162" x2="109.303" stroke-linecap="round" x1="153.223" y2="14.8162" stroke-width="3.456"/>
 </g>
 <g partID="12369710">
  <line stroke="black" y1="29.2162" x2="109.303" stroke-linecap="round" x1="153.223" y2="29.2162" stroke-width="3.456"/>
 </g>
 <g partID="12369780">
  <line stroke="black" y1="43.6162" x2="109.303" stroke-linecap="round" x1="153.223" y2="43.6162" stroke-width="3.456"/>
 </g>
 <g partID="12369850">
  <line stroke="black" y1="58.0162" x2="109.303" stroke-linecap="round" x1="153.223" y2="58.0162" stroke-width="3.456"/>
 </g>
 <g partID="12370010">
  <line stroke="black" y1="22.0162" x2="141.703" stroke-linecap="round" x1="153.223" y2="22.0162" stroke-width="3.456"/>
 </g>
 <g partID="12369940">
  <line stroke="black" y1="36.4162" x2="141.703" stroke-linecap="round" x1="153.223" y2="36.4162" stroke-width="3.456"/>
 </g>
 <g partID="12370150">
  <line stroke="black" y1="50.8162" x2="141.703" stroke-linecap="round" x1="153.223" y2="50.8162" stroke-width="3.456"/>
 </g>
 <g partID="12370080">
  <line stroke="black" y1="65.2162" x2="141.703" stroke-linecap="round" x1="153.223" y2="65.2162" stroke-width="3.456"/>
 </g>
 <g partID="12405770">
  <line stroke="black" y1="101.16" x2="80.1165" stroke-linecap="round" x1="86.2532" y2="104.25" stroke-width="1.728"/>
 </g>
 <g partID="12405660">
  <line stroke="black" y1="101.204" x2="86.2532" stroke-linecap="round" x1="91.8792" y2="101.16" stroke-width="1.728"/>
 </g>
 <g partID="12405910">
  <line stroke="black" y1="115.661" x2="80.1228" stroke-linecap="round" x1="86.2532" y2="118.662" stroke-width="1.728"/>
 </g>
 <g partID="12361830">
  <line stroke="black" y1="115.626" x2="86.2532" stroke-linecap="round" x1="91.8791" y2="115.661" stroke-width="1.728"/>
 </g>
 <g partID="12361840">
  <line stroke="black" y1="130.018" x2="86.2532" stroke-linecap="round" x1="91.8791" y2="130.027" stroke-width="1.728"/>
 </g>
 <g partID="12406050">
  <line stroke="black" y1="130.027" x2="80.1207" stroke-linecap="round" x1="86.2532" y2="133.058" stroke-width="1.728"/>
 </g>
 <g partID="12406330">
  <line stroke="black" y1="86.8162" x2="109.303" stroke-linecap="round" x1="153.223" y2="86.8162" stroke-width="3.456"/>
 </g>
 <g partID="12406650">
  <line stroke="black" y1="94.0162" x2="141.703" stroke-linecap="round" x1="153.223" y2="94.0162" stroke-width="2.304"/>
 </g>
 <g partID="12406720">
  <line stroke="black" y1="101.216" x2="109.303" stroke-linecap="round" x1="153.223" y2="101.216" stroke-width="3.456"/>
 </g>
 <g partID="12406790">
  <line stroke="black" y1="108.416" x2="141.703" stroke-linecap="round" x1="153.223" y2="108.416" stroke-width="3.456"/>
 </g>
 <g partID="12406860">
  <line stroke="black" y1="115.616" x2="109.303" stroke-linecap="round" x1="153.223" y2="115.616" stroke-width="3.456"/>
 </g>
 <g partID="12406930">
  <line stroke="black" y1="122.816" x2="141.703" stroke-linecap="round" x1="153.223" y2="122.816" stroke-width="2.304"/>
 </g>
 <g partID="12407000">
  <line stroke="black" y1="137.216" x2="141.703" stroke-linecap="round" x1="153.223" y2="137.216" stroke-width="3.456"/>
 </g>
 <g partID="12407070">
  <line stroke="black" y1="130.016" x2="109.303" stroke-linecap="round" x1="153.223" y2="130.016" stroke-width="2.304"/>
 </g>
 <g partID="12361750">
  <line stroke="black" y1="97.6162" x2="62.2511" stroke-linecap="round" x1="70.5311" y2="97.6162" stroke-width="1.728"/>
 </g>
 <g partID="12361760">
  <line stroke="black" y1="104.816" x2="62.2511" stroke-linecap="round" x1="70.5311" y2="104.816" stroke-width="1.728"/>
 </g>
 <g partID="12361770">
  <line stroke="black" y1="112.016" x2="62.2511" stroke-linecap="round" x1="70.5311" y2="112.016" stroke-width="1.728"/>
 </g>
 <g partID="12361780">
  <line stroke="black" y1="119.216" x2="62.2511" stroke-linecap="round" x1="70.5311" y2="119.216" stroke-width="1.728"/>
 </g>
 <g partID="12361790">
  <line stroke="black" y1="126.416" x2="62.2511" stroke-linecap="round" x1="70.5311" y2="126.416" stroke-width="1.728"/>
 </g>
 <g partID="12361800">
  <line stroke="black" y1="133.616" x2="62.2511" stroke-linecap="round" x1="70.5311" y2="133.616" stroke-width="1.728"/>
 </g>
 <g partID="12361810">
  <line stroke="black" y1="140.816" x2="62.2511" stroke-linecap="round" x1="70.5311" y2="140.816" stroke-width="1.728"/>
 </g>
 <g partID="12362120">
  <line stroke="black" y1="140.816" x2="51.4511" stroke-linecap="round" x1="59.7311" y2="140.816" stroke-width="1.728"/>
 </g>
 <g partID="12362110">
  <line stroke="black" y1="133.616" x2="51.4511" stroke-linecap="round" x1="59.7311" y2="133.616" stroke-width="1.728"/>
 </g>
 <g partID="12362100">
  <line stroke="black" y1="126.416" x2="51.4511" stroke-linecap="round" x1="59.7311" y2="126.416" stroke-width="1.728"/>
 </g>
 <g partID="12362090">
  <line stroke="black" y1="119.216" x2="51.4511" stroke-linecap="round" x1="59.7311" y2="119.216" stroke-width="1.728"/>
 </g>
 <g partID="12362080">
  <line stroke="black" y1="112.016" x2="51.4511" stroke-linecap="round" x1="59.7311" y2="112.016" stroke-width="1.728"/>
 </g>
 <g partID="12362070">
  <line stroke="black" y1="104.816" x2="51.4511" stroke-linecap="round" x1="59.7311" y2="104.816" stroke-width="1.728"/>
 </g>
 <g partID="12362060">
  <line stroke="black" y1="97.6162" x2="51.4511" stroke-linecap="round" x1="59.7311" y2="97.6162" stroke-width="1.728"/>
 </g>
 <g partID="12362050">
  <line stroke="black" y1="90.4162" x2="51.4511" stroke-linecap="round" x1="59.7311" y2="90.4162" stroke-width="1.728"/>
 </g>
 <g partID="12310740">
  <line stroke="black" y1="11.2162" x2="51.4511" stroke-linecap="round" x1="59.7311" y2="11.2162" stroke-width="1.728"/>
 </g>
 <g partID="12310830">
  <line stroke="black" y1="18.4162" x2="51.4511" stroke-linecap="round" x1="59.7311" y2="18.4162" stroke-width="1.728"/>
 </g>
 <g partID="12310940">
  <line stroke="black" y1="25.6162" x2="51.4511" stroke-linecap="round" x1="59.7311" y2="25.6162" stroke-width="1.728"/>
 </g>
 <g partID="12311050">
  <line stroke="black" y1="32.8162" x2="51.4511" stroke-linecap="round" x1="59.7311" y2="32.8162" stroke-width="1.728"/>
 </g>
 <g partID="12311160">
  <line stroke="black" y1="40.0162" x2="51.4511" stroke-linecap="round" x1="59.7311" y2="40.0162" stroke-width="1.728"/>
 </g>
 <g partID="12311270">
  <line stroke="black" y1="47.2162" x2="51.4511" stroke-linecap="round" x1="59.7311" y2="47.2162" stroke-width="1.728"/>
 </g>
 <g partID="12311380">
  <line stroke="black" y1="54.4162" x2="51.4511" stroke-linecap="round" x1="59.7311" y2="54.4162" stroke-width="1.728"/>
 </g>
 <g partID="12311490">
  <line stroke="black" y1="61.6162" x2="51.4511" stroke-linecap="round" x1="59.7311" y2="61.6162" stroke-width="1.728"/>
 </g>
 <g partID="12301800">
  <line stroke="black" y1="64.8178" x2="62.1865" stroke-linecap="round" x1="70.5958" y2="62.0147" stroke-width="1.728"/>
 </g>
 <g partID="12301710">
  <line stroke="black" y1="57.6178" x2="62.1865" stroke-linecap="round" x1="70.5958" y2="54.8147" stroke-width="1.728"/>
 </g>
 <g partID="12301620">
  <line stroke="black" y1="50.4178" x2="62.1865" stroke-linecap="round" x1="70.5958" y2="47.6147" stroke-width="1.728"/>
 </g>
 <g partID="12301530">
  <line stroke="black" y1="43.2178" x2="62.1865" stroke-linecap="round" x1="70.5958" y2="40.4147" stroke-width="1.728"/>
 </g>
 <g partID="12301360">
  <line stroke="black" y1="36.0178" x2="62.1865" stroke-linecap="round" x1="70.5958" y2="33.2147" stroke-width="1.728"/>
 </g>
 <g partID="12301270">
  <line stroke="black" y1="28.8178" x2="62.1865" stroke-linecap="round" x1="70.5958" y2="26.0147" stroke-width="1.728"/>
 </g>
 <g partID="12301180">
  <line stroke="black" y1="21.6178" x2="62.1865" stroke-linecap="round" x1="70.5958" y2="18.8147" stroke-width="1.728"/>
 </g>
 <g partID="12302180">
  <line stroke="black" y1="29.2162" x2="80.2511" stroke-linecap="round" x1="91.8791" y2="29.2162" stroke-width="1.728"/>
 </g>
 <g partID="12302320">
  <line stroke="black" y1="43.6162" x2="80.2511" stroke-linecap="round" x1="91.8791" y2="43.6162" stroke-width="1.728"/>
 </g>
 <g partID="12302460">
  <line stroke="black" y1="58.0162" x2="80.2511" stroke-linecap="round" x1="91.8791" y2="58.0162" stroke-width="1.728"/>
 </g>
 <g partID="12310630">
  <line stroke="black" y1="11.2162" x2="19.0511" stroke-linecap="round" x1="27.3311" y2="11.2162" stroke-width="1.728"/>
 </g>
 <g partID="12310520">
  <line stroke="black" y1="18.4162" x2="19.0511" stroke-linecap="round" x1="27.3311" y2="18.4162" stroke-width="1.728"/>
 </g>
 <g partID="12310410">
  <line stroke="black" y1="25.6162" x2="19.0511" stroke-linecap="round" x1="27.3311" y2="25.6162" stroke-width="1.728"/>
 </g>
 <g partID="12310300">
  <line stroke="black" y1="32.8162" x2="19.0511" stroke-linecap="round" x1="27.3311" y2="32.8162" stroke-width="1.728"/>
 </g>
 <g partID="12310190">
  <line stroke="black" y1="40.0162" x2="19.0511" stroke-linecap="round" x1="27.3311" y2="40.0162" stroke-width="1.728"/>
 </g>
 <g partID="12310080">
  <line stroke="black" y1="47.2162" x2="19.0511" stroke-linecap="round" x1="27.3311" y2="47.2162" stroke-width="1.728"/>
 </g>
 <g partID="12309970">
  <line stroke="black" y1="54.4162" x2="19.0511" stroke-linecap="round" x1="27.3311" y2="54.4162" stroke-width="1.728"/>
 </g>
 <g partID="12309860">
  <line stroke="black" y1="61.6162" x2="19.0511" stroke-linecap="round" x1="27.3311" y2="61.6162" stroke-width="1.728"/>
 </g>
 <g partID="12314390">
  <line stroke="black" y1="11.2162" x2="8.35912" stroke-linecap="round" x1="16.5311" y2="11.2162" stroke-width="1.728"/>
 </g>
 <g partID="12314500">
  <line stroke="black" y1="18.4162" x2="8.35912" stroke-linecap="round" x1="16.5311" y2="18.4162" stroke-width="1.728"/>
 </g>
 <g partID="12314610">
  <line stroke="black" y1="25.6162" x2="8.35912" stroke-linecap="round" x1="16.5311" y2="25.6162" stroke-width="1.728"/>
 </g>
 <g partID="12314720">
  <line stroke="black" y1="32.8162" x2="8.35912" stroke-linecap="round" x1="16.5311" y2="32.8162" stroke-width="1.728"/>
 </g>
 <g partID="12314850">
  <line stroke="black" y1="40.7152" x2="8.12936" stroke-linecap="round" x1="16.7427" y2="46.4574" stroke-width="1.728"/>
 </g>
 <g partID="12314960">
  <line stroke="black" y1="47.9152" x2="8.12936" stroke-linecap="round" x1="16.7427" y2="53.6574" stroke-width="1.728"/>
 </g>
 <g partID="12315070">
  <line stroke="black" y1="55.1152" x2="8.12936" stroke-linecap="round" x1="16.7427" y2="60.8574" stroke-width="1.728"/>
 </g>
 <g partID="12315180">
  <line stroke="black" y1="62.3152" x2="8.12936" stroke-linecap="round" x1="16.7427" y2="68.0574" stroke-width="1.728"/>
 </g>
 <g partID="12362150">
  <line stroke="black" y1="90.4162" x2="8.35912" stroke-linecap="round" x1="16.5311" y2="90.4162" stroke-width="1.728"/>
 </g>
 <g partID="12362160">
  <line stroke="black" y1="97.6162" x2="8.35912" stroke-linecap="round" x1="16.5311" y2="97.6162" stroke-width="1.728"/>
 </g>
 <g partID="12362170">
  <line stroke="black" y1="104.816" x2="8.35912" stroke-linecap="round" x1="16.5311" y2="104.816" stroke-width="1.728"/>
 </g>
 <g partID="12362180">
  <line stroke="black" y1="112.016" x2="8.35912" stroke-linecap="round" x1="16.5311" y2="112.016" stroke-width="1.728"/>
 </g>
 <g partID="12362190">
  <line stroke="black" y1="119.915" x2="8.12936" stroke-linecap="round" x1="16.7427" y2="125.657" stroke-width="1.728"/>
 </g>
 <g partID="12362200">
  <line stroke="black" y1="127.115" x2="8.12936" stroke-linecap="round" x1="16.7427" y2="132.857" stroke-width="1.728"/>
 </g>
 <g partID="12362210">
  <line stroke="black" y1="134.315" x2="8.12936" stroke-linecap="round" x1="16.7427" y2="140.057" stroke-width="1.728"/>
 </g>
 <g partID="12362220">
  <line stroke="black" y1="141.515" x2="8.12936" stroke-linecap="round" x1="16.7427" y2="147.257" stroke-width="1.728"/>
 </g>
 <g partID="12362040">
  <line stroke="black" y1="90.4162" x2="19.0511" stroke-linecap="round" x1="27.3311" y2="90.4162" stroke-width="1.728"/>
 </g>
 <g partID="12362030">
  <line stroke="black" y1="97.6162" x2="19.0511" stroke-linecap="round" x1="27.3311" y2="97.6162" stroke-width="1.728"/>
 </g>
 <g partID="12362020">
  <line stroke="black" y1="104.816" x2="19.0511" stroke-linecap="round" x1="27.3311" y2="104.816" stroke-width="1.728"/>
 </g>
 <g partID="12362010">
  <line stroke="black" y1="112.016" x2="19.0511" stroke-linecap="round" x1="27.3311" y2="112.016" stroke-width="1.728"/>
 </g>
 <g partID="12362000">
  <line stroke="black" y1="119.216" x2="19.0511" stroke-linecap="round" x1="27.3311" y2="119.216" stroke-width="1.728"/>
 </g>
 <g partID="12361990">
  <line stroke="black" y1="126.416" x2="19.0511" stroke-linecap="round" x1="27.3311" y2="126.416" stroke-width="1.728"/>
 </g>
 <g partID="12361980">
  <line stroke="black" y1="133.616" x2="19.0511" stroke-linecap="round" x1="27.3311" y2="133.616" stroke-width="1.728"/>
 </g>
 <g partID="12361970">
  <line stroke="black" y1="140.816" x2="19.0511" stroke-linecap="round" x1="27.3311" y2="140.816" stroke-width="1.728"/>
 </g>
</svg>
