<?xml version='1.0' encoding='UTF-8' standalone='no'?>
<!-- Created with Fritzing (http://www.fritzing.org/) -->
<svg xmlns="http://www.w3.org/2000/svg" viewBox="0 0 20.6248 10.2616" height="0.404in" version="1.2" width="0.812in" x="0in" baseProfile="tiny"  y="0in">
    <desc >
        <referenceFile >sparkfun-digitalic_dil16_pcb.svg</referenceFile>
    </desc>
    <g id="copper1" gorn="0.1" >
        <circle stroke="#F7BD13" id="connector0pad" r="0.5334" connectorname="1" cx="1.4224" gorn="0.1.0" cy="8.9408"  fill="none" stroke-width="0.254"/>
        <path stroke="none" d="m1.4224,7.62a0.6604,0.6604 0 0 1 0.6604,0.6604l0,1.3208a0.6604,0.6604 0 0 1 -0.6604,0.6604l-0,0a0.6604,0.6604 0 0 1 -0.6604,-0.6604l0,-1.3208a0.6604,0.6604 0 0 1 0.6604,-0.6604l0,0zM1.016,8.9408a0.4064,0.4064 0 1 0 0.8128,0 0.4064,0.4064 0 1 0 -0.8128,0z&#xa;"  fill="#F7BD13" stroke-width="0"/>
        <circle stroke="#F7BD13" id="connector1pad" r="0.5334" connectorname="2" cx="3.9624" gorn="0.1.2" cy="8.9408"  fill="none" stroke-width="0.254"/>
        <path stroke="none" d="m3.9624,7.62a0.6604,0.6604 0 0 1 0.6604,0.6604l0,1.3208a0.6604,0.6604 0 0 1 -0.6604,0.6604l-0,0a0.6604,0.6604 0 0 1 -0.6604,-0.6604l0,-1.3208a0.6604,0.6604 0 0 1 0.6604,-0.6604l0,0zM3.556,8.9408a0.4064,0.4064 0 1 0 0.8128,0 0.4064,0.4064 0 1 0 -0.8128,0z&#xa;"  fill="#F7BD13" stroke-width="0"/>
        <circle stroke="#F7BD13" id="connector2pad" r="0.5334" connectorname="3" cx="6.5024" gorn="0.1.4" cy="8.9408"  fill="none" stroke-width="0.254"/>
        <path stroke="none" d="m6.5024,7.62a0.6604,0.6604 0 0 1 0.6604,0.6604l0,1.3208a0.6604,0.6604 0 0 1 -0.6604,0.6604l-0,0a0.6604,0.6604 0 0 1 -0.6604,-0.6604l0,-1.3208a0.6604,0.6604 0 0 1 0.6604,-0.6604l0,0zM6.096,8.9408a0.4064,0.4064 0 1 0 0.8128,0 0.4064,0.4064 0 1 0 -0.8128,0z&#xa;"  fill="#F7BD13" stroke-width="0"/>
        <circle stroke="#F7BD13" id="connector3pad" r="0.5334" connectorname="4" cx="9.0424" gorn="0.1.6" cy="8.9408"  fill="none" stroke-width="0.254"/>
        <path stroke="none" d="m9.0424,7.62a0.6604,0.6604 0 0 1 0.6604,0.6604l0,1.3208a0.6604,0.6604 0 0 1 -0.6604,0.6604l-0,0a0.6604,0.6604 0 0 1 -0.6604,-0.6604l0,-1.3208a0.6604,0.6604 0 0 1 0.6604,-0.6604l0,0zM8.636,8.9408a0.4064,0.4064 0 1 0 0.8128,0 0.4064,0.4064 0 1 0 -0.8128,0z&#xa;"  fill="#F7BD13" stroke-width="0"/>
        <circle stroke="#F7BD13" id="connector4pad" r="0.5334" connectorname="5" cx="11.5824" gorn="0.1.8" cy="8.9408"  fill="none" stroke-width="0.254"/>
        <path stroke="none" d="m11.5824,7.62a0.6604,0.6604 0 0 1 0.6604,0.6604l0,1.3208a0.6604,0.6604 0 0 1 -0.6604,0.6604l-0,0a0.6604,0.6604 0 0 1 -0.6604,-0.6604l0,-1.3208a0.6604,0.6604 0 0 1 0.6604,-0.6604l0,0zM11.176,8.9408a0.4064,0.4064 0 1 0 0.8128,0 0.4064,0.4064 0 1 0 -0.8128,0z&#xa;"  fill="#F7BD13" stroke-width="0"/>
        <circle stroke="#F7BD13" id="connector5pad" r="0.5334" connectorname="6" cx="14.1224" gorn="0.1.10" cy="8.9408"  fill="none" stroke-width="0.254"/>
        <path stroke="none" d="m14.1224,7.62a0.6604,0.6604 0 0 1 0.6604,0.6604l0,1.3208a0.6604,0.6604 0 0 1 -0.6604,0.6604l-0,0a0.6604,0.6604 0 0 1 -0.6604,-0.6604l0,-1.3208a0.6604,0.6604 0 0 1 0.6604,-0.6604l0,0zM13.716,8.9408a0.4064,0.4064 0 1 0 0.8128,0 0.4064,0.4064 0 1 0 -0.8128,0z&#xa;"  fill="#F7BD13" stroke-width="0"/>
        <circle stroke="#F7BD13" id="connector6pad" r="0.5334" connectorname="7" cx="16.6624" gorn="0.1.12" cy="8.9408"  fill="none" stroke-width="0.254"/>
        <path stroke="none" d="m16.6624,7.62a0.6604,0.6604 0 0 1 0.6604,0.6604l0,1.3208a0.6604,0.6604 0 0 1 -0.6604,0.6604l-0,0a0.6604,0.6604 0 0 1 -0.6604,-0.6604l0,-1.3208a0.6604,0.6604 0 0 1 0.6604,-0.6604l0,0zM16.256,8.9408a0.4064,0.4064 0 1 0 0.8128,0 0.4064,0.4064 0 1 0 -0.8128,0z&#xa;"  fill="#F7BD13" stroke-width="0"/>
        <circle stroke="#F7BD13" id="connector7pad" r="0.5334" connectorname="8" cx="19.2024" gorn="0.1.14" cy="8.9408"  fill="none" stroke-width="0.254"/>
        <path stroke="none" d="m19.2024,7.62a0.6604,0.6604 0 0 1 0.6604,0.6604l0,1.3208a0.6604,0.6604 0 0 1 -0.6604,0.6604l-0,0a0.6604,0.6604 0 0 1 -0.6604,-0.6604l0,-1.3208a0.6604,0.6604 0 0 1 0.6604,-0.6604l0,0zM18.796,8.9408a0.4064,0.4064 0 1 0 0.8128,0 0.4064,0.4064 0 1 0 -0.8128,0z&#xa;"  fill="#F7BD13" stroke-width="0"/>
        <circle stroke="#F7BD13" id="connector8pad" r="0.5334" connectorname="9" cx="19.2024" gorn="0.1.16" cy="1.3208"  fill="none" stroke-width="0.254"/>
        <path stroke="none" d="m19.2024,0a0.6604,0.6604 0 0 1 0.6604,0.6604l0,1.3208a0.6604,0.6604 0 0 1 -0.6604,0.6604l-0,0a0.6604,0.6604 0 0 1 -0.6604,-0.6604l0,-1.3208a0.6604,0.6604 0 0 1 0.6604,-0.6604l0,0zM18.796,1.3208a0.4064,0.4064 0 1 0 0.8128,0 0.4064,0.4064 0 1 0 -0.8128,0z&#xa;"  fill="#F7BD13" stroke-width="0"/>
        <circle stroke="#F7BD13" id="connector9pad" r="0.5334" connectorname="10" cx="16.6624" gorn="0.1.18" cy="1.3208"  fill="none" stroke-width="0.254"/>
        <path stroke="none" d="m16.6624,0a0.6604,0.6604 0 0 1 0.6604,0.6604l0,1.3208a0.6604,0.6604 0 0 1 -0.6604,0.6604l-0,0a0.6604,0.6604 0 0 1 -0.6604,-0.6604l0,-1.3208a0.6604,0.6604 0 0 1 0.6604,-0.6604l0,0zM16.256,1.3208a0.4064,0.4064 0 1 0 0.8128,0 0.4064,0.4064 0 1 0 -0.8128,0z&#xa;"  fill="#F7BD13" stroke-width="0"/>
        <circle stroke="#F7BD13" id="connector10pad" r="0.5334" connectorname="11" cx="14.1224" gorn="0.1.20" cy="1.3208"  fill="none" stroke-width="0.254"/>
        <path stroke="none" d="m14.1224,0a0.6604,0.6604 0 0 1 0.6604,0.6604l0,1.3208a0.6604,0.6604 0 0 1 -0.6604,0.6604l-0,0a0.6604,0.6604 0 0 1 -0.6604,-0.6604l0,-1.3208a0.6604,0.6604 0 0 1 0.6604,-0.6604l0,0zM13.716,1.3208a0.4064,0.4064 0 1 0 0.8128,0 0.4064,0.4064 0 1 0 -0.8128,0z&#xa;"  fill="#F7BD13" stroke-width="0"/>
        <circle stroke="#F7BD13" id="connector11pad" r="0.5334" connectorname="12" cx="11.5824" gorn="0.1.22" cy="1.3208"  fill="none" stroke-width="0.254"/>
        <path stroke="none" d="m11.5824,0a0.6604,0.6604 0 0 1 0.6604,0.6604l0,1.3208a0.6604,0.6604 0 0 1 -0.6604,0.6604l-0,0a0.6604,0.6604 0 0 1 -0.6604,-0.6604l0,-1.3208a0.6604,0.6604 0 0 1 0.6604,-0.6604l0,0zM11.176,1.3208a0.4064,0.4064 0 1 0 0.8128,0 0.4064,0.4064 0 1 0 -0.8128,0z&#xa;"  fill="#F7BD13" stroke-width="0"/>
        <circle stroke="#F7BD13" id="connector12pad" r="0.5334" connectorname="13" cx="9.0424" gorn="0.1.24" cy="1.3208"  fill="none" stroke-width="0.254"/>
        <path stroke="none" d="m9.0424,0a0.6604,0.6604 0 0 1 0.6604,0.6604l0,1.3208a0.6604,0.6604 0 0 1 -0.6604,0.6604l-0,0a0.6604,0.6604 0 0 1 -0.6604,-0.6604l0,-1.3208a0.6604,0.6604 0 0 1 0.6604,-0.6604l0,0zM8.636,1.3208a0.4064,0.4064 0 1 0 0.8128,0 0.4064,0.4064 0 1 0 -0.8128,0z&#xa;"  fill="#F7BD13" stroke-width="0"/>
        <circle stroke="#F7BD13" id="connector13pad" r="0.5334" connectorname="14" cx="6.5024" gorn="0.1.26" cy="1.3208"  fill="none" stroke-width="0.254"/>
        <path stroke="none" d="m6.5024,0a0.6604,0.6604 0 0 1 0.6604,0.6604l0,1.3208a0.6604,0.6604 0 0 1 -0.6604,0.6604l-0,0a0.6604,0.6604 0 0 1 -0.6604,-0.6604l0,-1.3208a0.6604,0.6604 0 0 1 0.6604,-0.6604l0,0zM6.096,1.3208a0.4064,0.4064 0 1 0 0.8128,0 0.4064,0.4064 0 1 0 -0.8128,0z&#xa;"  fill="#F7BD13" stroke-width="0"/>
        <circle stroke="#F7BD13" id="connector14pad" r="0.5334" connectorname="15" cx="3.9624" gorn="0.1.28" cy="1.3208"  fill="none" stroke-width="0.254"/>
        <path stroke="none" d="m3.9624,0a0.6604,0.6604 0 0 1 0.6604,0.6604l0,1.3208a0.6604,0.6604 0 0 1 -0.6604,0.6604l-0,0a0.6604,0.6604 0 0 1 -0.6604,-0.6604l0,-1.3208a0.6604,0.6604 0 0 1 0.6604,-0.6604l0,0zM3.556,1.3208a0.4064,0.4064 0 1 0 0.8128,0 0.4064,0.4064 0 1 0 -0.8128,0z&#xa;"  fill="#F7BD13" stroke-width="0"/>
        <circle stroke="#F7BD13" id="connector15pad" r="0.5334" connectorname="16" cx="1.4224" gorn="0.1.30" cy="1.3208"  fill="none" stroke-width="0.254"/>
        <path stroke="none" d="m1.4224,0a0.6604,0.6604 0 0 1 0.6604,0.6604l0,1.3208a0.6604,0.6604 0 0 1 -0.6604,0.6604l-0,0a0.6604,0.6604 0 0 1 -0.6604,-0.6604l0,-1.3208a0.6604,0.6604 0 0 1 0.6604,-0.6604l0,0zM1.016,1.3208a0.4064,0.4064 0 1 0 0.8128,0 0.4064,0.4064 0 1 0 -0.8128,0z&#xa;"  fill="#F7BD13" stroke-width="0"/>
        <g id="copper0" gorn="0.1.32" >
            <circle stroke="#F7BD13" id="connector0pad" r="0.5334" connectorname="1" cx="1.4224" gorn="0.1.32.0" cy="8.9408"  fill="none" stroke-width="0.254"/>
            <path stroke="none" id="connector0pin" d="m1.4224,7.62a0.6604,0.6604 0 0 1 0.6604,0.6604l0,1.3208a0.6604,0.6604 0 0 1 -0.6604,0.6604l-0,0a0.6604,0.6604 0 0 1 -0.6604,-0.6604l0,-1.3208a0.6604,0.6604 0 0 1 0.6604,-0.6604l0,0zM1.016,8.9408a0.4064,0.4064 0 1 0 0.8128,0 0.4064,0.4064 0 1 0 -0.8128,0z&#xa;" gorn="0.1.32.1"  fill="#F7BD13" stroke-width="0"/>
            <circle stroke="#F7BD13" id="connector1pad" r="0.5334" connectorname="2" cx="3.9624" gorn="0.1.32.2" cy="8.9408"  fill="none" stroke-width="0.254"/>
            <path stroke="none" id="connector1pin" d="m3.9624,7.62a0.6604,0.6604 0 0 1 0.6604,0.6604l0,1.3208a0.6604,0.6604 0 0 1 -0.6604,0.6604l-0,0a0.6604,0.6604 0 0 1 -0.6604,-0.6604l0,-1.3208a0.6604,0.6604 0 0 1 0.6604,-0.6604l0,0zM3.556,8.9408a0.4064,0.4064 0 1 0 0.8128,0 0.4064,0.4064 0 1 0 -0.8128,0z&#xa;" gorn="0.1.32.3"  fill="#F7BD13" stroke-width="0"/>
            <circle stroke="#F7BD13" id="connector2pad" r="0.5334" connectorname="3" cx="6.5024" gorn="0.1.32.4" cy="8.9408"  fill="none" stroke-width="0.254"/>
            <path stroke="none" id="connector2pin" d="m6.5024,7.62a0.6604,0.6604 0 0 1 0.6604,0.6604l0,1.3208a0.6604,0.6604 0 0 1 -0.6604,0.6604l-0,0a0.6604,0.6604 0 0 1 -0.6604,-0.6604l0,-1.3208a0.6604,0.6604 0 0 1 0.6604,-0.6604l0,0zM6.096,8.9408a0.4064,0.4064 0 1 0 0.8128,0 0.4064,0.4064 0 1 0 -0.8128,0z&#xa;" gorn="0.1.32.5"  fill="#F7BD13" stroke-width="0"/>
            <circle stroke="#F7BD13" id="connector3pad" r="0.5334" connectorname="4" cx="9.0424" gorn="0.1.32.6" cy="8.9408"  fill="none" stroke-width="0.254"/>
            <path stroke="none" id="connector3pin" d="m9.0424,7.62a0.6604,0.6604 0 0 1 0.6604,0.6604l0,1.3208a0.6604,0.6604 0 0 1 -0.6604,0.6604l-0,0a0.6604,0.6604 0 0 1 -0.6604,-0.6604l0,-1.3208a0.6604,0.6604 0 0 1 0.6604,-0.6604l0,0zM8.636,8.9408a0.4064,0.4064 0 1 0 0.8128,0 0.4064,0.4064 0 1 0 -0.8128,0z&#xa;" gorn="0.1.32.7"  fill="#F7BD13" stroke-width="0"/>
            <circle stroke="#F7BD13" id="connector4pad" r="0.5334" connectorname="5" cx="11.5824" gorn="0.1.32.8" cy="8.9408"  fill="none" stroke-width="0.254"/>
            <path stroke="none" id="connector4pin" d="m11.5824,7.62a0.6604,0.6604 0 0 1 0.6604,0.6604l0,1.3208a0.6604,0.6604 0 0 1 -0.6604,0.6604l-0,0a0.6604,0.6604 0 0 1 -0.6604,-0.6604l0,-1.3208a0.6604,0.6604 0 0 1 0.6604,-0.6604l0,0zM11.176,8.9408a0.4064,0.4064 0 1 0 0.8128,0 0.4064,0.4064 0 1 0 -0.8128,0z&#xa;" gorn="0.1.32.9"  fill="#F7BD13" stroke-width="0"/>
            <circle stroke="#F7BD13" id="connector5pad" r="0.5334" connectorname="6" cx="14.1224" gorn="0.1.32.10" cy="8.9408"  fill="none" stroke-width="0.254"/>
            <path stroke="none" id="connector5pin" d="m14.1224,7.62a0.6604,0.6604 0 0 1 0.6604,0.6604l0,1.3208a0.6604,0.6604 0 0 1 -0.6604,0.6604l-0,0a0.6604,0.6604 0 0 1 -0.6604,-0.6604l0,-1.3208a0.6604,0.6604 0 0 1 0.6604,-0.6604l0,0zM13.716,8.9408a0.4064,0.4064 0 1 0 0.8128,0 0.4064,0.4064 0 1 0 -0.8128,0z&#xa;" gorn="0.1.32.11"  fill="#F7BD13" stroke-width="0"/>
            <circle stroke="#F7BD13" id="connector6pad" r="0.5334" connectorname="7" cx="16.6624" gorn="0.1.32.12" cy="8.9408"  fill="none" stroke-width="0.254"/>
            <path stroke="none" id="connector6pin" d="m16.6624,7.62a0.6604,0.6604 0 0 1 0.6604,0.6604l0,1.3208a0.6604,0.6604 0 0 1 -0.6604,0.6604l-0,0a0.6604,0.6604 0 0 1 -0.6604,-0.6604l0,-1.3208a0.6604,0.6604 0 0 1 0.6604,-0.6604l0,0zM16.256,8.9408a0.4064,0.4064 0 1 0 0.8128,0 0.4064,0.4064 0 1 0 -0.8128,0z&#xa;" gorn="0.1.32.13"  fill="#F7BD13" stroke-width="0"/>
            <circle stroke="#F7BD13" id="connector7pad" r="0.5334" connectorname="8" cx="19.2024" gorn="0.1.32.14" cy="8.9408"  fill="none" stroke-width="0.254"/>
            <path stroke="none" id="connector7pin" d="m19.2024,7.62a0.6604,0.6604 0 0 1 0.6604,0.6604l0,1.3208a0.6604,0.6604 0 0 1 -0.6604,0.6604l-0,0a0.6604,0.6604 0 0 1 -0.6604,-0.6604l0,-1.3208a0.6604,0.6604 0 0 1 0.6604,-0.6604l0,0zM18.796,8.9408a0.4064,0.4064 0 1 0 0.8128,0 0.4064,0.4064 0 1 0 -0.8128,0z&#xa;" gorn="0.1.32.15"  fill="#F7BD13" stroke-width="0"/>
            <circle stroke="#F7BD13" id="connector8pad" r="0.5334" connectorname="9" cx="19.2024" gorn="0.1.32.16" cy="1.3208"  fill="none" stroke-width="0.254"/>
            <path stroke="none" id="connector8pin" d="m19.2024,0a0.6604,0.6604 0 0 1 0.6604,0.6604l0,1.3208a0.6604,0.6604 0 0 1 -0.6604,0.6604l-0,0a0.6604,0.6604 0 0 1 -0.6604,-0.6604l0,-1.3208a0.6604,0.6604 0 0 1 0.6604,-0.6604l0,0zM18.796,1.3208a0.4064,0.4064 0 1 0 0.8128,0 0.4064,0.4064 0 1 0 -0.8128,0z&#xa;" gorn="0.1.32.17"  fill="#F7BD13" stroke-width="0"/>
            <circle stroke="#F7BD13" id="connector9pad" r="0.5334" connectorname="10" cx="16.6624" gorn="0.1.32.18" cy="1.3208"  fill="none" stroke-width="0.254"/>
            <path stroke="none" id="connector9pin" d="m16.6624,0a0.6604,0.6604 0 0 1 0.6604,0.6604l0,1.3208a0.6604,0.6604 0 0 1 -0.6604,0.6604l-0,0a0.6604,0.6604 0 0 1 -0.6604,-0.6604l0,-1.3208a0.6604,0.6604 0 0 1 0.6604,-0.6604l0,0zM16.256,1.3208a0.4064,0.4064 0 1 0 0.8128,0 0.4064,0.4064 0 1 0 -0.8128,0z&#xa;" gorn="0.1.32.19"  fill="#F7BD13" stroke-width="0"/>
            <circle stroke="#F7BD13" id="connector10pad" r="0.5334" connectorname="11" cx="14.1224" gorn="0.1.32.20" cy="1.3208"  fill="none" stroke-width="0.254"/>
            <path stroke="none" id="connector10pin" d="m14.1224,0a0.6604,0.6604 0 0 1 0.6604,0.6604l0,1.3208a0.6604,0.6604 0 0 1 -0.6604,0.6604l-0,0a0.6604,0.6604 0 0 1 -0.6604,-0.6604l0,-1.3208a0.6604,0.6604 0 0 1 0.6604,-0.6604l0,0zM13.716,1.3208a0.4064,0.4064 0 1 0 0.8128,0 0.4064,0.4064 0 1 0 -0.8128,0z&#xa;" gorn="0.1.32.21"  fill="#F7BD13" stroke-width="0"/>
            <circle stroke="#F7BD13" id="connector11pad" r="0.5334" connectorname="12" cx="11.5824" gorn="0.1.32.22" cy="1.3208"  fill="none" stroke-width="0.254"/>
            <path stroke="none" id="connector11pin" d="m11.5824,0a0.6604,0.6604 0 0 1 0.6604,0.6604l0,1.3208a0.6604,0.6604 0 0 1 -0.6604,0.6604l-0,0a0.6604,0.6604 0 0 1 -0.6604,-0.6604l0,-1.3208a0.6604,0.6604 0 0 1 0.6604,-0.6604l0,0zM11.176,1.3208a0.4064,0.4064 0 1 0 0.8128,0 0.4064,0.4064 0 1 0 -0.8128,0z&#xa;" gorn="0.1.32.23"  fill="#F7BD13" stroke-width="0"/>
            <circle stroke="#F7BD13" id="connector12pad" r="0.5334" connectorname="13" cx="9.0424" gorn="0.1.32.24" cy="1.3208"  fill="none" stroke-width="0.254"/>
            <path stroke="none" id="connector12pin" d="m9.0424,0a0.6604,0.6604 0 0 1 0.6604,0.6604l0,1.3208a0.6604,0.6604 0 0 1 -0.6604,0.6604l-0,0a0.6604,0.6604 0 0 1 -0.6604,-0.6604l0,-1.3208a0.6604,0.6604 0 0 1 0.6604,-0.6604l0,0zM8.636,1.3208a0.4064,0.4064 0 1 0 0.8128,0 0.4064,0.4064 0 1 0 -0.8128,0z&#xa;" gorn="0.1.32.25"  fill="#F7BD13" stroke-width="0"/>
            <circle stroke="#F7BD13" id="connector13pad" r="0.5334" connectorname="14" cx="6.5024" gorn="0.1.32.26" cy="1.3208"  fill="none" stroke-width="0.254"/>
            <path stroke="none" id="connector13pin" d="m6.5024,0a0.6604,0.6604 0 0 1 0.6604,0.6604l0,1.3208a0.6604,0.6604 0 0 1 -0.6604,0.6604l-0,0a0.6604,0.6604 0 0 1 -0.6604,-0.6604l0,-1.3208a0.6604,0.6604 0 0 1 0.6604,-0.6604l0,0zM6.096,1.3208a0.4064,0.4064 0 1 0 0.8128,0 0.4064,0.4064 0 1 0 -0.8128,0z&#xa;" gorn="0.1.32.27"  fill="#F7BD13" stroke-width="0"/>
            <circle stroke="#F7BD13" id="connector14pad" r="0.5334" connectorname="15" cx="3.9624" gorn="0.1.32.28" cy="1.3208"  fill="none" stroke-width="0.254"/>
            <path stroke="none" id="connector14pin" d="m3.9624,0a0.6604,0.6604 0 0 1 0.6604,0.6604l0,1.3208a0.6604,0.6604 0 0 1 -0.6604,0.6604l-0,0a0.6604,0.6604 0 0 1 -0.6604,-0.6604l0,-1.3208a0.6604,0.6604 0 0 1 0.6604,-0.6604l0,0zM3.556,1.3208a0.4064,0.4064 0 1 0 0.8128,0 0.4064,0.4064 0 1 0 -0.8128,0z&#xa;" gorn="0.1.32.29"  fill="#F7BD13" stroke-width="0"/>
            <circle stroke="#F7BD13" id="connector15pad" r="0.5334" connectorname="16" cx="1.4224" gorn="0.1.32.30" cy="1.3208"  fill="none" stroke-width="0.254"/>
            <path stroke="none" id="connector15pin" d="m1.4224,0a0.6604,0.6604 0 0 1 0.6604,0.6604l0,1.3208a0.6604,0.6604 0 0 1 -0.6604,0.6604l-0,0a0.6604,0.6604 0 0 1 -0.6604,-0.6604l0,-1.3208a0.6604,0.6604 0 0 1 0.6604,-0.6604l0,0zM1.016,1.3208a0.4064,0.4064 0 1 0 0.8128,0 0.4064,0.4064 0 1 0 -0.8128,0z&#xa;" gorn="0.1.32.31"  fill="#F7BD13" stroke-width="0"/>
        </g>
    </g>
    <g id="silkscreen" gorn="0.2" >
        <line stroke="#f0f0f0" class="other" y2="2.2098" stroke-linecap="round" x2="0.1524" x1="20.4724"  y1="2.2098" stroke-width="0.3048"/>
        <line stroke="#f0f0f0" class="other" y2="8.0518" stroke-linecap="round" x2="20.4724" x1="0.1524"  y1="8.0518" stroke-width="0.3048"/>
        <line stroke="#f0f0f0" class="other" y2="8.0518" stroke-linecap="round" x2="20.4724" x1="20.4724"  y1="2.2098" stroke-width="0.3048"/>
        <line stroke="#f0f0f0" class="other" y2="4.1148" stroke-linecap="round" x2="0.1524" x1="0.1524"  y1="2.2098" stroke-width="0.3048"/>
        <line stroke="#f0f0f0" class="other" y2="6.1468" stroke-linecap="round" x2="0.1524" x1="0.1524"  y1="8.0518" stroke-width="0.3048"/>
        <path stroke="#f0f0f0" class="other" d="M0.1524,6.1468 A1.016,1.016 0 1 0 0.1524,4.1148"  fill="none" stroke-width="0.3048"/>
    </g>
</svg>
