<?xml version='1.0' encoding='UTF-8' standalone='no'?>
<!-- Created with Fritzing (http://www.fritzing.org/) -->
<svg xmlns="http://www.w3.org/2000/svg" viewBox="0 0 240 160" y="0in" height="2.22222in" xmlns:svg="http://www.w3.org/2000/svg" width="3.33333in"  x="0in" version="1.2" baseProfile="tiny">
 <g partID="57830">
  <g id="board" >
   <rect fill="none" fill-opacity="0.5" height="159.424" y="0.288" stroke="black" id="boardoutline" width="239.424"  x="0.288" stroke-width="0.5"/>
  </g>
 </g>
 <g partID="12069671">
  <g transform="translate(53.8892,20.8892)">
   <g transform="matrix(1, 0, 0, 1, 3.02281, 60.7668)">
    <g id="copper1">
     <g gorn="0.2.0.0.0">
      <g gorn="0.2.0.0.0.0" id="copper0">
       <g gorn="0.2.0.0.0.0.0" id="EXT1">
        <g gorn="0.2.0.0.0.0.0.0" id="pin1">
         <circle fill="none" cx="3.888" r="1.512" gorn="0.2.0.0.0.0.0.0.0" stroke="black" connectorname="1" id="connector0pad" cy="25.344" stroke-width="0.72"/>
         <path d="m3.888,21.6a1.872,1.872,0,0,1,1.872,1.872l0,3.744a1.872,1.872,0,0,1,-1.872,1.872l0,0A1.872,1.872,0,0,1,2.016,27.216L2.016,23.472A1.872,1.872,0,0,1,3.888,21.6Zm-1.152,3.744a1.152,1.152,0,1,0,2.304,0,1.152,1.152,0,1,0,-2.304,0z" fill="black" gorn="0.2.0.0.0.0.0.0.1" stroke="none" id="path1" stroke-width="0"/>
        </g>
        <g transform="matrix(1, 0, 0, 1, 7.2, 0)">
         <g>
          <g>
           <g gorn="0.2.0.0.0.0.0.1.0.0" id="pin2">
            <circle fill="none" cx="3.888" r="1.512" gorn="0.2.0.0.0.0.0.1.0.0.0" stroke="black" connectorname="1" id="circle9" cy="25.344" stroke-width="0.72"/>
            <path d="m3.888,21.6a1.872,1.872,0,0,1,1.872,1.872l0,3.744a1.872,1.872,0,0,1,-1.872,1.872l0,0A1.872,1.872,0,0,1,2.016,27.216L2.016,23.472A1.872,1.872,0,0,1,3.888,21.6Zm-1.152,3.744a1.152,1.152,0,1,0,2.304,0,1.152,1.152,0,1,0,-2.304,0z" fill="black" gorn="0.2.0.0.0.0.0.1.0.0.1" stroke="none" id="path9" stroke-width="0"/>
           </g>
          </g>
         </g>
        </g>
        <g transform="matrix(1, 0, 0, 1, 14.4, 0)">
         <g>
          <g>
           <g gorn="0.2.0.0.0.0.0.2.0.0" id="pin3">
            <circle fill="none" cx="3.888" r="1.512" gorn="0.2.0.0.0.0.0.2.0.0.0" stroke="black" connectorname="1" id="circle10" cy="25.344" stroke-width="0.72"/>
            <path d="m3.888,21.6a1.872,1.872,0,0,1,1.872,1.872l0,3.744a1.872,1.872,0,0,1,-1.872,1.872l0,0A1.872,1.872,0,0,1,2.016,27.216L2.016,23.472A1.872,1.872,0,0,1,3.888,21.6Zm-1.152,3.744a1.152,1.152,0,1,0,2.304,0,1.152,1.152,0,1,0,-2.304,0z" fill="black" gorn="0.2.0.0.0.0.0.2.0.0.1" stroke="none" id="path10" stroke-width="0"/>
           </g>
          </g>
         </g>
        </g>
        <g transform="matrix(1, 0, 0, 1, 21.6, 0)">
         <g>
          <g>
           <g gorn="0.2.0.0.0.0.0.3.0.0" id="pin4">
            <circle fill="none" cx="3.888" r="1.512" gorn="0.2.0.0.0.0.0.3.0.0.0" stroke="black" connectorname="1" id="circle11" cy="25.344" stroke-width="0.72"/>
            <path d="m3.888,21.6a1.872,1.872,0,0,1,1.872,1.872l0,3.744a1.872,1.872,0,0,1,-1.872,1.872l0,0A1.872,1.872,0,0,1,2.016,27.216L2.016,23.472A1.872,1.872,0,0,1,3.888,21.6Zm-1.152,3.744a1.152,1.152,0,1,0,2.304,0,1.152,1.152,0,1,0,-2.304,0z" fill="black" gorn="0.2.0.0.0.0.0.3.0.0.1" stroke="none" id="path11" stroke-width="0"/>
           </g>
          </g>
         </g>
        </g>
        <g transform="matrix(1, 0, 0, 1, 28.8, 0)">
         <g>
          <g>
           <g gorn="0.2.0.0.0.0.0.4.0.0" id="pin5">
            <circle fill="none" cx="3.888" r="1.512" gorn="0.2.0.0.0.0.0.4.0.0.0" stroke="black" connectorname="1" id="circle12" cy="25.344" stroke-width="0.72"/>
            <path d="m3.888,21.6a1.872,1.872,0,0,1,1.872,1.872l0,3.744a1.872,1.872,0,0,1,-1.872,1.872l0,0A1.872,1.872,0,0,1,2.016,27.216L2.016,23.472A1.872,1.872,0,0,1,3.888,21.6Zm-1.152,3.744a1.152,1.152,0,1,0,2.304,0,1.152,1.152,0,1,0,-2.304,0z" fill="black" gorn="0.2.0.0.0.0.0.4.0.0.1" stroke="none" id="path12" stroke-width="0"/>
           </g>
          </g>
         </g>
        </g>
        <g transform="matrix(1, 0, 0, 1, 36, 0)">
         <g>
          <g>
           <g gorn="0.2.0.0.0.0.0.5.0.0" id="pin6">
            <circle fill="none" cx="3.888" r="1.512" gorn="0.2.0.0.0.0.0.5.0.0.0" stroke="black" connectorname="1" id="circle13" cy="25.344" stroke-width="0.72"/>
            <path d="m3.888,21.6a1.872,1.872,0,0,1,1.872,1.872l0,3.744a1.872,1.872,0,0,1,-1.872,1.872l0,0A1.872,1.872,0,0,1,2.016,27.216L2.016,23.472A1.872,1.872,0,0,1,3.888,21.6Zm-1.152,3.744a1.152,1.152,0,1,0,2.304,0,1.152,1.152,0,1,0,-2.304,0z" fill="black" gorn="0.2.0.0.0.0.0.5.0.0.1" stroke="none" id="path13" stroke-width="0"/>
           </g>
          </g>
         </g>
        </g>
        <g transform="matrix(1, 0, 0, 1, 43.2, 0)">
         <g>
          <g>
           <g gorn="0.2.0.0.0.0.0.6.0.0" id="pin7">
            <circle fill="none" cx="3.888" r="1.512" gorn="0.2.0.0.0.0.0.6.0.0.0" stroke="black" connectorname="1" id="circle14" cy="25.344" stroke-width="0.72"/>
            <path d="m3.888,21.6a1.872,1.872,0,0,1,1.872,1.872l0,3.744a1.872,1.872,0,0,1,-1.872,1.872l0,0A1.872,1.872,0,0,1,2.016,27.216L2.016,23.472A1.872,1.872,0,0,1,3.888,21.6Zm-1.152,3.744a1.152,1.152,0,1,0,2.304,0,1.152,1.152,0,1,0,-2.304,0z" fill="black" gorn="0.2.0.0.0.0.0.6.0.0.1" stroke="none" id="path14" stroke-width="0"/>
           </g>
          </g>
         </g>
        </g>
        <g transform="matrix(1, 0, 0, 1, 50.4, 0)">
         <g>
          <g>
           <g gorn="0.2.0.0.0.0.0.7.0.0" id="pin8">
            <circle fill="none" cx="3.888" r="1.512" gorn="0.2.0.0.0.0.0.7.0.0.0" stroke="black" connectorname="1" id="circle15" cy="25.344" stroke-width="0.72"/>
            <path d="m3.888,21.6a1.872,1.872,0,0,1,1.872,1.872l0,3.744a1.872,1.872,0,0,1,-1.872,1.872l0,0A1.872,1.872,0,0,1,2.016,27.216L2.016,23.472A1.872,1.872,0,0,1,3.888,21.6Zm-1.152,3.744a1.152,1.152,0,1,0,2.304,0,1.152,1.152,0,1,0,-2.304,0z" fill="black" gorn="0.2.0.0.0.0.0.7.0.0.1" stroke="none" id="path15" stroke-width="0"/>
           </g>
          </g>
         </g>
        </g>
        <g transform="matrix(1, 0, 0, 1, 57.6, 0)">
         <g>
          <g>
           <g gorn="0.2.0.0.0.0.0.8.0.0" id="pin9">
            <circle fill="none" cx="3.888" r="1.512" gorn="0.2.0.0.0.0.0.8.0.0.0" stroke="black" connectorname="1" id="circle16" cy="25.344" stroke-width="0.72"/>
            <path d="m3.888,21.6a1.872,1.872,0,0,1,1.872,1.872l0,3.744a1.872,1.872,0,0,1,-1.872,1.872l0,0A1.872,1.872,0,0,1,2.016,27.216L2.016,23.472A1.872,1.872,0,0,1,3.888,21.6Zm-1.152,3.744a1.152,1.152,0,1,0,2.304,0,1.152,1.152,0,1,0,-2.304,0z" fill="black" gorn="0.2.0.0.0.0.0.8.0.0.1" stroke="none" id="path16" stroke-width="0"/>
           </g>
          </g>
         </g>
        </g>
        <g transform="matrix(1, 0, 0, 1, 64.8, 0)">
         <g>
          <g>
           <g gorn="0.2.0.0.0.0.0.9.0.0" id="pin10">
            <circle fill="none" cx="3.888" r="1.512" gorn="0.2.0.0.0.0.0.9.0.0.0" stroke="black" connectorname="1" id="circle17" cy="25.344" stroke-width="0.72"/>
            <path d="m3.888,21.6a1.872,1.872,0,0,1,1.872,1.872l0,3.744a1.872,1.872,0,0,1,-1.872,1.872l0,0A1.872,1.872,0,0,1,2.016,27.216L2.016,23.472A1.872,1.872,0,0,1,3.888,21.6Zm-1.152,3.744a1.152,1.152,0,1,0,2.304,0,1.152,1.152,0,1,0,-2.304,0z" fill="black" gorn="0.2.0.0.0.0.0.9.0.0.1" stroke="none" id="path17" stroke-width="0"/>
           </g>
          </g>
         </g>
        </g>
        <g transform="matrix(1, 0, 0, 1, 72, 0)">
         <g>
          <g>
           <g gorn="0.2.0.0.0.0.0.10.0.0" id="pin11">
            <circle fill="none" cx="3.888" r="1.512" gorn="0.2.0.0.0.0.0.10.0.0.0" stroke="black" connectorname="1" id="circle18" cy="25.344" stroke-width="0.72"/>
            <path d="m3.888,21.6a1.872,1.872,0,0,1,1.872,1.872l0,3.744a1.872,1.872,0,0,1,-1.872,1.872l0,0A1.872,1.872,0,0,1,2.016,27.216L2.016,23.472A1.872,1.872,0,0,1,3.888,21.6Zm-1.152,3.744a1.152,1.152,0,1,0,2.304,0,1.152,1.152,0,1,0,-2.304,0z" fill="black" gorn="0.2.0.0.0.0.0.10.0.0.1" stroke="none" id="path18" stroke-width="0"/>
           </g>
          </g>
         </g>
        </g>
        <g transform="matrix(1, 0, 0, 1, 79.2, 0)">
         <g>
          <g>
           <g gorn="0.2.0.0.0.0.0.11.0.0" id="pin12">
            <circle fill="none" cx="3.888" r="1.512" gorn="0.2.0.0.0.0.0.11.0.0.0" stroke="black" connectorname="1" id="circle19" cy="25.344" stroke-width="0.72"/>
            <path d="m3.888,21.6a1.872,1.872,0,0,1,1.872,1.872l0,3.744a1.872,1.872,0,0,1,-1.872,1.872l0,0A1.872,1.872,0,0,1,2.016,27.216L2.016,23.472A1.872,1.872,0,0,1,3.888,21.6Zm-1.152,3.744a1.152,1.152,0,1,0,2.304,0,1.152,1.152,0,1,0,-2.304,0z" fill="black" gorn="0.2.0.0.0.0.0.11.0.0.1" stroke="none" id="path19" stroke-width="0"/>
           </g>
          </g>
         </g>
        </g>
        <g transform="matrix(1, 0, 0, 1, 86.4, 0)">
         <g>
          <g>
           <g gorn="0.2.0.0.0.0.0.12.0.0" id="pin13">
            <circle fill="none" cx="3.888" r="1.512" gorn="0.2.0.0.0.0.0.12.0.0.0" stroke="black" connectorname="1" id="circle20" cy="25.344" stroke-width="0.72"/>
            <path d="m3.888,21.6a1.872,1.872,0,0,1,1.872,1.872l0,3.744a1.872,1.872,0,0,1,-1.872,1.872l0,0A1.872,1.872,0,0,1,2.016,27.216L2.016,23.472A1.872,1.872,0,0,1,3.888,21.6Zm-1.152,3.744a1.152,1.152,0,1,0,2.304,0,1.152,1.152,0,1,0,-2.304,0z" fill="black" gorn="0.2.0.0.0.0.0.12.0.0.1" stroke="none" id="path20" stroke-width="0"/>
           </g>
          </g>
         </g>
        </g>
        <g transform="matrix(1, 0, 0, 1, 93.6, 0)">
         <g>
          <g>
           <g gorn="0.2.0.0.0.0.0.13.0.0" id="pin14">
            <circle fill="none" cx="3.888" r="1.512" gorn="0.2.0.0.0.0.0.13.0.0.0" stroke="black" connectorname="1" id="circle21" cy="25.344" stroke-width="0.72"/>
            <path d="m3.888,21.6a1.872,1.872,0,0,1,1.872,1.872l0,3.744a1.872,1.872,0,0,1,-1.872,1.872l0,0A1.872,1.872,0,0,1,2.016,27.216L2.016,23.472A1.872,1.872,0,0,1,3.888,21.6Zm-1.152,3.744a1.152,1.152,0,1,0,2.304,0,1.152,1.152,0,1,0,-2.304,0z" fill="black" gorn="0.2.0.0.0.0.0.13.0.0.1" stroke="none" id="path21" stroke-width="0"/>
           </g>
          </g>
         </g>
        </g>
        <g transform="matrix(1, 0, 0, 1, 100.8, 0)">
         <g>
          <g>
           <g gorn="0.2.0.0.0.0.0.14.0.0" id="pin15">
            <circle fill="none" cx="3.888" r="1.512" gorn="0.2.0.0.0.0.0.14.0.0.0" stroke="black" connectorname="1" id="circle22" cy="25.344" stroke-width="0.72"/>
            <path d="m3.888,21.6a1.872,1.872,0,0,1,1.872,1.872l0,3.744a1.872,1.872,0,0,1,-1.872,1.872l0,0A1.872,1.872,0,0,1,2.016,27.216L2.016,23.472A1.872,1.872,0,0,1,3.888,21.6Zm-1.152,3.744a1.152,1.152,0,1,0,2.304,0,1.152,1.152,0,1,0,-2.304,0z" fill="black" gorn="0.2.0.0.0.0.0.14.0.0.1" stroke="none" id="path22" stroke-width="0"/>
           </g>
          </g>
         </g>
        </g>
        <g transform="matrix(1, 0, 0, 1, 108, 0)">
         <g>
          <g>
           <g gorn="0.2.0.0.0.0.0.15.0.0" id="pin16">
            <circle fill="none" cx="3.888" r="1.512" gorn="0.2.0.0.0.0.0.15.0.0.0" stroke="black" connectorname="1" id="circle23" cy="25.344" stroke-width="0.72"/>
            <path d="m3.888,21.6a1.872,1.872,0,0,1,1.872,1.872l0,3.744a1.872,1.872,0,0,1,-1.872,1.872l0,0A1.872,1.872,0,0,1,2.016,27.216L2.016,23.472A1.872,1.872,0,0,1,3.888,21.6Zm-1.152,3.744a1.152,1.152,0,1,0,2.304,0,1.152,1.152,0,1,0,-2.304,0z" fill="black" gorn="0.2.0.0.0.0.0.15.0.0.1" stroke="none" id="path23" stroke-width="0"/>
           </g>
          </g>
         </g>
        </g>
       </g>
       <g transform="matrix(1, 0, 0, 1, 0, 7.20118)">
        <g>
         <g>
          <g gorn="0.2.0.0.0.0.1.0.0" id="EXT2">
           <g transform="matrix(1, 0, 0, 1, 0, -79.2)">
            <g>
             <g>
              <g gorn="0.2.0.0.0.0.1.0.0.0.0.0" id="pin32">
               <circle fill="none" cx="3.888" r="1.512" gorn="0.2.0.0.0.0.1.0.0.0.0.0.0" stroke="black" connectorname="1" id="circle39" cy="25.344" stroke-width="0.72"/>
               <path d="m3.888,21.6a1.872,1.872,0,0,1,1.872,1.872l0,3.744a1.872,1.872,0,0,1,-1.872,1.872l0,0A1.872,1.872,0,0,1,2.016,27.216L2.016,23.472A1.872,1.872,0,0,1,3.888,21.6Zm-1.152,3.744a1.152,1.152,0,1,0,2.304,0,1.152,1.152,0,1,0,-2.304,0z" fill="black" gorn="0.2.0.0.0.0.1.0.0.0.0.0.1" stroke="none" id="path39" stroke-width="0"/>
              </g>
             </g>
            </g>
           </g>
           <g transform="matrix(1, 0, 0, 1, 7.2, -79.2)">
            <g>
             <g>
              <g gorn="0.2.0.0.0.0.1.0.0.1.0.0" id="pin31">
               <circle fill="none" cx="3.888" r="1.512" gorn="0.2.0.0.0.0.1.0.0.1.0.0.0" stroke="black" connectorname="1" id="circle40" cy="25.344" stroke-width="0.72"/>
               <path d="m3.888,21.6a1.872,1.872,0,0,1,1.872,1.872l0,3.744a1.872,1.872,0,0,1,-1.872,1.872l0,0A1.872,1.872,0,0,1,2.016,27.216L2.016,23.472A1.872,1.872,0,0,1,3.888,21.6Zm-1.152,3.744a1.152,1.152,0,1,0,2.304,0,1.152,1.152,0,1,0,-2.304,0z" fill="black" gorn="0.2.0.0.0.0.1.0.0.1.0.0.1" stroke="none" id="path40" stroke-width="0"/>
              </g>
             </g>
            </g>
           </g>
           <g transform="matrix(1, 0, 0, 1, 14.4, -79.2)">
            <g>
             <g>
              <g gorn="0.2.0.0.0.0.1.0.0.2.0.0" id="pin30">
               <circle fill="none" cx="3.888" r="1.512" gorn="0.2.0.0.0.0.1.0.0.2.0.0.0" stroke="black" connectorname="1" id="circle41" cy="25.344" stroke-width="0.72"/>
               <path d="m3.888,21.6a1.872,1.872,0,0,1,1.872,1.872l0,3.744a1.872,1.872,0,0,1,-1.872,1.872l0,0A1.872,1.872,0,0,1,2.016,27.216L2.016,23.472A1.872,1.872,0,0,1,3.888,21.6Zm-1.152,3.744a1.152,1.152,0,1,0,2.304,0,1.152,1.152,0,1,0,-2.304,0z" fill="black" gorn="0.2.0.0.0.0.1.0.0.2.0.0.1" stroke="none" id="path41" stroke-width="0"/>
              </g>
             </g>
            </g>
           </g>
           <g transform="matrix(1, 0, 0, 1, 21.6, -79.2)">
            <g>
             <g>
              <g gorn="0.2.0.0.0.0.1.0.0.3.0.0" id="pin29">
               <circle fill="none" cx="3.888" r="1.512" gorn="0.2.0.0.0.0.1.0.0.3.0.0.0" stroke="black" connectorname="1" id="circle42" cy="25.344" stroke-width="0.72"/>
               <path d="m3.888,21.6a1.872,1.872,0,0,1,1.872,1.872l0,3.744a1.872,1.872,0,0,1,-1.872,1.872l0,0A1.872,1.872,0,0,1,2.016,27.216L2.016,23.472A1.872,1.872,0,0,1,3.888,21.6Zm-1.152,3.744a1.152,1.152,0,1,0,2.304,0,1.152,1.152,0,1,0,-2.304,0z" fill="black" gorn="0.2.0.0.0.0.1.0.0.3.0.0.1" stroke="none" id="path42" stroke-width="0"/>
              </g>
             </g>
            </g>
           </g>
           <g transform="matrix(1, 0, 0, 1, 28.8, -79.2)">
            <g>
             <g>
              <g gorn="0.2.0.0.0.0.1.0.0.4.0.0" id="pin28">
               <circle fill="none" cx="3.888" r="1.512" gorn="0.2.0.0.0.0.1.0.0.4.0.0.0" stroke="black" connectorname="1" id="circle43" cy="25.344" stroke-width="0.72"/>
               <path d="m3.888,21.6a1.872,1.872,0,0,1,1.872,1.872l0,3.744a1.872,1.872,0,0,1,-1.872,1.872l0,0A1.872,1.872,0,0,1,2.016,27.216L2.016,23.472A1.872,1.872,0,0,1,3.888,21.6Zm-1.152,3.744a1.152,1.152,0,1,0,2.304,0,1.152,1.152,0,1,0,-2.304,0z" fill="black" gorn="0.2.0.0.0.0.1.0.0.4.0.0.1" stroke="none" id="path43" stroke-width="0"/>
              </g>
             </g>
            </g>
           </g>
           <g transform="matrix(1, 0, 0, 1, 36, -79.2)">
            <g>
             <g>
              <g gorn="0.2.0.0.0.0.1.0.0.5.0.0" id="pin27">
               <circle fill="none" cx="3.888" r="1.512" gorn="0.2.0.0.0.0.1.0.0.5.0.0.0" stroke="black" connectorname="1" id="circle44" cy="25.344" stroke-width="0.72"/>
               <path d="m3.888,21.6a1.872,1.872,0,0,1,1.872,1.872l0,3.744a1.872,1.872,0,0,1,-1.872,1.872l0,0A1.872,1.872,0,0,1,2.016,27.216L2.016,23.472A1.872,1.872,0,0,1,3.888,21.6Zm-1.152,3.744a1.152,1.152,0,1,0,2.304,0,1.152,1.152,0,1,0,-2.304,0z" fill="black" gorn="0.2.0.0.0.0.1.0.0.5.0.0.1" stroke="none" id="path44" stroke-width="0"/>
              </g>
             </g>
            </g>
           </g>
           <g transform="matrix(1, 0, 0, 1, 43.2, -79.2)">
            <g>
             <g>
              <g gorn="0.2.0.0.0.0.1.0.0.6.0.0" id="pin26">
               <circle fill="none" cx="3.888" r="1.512" gorn="0.2.0.0.0.0.1.0.0.6.0.0.0" stroke="black" connectorname="1" id="circle45" cy="25.344" stroke-width="0.72"/>
               <path d="m3.888,21.6a1.872,1.872,0,0,1,1.872,1.872l0,3.744a1.872,1.872,0,0,1,-1.872,1.872l0,0A1.872,1.872,0,0,1,2.016,27.216L2.016,23.472A1.872,1.872,0,0,1,3.888,21.6Zm-1.152,3.744a1.152,1.152,0,1,0,2.304,0,1.152,1.152,0,1,0,-2.304,0z" fill="black" gorn="0.2.0.0.0.0.1.0.0.6.0.0.1" stroke="none" id="path45" stroke-width="0"/>
              </g>
             </g>
            </g>
           </g>
           <g transform="matrix(1, 0, 0, 1, 50.4, -79.2)">
            <g>
             <g>
              <g gorn="0.2.0.0.0.0.1.0.0.7.0.0" id="pin25">
               <circle fill="none" cx="3.888" r="1.512" gorn="0.2.0.0.0.0.1.0.0.7.0.0.0" stroke="black" connectorname="1" id="circle46" cy="25.344" stroke-width="0.72"/>
               <path d="m3.888,21.6a1.872,1.872,0,0,1,1.872,1.872l0,3.744a1.872,1.872,0,0,1,-1.872,1.872l0,0A1.872,1.872,0,0,1,2.016,27.216L2.016,23.472A1.872,1.872,0,0,1,3.888,21.6Zm-1.152,3.744a1.152,1.152,0,1,0,2.304,0,1.152,1.152,0,1,0,-2.304,0z" fill="black" gorn="0.2.0.0.0.0.1.0.0.7.0.0.1" stroke="none" id="path46" stroke-width="0"/>
              </g>
             </g>
            </g>
           </g>
           <g transform="matrix(1, 0, 0, 1, 57.6, -79.2)">
            <g>
             <g>
              <g gorn="0.2.0.0.0.0.1.0.0.8.0.0" id="pin24">
               <circle fill="none" cx="3.888" r="1.512" gorn="0.2.0.0.0.0.1.0.0.8.0.0.0" stroke="black" connectorname="1" id="circle47" cy="25.344" stroke-width="0.72"/>
               <path d="m3.888,21.6a1.872,1.872,0,0,1,1.872,1.872l0,3.744a1.872,1.872,0,0,1,-1.872,1.872l0,0A1.872,1.872,0,0,1,2.016,27.216L2.016,23.472A1.872,1.872,0,0,1,3.888,21.6Zm-1.152,3.744a1.152,1.152,0,1,0,2.304,0,1.152,1.152,0,1,0,-2.304,0z" fill="black" gorn="0.2.0.0.0.0.1.0.0.8.0.0.1" stroke="none" id="path47" stroke-width="0"/>
              </g>
             </g>
            </g>
           </g>
           <g transform="matrix(1, 0, 0, 1, 64.8, -79.2)">
            <g>
             <g>
              <g gorn="0.2.0.0.0.0.1.0.0.9.0.0" id="pin23">
               <circle fill="none" cx="3.888" r="1.512" gorn="0.2.0.0.0.0.1.0.0.9.0.0.0" stroke="black" connectorname="1" id="circle48" cy="25.344" stroke-width="0.72"/>
               <path d="m3.888,21.6a1.872,1.872,0,0,1,1.872,1.872l0,3.744a1.872,1.872,0,0,1,-1.872,1.872l0,0A1.872,1.872,0,0,1,2.016,27.216L2.016,23.472A1.872,1.872,0,0,1,3.888,21.6Zm-1.152,3.744a1.152,1.152,0,1,0,2.304,0,1.152,1.152,0,1,0,-2.304,0z" fill="black" gorn="0.2.0.0.0.0.1.0.0.9.0.0.1" stroke="none" id="path48" stroke-width="0"/>
              </g>
             </g>
            </g>
           </g>
           <g transform="matrix(1, 0, 0, 1, 72, -79.2)">
            <g>
             <g>
              <g gorn="0.2.0.0.0.0.1.0.0.10.0.0" id="pin22">
               <circle fill="none" cx="3.888" r="1.512" gorn="0.2.0.0.0.0.1.0.0.10.0.0.0" stroke="black" connectorname="1" id="circle49" cy="25.344" stroke-width="0.72"/>
               <path d="m3.888,21.6a1.872,1.872,0,0,1,1.872,1.872l0,3.744a1.872,1.872,0,0,1,-1.872,1.872l0,0A1.872,1.872,0,0,1,2.016,27.216L2.016,23.472A1.872,1.872,0,0,1,3.888,21.6Zm-1.152,3.744a1.152,1.152,0,1,0,2.304,0,1.152,1.152,0,1,0,-2.304,0z" fill="black" gorn="0.2.0.0.0.0.1.0.0.10.0.0.1" stroke="none" id="path49" stroke-width="0"/>
              </g>
             </g>
            </g>
           </g>
           <g transform="matrix(1, 0, 0, 1, 79.2, -79.2)">
            <g>
             <g>
              <g gorn="0.2.0.0.0.0.1.0.0.11.0.0" id="pin21">
               <circle fill="none" cx="3.888" r="1.512" gorn="0.2.0.0.0.0.1.0.0.11.0.0.0" stroke="black" connectorname="1" id="circle50" cy="25.344" stroke-width="0.72"/>
               <path d="m3.888,21.6a1.872,1.872,0,0,1,1.872,1.872l0,3.744a1.872,1.872,0,0,1,-1.872,1.872l0,0A1.872,1.872,0,0,1,2.016,27.216L2.016,23.472A1.872,1.872,0,0,1,3.888,21.6Zm-1.152,3.744a1.152,1.152,0,1,0,2.304,0,1.152,1.152,0,1,0,-2.304,0z" fill="black" gorn="0.2.0.0.0.0.1.0.0.11.0.0.1" stroke="none" id="path50" stroke-width="0"/>
              </g>
             </g>
            </g>
           </g>
           <g transform="matrix(1, 0, 0, 1, 86.4, -79.2)">
            <g>
             <g>
              <g gorn="0.2.0.0.0.0.1.0.0.12.0.0" id="pin20">
               <circle fill="none" cx="3.888" r="1.512" gorn="0.2.0.0.0.0.1.0.0.12.0.0.0" stroke="black" connectorname="1" id="circle51" cy="25.344" stroke-width="0.72"/>
               <path d="m3.888,21.6a1.872,1.872,0,0,1,1.872,1.872l0,3.744a1.872,1.872,0,0,1,-1.872,1.872l0,0A1.872,1.872,0,0,1,2.016,27.216L2.016,23.472A1.872,1.872,0,0,1,3.888,21.6Zm-1.152,3.744a1.152,1.152,0,1,0,2.304,0,1.152,1.152,0,1,0,-2.304,0z" fill="black" gorn="0.2.0.0.0.0.1.0.0.12.0.0.1" stroke="none" id="path51" stroke-width="0"/>
              </g>
             </g>
            </g>
           </g>
           <g transform="matrix(1, 0, 0, 1, 93.6, -79.2)">
            <g>
             <g>
              <g gorn="0.2.0.0.0.0.1.0.0.13.0.0" id="pin19">
               <circle fill="none" cx="3.888" r="1.512" gorn="0.2.0.0.0.0.1.0.0.13.0.0.0" stroke="black" connectorname="1" id="circle52" cy="25.344" stroke-width="0.72"/>
               <path d="m3.888,21.6a1.872,1.872,0,0,1,1.872,1.872l0,3.744a1.872,1.872,0,0,1,-1.872,1.872l0,0A1.872,1.872,0,0,1,2.016,27.216L2.016,23.472A1.872,1.872,0,0,1,3.888,21.6Zm-1.152,3.744a1.152,1.152,0,1,0,2.304,0,1.152,1.152,0,1,0,-2.304,0z" fill="black" gorn="0.2.0.0.0.0.1.0.0.13.0.0.1" stroke="none" id="path52" stroke-width="0"/>
              </g>
             </g>
            </g>
           </g>
           <g transform="matrix(1, 0, 0, 1, 100.8, -79.2)">
            <g>
             <g>
              <g gorn="0.2.0.0.0.0.1.0.0.14.0.0" id="pin18">
               <circle fill="none" cx="3.888" r="1.512" gorn="0.2.0.0.0.0.1.0.0.14.0.0.0" stroke="black" connectorname="1" id="circle53" cy="25.344" stroke-width="0.72"/>
               <path d="m3.888,21.6a1.872,1.872,0,0,1,1.872,1.872l0,3.744a1.872,1.872,0,0,1,-1.872,1.872l0,0A1.872,1.872,0,0,1,2.016,27.216L2.016,23.472A1.872,1.872,0,0,1,3.888,21.6Zm-1.152,3.744a1.152,1.152,0,1,0,2.304,0,1.152,1.152,0,1,0,-2.304,0z" fill="black" gorn="0.2.0.0.0.0.1.0.0.14.0.0.1" stroke="none" id="path53" stroke-width="0"/>
              </g>
             </g>
            </g>
           </g>
           <g transform="matrix(1, 0, 0, 1, 108, -79.2)">
            <g>
             <g>
              <g gorn="0.2.0.0.0.0.1.0.0.15.0.0" id="pin17">
               <circle fill="none" cx="3.888" r="1.512" gorn="0.2.0.0.0.0.1.0.0.15.0.0.0" stroke="black" connectorname="1" id="circle54" cy="25.344" stroke-width="0.72"/>
               <path d="m3.888,21.6a1.872,1.872,0,0,1,1.872,1.872l0,3.744a1.872,1.872,0,0,1,-1.872,1.872l0,0A1.872,1.872,0,0,1,2.016,27.216L2.016,23.472A1.872,1.872,0,0,1,3.888,21.6Zm-1.152,3.744a1.152,1.152,0,1,0,2.304,0,1.152,1.152,0,1,0,-2.304,0z" fill="black" gorn="0.2.0.0.0.0.1.0.0.15.0.0.1" stroke="none" id="path54" stroke-width="0"/>
              </g>
             </g>
            </g>
           </g>
          </g>
         </g>
        </g>
       </g>
      </g>
     </g>
    </g>
   </g>
  </g>
 </g>
</svg>
